<?xml version="1.0" encoding="UTF-8" standalone="no"?>
<!DOCTYPE svg PUBLIC "-//W3C//DTD SVG 1.1//EN" "http://www.w3.org/Graphics/SVG/1.1/DTD/svg11.dtd">
<svg width="100%" height="100%" viewBox="0 0 621 223" version="1.1" xmlns="http://www.w3.org/2000/svg" xmlns:xlink="http://www.w3.org/1999/xlink" xml:space="preserve" xmlns:serif="http://www.serif.com/" style="fill-rule:evenodd;clip-rule:evenodd;stroke-linejoin:round;stroke-miterlimit:2;">
    <g transform="matrix(1,0,0,1,-879.143,-1799.2)">
        <g transform="matrix(1,0,0,1.00385,0,-7.79283)">
            <rect x="879.143" y="1800.05" width="620.204" height="221.585" style="fill:rgb(130,130,130);fill-opacity:0;"/>
        </g>
        <g transform="matrix(1,0,0,1,944.059,1614.5)">
            <path d="M222.186,247.001C219.387,250.869 216.379,253.186 213.163,253.954C211.223,254.423 208.977,254.267 206.424,253.486C201.971,252.119 198.911,249.319 197.245,245.087C196.464,243.069 196.073,240.979 196.073,238.818C196.073,236.852 196.392,234.827 197.03,232.744C198.384,228.316 200.669,224.944 203.885,222.626C206.281,220.895 208.892,220.029 211.717,220.029C213.228,220.029 214.797,220.276 216.424,220.771C219.393,221.682 222.076,223.388 224.471,225.888C226.06,227.542 226.854,229.215 226.854,230.908C226.854,231.454 226.77,232.001 226.6,232.548C226.353,233.382 225.845,234.007 225.077,234.423C224.647,234.645 224.172,234.755 223.651,234.755C223.26,234.755 222.837,234.69 222.382,234.56C221.73,234.352 221.307,233.395 221.112,231.689C220.839,229.241 220.552,227.626 220.253,226.845C219.563,224.983 218.273,223.759 216.385,223.173C215.461,222.9 214.569,222.763 213.71,222.763C209.113,222.763 205.663,226.539 203.358,234.091C202.746,236.083 202.44,237.932 202.44,239.638C202.44,241.474 202.792,243.147 203.495,244.658C204.706,247.275 206.737,249.02 209.589,249.892C211.568,250.491 213.628,250.481 215.77,249.863C217.912,249.244 219.771,247.991 221.346,246.103L222.186,247.001Z" style="fill:rgb(19,33,140);fill-rule:nonzero;"/>
            <path d="M223.202,251.337C225.129,250.908 226.561,249.553 227.499,247.275L236.932,224.189L238.358,224.15L248.397,246.552C249.048,247.984 249.628,248.961 250.135,249.482C250.695,250.068 251.464,250.348 252.44,250.322L252.499,251.747L239.335,252.216L239.276,250.771C241.893,250.68 243.176,249.898 243.124,248.427C243.098,247.867 242.915,247.177 242.577,246.357L236.112,230.615L229.374,246.826C229.1,247.75 228.97,248.447 228.983,248.915C229.009,249.632 229.315,250.169 229.901,250.527C230.487,250.885 231.509,251.044 232.967,251.005L233.026,252.431L223.241,252.763L223.202,251.337Z" style="fill:rgb(19,33,140);fill-rule:nonzero;"/>
            <path d="M270.448,218.642C270.474,218.941 270.487,219.228 270.487,219.501C270.487,221.428 269.803,222.451 268.436,222.568C268.007,222.607 266.444,221.448 263.749,219.091C262.447,217.945 261.177,217.431 259.94,217.548C258.625,217.652 257.766,218.421 257.362,219.853C256.932,221.337 256.796,222.952 256.952,224.697L257.733,233.72L264.979,233.095L264.647,235.693L257.967,236.279L259.706,256.201C259.823,257.529 260.109,258.382 260.565,258.759C261.268,259.358 262.811,259.553 265.194,259.345L265.331,260.927L250.37,262.236L250.214,260.654C251.945,260.497 253.078,260.165 253.612,259.658C254.341,258.954 254.621,257.626 254.452,255.673L252.792,236.728L247.635,237.177L247.948,234.579L252.577,234.189L252.186,229.814C252.134,229.163 252.108,228.525 252.108,227.9C252.108,224.905 252.779,222.314 254.12,220.126C255.93,217.197 258.658,215.576 262.303,215.263C264.764,215.042 266.708,215.221 268.133,215.8C269.559,216.38 270.331,217.327 270.448,218.642Z" style="fill:rgb(19,33,140);fill-rule:nonzero;"/>
            <path d="M295.253,239.814C293.586,246.389 290.318,250.107 285.448,250.966C284.146,251.201 282.922,251.318 281.776,251.318C275.096,251.318 271.125,247.731 269.862,240.556C269.706,239.671 269.628,238.805 269.628,237.958C269.628,235.302 270.376,232.757 271.874,230.322C273.801,227.158 276.464,225.276 279.862,224.677C280.839,224.508 281.783,224.423 282.694,224.423C284.699,224.423 286.555,224.84 288.26,225.673C290.747,226.884 292.473,228.896 293.436,231.708L273.69,235.185C273.651,236.253 273.697,237.151 273.827,237.88C274.348,240.836 275.682,243.264 277.831,245.165C279.576,246.715 281.431,247.49 283.397,247.49C283.866,247.49 284.335,247.444 284.803,247.353C287.954,246.806 290.383,245.523 292.089,243.505C293.052,242.372 293.651,241.07 293.885,239.599L295.253,239.814ZM286.268,231.513C285.956,229.768 285.24,228.388 284.12,227.372C282.896,226.253 281.438,225.843 279.745,226.142C278.052,226.441 276.665,227.366 275.585,228.915C274.621,230.283 274.042,231.884 273.846,233.72L286.268,231.513ZM292.382,213.388C292.382,213.857 292.284,214.293 292.089,214.697C291.854,215.152 291.483,215.556 290.975,215.908L281.815,222.275L279.549,222.275L287.792,212.685C288.703,211.63 289.602,211.103 290.487,211.103C291.75,211.103 292.382,211.865 292.382,213.388Z" style="fill:rgb(19,33,140);fill-rule:nonzero;"/>
        </g>
        <g transform="matrix(1,0,0,1,803.066,-398.2)">
            <g transform="matrix(1.6262,0,0,1.6262,-329.473,1968.38)">
                <path d="M615.621,264.404L554.961,264.404L554.961,204.524L615.621,204.524L615.621,264.404ZM606.921,215.204C606.921,213.724 606.161,212.984 604.641,212.984C603.161,212.984 602.421,213.724 602.421,215.204C602.421,216.884 603.161,217.724 604.641,217.724C605.161,217.724 605.671,217.514 606.171,217.094C606.671,216.674 606.921,216.044 606.921,215.204ZM601.401,210.824C601.401,210.304 601.131,209.784 600.591,209.264C600.051,208.744 599.481,208.484 598.881,208.484C598.441,208.484 597.961,208.754 597.441,209.294C596.921,209.834 596.661,210.384 596.661,210.944C596.661,211.464 596.841,211.944 597.201,212.384C597.681,212.944 598.281,213.224 599.001,213.224C600.601,213.224 601.401,212.424 601.401,210.824ZM611.421,220.964C611.421,220.564 611.221,220.084 610.821,219.524C610.341,218.804 609.741,218.444 609.021,218.444C608.301,218.444 607.701,218.784 607.221,219.464C606.821,219.984 606.621,220.444 606.621,220.844C606.621,222.404 607.421,223.184 609.021,223.184C610.621,223.184 611.421,222.444 611.421,220.964ZM594.621,208.184C594.621,207.584 594.401,207.024 593.961,206.504C593.521,205.984 593.001,205.724 592.401,205.724C591.841,205.724 591.281,206.004 590.721,206.564C590.161,207.124 589.881,207.624 589.881,208.064C589.881,208.624 590.101,209.164 590.541,209.684C590.981,210.204 591.601,210.464 592.401,210.464C593.881,210.464 594.621,209.704 594.621,208.184ZM614.121,227.444C614.121,226.964 613.921,226.474 613.521,225.974C613.121,225.474 612.541,225.224 611.781,225.224C611.221,225.224 610.681,225.424 610.161,225.824C609.641,226.224 609.381,226.764 609.381,227.444C609.381,228.124 609.611,228.714 610.071,229.214C610.531,229.714 611.101,229.964 611.781,229.964C612.301,229.964 612.821,229.704 613.341,229.184C613.861,228.664 614.121,228.084 614.121,227.444ZM587.661,207.224C587.661,206.824 587.461,206.344 587.061,205.784C586.541,205.064 585.941,204.704 585.261,204.704C584.781,204.704 584.271,204.984 583.731,205.544C583.191,206.104 582.921,206.664 582.921,207.224C582.921,207.624 583.121,208.104 583.521,208.664C584.041,209.344 584.661,209.684 585.381,209.684C585.901,209.684 586.411,209.464 586.911,209.024C587.411,208.584 587.661,207.984 587.661,207.224ZM614.901,234.704C614.901,233.024 614.141,232.184 612.621,232.184C611.981,232.184 611.451,232.434 611.031,232.934C610.611,233.434 610.401,234.024 610.401,234.704C610.401,235.224 610.581,235.704 610.941,236.144C611.421,236.704 612.021,236.984 612.741,236.984C613.221,236.984 613.701,236.774 614.181,236.354C614.661,235.934 614.901,235.384 614.901,234.704ZM614.121,241.724C614.121,241.364 613.881,240.854 613.401,240.194C612.921,239.534 612.381,239.204 611.781,239.204C611.101,239.204 610.531,239.474 610.071,240.014C609.611,240.554 609.381,241.124 609.381,241.724C609.381,242.204 609.591,242.694 610.011,243.194C610.431,243.694 611.021,243.944 611.781,243.944C612.341,243.944 612.871,243.744 613.371,243.344C613.871,242.944 614.121,242.404 614.121,241.724ZM580.641,208.184C580.641,207.664 580.461,207.184 580.101,206.744C579.621,206.224 578.961,205.964 578.121,205.964C576.641,205.964 575.901,206.704 575.901,208.184C575.901,208.744 576.111,209.264 576.531,209.744C576.951,210.224 577.481,210.464 578.121,210.464C579.801,210.464 580.641,209.704 580.641,208.184ZM573.921,210.824C573.921,210.264 573.711,209.734 573.291,209.234C572.871,208.734 572.321,208.484 571.641,208.484C571.081,208.484 570.521,208.764 569.961,209.324C569.401,209.884 569.121,210.424 569.121,210.944C569.121,211.464 569.341,211.944 569.781,212.384C570.261,212.944 570.881,213.224 571.641,213.224C573.161,213.224 573.921,212.424 573.921,210.824ZM611.421,248.324C611.421,247.804 611.201,247.284 610.761,246.764C610.321,246.244 609.781,245.984 609.141,245.984C608.541,245.984 608.001,246.184 607.521,246.584C606.921,247.064 606.621,247.644 606.621,248.324C606.621,248.884 606.851,249.424 607.311,249.944C607.771,250.464 608.341,250.724 609.021,250.724C609.581,250.724 610.121,250.494 610.641,250.034C611.161,249.574 611.421,249.004 611.421,248.324ZM606.921,253.964C606.921,253.324 606.701,252.744 606.261,252.224C605.821,251.704 605.281,251.444 604.641,251.444C604.041,251.444 603.521,251.714 603.081,252.254C602.641,252.794 602.421,253.364 602.421,253.964C602.421,255.444 603.161,256.184 604.641,256.184C606.161,256.184 606.921,255.444 606.921,253.964ZM609.381,234.464C609.381,227.984 607.001,222.364 602.241,217.604C597.481,212.844 591.821,210.464 585.261,210.464C578.781,210.464 573.181,212.824 568.461,217.544C563.741,222.264 561.381,227.904 561.381,234.464C561.381,240.984 563.661,246.624 568.221,251.384C572.901,256.264 578.581,258.704 585.261,258.704C591.861,258.704 597.561,256.264 602.361,251.384C607.041,246.584 609.381,240.944 609.381,234.464ZM568.401,215.324C568.401,214.764 568.161,214.234 567.681,213.734C567.201,213.234 566.601,212.984 565.881,212.984C565.401,212.984 564.911,213.194 564.411,213.614C563.911,214.034 563.661,214.564 563.661,215.204C563.661,215.604 563.841,216.084 564.201,216.644C564.641,217.364 565.201,217.724 565.881,217.724C566.521,217.724 567.101,217.484 567.621,217.004C568.141,216.524 568.401,215.964 568.401,215.324ZM563.901,220.844C563.901,220.244 563.701,219.694 563.301,219.194C562.901,218.694 562.341,218.444 561.621,218.444C561.101,218.444 560.561,218.724 560.001,219.284C559.441,219.844 559.161,220.404 559.161,220.964C559.161,221.444 559.401,221.934 559.881,222.434C560.361,222.934 560.901,223.184 561.501,223.184C563.101,223.184 563.901,222.404 563.901,220.844ZM601.401,258.344C601.401,257.784 601.181,257.244 600.741,256.724C600.301,256.204 599.721,255.944 599.001,255.944C598.321,255.944 597.761,256.194 597.321,256.694C596.881,257.194 596.661,257.744 596.661,258.344C596.661,258.904 596.881,259.434 597.321,259.934C597.761,260.434 598.321,260.684 599.001,260.684C599.561,260.684 600.101,260.444 600.621,259.964C601.141,259.484 601.401,258.944 601.401,258.344ZM561.141,227.444C561.141,226.964 560.931,226.474 560.511,225.974C560.091,225.474 559.561,225.224 558.921,225.224C557.401,225.224 556.641,225.964 556.641,227.444C556.641,229.124 557.401,229.964 558.921,229.964C559.441,229.964 559.941,229.754 560.421,229.334C560.901,228.914 561.141,228.284 561.141,227.444ZM594.621,260.984C594.621,260.464 594.411,259.954 593.991,259.454C593.571,258.954 593.041,258.704 592.401,258.704C591.801,258.704 591.261,258.904 590.781,259.304C590.181,259.784 589.881,260.424 589.881,261.224C589.881,261.624 590.171,262.094 590.751,262.634C591.331,263.174 591.881,263.444 592.401,263.444C592.881,263.444 593.371,263.214 593.871,262.754C594.371,262.294 594.621,261.704 594.621,260.984ZM560.421,234.584C560.421,234.104 560.141,233.584 559.581,233.024C559.021,232.464 558.461,232.184 557.901,232.184C557.421,232.184 556.881,232.464 556.281,233.024C555.681,233.584 555.381,234.144 555.381,234.704C555.381,235.144 555.661,235.634 556.221,236.174C556.781,236.714 557.341,236.984 557.901,236.984C559.581,236.984 560.421,236.184 560.421,234.584ZM587.661,261.944C587.661,260.464 586.901,259.724 585.381,259.724C584.741,259.724 584.171,259.934 583.671,260.354C583.171,260.774 582.921,261.304 582.921,261.944C582.921,262.464 583.101,262.944 583.461,263.384C583.941,263.944 584.581,264.224 585.381,264.224C586.901,264.224 587.661,263.464 587.661,261.944ZM561.141,241.724C561.141,240.044 560.361,239.204 558.801,239.204C558.121,239.204 557.591,239.484 557.211,240.044C556.831,240.604 556.641,241.164 556.641,241.724C556.641,243.204 557.401,243.944 558.921,243.944C560.401,243.944 561.141,243.204 561.141,241.724ZM580.641,260.984C580.641,260.464 580.461,259.984 580.101,259.544C579.621,258.984 578.961,258.704 578.121,258.704C577.641,258.704 577.151,258.914 576.651,259.334C576.151,259.754 575.901,260.304 575.901,260.984C575.901,261.344 576.081,261.804 576.441,262.364C576.921,263.084 577.481,263.444 578.121,263.444C578.721,263.444 579.291,263.204 579.831,262.724C580.371,262.244 580.641,261.664 580.641,260.984ZM563.901,248.324C563.901,246.764 563.141,245.984 561.621,245.984C561.101,245.984 560.561,246.244 560.001,246.764C559.441,247.284 559.161,247.804 559.161,248.324C559.161,248.844 559.441,249.374 560.001,249.914C560.561,250.454 561.061,250.724 561.501,250.724C563.101,250.724 563.901,249.924 563.901,248.324ZM573.921,258.344C573.921,256.744 573.161,255.944 571.641,255.944C571.201,255.944 570.701,256.164 570.141,256.604C569.461,257.124 569.121,257.704 569.121,258.344C569.121,258.864 569.391,259.384 569.931,259.904C570.471,260.424 571.001,260.684 571.521,260.684C573.121,260.684 573.921,259.904 573.921,258.344ZM568.401,254.084C568.401,253.564 568.201,253.024 567.801,252.464C567.281,251.784 566.641,251.444 565.881,251.444C565.401,251.444 564.911,251.724 564.411,252.284C563.911,252.844 563.661,253.404 563.661,253.964C563.661,254.444 563.861,254.934 564.261,255.434C564.661,255.934 565.201,256.184 565.881,256.184C567.561,256.184 568.401,255.484 568.401,254.084ZM597.381,246.944L588.741,246.944C587.781,245.184 586.841,243.424 585.921,241.664C584.201,238.504 582.981,236.924 582.261,236.924L580.761,236.924L580.761,246.944L572.961,246.944L572.961,221.984L588.501,221.984C590.781,221.984 592.541,222.644 593.781,223.964C595.021,225.284 595.641,226.944 595.641,228.944C595.641,230.904 595.211,232.374 594.351,233.354C593.491,234.334 591.921,235.244 589.641,236.084C591.321,236.764 592.901,238.404 594.381,241.004C595.381,242.964 596.381,244.944 597.381,246.944ZM588.141,229.604C588.141,229.284 587.981,228.844 587.661,228.284C587.221,227.564 586.741,227.204 586.221,227.204L580.701,227.204L580.701,232.184L584.961,232.184C585.761,232.184 586.491,231.944 587.151,231.464C587.811,230.984 588.141,230.364 588.141,229.604Z" style="fill:rgb(247,2,1);fill-rule:nonzero;"/>
            </g>
            <g transform="matrix(1.80954,0,0,1.80954,-251.02,1922.45)">
                <path d="M225.921,249.459C225.921,254.189 224.528,257.764 221.741,260.184C219.101,262.458 215.398,263.594 210.631,263.594C206.341,263.594 202.821,262.806 200.071,261.229C196.624,259.286 194.901,256.334 194.901,252.374L194.901,241.979L207.166,241.979C207.166,242.383 207.102,243.373 206.974,244.949C206.845,246.526 206.781,247.791 206.781,248.744C206.781,252.998 207.973,255.124 210.356,255.124C212.556,255.124 213.656,253.933 213.656,251.549C213.656,248.139 212.024,244.986 208.761,242.089C205.754,239.486 202.748,236.883 199.741,234.279C196.514,230.686 194.901,226.396 194.901,221.409C194.901,212.866 200.108,208.594 210.521,208.594C214.701,208.594 218.148,209.383 220.861,210.959C224.234,212.903 225.921,215.818 225.921,219.704L225.921,228.559L213.656,228.559C213.656,228.193 213.702,227.368 213.794,226.084C213.885,224.801 213.931,223.774 213.931,223.004C213.931,219.044 212.758,217.064 210.411,217.064C208.248,217.064 207.166,218.293 207.166,220.749C207.166,223.243 208.779,225.864 212.006,228.614C217.469,233.234 220.494,235.874 221.081,236.534C224.308,240.274 225.921,244.583 225.921,249.459ZM218.606,213.874C218.386,213.911 218.203,213.929 218.056,213.929C217.249,213.929 216.809,213.453 216.736,212.499C216.406,213.453 215.856,213.929 215.086,213.929C214.939,213.929 214.756,213.911 214.536,213.874C214.829,214.094 215.269,214.443 215.856,214.919C215.783,215.323 215.654,215.744 215.471,216.184C216.094,215.744 216.479,215.524 216.626,215.524C216.736,215.524 216.938,215.634 217.231,215.854C217.524,216.074 217.708,216.203 217.781,216.239C217.634,215.946 217.561,215.671 217.561,215.414C217.561,214.791 217.909,214.278 218.606,213.874ZM222.401,223.334C222.144,223.371 221.943,223.389 221.796,223.389C220.916,223.389 220.403,222.913 220.256,221.959C220.036,223.023 219.358,223.481 218.221,223.334C218.441,223.554 218.808,223.829 219.321,224.159C219.284,224.526 219.193,225.058 219.046,225.754C219.779,225.241 220.164,224.984 220.201,224.984C220.421,224.984 220.824,225.204 221.411,225.644C221.264,225.241 221.191,224.911 221.191,224.654C221.191,224.361 221.329,224.114 221.604,223.912C221.879,223.71 222.144,223.518 222.401,223.334ZM208.321,212.774C208.138,212.811 207.973,212.829 207.826,212.829C206.909,212.829 206.414,212.279 206.341,211.179C206.084,212.389 205.351,212.921 204.141,212.774C204.691,213.178 205.149,213.526 205.516,213.819C205.443,214.113 205.333,214.553 205.186,215.139C205.956,214.626 206.359,214.369 206.396,214.369C206.469,214.369 206.662,214.489 206.974,214.727C207.285,214.965 207.459,215.084 207.496,215.084C207.349,214.828 207.276,214.571 207.276,214.314C207.276,213.691 207.624,213.178 208.321,212.774ZM202.986,221.464C202.729,221.501 202.509,221.519 202.326,221.519C201.483,221.519 201.043,221.043 201.006,220.089C200.603,221.153 199.869,221.611 198.806,221.464C199.393,221.904 199.796,222.271 200.016,222.564C199.979,222.821 199.888,223.224 199.741,223.774C200.401,223.334 200.804,223.114 200.951,223.114C201.024,223.114 201.428,223.316 202.161,223.719C202.014,223.426 201.941,223.151 201.941,222.894C201.941,222.381 202.289,221.904 202.986,221.464ZM216.681,238.294C216.498,238.331 216.314,238.349 216.131,238.349C215.361,238.349 214.921,237.873 214.811,236.919C214.481,238.019 213.729,238.478 212.556,238.294C212.996,238.551 213.436,238.881 213.876,239.284C213.803,239.578 213.693,240.018 213.546,240.604C214.206,240.164 214.609,239.944 214.756,239.944C214.719,239.944 215.086,240.146 215.856,240.549C215.709,240.256 215.636,239.981 215.636,239.724C215.636,239.101 215.984,238.624 216.681,238.294ZM208.321,230.374C208.138,230.411 207.954,230.429 207.771,230.429C206.964,230.429 206.488,229.879 206.341,228.779C206.084,230.026 205.351,230.558 204.141,230.374C204.471,230.594 204.929,230.943 205.516,231.419C205.443,231.713 205.333,232.134 205.186,232.684C205.846,232.244 206.249,232.024 206.396,232.024C206.359,232.024 206.726,232.226 207.496,232.629C207.349,232.336 207.276,232.079 207.276,231.859C207.276,231.346 207.624,230.851 208.321,230.374ZM221.961,248.249L221.466,248.249C220.696,248.249 220.183,247.791 219.926,246.874C219.559,247.901 218.844,248.359 217.781,248.249C218.074,248.469 218.514,248.818 219.101,249.294C219.028,249.551 218.881,249.954 218.661,250.504C219.321,250.064 219.724,249.844 219.871,249.844C219.944,249.844 220.311,250.064 220.971,250.504C220.934,250.248 220.824,249.844 220.641,249.294C221.008,249.001 221.448,248.653 221.961,248.249ZM216.681,257.929C216.498,257.966 216.314,257.984 216.131,257.984C215.361,257.984 214.921,257.508 214.811,256.554C214.481,257.544 213.729,258.003 212.556,257.929C212.996,258.186 213.436,258.516 213.876,258.919C213.803,259.213 213.693,259.653 213.546,260.239C214.206,259.799 214.609,259.579 214.756,259.579C214.719,259.579 215.086,259.781 215.856,260.184C215.709,259.891 215.636,259.616 215.636,259.359C215.636,258.736 215.984,258.259 216.681,257.929ZM202.986,246.764C202.729,246.801 202.509,246.819 202.326,246.819C201.483,246.819 201.043,246.343 201.006,245.389C200.603,246.453 199.869,246.911 198.806,246.764C199.063,246.984 199.466,247.314 200.016,247.754C199.943,248.048 199.851,248.488 199.741,249.074C200.401,248.634 200.804,248.414 200.951,248.414C201.024,248.414 201.428,248.616 202.161,249.019C202.014,248.689 201.941,248.396 201.941,248.139C201.941,247.589 202.289,247.131 202.986,246.764ZM205.461,256.829C204.764,256.829 204.489,256.829 204.636,256.829C203.829,256.829 203.426,256.408 203.426,255.564C203.023,256.518 202.308,256.939 201.281,256.829C201.831,257.269 202.234,257.618 202.491,257.874C202.418,258.204 202.308,258.663 202.161,259.249C202.821,258.809 203.224,258.589 203.371,258.589C203.371,258.589 203.738,258.809 204.471,259.249C204.288,258.846 204.196,258.516 204.196,258.259C204.196,257.929 204.334,257.654 204.609,257.434C204.884,257.214 205.168,257.013 205.461,256.829Z" style="fill:rgb(19,33,140);fill-rule:nonzero;"/>
            </g>
            <g transform="matrix(1.83009,0,0,1.83009,-280.259,1938.31)">
                <path d="M285.441,198.464C285.601,198.864 285.931,199.094 286.431,199.154C286.931,199.214 287.281,199.384 287.481,199.664C286.721,200.184 286.341,200.864 286.341,201.704L286.581,204.464C286.821,205.624 286.941,206.464 286.941,206.984C286.701,206.944 286.341,206.584 285.861,205.904C285.461,205.224 285.021,204.704 284.541,204.344C284.181,203.984 283.621,203.804 282.861,203.804L281.541,204.944L280.101,206.144C279.621,206.464 279.141,206.644 278.661,206.684C278.661,207.644 278.521,208.704 278.241,209.864L277.881,212.564L277.881,213.224L279.741,213.044L283.101,212.864C282.501,213.904 280.941,216.164 278.421,219.644C277.181,220.804 275.521,221.384 273.441,221.384L271.041,221.144C269.841,220.904 268.761,220.784 267.801,220.784L267.801,231.404C269.121,232.084 270.081,233.024 270.681,234.224C271.281,235.424 271.901,237.024 272.541,239.024C272.541,241.144 272.381,243.044 272.061,244.724C271.741,246.404 271.301,247.824 270.741,248.984C272.021,248.744 273.161,248.004 274.161,246.764C275.081,245.404 275.721,244.004 276.081,242.564L276.081,241.844C276.081,240.444 275.981,239.104 275.781,237.824L274.941,232.484C274.781,231.484 274.631,230.534 274.491,229.634C274.351,228.734 274.281,228.044 274.281,227.564C274.281,224.564 275.861,222.424 279.021,221.144C280.701,221.144 282.101,221.264 283.221,221.504C284.341,221.744 285.281,222.304 286.041,223.184C287.001,225.064 287.481,226.724 287.481,228.164C287.481,229.844 287.191,231.494 286.611,233.114C286.031,234.734 285.161,236.624 284.001,238.784L281.961,242.864L282.081,246.284L282.201,248.144C282.681,248.344 283.581,248.444 284.901,248.444C285.661,247.364 286.041,245.404 286.041,242.564C286.561,242.564 286.931,242.804 287.151,243.284C287.371,243.764 287.521,244.084 287.601,244.244C287.681,244.404 287.761,244.544 287.841,244.664C287.721,245.544 287.581,246.334 287.421,247.034C287.261,247.734 287.021,248.494 286.701,249.314C286.381,250.134 285.581,250.824 284.301,251.384C283.221,251.384 282.301,251.174 281.541,250.754C280.781,250.334 280.321,249.744 280.161,248.984C280.161,247.304 280.401,245.654 280.881,244.034C281.361,242.414 281.721,241.294 281.961,240.674C282.201,240.054 282.601,239.144 283.161,237.944L285.381,232.844C285.581,232.204 285.741,231.544 285.861,230.864C285.981,230.184 286.041,229.464 286.041,228.704C286.041,227.744 285.841,226.584 285.441,225.224C285.001,224.664 284.481,224.324 283.881,224.204L280.161,224.084C278.641,225.284 277.881,226.944 277.881,229.064C277.881,230.064 278.011,231.534 278.271,233.474C278.531,235.414 278.661,236.884 278.661,237.884C278.541,239.204 278.241,240.534 277.761,241.874C277.281,243.214 276.791,244.294 276.291,245.114C275.791,245.934 275.331,246.614 274.911,247.154C274.491,247.694 273.921,248.284 273.201,248.924C272.481,249.564 271.581,250.184 270.501,250.784L257.241,250.544C259.161,249.904 260.241,249.004 260.481,247.844L260.541,245.324L260.661,243.764C260.661,243.084 260.501,242.584 260.181,242.264C259.101,242.264 258.201,242.564 257.481,243.164C256.761,243.764 256.171,244.334 255.711,244.874C255.251,245.414 254.781,246.044 254.301,246.764C253.901,247.244 253.461,247.784 252.981,248.384C252.501,248.984 251.981,249.504 251.421,249.944C250.621,250.704 249.621,251.084 248.421,251.084C248.261,251.084 247.951,251.024 247.491,250.904C247.031,250.784 246.561,250.664 246.081,250.544C245.481,250.184 244.961,249.784 244.521,249.344C244.081,248.904 243.711,248.394 243.411,247.814C243.111,247.234 242.831,246.524 242.571,245.684C242.311,244.844 242.121,244.004 242.001,243.164C242.001,241.684 242.081,240.334 242.241,239.114C242.401,237.894 242.701,236.674 243.141,235.454C243.581,234.234 244.061,233.074 244.581,231.974C245.101,230.874 245.871,229.524 246.891,227.924C247.911,226.324 249.401,224.444 251.361,222.284C251.361,221.684 251.181,221.144 250.821,220.664L249.201,218.924L247.881,217.604L246.021,218.204C245.101,218.564 244.441,218.744 244.041,218.744C243.841,218.744 243.341,218.564 242.541,218.204C241.981,217.284 241.701,216.384 241.701,215.504C242.061,214.064 242.241,212.884 242.241,211.964C242.401,211.844 242.601,211.584 242.841,211.184L243.141,210.524L243.741,210.524C243.341,211.564 243.141,212.724 243.141,214.004C243.141,215.044 243.521,215.844 244.281,216.404L246.681,216.164L246.681,208.484C247.201,206.884 248.271,205.544 249.891,204.464C251.511,203.384 253.381,202.564 255.501,202.004C258.621,202.004 260.181,201.524 260.181,200.564L259.341,199.664C257.821,199.664 256.481,199.684 255.321,199.724C254.161,199.764 253.161,199.844 252.321,199.964C251.521,199.964 250.781,200.054 250.101,200.234C249.421,200.414 248.601,200.734 247.641,201.194C246.681,201.654 245.781,202.524 244.941,203.804C244.661,203.964 244.281,204.504 243.801,205.424C243.321,206.344 242.801,206.864 242.241,206.984C242.401,206.584 242.561,205.844 242.721,204.764C242.881,203.684 243.031,202.584 243.171,201.464C243.311,200.344 243.601,199.244 244.041,198.164L285.441,198.464ZM282.201,201.704C281.081,200.344 279.141,199.664 276.381,199.664L273.621,199.784L270.201,199.964C269.641,200.084 269.101,200.434 268.581,201.014C268.061,201.594 267.801,202.224 267.801,202.904C270.521,203.664 272.901,204.044 274.941,204.044C278.261,204.044 280.681,203.264 282.201,201.704ZM276.981,206.084L279.141,205.184L280.941,204.344C281.261,204.144 281.551,203.954 281.811,203.774C282.071,203.594 282.391,203.334 282.771,202.994C283.151,202.654 283.481,202.224 283.761,201.704C281.601,204.024 277.681,205.184 272.001,205.184C273.321,205.784 274.981,206.084 276.981,206.084ZM258.081,202.904C255.281,202.904 252.761,203.664 250.521,205.184C248.321,207.064 247.221,209.244 247.221,211.724C247.221,212.724 247.381,213.764 247.701,214.844C248.061,215.804 248.501,216.424 249.021,216.704C248.621,215.064 248.421,213.784 248.421,212.864C248.421,212.384 248.461,211.884 248.541,211.364C248.621,210.844 248.781,210.064 249.021,209.024C250.541,207.064 252.071,205.554 253.611,204.494C255.151,203.434 256.641,202.904 258.081,202.904ZM260.181,223.484L260.181,203.804C258.901,203.804 257.721,204.054 256.641,204.554C255.561,205.054 254.001,205.964 251.961,207.284C251.801,207.524 251.531,208.024 251.151,208.784C250.771,209.544 250.441,210.224 250.161,210.824C250.041,211.224 249.921,211.704 249.801,212.264C249.681,212.824 249.621,213.324 249.621,213.764L252.861,211.424C254.941,211.424 256.301,211.804 256.941,212.564C256.941,214.204 256.741,215.564 256.341,216.644C255.941,217.724 255.161,218.924 254.001,220.244C254.001,220.964 254.131,221.494 254.391,221.834C254.651,222.174 254.901,222.464 255.141,222.704C255.381,222.944 255.681,223.204 256.041,223.484L257.241,224.324C257.241,222.164 257.521,220.684 258.081,219.884C258.481,219.924 258.731,220.074 258.831,220.334C258.931,220.594 259.031,220.944 259.131,221.384C259.231,221.824 259.281,222.204 259.281,222.524C259.281,222.964 259.311,223.284 259.371,223.484C259.431,223.684 259.501,223.884 259.581,224.084C259.821,224.004 259.961,223.924 260.001,223.844L260.181,223.484ZM269.841,204.944L270.741,204.944L270.741,204.644L269.841,204.644L269.841,204.944ZM272.001,206.684L268.161,205.544L267.801,209.384L269.601,208.784C269.961,208.624 270.241,208.494 270.441,208.394C270.641,208.294 270.891,208.124 271.191,207.884C271.491,207.644 271.761,207.244 272.001,206.684ZM277.521,207.284L273.441,206.984L272.781,210.824C273.221,210.744 273.741,210.464 274.341,209.984L276.021,208.604L277.521,207.284ZM272.001,209.024C268.561,209.864 266.481,211.444 265.761,213.764C265.761,214.924 265.861,215.804 266.061,216.404C266.181,217.004 266.581,217.404 267.261,217.604C267.261,217.044 267.291,216.654 267.351,216.434C267.411,216.214 267.571,215.874 267.831,215.414C268.091,214.954 268.351,214.544 268.611,214.184C268.871,213.824 269.181,213.424 269.541,212.984L271.221,210.824C271.461,210.424 271.721,209.824 272.001,209.024ZM277.521,209.384L274.461,211.364C274.181,211.524 273.871,211.734 273.531,211.994C273.191,212.254 272.851,212.534 272.511,212.834C272.171,213.134 271.871,213.444 271.611,213.764C271.351,214.084 271.051,214.554 270.711,215.174C270.371,215.794 270.201,216.604 270.201,217.604L273.681,216.164C274.961,215.644 275.901,214.804 276.501,213.644C276.701,213.124 276.891,212.514 277.071,211.814C277.251,211.114 277.401,210.304 277.521,209.384ZM254.901,214.904C254.661,213.944 253.981,213.464 252.861,213.464C251.381,213.904 250.401,214.584 249.921,215.504C250.121,216.064 250.331,216.634 250.551,217.214C250.771,217.794 250.991,218.304 251.211,218.744C251.431,219.184 251.881,219.684 252.561,220.244C253.761,219.004 254.541,217.224 254.901,214.904ZM278.421,214.724L275.661,217.904C274.341,219.584 273.301,220.544 272.541,220.784C273.861,220.784 274.941,220.494 275.781,219.914C276.621,219.334 277.211,218.884 277.551,218.564C277.891,218.244 278.181,217.884 278.421,217.484L280.821,213.764C279.861,213.764 279.061,214.084 278.421,214.724ZM269.301,215.264C268.901,215.824 268.701,216.804 268.701,218.204C269.101,217.164 269.301,216.184 269.301,215.264ZM242.841,216.404C243.281,217.204 244.161,217.604 245.481,217.604L242.841,216.404ZM270.741,219.344C272.941,218.944 274.341,218.064 274.941,216.704C274.181,216.944 273.441,217.284 272.721,217.724L270.501,219.104L270.741,219.344ZM261.921,219.104C261.921,220.624 262.041,221.384 262.281,221.384C262.281,219.984 262.161,219.224 261.921,219.104ZM269.601,219.344C268.801,219.344 268.401,219.444 268.401,219.644L269.601,219.644L269.601,219.344ZM283.101,222.584C282.661,222.224 281.981,222.044 281.061,222.044L279.861,222.224L278.181,223.004L276.621,223.724C275.661,225.364 275.181,226.844 275.181,228.164C275.181,229.484 275.601,231.384 276.441,233.864L277.881,238.424L277.641,235.544L277.161,232.184L276.981,229.304C276.981,228.624 277.161,227.444 277.521,225.764C278.481,223.644 280.341,222.584 283.101,222.584ZM258.441,223.484L258.441,222.824L258.081,222.284L258.441,223.484ZM257.841,225.764C257.281,225.564 256.361,225.024 255.081,224.144C253.921,223.264 252.961,222.744 252.201,222.584C250.001,225.184 248.191,228.114 246.771,231.374C245.351,234.634 244.641,237.684 244.641,240.524C244.641,243.004 245.501,245.144 247.221,246.944C248.621,246.944 249.841,246.724 250.881,246.284C251.921,245.844 253.121,245.134 254.481,244.154C255.841,243.174 256.601,242.614 256.761,242.474C256.921,242.334 257.131,242.204 257.391,242.084C257.651,241.964 258.061,241.824 258.621,241.664C259.181,241.504 259.621,241.284 259.941,241.004C260.301,240.804 260.481,240.344 260.481,239.624L259.221,239.444C258.901,239.444 258.601,239.394 258.321,239.294C258.041,239.194 257.701,239.074 257.301,238.934C256.901,238.794 256.601,238.444 256.401,237.884C256.921,237.484 258.081,237.284 259.881,237.284C259.521,236.444 258.901,235.884 258.021,235.604L255.321,234.944C254.441,234.664 253.821,234.164 253.461,233.444C252.221,233.804 251.341,234.384 250.821,235.184C250.621,235.184 250.521,235.484 250.521,236.084C250.521,237.604 250.801,238.584 251.361,239.024L252.201,239.624L253.161,239.384C253.601,239.144 253.981,239.024 254.301,239.024C254.541,239.024 254.821,239.224 255.141,239.624C255.141,240.824 254.381,241.804 252.861,242.564C251.501,242.564 250.461,242.464 249.741,242.264C249.021,242.064 248.401,241.584 247.881,240.824L247.701,238.964L247.581,235.484C248.981,233.004 251.801,231.344 256.041,230.504C254.321,229.264 253.461,227.804 253.461,226.124C253.981,226.124 254.421,226.244 254.781,226.484L255.861,227.444L256.641,228.164L257.841,225.764ZM265.761,223.484C265.561,223.564 265.381,223.604 265.221,223.604C265.101,223.604 264.991,223.614 264.891,223.634C264.791,223.654 264.701,223.684 264.621,223.724C264.781,223.564 265.161,223.484 265.761,223.484ZM261.501,226.304C260.861,226.304 260.421,226.424 260.181,226.664L261.561,226.544C262.321,226.544 262.741,226.404 262.821,226.124L261.501,226.304ZM260.181,228.164C260.181,227.564 259.781,227.264 258.981,227.264C258.621,227.704 258.441,228.184 258.441,228.704L260.181,228.164ZM259.881,231.644L258.981,232.004C258.661,232.084 258.361,232.264 258.081,232.544C258.361,232.784 258.661,232.984 258.981,233.144C259.141,233.024 259.341,232.724 259.581,232.244L259.881,231.644ZM256.461,232.364C256.381,232.284 256.061,232.244 255.501,232.244L254.901,232.244L256.641,232.904C256.641,232.664 256.621,232.524 256.581,232.484C256.541,232.444 256.501,232.404 256.461,232.364ZM260.181,232.904L261.021,232.544L260.781,232.544L260.181,232.904ZM271.341,244.664C271.781,242.784 272.001,241.684 272.001,241.364C272.001,239.684 271.621,238.104 270.861,236.624C270.221,235.184 269.201,233.944 267.801,232.904L267.801,234.344C270.161,236.864 271.341,240.304 271.341,244.664ZM263.421,234.344L263.421,235.844L263.721,235.844L263.721,234.344L263.421,234.344ZM260.481,234.344L260.241,234.404L260.061,234.584L259.881,234.944L260.181,235.184C260.261,235.104 260.331,234.994 260.391,234.854C260.451,234.714 260.481,234.544 260.481,234.344ZM251.961,241.064C250.001,239.584 249.021,237.724 249.021,235.484L248.421,238.784C248.661,240.304 249.841,241.064 251.961,241.064ZM268.161,236.384C268.161,237.504 268.281,238.404 268.521,239.084C268.601,239.484 268.721,239.894 268.881,240.314C269.041,240.734 269.201,241.144 269.361,241.544C269.521,241.784 269.691,242.124 269.871,242.564C270.051,243.004 270.161,243.304 270.201,243.464C270.201,240.824 269.521,238.464 268.161,236.384ZM243.741,236.984L243.441,238.784L243.741,238.784L243.741,236.984ZM246.681,247.844C245.361,246.964 244.491,245.844 244.071,244.484C243.651,243.124 243.441,241.404 243.441,239.324L243.141,244.904L243.741,246.464C244.101,247.264 244.281,247.824 244.281,248.144L245.601,249.164L246.621,249.704L247.881,249.884C249.881,249.644 251.241,248.884 251.961,247.604C251.801,247.684 251.641,247.744 251.481,247.784C251.321,247.824 251.041,247.844 250.641,247.844L246.681,247.844ZM268.161,246.944L268.701,244.664L267.801,242.564L268.161,246.944ZM270.741,245.504L270.741,246.104L271.101,246.104L271.101,245.504L270.741,245.504ZM282.201,249.344C281.281,248.344 280.821,247.644 280.821,247.244L281.361,249.884C281.801,249.884 282.181,250.004 282.501,250.244L283.401,250.544C283.761,250.544 284.061,250.324 284.301,249.884C284.141,249.724 283.761,249.644 283.161,249.644C282.641,249.644 282.321,249.544 282.201,249.344Z" style="fill:rgb(251,110,47);fill-rule:nonzero;"/>
            </g>
            <g transform="matrix(2.35051,0,0,2.35051,-397.211,1804.62)">
                <path d="M299.841,229.604C299.841,228.124 298.881,227.384 296.961,227.384C296.281,227.384 295.581,227.444 294.861,227.564C294.701,227.204 294.501,226.604 294.261,225.764C294.021,224.924 293.901,223.984 293.901,222.944C294.061,221.744 294.421,220.624 294.981,219.584C295.541,218.544 296.211,217.634 296.991,216.854C297.771,216.074 298.651,215.464 299.631,215.024C300.611,214.584 301.621,214.364 302.661,214.364C303.461,214.444 304.201,214.604 304.881,214.844C305.561,215.084 306.221,215.364 306.861,215.684C308.141,216.364 308.781,217.744 308.781,219.824C308.781,221.344 308.321,222.684 307.401,223.844C306.521,224.964 305.521,225.524 304.401,225.524C303.801,225.524 303.261,225.344 302.781,224.984C302.061,224.464 301.701,223.784 301.701,222.944C301.701,222.104 302.041,221.204 302.721,220.244C303.401,219.284 304.261,218.404 305.301,217.604C305.221,217.604 305.161,217.504 305.121,217.304C305.081,217.104 305.001,217.004 304.881,217.004C304.281,217.084 303.671,217.264 303.051,217.544C302.431,217.824 301.871,218.214 301.371,218.714C300.871,219.214 300.471,219.814 300.171,220.514C299.871,221.214 299.721,222.044 299.721,223.004C299.721,223.964 300.141,224.884 300.981,225.764C301.861,226.644 302.761,227.084 303.681,227.084C304.561,227.084 305.411,226.964 306.231,226.724C307.051,226.484 307.781,226.074 308.421,225.494C309.061,224.914 309.561,224.164 309.921,223.244C310.281,222.324 310.461,221.184 310.461,219.824C310.461,218.624 310.221,217.494 309.741,216.434C309.261,215.374 308.581,214.444 307.701,213.644C306.821,212.844 305.761,212.214 304.521,211.754C303.281,211.294 301.901,211.064 300.381,211.064C298.541,211.064 296.911,211.254 295.491,211.634C294.071,212.014 292.861,212.504 291.861,213.104C290.861,213.704 290.041,214.354 289.401,215.054C288.761,215.754 288.301,216.424 288.021,217.064C287.541,218.104 287.301,219.324 287.301,220.724C287.301,223.324 288.021,225.664 289.461,227.744C287.621,227.904 285.811,228.324 284.031,229.004C282.251,229.684 280.661,230.584 279.261,231.704C277.861,232.824 276.741,234.124 275.901,235.604C275.061,237.084 274.681,238.684 274.761,240.404C274.681,241.964 275.041,243.494 275.841,244.994C276.641,246.494 277.691,247.824 278.991,248.984C280.291,250.144 281.731,251.064 283.311,251.744C284.891,252.424 286.401,252.744 287.841,252.704C289.601,252.704 291.381,252.384 293.181,251.744C294.981,251.104 296.621,250.234 298.101,249.134C299.581,248.034 300.781,246.744 301.701,245.264C302.621,243.784 303.081,242.204 303.081,240.524C303.001,239.284 302.781,238.284 302.421,237.524C302.061,236.764 301.611,236.174 301.071,235.754C300.531,235.334 299.931,235.044 299.271,234.884C298.611,234.724 297.921,234.604 297.201,234.524C296.401,234.524 295.511,234.674 294.531,234.974C293.551,235.274 292.641,235.774 291.801,236.474C290.961,237.174 290.261,238.114 289.701,239.294C289.141,240.474 288.861,241.944 288.861,243.704C288.861,244.144 288.871,244.534 288.891,244.874C288.911,245.214 288.941,245.504 288.981,245.744L289.761,245.864C289.921,245.584 290.111,245.204 290.331,244.724C290.551,244.244 290.801,243.664 291.081,242.984C291.681,241.624 292.221,240.484 292.701,239.564C293.181,238.684 293.811,237.914 294.591,237.254C295.371,236.594 296.301,236.244 297.381,236.204C298.381,236.204 299.251,236.584 299.991,237.344C300.731,238.104 301.121,239.064 301.161,240.224C301.201,241.064 300.911,242.094 300.291,243.314C299.671,244.534 298.821,245.704 297.741,246.824C296.661,247.944 295.361,248.884 293.841,249.644C292.321,250.404 290.681,250.744 288.921,250.664C287.001,250.664 285.361,249.924 284.001,248.444C282.601,246.924 281.841,245.304 281.721,243.584C281.641,242.184 281.981,240.664 282.741,239.024C283.501,237.384 284.411,235.854 285.471,234.434C286.531,233.014 287.641,231.844 288.801,230.924C289.961,230.004 290.921,229.564 291.681,229.604C292.121,229.604 292.501,229.764 292.821,230.084C293.901,231.164 295.221,231.704 296.781,231.704C297.621,231.704 298.341,231.514 298.941,231.134C299.541,230.754 299.841,230.244 299.841,229.604Z" style="fill:rgb(142,189,31);fill-rule:nonzero;"/>
            </g>
            <g transform="matrix(2.18397,0,0,2.18397,-292.329,1845.82)">
                <path d="M283.061,241.104C282.901,241.371 282.821,241.638 282.821,241.904C282.821,242.438 283.194,242.704 283.941,242.704C284.208,242.491 284.594,242.171 285.101,241.744C285.608,241.318 286.234,240.758 286.981,240.064C288.474,238.731 289.594,237.771 290.341,237.184C290.661,237.024 290.874,236.944 290.981,236.944C291.088,236.944 291.141,236.998 291.141,237.104C290.181,238.384 289.408,239.958 288.821,241.824C288.234,243.691 287.941,245.424 287.941,247.024C287.941,250.491 289.221,252.411 291.781,252.784C293.381,252.784 294.941,252.478 296.461,251.864C297.981,251.251 299.448,250.424 300.861,249.384C302.274,248.344 303.634,247.118 304.941,245.704C306.248,244.291 307.514,242.784 308.741,241.184C308.794,240.918 308.834,240.704 308.861,240.544C308.888,240.384 308.901,240.278 308.901,240.224C308.901,239.958 308.741,239.771 308.421,239.664C308.208,239.664 307.941,239.718 307.621,239.824C307.194,240.144 306.688,240.584 306.101,241.144C305.514,241.704 304.794,242.358 303.941,243.104C302.341,244.598 300.941,245.784 299.741,246.664C298.541,247.544 297.434,248.118 296.421,248.384C296.261,248.011 296.181,247.584 296.181,247.104C296.181,246.144 296.421,245.091 296.901,243.944C297.381,242.798 298.141,241.371 299.181,239.664C300.221,237.958 301.541,235.878 303.141,233.424C304.741,230.971 306.634,227.984 308.821,224.464L298.661,224.464C296.848,226.278 295.168,228.024 293.621,229.704C292.074,231.384 290.688,232.891 289.461,234.224C288.234,235.558 287.034,236.864 285.861,238.144C284.688,239.424 283.754,240.411 283.061,241.104ZM304.341,215.824C304.821,217.264 305.968,217.984 307.781,217.984C308.794,217.984 309.728,217.718 310.581,217.184C311.594,216.651 312.408,215.891 313.021,214.904C313.634,213.918 313.941,212.944 313.941,211.984C313.941,211.504 313.888,211.104 313.781,210.784C313.301,209.344 312.101,208.624 310.181,208.624C309.114,208.624 308.154,208.864 307.301,209.344C306.341,209.878 305.568,210.624 304.981,211.584C304.394,212.544 304.101,213.504 304.101,214.464C304.101,214.998 304.181,215.451 304.341,215.824Z" style="fill:rgb(236,58,148);fill-rule:nonzero;"/>
            </g>
            <g transform="matrix(2.56177,0,0,2.56177,-918.066,1751.33)">
                <path d="M576.854,239.482C572.896,248.297 567.388,252.704 560.331,252.704C547.479,252.704 541.053,246.546 541.053,234.228C541.053,229.085 542.74,224.547 546.112,220.615C549.654,216.487 553.951,214.423 559.003,214.423C563.508,214.423 567.355,215.579 570.546,217.89C573.736,220.201 575.656,223.453 576.307,227.646L547.733,227.646C547.421,229.143 547.264,230.419 547.264,231.474C547.264,235.745 548.537,239.479 551.083,242.675C553.628,245.872 556.711,247.47 560.331,247.47C563.885,247.47 566.997,246.702 569.667,245.165C572.284,243.642 574.061,241.533 574.999,238.837L576.854,239.482ZM566.288,225.615C566.288,223.089 565.63,220.973 564.315,219.267C562.87,217.392 560.923,216.454 558.475,216.454C556.027,216.454 553.853,217.405 551.952,219.306C550.272,220.986 549.068,223.089 548.339,225.615L566.288,225.615Z" style="fill:rgb(3,178,239);fill-rule:nonzero;"/>
            </g>
            <g transform="matrix(2.94845,0,0,2.94845,-503.083,1653.67)">
                <path d="M328.941,234.544C329.074,232.811 329.208,231.384 329.341,230.264C329.474,229.144 329.581,228.431 329.661,228.124C329.741,227.818 329.788,227.964 329.801,228.564C329.814,229.164 329.768,230.304 329.661,231.984C329.528,234.064 329.361,236.084 329.161,238.044C328.961,240.004 328.701,241.824 328.381,243.504C328.061,245.184 327.661,246.698 327.181,248.044C326.701,249.391 326.114,250.478 325.421,251.304C324.488,252.424 323.541,252.938 322.581,252.844C321.621,252.751 320.808,252.011 320.141,250.624C319.661,249.638 319.328,248.364 319.141,246.804C318.954,245.244 318.848,243.544 318.821,241.704C318.794,239.864 318.801,237.964 318.841,236.004C318.881,234.044 318.901,232.171 318.901,230.384C318.901,228.598 318.834,226.978 318.701,225.524C318.568,224.071 318.301,222.931 317.901,222.104C317.608,221.491 317.268,221.191 316.881,221.204C316.494,221.218 316.101,221.464 315.701,221.944C315.008,222.771 314.421,224.031 313.941,225.724C313.461,227.418 313.061,229.398 312.741,231.664L312.741,252.704L308.941,252.704L308.941,222.064L312.741,222.064L312.741,227.384C313.061,225.998 313.448,224.731 313.901,223.584C314.354,222.438 314.901,221.478 315.541,220.704C316.474,219.558 317.401,219.091 318.321,219.304C319.241,219.518 320.008,220.264 320.621,221.544C321.021,222.344 321.301,223.511 321.461,225.044C321.621,226.578 321.728,228.291 321.781,230.184C321.834,232.078 321.861,234.051 321.861,236.104C321.861,238.131 321.874,240.058 321.901,241.884C321.928,243.711 322.001,245.331 322.121,246.744C322.241,248.158 322.448,249.184 322.741,249.824C323.408,251.211 324.181,251.384 325.061,250.344C325.541,249.731 325.981,248.978 326.381,248.084C326.781,247.191 327.141,246.104 327.461,244.824C327.781,243.544 328.061,242.058 328.301,240.364C328.541,238.671 328.754,236.731 328.941,234.544Z" style="fill:rgb(0,163,39);fill-rule:nonzero;"/>
            </g>
        </g>
    </g>
</svg>
