<?xml version="1.0" encoding="UTF-8" standalone="no"?>
<!DOCTYPE svg PUBLIC "-//W3C//DTD SVG 1.1//EN" "http://www.w3.org/Graphics/SVG/1.1/DTD/svg11.dtd">
<svg width="100%" height="100%" viewBox="0 0 621 223" version="1.1" xmlns="http://www.w3.org/2000/svg" xmlns:xlink="http://www.w3.org/1999/xlink" xml:space="preserve" xmlns:serif="http://www.serif.com/" style="fill-rule:evenodd;clip-rule:evenodd;stroke-linejoin:round;stroke-miterlimit:2;">
    <g transform="matrix(1,0,0,1,-879.143,-1799.2)">
        <g transform="matrix(1,0,0,1.00385,0,-7.79283)">
            <rect x="879.143" y="1800.05" width="620.204" height="221.585" style="fill:rgb(130,130,130);fill-opacity:0;"/>
        </g>
        <g transform="matrix(1,0,0,1,944.059,1614.5)">
            <path d="M222.186,247.001C219.387,250.869 216.379,253.186 213.163,253.954C211.223,254.423 208.977,254.267 206.424,253.486C201.971,252.119 198.911,249.319 197.245,245.087C196.464,243.069 196.073,240.979 196.073,238.818C196.073,236.852 196.392,234.827 197.03,232.744C198.384,228.316 200.669,224.944 203.885,222.626C206.281,220.895 208.892,220.029 211.717,220.029C213.228,220.029 214.797,220.276 216.424,220.771C219.393,221.682 222.076,223.388 224.471,225.888C226.06,227.542 226.854,229.215 226.854,230.908C226.854,231.454 226.77,232.001 226.6,232.548C226.353,233.382 225.845,234.007 225.077,234.423C224.647,234.645 224.172,234.755 223.651,234.755C223.26,234.755 222.837,234.69 222.382,234.56C221.73,234.352 221.307,233.395 221.112,231.689C220.839,229.241 220.552,227.626 220.253,226.845C219.563,224.983 218.273,223.759 216.385,223.173C215.461,222.9 214.569,222.763 213.71,222.763C209.113,222.763 205.663,226.539 203.358,234.091C202.746,236.083 202.44,237.932 202.44,239.638C202.44,241.474 202.792,243.147 203.495,244.658C204.706,247.275 206.737,249.02 209.589,249.892C211.568,250.491 213.628,250.481 215.77,249.863C217.912,249.244 219.771,247.991 221.346,246.103L222.186,247.001Z" style="fill:rgb(19,33,140);fill-rule:nonzero;"/>
            <path d="M223.202,251.337C225.129,250.908 226.561,249.553 227.499,247.275L236.932,224.189L238.358,224.15L248.397,246.552C249.048,247.984 249.628,248.961 250.135,249.482C250.695,250.068 251.464,250.348 252.44,250.322L252.499,251.747L239.335,252.216L239.276,250.771C241.893,250.68 243.176,249.898 243.124,248.427C243.098,247.867 242.915,247.177 242.577,246.357L236.112,230.615L229.374,246.826C229.1,247.75 228.97,248.447 228.983,248.915C229.009,249.632 229.315,250.169 229.901,250.527C230.487,250.885 231.509,251.044 232.967,251.005L233.026,252.431L223.241,252.763L223.202,251.337Z" style="fill:rgb(19,33,140);fill-rule:nonzero;"/>
            <path d="M270.448,218.642C270.474,218.941 270.487,219.228 270.487,219.501C270.487,221.428 269.803,222.451 268.436,222.568C268.007,222.607 266.444,221.448 263.749,219.091C262.447,217.945 261.177,217.431 259.94,217.548C258.625,217.652 257.766,218.421 257.362,219.853C256.932,221.337 256.796,222.952 256.952,224.697L257.733,233.72L264.979,233.095L264.647,235.693L257.967,236.279L259.706,256.201C259.823,257.529 260.109,258.382 260.565,258.759C261.268,259.358 262.811,259.553 265.194,259.345L265.331,260.927L250.37,262.236L250.214,260.654C251.945,260.497 253.078,260.165 253.612,259.658C254.341,258.954 254.621,257.626 254.452,255.673L252.792,236.728L247.635,237.177L247.948,234.579L252.577,234.189L252.186,229.814C252.134,229.163 252.108,228.525 252.108,227.9C252.108,224.905 252.779,222.314 254.12,220.126C255.93,217.197 258.658,215.576 262.303,215.263C264.764,215.042 266.708,215.221 268.133,215.8C269.559,216.38 270.331,217.327 270.448,218.642Z" style="fill:rgb(19,33,140);fill-rule:nonzero;"/>
            <path d="M295.253,239.814C293.586,246.389 290.318,250.107 285.448,250.966C284.146,251.201 282.922,251.318 281.776,251.318C275.096,251.318 271.125,247.731 269.862,240.556C269.706,239.671 269.628,238.805 269.628,237.958C269.628,235.302 270.376,232.757 271.874,230.322C273.801,227.158 276.464,225.276 279.862,224.677C280.839,224.508 281.783,224.423 282.694,224.423C284.699,224.423 286.555,224.84 288.26,225.673C290.747,226.884 292.473,228.896 293.436,231.708L273.69,235.185C273.651,236.253 273.697,237.151 273.827,237.88C274.348,240.836 275.682,243.264 277.831,245.165C279.576,246.715 281.431,247.49 283.397,247.49C283.866,247.49 284.335,247.444 284.803,247.353C287.954,246.806 290.383,245.523 292.089,243.505C293.052,242.372 293.651,241.07 293.885,239.599L295.253,239.814ZM286.268,231.513C285.956,229.768 285.24,228.388 284.12,227.372C282.896,226.253 281.438,225.843 279.745,226.142C278.052,226.441 276.665,227.366 275.585,228.915C274.621,230.283 274.042,231.884 273.846,233.72L286.268,231.513ZM292.382,213.388C292.382,213.857 292.284,214.293 292.089,214.697C291.854,215.152 291.483,215.556 290.975,215.908L281.815,222.275L279.549,222.275L287.792,212.685C288.703,211.63 289.602,211.103 290.487,211.103C291.75,211.103 292.382,211.865 292.382,213.388Z" style="fill:rgb(19,33,140);fill-rule:nonzero;"/>
        </g>
        <g transform="matrix(1,0,0,1,798.443,-1.42944)">
            <g transform="matrix(2.8379,0,0,2.8379,-450.299,1264.71)">
                <path d="M221.901,245.204C221.901,243.944 221.696,242.869 221.286,241.979C220.876,241.089 220.321,240.334 219.621,239.714C218.841,239.054 217.901,238.524 216.801,238.124C216.601,238.064 216.406,238.004 216.216,237.944C216.026,237.884 215.821,237.834 215.601,237.794L207.681,235.964C207.281,235.864 206.886,235.739 206.496,235.589C206.106,235.439 205.756,235.229 205.446,234.959C205.136,234.689 204.886,234.354 204.696,233.954C204.506,233.554 204.411,233.054 204.411,232.454C204.411,231.394 204.631,230.549 205.071,229.919C205.511,229.289 206.056,228.799 206.706,228.449C207.356,228.099 208.046,227.869 208.776,227.759C209.506,227.649 210.161,227.594 210.741,227.594C211.521,227.594 212.311,227.689 213.111,227.879C213.911,228.069 214.636,228.379 215.286,228.809C215.936,229.239 216.476,229.814 216.906,230.534C217.336,231.254 217.571,232.154 217.611,233.234L221.121,233.234C221.101,232.934 221.076,232.609 221.046,232.259C221.016,231.909 220.961,231.544 220.881,231.164C220.781,230.724 220.656,230.284 220.506,229.844C220.356,229.404 220.151,228.964 219.891,228.524C219.571,227.964 219.151,227.434 218.631,226.934C218.111,226.434 217.471,225.994 216.711,225.614C215.951,225.234 215.046,224.934 213.996,224.714C212.946,224.494 211.721,224.384 210.321,224.384C208.641,224.384 207.201,224.629 206.001,225.119C204.801,225.609 203.811,226.254 203.031,227.054C202.251,227.854 201.681,228.769 201.321,229.799C200.961,230.829 200.781,231.884 200.781,232.964C200.781,234.164 201.001,235.159 201.441,235.949C201.881,236.739 202.416,237.379 203.046,237.869C203.676,238.359 204.326,238.724 204.996,238.964C205.666,239.204 206.231,239.374 206.691,239.474L212.361,240.794C213.341,241.014 214.166,241.244 214.836,241.484C215.506,241.724 216.071,241.984 216.531,242.264C217.171,242.644 217.621,243.104 217.881,243.644C218.141,244.184 218.271,244.874 218.271,245.714C218.271,246.774 217.991,247.614 217.431,248.234C216.871,248.854 216.181,249.324 215.361,249.644C215.141,250.324 214.886,250.974 214.596,251.594C214.306,252.214 213.981,252.814 213.621,253.394C213.141,254.134 212.601,254.809 212.001,255.419C211.401,256.029 210.731,256.554 209.991,256.994C209.251,257.434 208.436,257.779 207.546,258.029C206.656,258.279 205.681,258.404 204.621,258.404C203.321,258.404 202.141,258.229 201.081,257.879C200.021,257.529 199.116,257.064 198.366,256.484C197.616,255.904 197.041,255.229 196.641,254.459C196.241,253.689 196.041,252.884 196.041,252.044C196.041,251.424 196.101,250.844 196.221,250.304C196.341,249.764 196.571,249.294 196.911,248.894C197.011,249.054 197.161,249.174 197.361,249.254C197.561,249.334 197.741,249.374 197.901,249.374C198.401,249.374 198.791,249.204 199.071,248.864C199.351,248.524 199.491,248.114 199.491,247.634C199.491,247.114 199.306,246.679 198.936,246.329C198.566,245.979 198.011,245.804 197.271,245.804C196.851,245.804 196.471,245.904 196.131,246.104C195.791,246.304 195.496,246.579 195.246,246.929C194.996,247.279 194.806,247.689 194.676,248.159C194.546,248.629 194.481,249.144 194.481,249.704C194.481,251.064 194.716,252.309 195.186,253.439C195.656,254.569 196.321,255.544 197.181,256.364C198.041,257.184 199.076,257.824 200.286,258.284C201.496,258.744 202.831,258.974 204.291,258.974C205.451,258.974 206.601,258.869 207.741,258.659C208.881,258.449 209.976,258.099 211.026,257.609C212.076,257.119 213.061,256.474 213.981,255.674C214.901,254.874 215.721,253.884 216.441,252.704C217.201,252.424 217.911,252.074 218.571,251.654C219.231,251.234 219.806,250.719 220.296,250.109C220.786,249.499 221.176,248.789 221.466,247.979C221.756,247.169 221.901,246.244 221.901,245.204Z" style="fill:rgb(19,33,140);fill-rule:nonzero;"/>
            </g>
            <g transform="matrix(2.26147,0,0,2.26147,-308.71,1427.69)">
                <path d="M243.983,247.353C243.15,249.085 241.6,250.497 239.335,251.591C237.29,252.581 235.22,253.076 233.124,253.076C230.311,253.076 228.124,252.285 226.561,250.703C224.999,249.121 224.217,246.91 224.217,244.072L224.217,221.142L219.628,221.142L230.741,209.345L230.741,216.572L243.358,216.572L241.327,221.142L230.741,221.142L230.741,242.138C230.741,246.734 232.655,249.033 236.483,249.033C237.941,249.033 239.178,248.707 240.194,248.056C240.272,248.017 241.385,247.249 243.534,245.751C243.833,245.751 243.983,246.285 243.983,247.353Z" style="fill:rgb(251,110,47);fill-rule:nonzero;"/>
            </g>
            <g transform="matrix(1.64578,0,0,1.64578,-255.896,1564.69)">
                <path d="M375.621,264.404L314.961,264.404L314.961,204.524L375.621,204.524L375.621,264.404ZM366.921,215.204C366.921,213.724 366.161,212.984 364.641,212.984C363.161,212.984 362.421,213.724 362.421,215.204C362.421,216.884 363.161,217.724 364.641,217.724C365.161,217.724 365.671,217.514 366.171,217.094C366.671,216.674 366.921,216.044 366.921,215.204ZM361.401,210.824C361.401,210.304 361.131,209.784 360.591,209.264C360.051,208.744 359.481,208.484 358.881,208.484C358.441,208.484 357.961,208.754 357.441,209.294C356.921,209.834 356.661,210.384 356.661,210.944C356.661,211.464 356.841,211.944 357.201,212.384C357.681,212.944 358.281,213.224 359.001,213.224C360.601,213.224 361.401,212.424 361.401,210.824ZM371.421,220.964C371.421,220.564 371.221,220.084 370.821,219.524C370.341,218.804 369.741,218.444 369.021,218.444C368.301,218.444 367.701,218.784 367.221,219.464C366.821,219.984 366.621,220.444 366.621,220.844C366.621,222.404 367.421,223.184 369.021,223.184C370.621,223.184 371.421,222.444 371.421,220.964ZM354.621,208.184C354.621,207.584 354.401,207.024 353.961,206.504C353.521,205.984 353.001,205.724 352.401,205.724C351.841,205.724 351.281,206.004 350.721,206.564C350.161,207.124 349.881,207.624 349.881,208.064C349.881,208.624 350.101,209.164 350.541,209.684C350.981,210.204 351.601,210.464 352.401,210.464C353.881,210.464 354.621,209.704 354.621,208.184ZM374.121,227.444C374.121,226.964 373.921,226.474 373.521,225.974C373.121,225.474 372.541,225.224 371.781,225.224C371.221,225.224 370.681,225.424 370.161,225.824C369.641,226.224 369.381,226.764 369.381,227.444C369.381,228.124 369.611,228.714 370.071,229.214C370.531,229.714 371.101,229.964 371.781,229.964C372.301,229.964 372.821,229.704 373.341,229.184C373.861,228.664 374.121,228.084 374.121,227.444ZM347.661,207.224C347.661,206.824 347.461,206.344 347.061,205.784C346.541,205.064 345.941,204.704 345.261,204.704C344.781,204.704 344.271,204.984 343.731,205.544C343.191,206.104 342.921,206.664 342.921,207.224C342.921,207.624 343.121,208.104 343.521,208.664C344.041,209.344 344.661,209.684 345.381,209.684C345.901,209.684 346.411,209.464 346.911,209.024C347.411,208.584 347.661,207.984 347.661,207.224ZM374.901,234.704C374.901,233.024 374.141,232.184 372.621,232.184C371.981,232.184 371.451,232.434 371.031,232.934C370.611,233.434 370.401,234.024 370.401,234.704C370.401,235.224 370.581,235.704 370.941,236.144C371.421,236.704 372.021,236.984 372.741,236.984C373.221,236.984 373.701,236.774 374.181,236.354C374.661,235.934 374.901,235.384 374.901,234.704ZM374.121,241.724C374.121,241.364 373.881,240.854 373.401,240.194C372.921,239.534 372.381,239.204 371.781,239.204C371.101,239.204 370.531,239.474 370.071,240.014C369.611,240.554 369.381,241.124 369.381,241.724C369.381,242.204 369.591,242.694 370.011,243.194C370.431,243.694 371.021,243.944 371.781,243.944C372.341,243.944 372.871,243.744 373.371,243.344C373.871,242.944 374.121,242.404 374.121,241.724ZM340.641,208.184C340.641,207.664 340.461,207.184 340.101,206.744C339.621,206.224 338.961,205.964 338.121,205.964C336.641,205.964 335.901,206.704 335.901,208.184C335.901,208.744 336.111,209.264 336.531,209.744C336.951,210.224 337.481,210.464 338.121,210.464C339.801,210.464 340.641,209.704 340.641,208.184ZM333.921,210.824C333.921,210.264 333.711,209.734 333.291,209.234C332.871,208.734 332.321,208.484 331.641,208.484C331.081,208.484 330.521,208.764 329.961,209.324C329.401,209.884 329.121,210.424 329.121,210.944C329.121,211.464 329.341,211.944 329.781,212.384C330.261,212.944 330.881,213.224 331.641,213.224C333.161,213.224 333.921,212.424 333.921,210.824ZM371.421,248.324C371.421,247.804 371.201,247.284 370.761,246.764C370.321,246.244 369.781,245.984 369.141,245.984C368.541,245.984 368.001,246.184 367.521,246.584C366.921,247.064 366.621,247.644 366.621,248.324C366.621,248.884 366.851,249.424 367.311,249.944C367.771,250.464 368.341,250.724 369.021,250.724C369.581,250.724 370.121,250.494 370.641,250.034C371.161,249.574 371.421,249.004 371.421,248.324ZM366.921,253.964C366.921,253.324 366.701,252.744 366.261,252.224C365.821,251.704 365.281,251.444 364.641,251.444C364.041,251.444 363.521,251.714 363.081,252.254C362.641,252.794 362.421,253.364 362.421,253.964C362.421,255.444 363.161,256.184 364.641,256.184C366.161,256.184 366.921,255.444 366.921,253.964ZM369.381,234.464C369.381,227.984 367.001,222.364 362.241,217.604C357.481,212.844 351.821,210.464 345.261,210.464C338.781,210.464 333.181,212.824 328.461,217.544C323.741,222.264 321.381,227.904 321.381,234.464C321.381,240.984 323.661,246.624 328.221,251.384C332.901,256.264 338.581,258.704 345.261,258.704C351.861,258.704 357.561,256.264 362.361,251.384C367.041,246.584 369.381,240.944 369.381,234.464ZM328.401,215.324C328.401,214.764 328.161,214.234 327.681,213.734C327.201,213.234 326.601,212.984 325.881,212.984C325.401,212.984 324.911,213.194 324.411,213.614C323.911,214.034 323.661,214.564 323.661,215.204C323.661,215.604 323.841,216.084 324.201,216.644C324.641,217.364 325.201,217.724 325.881,217.724C326.521,217.724 327.101,217.484 327.621,217.004C328.141,216.524 328.401,215.964 328.401,215.324ZM323.901,220.844C323.901,220.244 323.701,219.694 323.301,219.194C322.901,218.694 322.341,218.444 321.621,218.444C321.101,218.444 320.561,218.724 320.001,219.284C319.441,219.844 319.161,220.404 319.161,220.964C319.161,221.444 319.401,221.934 319.881,222.434C320.361,222.934 320.901,223.184 321.501,223.184C323.101,223.184 323.901,222.404 323.901,220.844ZM361.401,258.344C361.401,257.784 361.181,257.244 360.741,256.724C360.301,256.204 359.721,255.944 359.001,255.944C358.321,255.944 357.761,256.194 357.321,256.694C356.881,257.194 356.661,257.744 356.661,258.344C356.661,258.904 356.881,259.434 357.321,259.934C357.761,260.434 358.321,260.684 359.001,260.684C359.561,260.684 360.101,260.444 360.621,259.964C361.141,259.484 361.401,258.944 361.401,258.344ZM321.141,227.444C321.141,226.964 320.931,226.474 320.511,225.974C320.091,225.474 319.561,225.224 318.921,225.224C317.401,225.224 316.641,225.964 316.641,227.444C316.641,229.124 317.401,229.964 318.921,229.964C319.441,229.964 319.941,229.754 320.421,229.334C320.901,228.914 321.141,228.284 321.141,227.444ZM354.621,260.984C354.621,260.464 354.411,259.954 353.991,259.454C353.571,258.954 353.041,258.704 352.401,258.704C351.801,258.704 351.261,258.904 350.781,259.304C350.181,259.784 349.881,260.424 349.881,261.224C349.881,261.624 350.171,262.094 350.751,262.634C351.331,263.174 351.881,263.444 352.401,263.444C352.881,263.444 353.371,263.214 353.871,262.754C354.371,262.294 354.621,261.704 354.621,260.984ZM320.421,234.584C320.421,234.104 320.141,233.584 319.581,233.024C319.021,232.464 318.461,232.184 317.901,232.184C317.421,232.184 316.881,232.464 316.281,233.024C315.681,233.584 315.381,234.144 315.381,234.704C315.381,235.144 315.661,235.634 316.221,236.174C316.781,236.714 317.341,236.984 317.901,236.984C319.581,236.984 320.421,236.184 320.421,234.584ZM347.661,261.944C347.661,260.464 346.901,259.724 345.381,259.724C344.741,259.724 344.171,259.934 343.671,260.354C343.171,260.774 342.921,261.304 342.921,261.944C342.921,262.464 343.101,262.944 343.461,263.384C343.941,263.944 344.581,264.224 345.381,264.224C346.901,264.224 347.661,263.464 347.661,261.944ZM321.141,241.724C321.141,240.044 320.361,239.204 318.801,239.204C318.121,239.204 317.591,239.484 317.211,240.044C316.831,240.604 316.641,241.164 316.641,241.724C316.641,243.204 317.401,243.944 318.921,243.944C320.401,243.944 321.141,243.204 321.141,241.724ZM340.641,260.984C340.641,260.464 340.461,259.984 340.101,259.544C339.621,258.984 338.961,258.704 338.121,258.704C337.641,258.704 337.151,258.914 336.651,259.334C336.151,259.754 335.901,260.304 335.901,260.984C335.901,261.344 336.081,261.804 336.441,262.364C336.921,263.084 337.481,263.444 338.121,263.444C338.721,263.444 339.291,263.204 339.831,262.724C340.371,262.244 340.641,261.664 340.641,260.984ZM323.901,248.324C323.901,246.764 323.141,245.984 321.621,245.984C321.101,245.984 320.561,246.244 320.001,246.764C319.441,247.284 319.161,247.804 319.161,248.324C319.161,248.844 319.441,249.374 320.001,249.914C320.561,250.454 321.061,250.724 321.501,250.724C323.101,250.724 323.901,249.924 323.901,248.324ZM333.921,258.344C333.921,256.744 333.161,255.944 331.641,255.944C331.201,255.944 330.701,256.164 330.141,256.604C329.461,257.124 329.121,257.704 329.121,258.344C329.121,258.864 329.391,259.384 329.931,259.904C330.471,260.424 331.001,260.684 331.521,260.684C333.121,260.684 333.921,259.904 333.921,258.344ZM328.401,254.084C328.401,253.564 328.201,253.024 327.801,252.464C327.281,251.784 326.641,251.444 325.881,251.444C325.401,251.444 324.911,251.724 324.411,252.284C323.911,252.844 323.661,253.404 323.661,253.964C323.661,254.444 323.861,254.934 324.261,255.434C324.661,255.934 325.201,256.184 325.881,256.184C327.561,256.184 328.401,255.484 328.401,254.084ZM355.881,246.944L334.701,246.944L334.701,221.984L355.341,221.984L355.341,227.444L342.441,227.444L342.441,231.104L354.381,231.104L354.381,236.444L342.441,236.444L342.441,241.364L355.881,241.364L355.881,246.944Z" style="fill:rgb(142,189,31);fill-rule:nonzero;"/>
            </g>
            <g transform="matrix(1.65911,0,0,1.65911,-77.9039,1580.68)">
                <path d="M276.501,205.904L288.821,205.904L288.821,193.184L276.501,193.184L276.501,205.904ZM276.501,252.704L288.821,252.704L288.821,206.704L276.501,206.704L276.501,252.704Z" style="fill:rgb(236,58,148);fill-rule:nonzero;"/>
            </g>
            <g transform="matrix(2.19386,0,0,2.19386,-384.987,1443.3)">
                <path d="M380.721,253.604L395.481,232.064L395.481,253.604L409.761,253.604L409.761,208.844L395.961,208.844L381.141,230.564L381.141,208.844L366.861,208.844L366.861,253.604L380.721,253.604Z" style="fill:rgb(0,163,39);fill-rule:nonzero;"/>
            </g>
            <g transform="matrix(1.85459,0,0,1.85459,-100.487,1527.8)">
                <path d="M348.901,224.354C349.554,222.394 350.908,221.414 352.961,221.414C354.174,221.414 355.201,221.834 356.041,222.674C356.881,223.514 357.301,224.541 357.301,225.754C357.301,226.968 356.881,227.994 356.041,228.834C355.201,229.674 354.174,230.094 352.961,230.094C350.908,230.094 349.554,229.114 348.901,227.154L345.051,227.154L345.051,249.904L358.071,249.904C358.678,247.758 360.078,246.684 362.271,246.684C363.484,246.684 364.511,247.104 365.351,247.944C366.191,248.784 366.611,249.811 366.611,251.024C366.611,252.238 366.191,253.264 365.351,254.104C364.511,254.944 363.484,255.364 362.271,255.364C360.358,255.364 359.028,254.478 358.281,252.704L342.251,252.704L342.251,203.704L358.141,203.704C358.701,201.604 360.078,200.554 362.271,200.554C363.484,200.554 364.511,200.974 365.351,201.814C366.191,202.654 366.611,203.681 366.611,204.894C366.611,206.108 366.191,207.134 365.351,207.974C364.511,208.814 363.484,209.234 362.271,209.234C360.311,209.234 358.981,208.324 358.281,206.504L345.051,206.504L345.051,224.354L348.901,224.354Z" style="fill:rgb(3,178,239);fill-rule:nonzero;"/>
            </g>
            <g transform="matrix(1.63585,0,0,1.63585,-362.787,1566.83)">
                <path d="M638.241,234.584C638.241,243.584 635.041,250.904 628.641,256.544C622.561,261.864 614.981,264.524 605.901,264.524C598.581,264.524 592.161,261.284 586.641,254.804C581.321,248.644 578.661,241.884 578.661,234.524C578.661,226.324 581.571,219.294 587.391,213.434C593.211,207.574 600.201,204.644 608.361,204.644C616.521,204.644 623.541,207.584 629.421,213.464C635.301,219.344 638.241,226.384 638.241,234.584ZM636.861,234.704L634.161,234.704L634.161,234.284L636.861,234.284L636.861,233.084C636.861,232.324 636.721,231.264 636.441,229.904C636.281,229.864 635.401,229.964 633.801,230.204L633.801,229.844L636.321,229.364L635.241,225.044L632.781,225.884L632.481,225.584L634.941,224.624L633.261,220.544L630.861,221.864L630.621,221.444L633.021,220.004C632.501,219.124 631.621,217.924 630.381,216.404L628.281,218.204L627.921,217.844L630.141,215.984C628.981,214.704 627.901,213.664 626.901,212.864L625.101,214.904L624.801,214.664L626.661,212.504C625.581,211.584 624.341,210.704 622.941,209.864L621.441,212.324L621.141,212.024L622.521,209.624L618.501,207.704L617.301,210.344L617.061,210.224L618.021,207.524C617.901,207.444 616.461,207.044 613.701,206.324L613.101,209.204L612.681,209.084L613.221,206.264C611.941,205.904 610.401,205.784 608.601,205.904L608.601,208.784L608.181,208.784L608.181,205.904L605.661,205.904C605.661,205.904 605.001,206.024 603.681,206.264L604.101,209.204L603.801,209.204C603.601,208.524 603.401,207.564 603.201,206.324C602.441,206.444 601.701,206.584 600.981,206.744C600.101,206.944 599.401,207.204 598.881,207.524L599.841,210.164L599.421,210.344L598.341,207.584L594.321,209.504L595.761,212.084L595.341,212.324L593.841,209.804C592.961,210.284 591.761,211.184 590.241,212.504L592.041,214.664L591.681,214.904L589.821,212.744C588.541,213.904 587.501,214.984 586.701,215.984L588.861,217.844L588.501,218.204L586.341,216.284C585.541,217.084 584.701,218.344 583.821,220.064L586.281,221.504L586.041,221.864L583.521,220.484L581.661,224.504L584.301,225.644L584.061,225.884L581.481,225.044C580.961,226.244 580.601,227.644 580.401,229.244L583.101,229.904L582.861,230.264L580.281,229.784C579.921,232.064 579.781,233.564 579.861,234.284L582.741,234.284L582.741,234.704L579.861,234.704L579.861,235.964C579.861,236.644 580.001,237.744 580.281,239.264L582.801,238.784L583.101,239.144L580.341,239.684L580.341,240.104C580.341,240.504 580.681,241.804 581.361,244.004L584.121,243.104L584.301,243.464L581.661,244.544L583.461,248.564L586.041,247.184L586.281,247.544L583.701,249.104C584.221,249.984 585.101,251.184 586.341,252.704L588.501,250.844L588.861,251.204L586.581,253.184C587.741,254.424 588.821,255.464 589.821,256.304L591.681,254.144L592.041,254.384L590.121,256.664L593.781,259.244L595.461,256.664L595.761,256.964L594.321,259.544L598.341,261.464L599.481,258.584L599.841,258.824L598.761,261.584C601.001,262.344 602.481,262.724 603.201,262.724L603.801,259.844L604.221,259.904L603.681,262.844C604.841,263.244 606.341,263.364 608.181,263.204L608.181,260.264L608.601,260.264L608.601,263.204L611.241,263.204C611.241,263.204 611.881,263.064 613.161,262.784L612.801,259.844L613.701,262.724L614.241,262.724C614.361,262.724 615.621,262.324 618.021,261.524L617.061,258.884L617.361,258.584L618.501,261.344C619.101,261.104 620.461,260.504 622.581,259.544L621.141,256.904L621.441,256.664L622.941,259.244C624.501,258.204 625.741,257.304 626.661,256.544L624.801,254.384L624.921,254.084C625.521,254.524 626.221,255.264 627.021,256.304L630.201,253.064L627.921,251.204L628.281,250.844L630.501,252.704C631.661,251.104 632.481,249.844 632.961,248.924L630.621,247.424L630.861,247.184L633.261,248.564L635.061,244.424L632.481,243.404L632.661,243.104L635.241,244.004L636.321,239.684C636.161,239.724 635.321,239.564 633.801,239.204L633.801,238.844L634.101,238.784L636.561,239.084C636.801,237.084 636.901,235.624 636.861,234.704ZM629.361,223.064C629.361,223.264 629.231,223.474 628.971,223.694C628.711,223.914 628.481,224.024 628.281,224.024C627.601,224.024 627.261,223.564 627.261,222.644C627.261,221.604 627.601,221.084 628.281,221.084C628.921,221.084 629.241,221.344 629.241,221.864L628.641,221.864L628.641,221.744C628.681,221.544 628.561,221.444 628.281,221.444C628.121,221.444 627.981,221.564 627.861,221.804L627.921,222.224C628.041,222.104 628.201,222.044 628.401,222.044C629.041,222.044 629.361,222.384 629.361,223.064ZM620.901,215.384C620.901,215.944 620.561,216.224 619.881,216.224C619.241,216.224 618.941,215.964 618.981,215.444L618.981,215.324L619.401,215.324C619.601,215.644 619.781,215.804 619.941,215.804C620.261,215.804 620.421,215.664 620.421,215.384C620.421,214.904 620.161,214.744 619.641,214.904C619.801,214.784 620.021,214.584 620.301,214.304L620.301,213.884C620.141,213.724 620.041,213.644 620.001,213.644C619.681,213.644 619.521,213.804 619.521,214.124L619.041,214.124C619.121,213.524 619.441,213.224 620.001,213.224C620.601,213.224 620.901,213.504 620.901,214.064C620.901,214.224 620.781,214.424 620.541,214.664C620.781,214.864 620.901,215.104 620.901,215.384ZM632.781,233.444L631.521,233.444L631.521,234.104C631.681,234.144 631.841,234.164 632.001,234.164L632.241,234.164C632.401,234.164 632.581,234.144 632.781,234.104L632.781,234.644C632.541,234.604 632.341,234.584 632.181,234.584L631.941,234.584C631.821,234.584 631.681,234.604 631.521,234.644L631.521,235.484L632.781,235.484L632.781,235.904L630.921,235.904L630.921,232.964L632.781,232.964L632.781,233.444ZM609.501,213.104L609.081,213.104C608.601,212.264 608.141,211.544 607.701,210.944C607.661,211.264 607.641,211.604 607.641,211.964C607.641,212.324 607.681,212.704 607.761,213.104L607.281,213.104L607.281,210.164L607.821,210.164C608.061,210.484 608.481,211.184 609.081,212.264C609.121,211.984 609.141,211.684 609.141,211.364C609.141,211.004 609.121,210.604 609.081,210.164L609.501,210.164L609.501,213.104ZM629.901,245.024C629.901,245.704 629.521,246.204 628.761,246.524C628.881,246.564 629.041,246.584 629.241,246.584C629.441,246.584 629.661,246.564 629.901,246.524L629.901,247.064L628.161,247.064L628.161,246.524C628.401,246.284 628.671,246.014 628.971,245.714C629.271,245.414 629.421,245.184 629.421,245.024C629.421,244.704 629.301,244.544 629.061,244.544C628.941,244.544 628.801,244.704 628.641,245.024L628.161,245.024L628.161,244.904C628.161,244.384 628.441,244.124 629.001,244.124C629.601,244.124 629.901,244.424 629.901,245.024ZM598.341,215.444C598.341,216.004 598.001,216.284 597.321,216.284C596.681,216.284 596.361,216.044 596.361,215.564C596.361,215.524 596.381,215.484 596.421,215.444L596.961,215.444C596.961,215.764 597.121,215.924 597.441,215.924C597.721,215.924 597.861,215.764 597.861,215.444C597.861,215.124 597.681,214.964 597.321,214.964C597.201,214.964 597.121,214.984 597.081,215.024C597.121,214.864 597.241,214.734 597.441,214.634C597.641,214.534 597.741,214.364 597.741,214.124C597.741,213.884 597.641,213.764 597.441,213.764C597.121,213.764 596.961,213.924 596.961,214.244L596.481,214.244C596.601,213.644 596.921,213.344 597.441,213.344C597.961,213.344 598.221,213.604 598.221,214.124C598.221,214.404 598.141,214.624 597.981,214.784C598.021,214.824 598.101,214.844 598.221,214.844C598.221,214.924 598.241,215.024 598.281,215.144C598.321,215.264 598.341,215.364 598.341,215.444ZM627.921,247.064L627.381,247.064C627.421,246.664 627.441,246.324 627.441,246.044L627.441,245.624C627.441,245.424 627.421,245.144 627.381,244.784C627.341,244.864 627.181,244.964 626.901,245.084C626.901,245.004 626.971,244.844 627.111,244.604C627.251,244.364 627.381,244.244 627.501,244.244L627.921,244.244L627.921,247.064ZM596.301,215.624C596.301,215.704 596.281,215.764 596.241,215.804C595.841,216.124 595.501,216.284 595.221,216.284C594.621,216.284 594.321,216.044 594.321,215.564L594.321,215.444L594.801,215.444C594.841,215.764 595.001,215.924 595.281,215.924C595.601,215.924 595.761,215.764 595.761,215.444C595.761,215.124 595.501,214.984 594.981,215.024C595.101,214.904 595.341,214.684 595.701,214.364L595.701,214.004C595.501,213.844 595.381,213.764 595.341,213.764C595.021,213.764 594.861,213.924 594.861,214.244L594.381,214.244C594.461,213.644 594.781,213.344 595.341,213.344C595.981,213.344 596.301,213.624 596.301,214.184C596.301,214.344 596.161,214.544 595.881,214.784C596.161,215.064 596.301,215.344 596.301,215.624ZM619.701,244.124C619.141,244.764 618.121,245.084 616.641,245.084L613.641,245.084C613.201,245.084 612.451,243.544 611.391,240.464C610.331,237.384 609.421,235.844 608.661,235.844C608.341,235.844 607.661,235.864 606.621,235.904L604.581,235.904L604.581,243.944C604.781,244.184 605.121,244.324 605.601,244.364C605.961,244.404 606.341,244.424 606.741,244.424L606.741,244.844L598.101,244.844L597.981,244.424C598.101,244.384 598.501,244.364 599.181,244.364C599.501,244.364 599.781,244.224 600.021,243.944L600.021,227.564C599.861,227.284 599.381,227.144 598.581,227.144C598.581,227.144 598.381,227.124 597.981,227.084L598.101,226.724L611.241,226.724C612.521,226.724 613.791,227.164 615.051,228.044C616.311,228.924 616.941,229.964 616.941,231.164C616.941,232.484 616.341,233.544 615.141,234.344C614.181,235.024 612.981,235.424 611.541,235.544C612.221,235.744 612.931,235.944 613.671,236.144C614.411,236.344 615.001,236.724 615.441,237.284C615.641,237.604 616.081,239.004 616.761,241.484C617.241,243.284 618.021,244.184 619.101,244.184C619.301,244.184 619.501,244.164 619.701,244.124ZM590.841,222.704C590.841,223.704 590.501,224.204 589.821,224.204C589.181,224.204 588.861,223.724 588.861,222.764C588.861,221.764 589.201,221.264 589.881,221.264C590.521,221.264 590.841,221.744 590.841,222.704ZM621.921,254.984C621.921,255.744 621.601,256.124 620.961,256.124C620.481,256.124 620.181,255.824 620.061,255.224L620.601,255.224C620.761,255.464 620.901,255.584 621.021,255.584C621.341,255.584 621.501,255.384 621.501,254.984C621.501,254.664 621.341,254.504 621.021,254.504C620.981,254.504 620.681,254.644 620.121,254.924L620.121,253.124L621.681,253.124C621.361,253.244 621.041,253.364 620.721,253.484C620.681,253.524 620.621,253.744 620.541,254.144L621.141,254.144C621.661,254.144 621.921,254.424 621.921,254.984ZM588.741,223.304C588.741,223.904 588.401,224.204 587.721,224.204C587.201,224.204 586.881,223.924 586.761,223.364L587.361,223.364C587.481,223.604 587.641,223.724 587.841,223.724C587.961,223.724 588.101,223.644 588.261,223.484C588.181,223.164 588.051,222.954 587.871,222.854C587.691,222.754 587.561,222.624 587.481,222.464C587.761,222.464 587.981,222.404 588.141,222.284L588.141,221.924C588.141,221.764 588.021,221.684 587.781,221.684C587.581,221.684 587.441,221.804 587.361,222.044L586.881,222.044L586.881,221.924C586.881,221.484 587.201,221.264 587.841,221.264C588.441,221.264 588.741,221.504 588.741,221.984C588.741,222.144 588.621,222.344 588.381,222.584C588.621,222.864 588.741,223.104 588.741,223.304ZM619.821,256.004L619.461,253.904C619.381,253.864 619.321,253.844 619.281,253.844C619.201,253.844 619.061,253.904 618.861,254.024C618.901,253.624 619.221,253.324 619.821,253.124L619.821,256.004ZM587.841,232.844L586.941,235.784L586.521,235.784C586.521,235.784 586.321,235.024 585.921,233.504C585.601,234.224 585.341,234.984 585.141,235.784C584.941,235.584 584.561,234.604 584.001,232.844L584.481,232.844C584.601,233.324 584.781,234.024 585.021,234.944C585.181,234.624 585.401,233.924 585.681,232.844L586.161,232.844C586.281,233.324 586.501,234.044 586.821,235.004C586.941,234.524 587.121,233.804 587.361,232.844L587.841,232.844ZM609.561,257.744C609.561,258.344 609.161,258.644 608.361,258.644C607.761,258.644 607.401,258.324 607.281,257.684L607.761,257.684C607.881,258.084 608.101,258.284 608.421,258.284C608.501,258.284 608.701,258.184 609.021,257.984L609.021,257.624C608.701,257.504 608.341,257.364 607.941,257.204C607.541,257.044 607.341,256.784 607.341,256.424C607.341,255.864 607.701,255.584 608.421,255.584C609.141,255.584 609.481,255.884 609.441,256.484L608.961,256.484C608.881,256.164 608.701,256.004 608.421,256.004C608.381,256.004 608.201,256.084 607.881,256.244C607.921,256.524 608.211,256.764 608.751,256.964C609.291,257.164 609.561,257.424 609.561,257.744ZM590.421,246.464C590.181,246.624 590.081,246.824 590.121,247.064L589.641,247.064L589.641,246.524C589.441,246.484 589.241,246.464 589.041,246.464C588.801,246.464 588.581,246.484 588.381,246.524L588.381,245.804C588.741,245.324 589.101,244.804 589.461,244.244L590.121,244.244C590.121,244.164 590.121,244.484 590.121,245.204C590.121,245.644 590.221,245.924 590.421,246.044L590.421,246.464ZM598.161,256.004L597.681,256.004L597.681,253.904C597.601,253.864 597.541,253.844 597.501,253.844C597.421,253.844 597.281,253.904 597.081,254.024L597.081,253.844C597.081,253.724 597.261,253.484 597.621,253.124L598.161,253.124L598.161,256.004ZM588.261,244.964C588.261,245.084 587.901,245.604 587.181,246.524C587.341,246.604 587.701,246.624 588.261,246.584L588.261,247.064L586.401,247.064L586.401,246.644C587.321,245.684 587.781,245.124 587.781,244.964C587.781,244.684 587.621,244.544 587.301,244.544C587.061,244.544 586.941,244.704 586.941,245.024L586.461,245.024L586.461,244.544C586.741,244.264 587.001,244.124 587.241,244.124C587.921,244.124 588.261,244.404 588.261,244.964ZM596.841,253.904C596.841,254.344 596.461,254.884 595.701,255.524C595.861,255.564 596.021,255.584 596.181,255.584C596.381,255.584 596.601,255.564 596.841,255.524L596.841,256.004L595.101,256.004L595.101,255.524C595.941,254.764 596.361,254.224 596.361,253.904C596.361,253.944 596.281,253.784 596.121,253.424C595.881,253.424 595.701,253.624 595.581,254.024L595.101,254.024C595.061,253.344 595.341,253.004 595.941,253.004C596.541,253.004 596.841,253.304 596.841,253.904ZM628.821,223.064C628.821,222.824 628.641,222.624 628.281,222.464C628.121,222.584 627.981,222.644 627.861,222.644L627.861,223.304C627.861,223.504 628.001,223.604 628.281,223.604C628.641,223.604 628.821,223.424 628.821,223.064ZM612.201,231.344C612.201,228.464 610.421,227.024 606.861,227.024C606.181,227.024 605.421,227.084 604.581,227.204L604.581,235.304L608.421,235.304C609.541,235.304 610.451,234.914 611.151,234.134C611.851,233.354 612.201,232.424 612.201,231.344ZM590.361,222.764L590.361,222.464C590.361,221.944 590.141,221.684 589.701,221.684C589.461,222.004 589.341,222.284 589.341,222.524C589.341,223.324 589.521,223.724 589.881,223.724C590.041,223.724 590.141,223.684 590.181,223.604C590.221,223.524 590.261,223.384 590.301,223.184C590.341,222.984 590.361,222.844 590.361,222.764ZM589.641,245.984L589.641,244.904C589.441,245.144 589.181,245.504 588.861,245.984L589.641,245.984Z" style="fill:rgb(247,2,1);fill-rule:nonzero;"/>
            </g>
        </g>
    </g>
</svg>
