<?xml version="1.0" encoding="UTF-8" standalone="no"?>
<!DOCTYPE svg PUBLIC "-//W3C//DTD SVG 1.1//EN" "http://www.w3.org/Graphics/SVG/1.1/DTD/svg11.dtd">
<svg width="100%" height="100%" viewBox="0 0 621 223" version="1.1" xmlns="http://www.w3.org/2000/svg" xmlns:xlink="http://www.w3.org/1999/xlink" xml:space="preserve" xmlns:serif="http://www.serif.com/" style="fill-rule:evenodd;clip-rule:evenodd;stroke-linejoin:round;stroke-miterlimit:2;">
    <g transform="matrix(1,0,0,1,-879.143,-1799.2)">
        <g transform="matrix(1,0,0,1.00385,0,-7.79283)">
            <rect x="879.143" y="1800.05" width="620.204" height="221.585" style="fill:rgb(130,130,130);fill-opacity:0;"/>
        </g>
        <g transform="matrix(1,0,0,1,944.059,1614.5)">
            <path d="M222.186,247.001C219.387,250.869 216.379,253.186 213.163,253.954C211.223,254.423 208.977,254.267 206.424,253.486C201.971,252.119 198.911,249.319 197.245,245.087C196.464,243.069 196.073,240.979 196.073,238.818C196.073,236.852 196.392,234.827 197.03,232.744C198.384,228.316 200.669,224.944 203.885,222.626C206.281,220.895 208.892,220.029 211.717,220.029C213.228,220.029 214.797,220.276 216.424,220.771C219.393,221.682 222.076,223.388 224.471,225.888C226.06,227.542 226.854,229.215 226.854,230.908C226.854,231.454 226.77,232.001 226.6,232.548C226.353,233.382 225.845,234.007 225.077,234.423C224.647,234.645 224.172,234.755 223.651,234.755C223.26,234.755 222.837,234.69 222.382,234.56C221.73,234.352 221.307,233.395 221.112,231.689C220.839,229.241 220.552,227.626 220.253,226.845C219.563,224.983 218.273,223.759 216.385,223.173C215.461,222.9 214.569,222.763 213.71,222.763C209.113,222.763 205.663,226.539 203.358,234.091C202.746,236.083 202.44,237.932 202.44,239.638C202.44,241.474 202.792,243.147 203.495,244.658C204.706,247.275 206.737,249.02 209.589,249.892C211.568,250.491 213.628,250.481 215.77,249.863C217.912,249.244 219.771,247.991 221.346,246.103L222.186,247.001Z" style="fill:rgb(19,33,140);fill-rule:nonzero;"/>
            <path d="M223.202,251.337C225.129,250.908 226.561,249.553 227.499,247.275L236.932,224.189L238.358,224.15L248.397,246.552C249.048,247.984 249.628,248.961 250.135,249.482C250.695,250.068 251.464,250.348 252.44,250.322L252.499,251.747L239.335,252.216L239.276,250.771C241.893,250.68 243.176,249.898 243.124,248.427C243.098,247.867 242.915,247.177 242.577,246.357L236.112,230.615L229.374,246.826C229.1,247.75 228.97,248.447 228.983,248.915C229.009,249.632 229.315,250.169 229.901,250.527C230.487,250.885 231.509,251.044 232.967,251.005L233.026,252.431L223.241,252.763L223.202,251.337Z" style="fill:rgb(19,33,140);fill-rule:nonzero;"/>
            <path d="M270.448,218.642C270.474,218.941 270.487,219.228 270.487,219.501C270.487,221.428 269.803,222.451 268.436,222.568C268.007,222.607 266.444,221.448 263.749,219.091C262.447,217.945 261.177,217.431 259.94,217.548C258.625,217.652 257.766,218.421 257.362,219.853C256.932,221.337 256.796,222.952 256.952,224.697L257.733,233.72L264.979,233.095L264.647,235.693L257.967,236.279L259.706,256.201C259.823,257.529 260.109,258.382 260.565,258.759C261.268,259.358 262.811,259.553 265.194,259.345L265.331,260.927L250.37,262.236L250.214,260.654C251.945,260.497 253.078,260.165 253.612,259.658C254.341,258.954 254.621,257.626 254.452,255.673L252.792,236.728L247.635,237.177L247.948,234.579L252.577,234.189L252.186,229.814C252.134,229.163 252.108,228.525 252.108,227.9C252.108,224.905 252.779,222.314 254.12,220.126C255.93,217.197 258.658,215.576 262.303,215.263C264.764,215.042 266.708,215.221 268.133,215.8C269.559,216.38 270.331,217.327 270.448,218.642Z" style="fill:rgb(19,33,140);fill-rule:nonzero;"/>
            <path d="M295.253,239.814C293.586,246.389 290.318,250.107 285.448,250.966C284.146,251.201 282.922,251.318 281.776,251.318C275.096,251.318 271.125,247.731 269.862,240.556C269.706,239.671 269.628,238.805 269.628,237.958C269.628,235.302 270.376,232.757 271.874,230.322C273.801,227.158 276.464,225.276 279.862,224.677C280.839,224.508 281.783,224.423 282.694,224.423C284.699,224.423 286.555,224.84 288.26,225.673C290.747,226.884 292.473,228.896 293.436,231.708L273.69,235.185C273.651,236.253 273.697,237.151 273.827,237.88C274.348,240.836 275.682,243.264 277.831,245.165C279.576,246.715 281.431,247.49 283.397,247.49C283.866,247.49 284.335,247.444 284.803,247.353C287.954,246.806 290.383,245.523 292.089,243.505C293.052,242.372 293.651,241.07 293.885,239.599L295.253,239.814ZM286.268,231.513C285.956,229.768 285.24,228.388 284.12,227.372C282.896,226.253 281.438,225.843 279.745,226.142C278.052,226.441 276.665,227.366 275.585,228.915C274.621,230.283 274.042,231.884 273.846,233.72L286.268,231.513ZM292.382,213.388C292.382,213.857 292.284,214.293 292.089,214.697C291.854,215.152 291.483,215.556 290.975,215.908L281.815,222.275L279.549,222.275L287.792,212.685C288.703,211.63 289.602,211.103 290.487,211.103C291.75,211.103 292.382,211.865 292.382,213.388Z" style="fill:rgb(19,33,140);fill-rule:nonzero;"/>
        </g>
        <g transform="matrix(1,0,0,1,801.233,-199.63)">
            <g transform="matrix(1.64321,0,0,1.64321,-1213.76,1764.53)">
                <path d="M945.621,264.404L884.961,264.404L884.961,204.524L945.621,204.524L945.621,264.404ZM936.921,215.204C936.921,213.724 936.161,212.984 934.641,212.984C933.161,212.984 932.421,213.724 932.421,215.204C932.421,216.884 933.161,217.724 934.641,217.724C935.161,217.724 935.671,217.514 936.171,217.094C936.671,216.674 936.921,216.044 936.921,215.204ZM931.401,210.824C931.401,210.304 931.131,209.784 930.591,209.264C930.051,208.744 929.481,208.484 928.881,208.484C928.441,208.484 927.961,208.754 927.441,209.294C926.921,209.834 926.661,210.384 926.661,210.944C926.661,211.464 926.841,211.944 927.201,212.384C927.681,212.944 928.281,213.224 929.001,213.224C930.601,213.224 931.401,212.424 931.401,210.824ZM941.421,220.964C941.421,220.564 941.221,220.084 940.821,219.524C940.341,218.804 939.741,218.444 939.021,218.444C938.301,218.444 937.701,218.784 937.221,219.464C936.821,219.984 936.621,220.444 936.621,220.844C936.621,222.404 937.421,223.184 939.021,223.184C940.621,223.184 941.421,222.444 941.421,220.964ZM924.621,208.184C924.621,207.584 924.401,207.024 923.961,206.504C923.521,205.984 923.001,205.724 922.401,205.724C921.841,205.724 921.281,206.004 920.721,206.564C920.161,207.124 919.881,207.624 919.881,208.064C919.881,208.624 920.101,209.164 920.541,209.684C920.981,210.204 921.601,210.464 922.401,210.464C923.881,210.464 924.621,209.704 924.621,208.184ZM944.121,227.444C944.121,226.964 943.921,226.474 943.521,225.974C943.121,225.474 942.541,225.224 941.781,225.224C941.221,225.224 940.681,225.424 940.161,225.824C939.641,226.224 939.381,226.764 939.381,227.444C939.381,228.124 939.611,228.714 940.071,229.214C940.531,229.714 941.101,229.964 941.781,229.964C942.301,229.964 942.821,229.704 943.341,229.184C943.861,228.664 944.121,228.084 944.121,227.444ZM917.661,207.224C917.661,206.824 917.461,206.344 917.061,205.784C916.541,205.064 915.941,204.704 915.261,204.704C914.781,204.704 914.271,204.984 913.731,205.544C913.191,206.104 912.921,206.664 912.921,207.224C912.921,207.624 913.121,208.104 913.521,208.664C914.041,209.344 914.661,209.684 915.381,209.684C915.901,209.684 916.411,209.464 916.911,209.024C917.411,208.584 917.661,207.984 917.661,207.224ZM944.901,234.704C944.901,233.024 944.141,232.184 942.621,232.184C941.981,232.184 941.451,232.434 941.031,232.934C940.611,233.434 940.401,234.024 940.401,234.704C940.401,235.224 940.581,235.704 940.941,236.144C941.421,236.704 942.021,236.984 942.741,236.984C943.221,236.984 943.701,236.774 944.181,236.354C944.661,235.934 944.901,235.384 944.901,234.704ZM944.121,241.724C944.121,241.364 943.881,240.854 943.401,240.194C942.921,239.534 942.381,239.204 941.781,239.204C941.101,239.204 940.531,239.474 940.071,240.014C939.611,240.554 939.381,241.124 939.381,241.724C939.381,242.204 939.591,242.694 940.011,243.194C940.431,243.694 941.021,243.944 941.781,243.944C942.341,243.944 942.871,243.744 943.371,243.344C943.871,242.944 944.121,242.404 944.121,241.724ZM910.641,208.184C910.641,207.664 910.461,207.184 910.101,206.744C909.621,206.224 908.961,205.964 908.121,205.964C906.641,205.964 905.901,206.704 905.901,208.184C905.901,208.744 906.111,209.264 906.531,209.744C906.951,210.224 907.481,210.464 908.121,210.464C909.801,210.464 910.641,209.704 910.641,208.184ZM903.921,210.824C903.921,210.264 903.711,209.734 903.291,209.234C902.871,208.734 902.321,208.484 901.641,208.484C901.081,208.484 900.521,208.764 899.961,209.324C899.401,209.884 899.121,210.424 899.121,210.944C899.121,211.464 899.341,211.944 899.781,212.384C900.261,212.944 900.881,213.224 901.641,213.224C903.161,213.224 903.921,212.424 903.921,210.824ZM941.421,248.324C941.421,247.804 941.201,247.284 940.761,246.764C940.321,246.244 939.781,245.984 939.141,245.984C938.541,245.984 938.001,246.184 937.521,246.584C936.921,247.064 936.621,247.644 936.621,248.324C936.621,248.884 936.851,249.424 937.311,249.944C937.771,250.464 938.341,250.724 939.021,250.724C939.581,250.724 940.121,250.494 940.641,250.034C941.161,249.574 941.421,249.004 941.421,248.324ZM936.921,253.964C936.921,253.324 936.701,252.744 936.261,252.224C935.821,251.704 935.281,251.444 934.641,251.444C934.041,251.444 933.521,251.714 933.081,252.254C932.641,252.794 932.421,253.364 932.421,253.964C932.421,255.444 933.161,256.184 934.641,256.184C936.161,256.184 936.921,255.444 936.921,253.964ZM939.381,234.464C939.381,227.984 937.001,222.364 932.241,217.604C927.481,212.844 921.821,210.464 915.261,210.464C908.781,210.464 903.181,212.824 898.461,217.544C893.741,222.264 891.381,227.904 891.381,234.464C891.381,240.984 893.661,246.624 898.221,251.384C902.901,256.264 908.581,258.704 915.261,258.704C921.861,258.704 927.561,256.264 932.361,251.384C937.041,246.584 939.381,240.944 939.381,234.464ZM898.401,215.324C898.401,214.764 898.161,214.234 897.681,213.734C897.201,213.234 896.601,212.984 895.881,212.984C895.401,212.984 894.911,213.194 894.411,213.614C893.911,214.034 893.661,214.564 893.661,215.204C893.661,215.604 893.841,216.084 894.201,216.644C894.641,217.364 895.201,217.724 895.881,217.724C896.521,217.724 897.101,217.484 897.621,217.004C898.141,216.524 898.401,215.964 898.401,215.324ZM893.901,220.844C893.901,220.244 893.701,219.694 893.301,219.194C892.901,218.694 892.341,218.444 891.621,218.444C891.101,218.444 890.561,218.724 890.001,219.284C889.441,219.844 889.161,220.404 889.161,220.964C889.161,221.444 889.401,221.934 889.881,222.434C890.361,222.934 890.901,223.184 891.501,223.184C893.101,223.184 893.901,222.404 893.901,220.844ZM931.401,258.344C931.401,257.784 931.181,257.244 930.741,256.724C930.301,256.204 929.721,255.944 929.001,255.944C928.321,255.944 927.761,256.194 927.321,256.694C926.881,257.194 926.661,257.744 926.661,258.344C926.661,258.904 926.881,259.434 927.321,259.934C927.761,260.434 928.321,260.684 929.001,260.684C929.561,260.684 930.101,260.444 930.621,259.964C931.141,259.484 931.401,258.944 931.401,258.344ZM891.141,227.444C891.141,226.964 890.931,226.474 890.511,225.974C890.091,225.474 889.561,225.224 888.921,225.224C887.401,225.224 886.641,225.964 886.641,227.444C886.641,229.124 887.401,229.964 888.921,229.964C889.441,229.964 889.941,229.754 890.421,229.334C890.901,228.914 891.141,228.284 891.141,227.444ZM924.621,260.984C924.621,260.464 924.411,259.954 923.991,259.454C923.571,258.954 923.041,258.704 922.401,258.704C921.801,258.704 921.261,258.904 920.781,259.304C920.181,259.784 919.881,260.424 919.881,261.224C919.881,261.624 920.171,262.094 920.751,262.634C921.331,263.174 921.881,263.444 922.401,263.444C922.881,263.444 923.371,263.214 923.871,262.754C924.371,262.294 924.621,261.704 924.621,260.984ZM890.421,234.584C890.421,234.104 890.141,233.584 889.581,233.024C889.021,232.464 888.461,232.184 887.901,232.184C887.421,232.184 886.881,232.464 886.281,233.024C885.681,233.584 885.381,234.144 885.381,234.704C885.381,235.144 885.661,235.634 886.221,236.174C886.781,236.714 887.341,236.984 887.901,236.984C889.581,236.984 890.421,236.184 890.421,234.584ZM917.661,261.944C917.661,260.464 916.901,259.724 915.381,259.724C914.741,259.724 914.171,259.934 913.671,260.354C913.171,260.774 912.921,261.304 912.921,261.944C912.921,262.464 913.101,262.944 913.461,263.384C913.941,263.944 914.581,264.224 915.381,264.224C916.901,264.224 917.661,263.464 917.661,261.944ZM891.141,241.724C891.141,240.044 890.361,239.204 888.801,239.204C888.121,239.204 887.591,239.484 887.211,240.044C886.831,240.604 886.641,241.164 886.641,241.724C886.641,243.204 887.401,243.944 888.921,243.944C890.401,243.944 891.141,243.204 891.141,241.724ZM910.641,260.984C910.641,260.464 910.461,259.984 910.101,259.544C909.621,258.984 908.961,258.704 908.121,258.704C907.641,258.704 907.151,258.914 906.651,259.334C906.151,259.754 905.901,260.304 905.901,260.984C905.901,261.344 906.081,261.804 906.441,262.364C906.921,263.084 907.481,263.444 908.121,263.444C908.721,263.444 909.291,263.204 909.831,262.724C910.371,262.244 910.641,261.664 910.641,260.984ZM893.901,248.324C893.901,246.764 893.141,245.984 891.621,245.984C891.101,245.984 890.561,246.244 890.001,246.764C889.441,247.284 889.161,247.804 889.161,248.324C889.161,248.844 889.441,249.374 890.001,249.914C890.561,250.454 891.061,250.724 891.501,250.724C893.101,250.724 893.901,249.924 893.901,248.324ZM903.921,258.344C903.921,256.744 903.161,255.944 901.641,255.944C901.201,255.944 900.701,256.164 900.141,256.604C899.461,257.124 899.121,257.704 899.121,258.344C899.121,258.864 899.391,259.384 899.931,259.904C900.471,260.424 901.001,260.684 901.521,260.684C903.121,260.684 903.921,259.904 903.921,258.344ZM898.401,254.084C898.401,253.564 898.201,253.024 897.801,252.464C897.281,251.784 896.641,251.444 895.881,251.444C895.401,251.444 894.911,251.724 894.411,252.284C893.911,252.844 893.661,253.404 893.661,253.964C893.661,254.444 893.861,254.934 894.261,255.434C894.661,255.934 895.201,256.184 895.881,256.184C897.561,256.184 898.401,255.484 898.401,254.084ZM925.881,246.944L904.701,246.944L904.701,221.984L925.341,221.984L925.341,227.444L912.441,227.444L912.441,231.104L924.381,231.104L924.381,236.444L912.441,236.444L912.441,241.364L925.881,241.364L925.881,246.944Z" style="fill:rgb(142,189,31);fill-rule:nonzero;"/>
            </g>
            <g transform="matrix(1.82355,0,0,1.82355,-150.702,1737.93)">
                <rect x="276.501" y="199.024" width="12.56" height="53.68" style="fill:rgb(236,58,148);fill-rule:nonzero;"/>
            </g>
            <g transform="matrix(2.89878,0,0,2.89878,-544.621,1463.36)">
                <path d="M336.381,253.604L336.381,235.604C336.381,232.604 337.461,231.104 339.621,231.104C342.261,231.104 343.581,233.324 343.581,237.764L343.581,253.604L357.321,253.604L357.321,220.664L344.421,220.664L344.421,224.264C341.621,221.424 338.161,220.004 334.041,220.004C330.161,220.004 327.241,221.204 325.281,223.604C323.481,225.844 322.581,228.944 322.581,232.904L322.581,253.604L336.381,253.604Z" style="fill:rgb(0,163,39);fill-rule:nonzero;"/>
            </g>
            <g transform="matrix(1.61444,0,0,1.61444,-356.43,1771.08)">
                <path d="M638.241,234.584C638.241,243.584 635.041,250.904 628.641,256.544C622.561,261.864 614.981,264.524 605.901,264.524C598.581,264.524 592.161,261.284 586.641,254.804C581.321,248.644 578.661,241.884 578.661,234.524C578.661,226.324 581.571,219.294 587.391,213.434C593.211,207.574 600.201,204.644 608.361,204.644C616.521,204.644 623.541,207.584 629.421,213.464C635.301,219.344 638.241,226.384 638.241,234.584ZM636.861,234.704L634.161,234.704L634.161,234.284L636.861,234.284L636.861,233.084C636.861,232.324 636.721,231.264 636.441,229.904C636.281,229.864 635.401,229.964 633.801,230.204L633.801,229.844L636.321,229.364L635.241,225.044L632.781,225.884L632.481,225.584L634.941,224.624L633.261,220.544L630.861,221.864L630.621,221.444L633.021,220.004C632.501,219.124 631.621,217.924 630.381,216.404L628.281,218.204L627.921,217.844L630.141,215.984C628.981,214.704 627.901,213.664 626.901,212.864L625.101,214.904L624.801,214.664L626.661,212.504C625.581,211.584 624.341,210.704 622.941,209.864L621.441,212.324L621.141,212.024L622.521,209.624L618.501,207.704L617.301,210.344L617.061,210.224L618.021,207.524C617.901,207.444 616.461,207.044 613.701,206.324L613.101,209.204L612.681,209.084L613.221,206.264C611.941,205.904 610.401,205.784 608.601,205.904L608.601,208.784L608.181,208.784L608.181,205.904L605.661,205.904C605.661,205.904 605.001,206.024 603.681,206.264L604.101,209.204L603.801,209.204C603.601,208.524 603.401,207.564 603.201,206.324C602.441,206.444 601.701,206.584 600.981,206.744C600.101,206.944 599.401,207.204 598.881,207.524L599.841,210.164L599.421,210.344L598.341,207.584L594.321,209.504L595.761,212.084L595.341,212.324L593.841,209.804C592.961,210.284 591.761,211.184 590.241,212.504L592.041,214.664L591.681,214.904L589.821,212.744C588.541,213.904 587.501,214.984 586.701,215.984L588.861,217.844L588.501,218.204L586.341,216.284C585.541,217.084 584.701,218.344 583.821,220.064L586.281,221.504L586.041,221.864L583.521,220.484L581.661,224.504L584.301,225.644L584.061,225.884L581.481,225.044C580.961,226.244 580.601,227.644 580.401,229.244L583.101,229.904L582.861,230.264L580.281,229.784C579.921,232.064 579.781,233.564 579.861,234.284L582.741,234.284L582.741,234.704L579.861,234.704L579.861,235.964C579.861,236.644 580.001,237.744 580.281,239.264L582.801,238.784L583.101,239.144L580.341,239.684L580.341,240.104C580.341,240.504 580.681,241.804 581.361,244.004L584.121,243.104L584.301,243.464L581.661,244.544L583.461,248.564L586.041,247.184L586.281,247.544L583.701,249.104C584.221,249.984 585.101,251.184 586.341,252.704L588.501,250.844L588.861,251.204L586.581,253.184C587.741,254.424 588.821,255.464 589.821,256.304L591.681,254.144L592.041,254.384L590.121,256.664L593.781,259.244L595.461,256.664L595.761,256.964L594.321,259.544L598.341,261.464L599.481,258.584L599.841,258.824L598.761,261.584C601.001,262.344 602.481,262.724 603.201,262.724L603.801,259.844L604.221,259.904L603.681,262.844C604.841,263.244 606.341,263.364 608.181,263.204L608.181,260.264L608.601,260.264L608.601,263.204L611.241,263.204C611.241,263.204 611.881,263.064 613.161,262.784L612.801,259.844L613.701,262.724L614.241,262.724C614.361,262.724 615.621,262.324 618.021,261.524L617.061,258.884L617.361,258.584L618.501,261.344C619.101,261.104 620.461,260.504 622.581,259.544L621.141,256.904L621.441,256.664L622.941,259.244C624.501,258.204 625.741,257.304 626.661,256.544L624.801,254.384L624.921,254.084C625.521,254.524 626.221,255.264 627.021,256.304L630.201,253.064L627.921,251.204L628.281,250.844L630.501,252.704C631.661,251.104 632.481,249.844 632.961,248.924L630.621,247.424L630.861,247.184L633.261,248.564L635.061,244.424L632.481,243.404L632.661,243.104L635.241,244.004L636.321,239.684C636.161,239.724 635.321,239.564 633.801,239.204L633.801,238.844L634.101,238.784L636.561,239.084C636.801,237.084 636.901,235.624 636.861,234.704ZM629.361,223.064C629.361,223.264 629.231,223.474 628.971,223.694C628.711,223.914 628.481,224.024 628.281,224.024C627.601,224.024 627.261,223.564 627.261,222.644C627.261,221.604 627.601,221.084 628.281,221.084C628.921,221.084 629.241,221.344 629.241,221.864L628.641,221.864L628.641,221.744C628.681,221.544 628.561,221.444 628.281,221.444C628.121,221.444 627.981,221.564 627.861,221.804L627.921,222.224C628.041,222.104 628.201,222.044 628.401,222.044C629.041,222.044 629.361,222.384 629.361,223.064ZM620.901,215.384C620.901,215.944 620.561,216.224 619.881,216.224C619.241,216.224 618.941,215.964 618.981,215.444L618.981,215.324L619.401,215.324C619.601,215.644 619.781,215.804 619.941,215.804C620.261,215.804 620.421,215.664 620.421,215.384C620.421,214.904 620.161,214.744 619.641,214.904C619.801,214.784 620.021,214.584 620.301,214.304L620.301,213.884C620.141,213.724 620.041,213.644 620.001,213.644C619.681,213.644 619.521,213.804 619.521,214.124L619.041,214.124C619.121,213.524 619.441,213.224 620.001,213.224C620.601,213.224 620.901,213.504 620.901,214.064C620.901,214.224 620.781,214.424 620.541,214.664C620.781,214.864 620.901,215.104 620.901,215.384ZM632.781,233.444L631.521,233.444L631.521,234.104C631.681,234.144 631.841,234.164 632.001,234.164L632.241,234.164C632.401,234.164 632.581,234.144 632.781,234.104L632.781,234.644C632.541,234.604 632.341,234.584 632.181,234.584L631.941,234.584C631.821,234.584 631.681,234.604 631.521,234.644L631.521,235.484L632.781,235.484L632.781,235.904L630.921,235.904L630.921,232.964L632.781,232.964L632.781,233.444ZM609.501,213.104L609.081,213.104C608.601,212.264 608.141,211.544 607.701,210.944C607.661,211.264 607.641,211.604 607.641,211.964C607.641,212.324 607.681,212.704 607.761,213.104L607.281,213.104L607.281,210.164L607.821,210.164C608.061,210.484 608.481,211.184 609.081,212.264C609.121,211.984 609.141,211.684 609.141,211.364C609.141,211.004 609.121,210.604 609.081,210.164L609.501,210.164L609.501,213.104ZM629.901,245.024C629.901,245.704 629.521,246.204 628.761,246.524C628.881,246.564 629.041,246.584 629.241,246.584C629.441,246.584 629.661,246.564 629.901,246.524L629.901,247.064L628.161,247.064L628.161,246.524C628.401,246.284 628.671,246.014 628.971,245.714C629.271,245.414 629.421,245.184 629.421,245.024C629.421,244.704 629.301,244.544 629.061,244.544C628.941,244.544 628.801,244.704 628.641,245.024L628.161,245.024L628.161,244.904C628.161,244.384 628.441,244.124 629.001,244.124C629.601,244.124 629.901,244.424 629.901,245.024ZM598.341,215.444C598.341,216.004 598.001,216.284 597.321,216.284C596.681,216.284 596.361,216.044 596.361,215.564C596.361,215.524 596.381,215.484 596.421,215.444L596.961,215.444C596.961,215.764 597.121,215.924 597.441,215.924C597.721,215.924 597.861,215.764 597.861,215.444C597.861,215.124 597.681,214.964 597.321,214.964C597.201,214.964 597.121,214.984 597.081,215.024C597.121,214.864 597.241,214.734 597.441,214.634C597.641,214.534 597.741,214.364 597.741,214.124C597.741,213.884 597.641,213.764 597.441,213.764C597.121,213.764 596.961,213.924 596.961,214.244L596.481,214.244C596.601,213.644 596.921,213.344 597.441,213.344C597.961,213.344 598.221,213.604 598.221,214.124C598.221,214.404 598.141,214.624 597.981,214.784C598.021,214.824 598.101,214.844 598.221,214.844C598.221,214.924 598.241,215.024 598.281,215.144C598.321,215.264 598.341,215.364 598.341,215.444ZM627.921,247.064L627.381,247.064C627.421,246.664 627.441,246.324 627.441,246.044L627.441,245.624C627.441,245.424 627.421,245.144 627.381,244.784C627.341,244.864 627.181,244.964 626.901,245.084C626.901,245.004 626.971,244.844 627.111,244.604C627.251,244.364 627.381,244.244 627.501,244.244L627.921,244.244L627.921,247.064ZM596.301,215.624C596.301,215.704 596.281,215.764 596.241,215.804C595.841,216.124 595.501,216.284 595.221,216.284C594.621,216.284 594.321,216.044 594.321,215.564L594.321,215.444L594.801,215.444C594.841,215.764 595.001,215.924 595.281,215.924C595.601,215.924 595.761,215.764 595.761,215.444C595.761,215.124 595.501,214.984 594.981,215.024C595.101,214.904 595.341,214.684 595.701,214.364L595.701,214.004C595.501,213.844 595.381,213.764 595.341,213.764C595.021,213.764 594.861,213.924 594.861,214.244L594.381,214.244C594.461,213.644 594.781,213.344 595.341,213.344C595.981,213.344 596.301,213.624 596.301,214.184C596.301,214.344 596.161,214.544 595.881,214.784C596.161,215.064 596.301,215.344 596.301,215.624ZM619.701,244.124C619.141,244.764 618.121,245.084 616.641,245.084L613.641,245.084C613.201,245.084 612.451,243.544 611.391,240.464C610.331,237.384 609.421,235.844 608.661,235.844C608.341,235.844 607.661,235.864 606.621,235.904L604.581,235.904L604.581,243.944C604.781,244.184 605.121,244.324 605.601,244.364C605.961,244.404 606.341,244.424 606.741,244.424L606.741,244.844L598.101,244.844L597.981,244.424C598.101,244.384 598.501,244.364 599.181,244.364C599.501,244.364 599.781,244.224 600.021,243.944L600.021,227.564C599.861,227.284 599.381,227.144 598.581,227.144C598.581,227.144 598.381,227.124 597.981,227.084L598.101,226.724L611.241,226.724C612.521,226.724 613.791,227.164 615.051,228.044C616.311,228.924 616.941,229.964 616.941,231.164C616.941,232.484 616.341,233.544 615.141,234.344C614.181,235.024 612.981,235.424 611.541,235.544C612.221,235.744 612.931,235.944 613.671,236.144C614.411,236.344 615.001,236.724 615.441,237.284C615.641,237.604 616.081,239.004 616.761,241.484C617.241,243.284 618.021,244.184 619.101,244.184C619.301,244.184 619.501,244.164 619.701,244.124ZM590.841,222.704C590.841,223.704 590.501,224.204 589.821,224.204C589.181,224.204 588.861,223.724 588.861,222.764C588.861,221.764 589.201,221.264 589.881,221.264C590.521,221.264 590.841,221.744 590.841,222.704ZM621.921,254.984C621.921,255.744 621.601,256.124 620.961,256.124C620.481,256.124 620.181,255.824 620.061,255.224L620.601,255.224C620.761,255.464 620.901,255.584 621.021,255.584C621.341,255.584 621.501,255.384 621.501,254.984C621.501,254.664 621.341,254.504 621.021,254.504C620.981,254.504 620.681,254.644 620.121,254.924L620.121,253.124L621.681,253.124C621.361,253.244 621.041,253.364 620.721,253.484C620.681,253.524 620.621,253.744 620.541,254.144L621.141,254.144C621.661,254.144 621.921,254.424 621.921,254.984ZM588.741,223.304C588.741,223.904 588.401,224.204 587.721,224.204C587.201,224.204 586.881,223.924 586.761,223.364L587.361,223.364C587.481,223.604 587.641,223.724 587.841,223.724C587.961,223.724 588.101,223.644 588.261,223.484C588.181,223.164 588.051,222.954 587.871,222.854C587.691,222.754 587.561,222.624 587.481,222.464C587.761,222.464 587.981,222.404 588.141,222.284L588.141,221.924C588.141,221.764 588.021,221.684 587.781,221.684C587.581,221.684 587.441,221.804 587.361,222.044L586.881,222.044L586.881,221.924C586.881,221.484 587.201,221.264 587.841,221.264C588.441,221.264 588.741,221.504 588.741,221.984C588.741,222.144 588.621,222.344 588.381,222.584C588.621,222.864 588.741,223.104 588.741,223.304ZM619.821,256.004L619.461,253.904C619.381,253.864 619.321,253.844 619.281,253.844C619.201,253.844 619.061,253.904 618.861,254.024C618.901,253.624 619.221,253.324 619.821,253.124L619.821,256.004ZM587.841,232.844L586.941,235.784L586.521,235.784C586.521,235.784 586.321,235.024 585.921,233.504C585.601,234.224 585.341,234.984 585.141,235.784C584.941,235.584 584.561,234.604 584.001,232.844L584.481,232.844C584.601,233.324 584.781,234.024 585.021,234.944C585.181,234.624 585.401,233.924 585.681,232.844L586.161,232.844C586.281,233.324 586.501,234.044 586.821,235.004C586.941,234.524 587.121,233.804 587.361,232.844L587.841,232.844ZM609.561,257.744C609.561,258.344 609.161,258.644 608.361,258.644C607.761,258.644 607.401,258.324 607.281,257.684L607.761,257.684C607.881,258.084 608.101,258.284 608.421,258.284C608.501,258.284 608.701,258.184 609.021,257.984L609.021,257.624C608.701,257.504 608.341,257.364 607.941,257.204C607.541,257.044 607.341,256.784 607.341,256.424C607.341,255.864 607.701,255.584 608.421,255.584C609.141,255.584 609.481,255.884 609.441,256.484L608.961,256.484C608.881,256.164 608.701,256.004 608.421,256.004C608.381,256.004 608.201,256.084 607.881,256.244C607.921,256.524 608.211,256.764 608.751,256.964C609.291,257.164 609.561,257.424 609.561,257.744ZM590.421,246.464C590.181,246.624 590.081,246.824 590.121,247.064L589.641,247.064L589.641,246.524C589.441,246.484 589.241,246.464 589.041,246.464C588.801,246.464 588.581,246.484 588.381,246.524L588.381,245.804C588.741,245.324 589.101,244.804 589.461,244.244L590.121,244.244C590.121,244.164 590.121,244.484 590.121,245.204C590.121,245.644 590.221,245.924 590.421,246.044L590.421,246.464ZM598.161,256.004L597.681,256.004L597.681,253.904C597.601,253.864 597.541,253.844 597.501,253.844C597.421,253.844 597.281,253.904 597.081,254.024L597.081,253.844C597.081,253.724 597.261,253.484 597.621,253.124L598.161,253.124L598.161,256.004ZM588.261,244.964C588.261,245.084 587.901,245.604 587.181,246.524C587.341,246.604 587.701,246.624 588.261,246.584L588.261,247.064L586.401,247.064L586.401,246.644C587.321,245.684 587.781,245.124 587.781,244.964C587.781,244.684 587.621,244.544 587.301,244.544C587.061,244.544 586.941,244.704 586.941,245.024L586.461,245.024L586.461,244.544C586.741,244.264 587.001,244.124 587.241,244.124C587.921,244.124 588.261,244.404 588.261,244.964ZM596.841,253.904C596.841,254.344 596.461,254.884 595.701,255.524C595.861,255.564 596.021,255.584 596.181,255.584C596.381,255.584 596.601,255.564 596.841,255.524L596.841,256.004L595.101,256.004L595.101,255.524C595.941,254.764 596.361,254.224 596.361,253.904C596.361,253.944 596.281,253.784 596.121,253.424C595.881,253.424 595.701,253.624 595.581,254.024L595.101,254.024C595.061,253.344 595.341,253.004 595.941,253.004C596.541,253.004 596.841,253.304 596.841,253.904ZM628.821,223.064C628.821,222.824 628.641,222.624 628.281,222.464C628.121,222.584 627.981,222.644 627.861,222.644L627.861,223.304C627.861,223.504 628.001,223.604 628.281,223.604C628.641,223.604 628.821,223.424 628.821,223.064ZM612.201,231.344C612.201,228.464 610.421,227.024 606.861,227.024C606.181,227.024 605.421,227.084 604.581,227.204L604.581,235.304L608.421,235.304C609.541,235.304 610.451,234.914 611.151,234.134C611.851,233.354 612.201,232.424 612.201,231.344ZM590.361,222.764L590.361,222.464C590.361,221.944 590.141,221.684 589.701,221.684C589.461,222.004 589.341,222.284 589.341,222.524C589.341,223.324 589.521,223.724 589.881,223.724C590.041,223.724 590.141,223.684 590.181,223.604C590.221,223.524 590.261,223.384 590.301,223.184C590.341,222.984 590.361,222.844 590.361,222.764ZM589.641,245.984L589.641,244.904C589.441,245.144 589.181,245.504 588.861,245.984L589.641,245.984Z" style="fill:rgb(247,2,1);fill-rule:nonzero;"/>
            </g>
            <g transform="matrix(3.11534,0,0,3.11534,-345.428,1410.15)">
                <path d="M272.581,232.064C273.808,232.598 274.688,233.478 275.221,234.704L296.741,234.704C296.368,231.664 294.968,229.238 292.541,227.424C290.114,225.611 287.301,224.704 284.101,224.704C281.488,224.704 279.114,225.358 276.981,226.664C274.848,227.971 273.381,229.771 272.581,232.064ZM265.701,236.624C265.701,234.278 266.794,232.731 268.981,231.984C270.048,228.784 271.928,226.238 274.621,224.344C277.314,222.451 280.474,221.504 284.101,221.504C288.848,221.504 292.741,223.024 295.781,226.064C298.821,229.104 300.341,232.998 300.341,237.744L275.461,237.744C275.088,239.398 274.101,240.571 272.501,241.264C273.141,243.931 274.461,246.078 276.461,247.704C278.461,249.331 280.954,250.144 283.941,250.144C286.394,250.144 288.688,249.558 290.821,248.384C293.168,247.104 294.821,245.398 295.781,243.264L298.821,245.024C297.754,247.691 295.701,249.798 292.661,251.344C289.941,252.678 287.034,253.344 283.941,253.344C279.888,253.344 276.461,252.224 273.661,249.984C270.861,247.744 269.088,244.758 268.341,241.024C266.581,240.118 265.701,238.651 265.701,236.624Z" style="fill:rgb(3,178,239);fill-rule:nonzero;"/>
            </g>
            <g transform="matrix(2.93163,0,0,2.93163,-443.404,1459.3)">
                <path d="M235.585,248.076C234.934,249.417 233.729,250.51 231.971,251.357C230.383,252.138 228.775,252.529 227.147,252.529C222.538,252.529 220.233,250.198 220.233,245.537L220.233,227.724L216.659,227.724L225.292,218.544L225.292,224.169L235.096,224.169L233.514,227.724L225.292,227.724L225.292,244.033C225.292,247.6 226.783,249.384 229.764,249.384C230.884,249.384 231.841,249.13 232.635,248.622C232.701,248.583 233.566,247.984 235.233,246.826C235.467,246.826 235.585,247.242 235.585,248.076Z" style="fill:rgb(251,110,47);fill-rule:nonzero;"/>
            </g>
            <g transform="matrix(3.05114,0,0,3.05114,-491.352,1427.59)">
                <path d="M231.941,231.224L232.381,231.464C231.554,232.744 230.661,234.038 229.701,235.344C228.741,236.651 227.721,237.924 226.641,239.164C225.561,240.404 224.408,241.591 223.181,242.724C221.954,243.858 220.674,244.904 219.341,245.864C217.528,247.144 215.608,248.204 213.581,249.044C211.554,249.884 209.408,250.411 207.141,250.624C206.794,250.651 206.454,250.671 206.121,250.684C205.788,250.698 205.448,250.704 205.101,250.704L207.101,252.704C205.234,252.651 203.641,252.438 202.321,252.064C201.001,251.691 199.894,251.211 199.001,250.624C198.108,250.038 197.394,249.378 196.861,248.644C196.328,247.911 195.921,247.158 195.641,246.384C195.361,245.611 195.174,244.851 195.081,244.104C194.988,243.358 194.928,242.691 194.901,242.104L196.941,242.104C197.234,241.171 197.754,240.371 198.501,239.704C199.248,239.038 200.168,238.704 201.261,238.704C202.008,238.704 202.608,238.884 203.061,239.244C203.514,239.604 203.741,240.144 203.741,240.864C203.741,241.531 203.574,242.111 203.241,242.604C202.908,243.098 202.394,243.344 201.701,243.344C201.168,243.344 200.754,243.198 200.461,242.904C200.168,242.611 199.954,242.251 199.821,241.824C199.741,241.878 199.674,241.924 199.621,241.964C199.568,242.004 199.501,242.051 199.421,242.104L199.821,242.104C199.874,242.691 199.981,243.351 200.141,244.084C200.301,244.818 200.654,245.491 201.201,246.104C201.748,246.718 202.548,247.238 203.601,247.664C204.654,248.091 206.074,248.304 207.861,248.304L208.221,248.304C208.328,248.304 208.448,248.291 208.581,248.264C209.274,247.571 209.801,246.738 210.161,245.764C210.521,244.791 210.701,243.784 210.701,242.744C210.701,242.211 210.641,241.678 210.521,241.144C210.401,240.611 210.261,240.064 210.101,239.504C209.888,239.451 209.674,239.398 209.461,239.344C209.248,239.291 209.021,239.238 208.781,239.184L202.901,237.704C200.768,237.198 199.068,236.371 197.801,235.224C196.534,234.078 195.901,232.464 195.901,230.384C195.901,228.704 196.214,227.258 196.841,226.044C197.468,224.831 198.314,223.831 199.381,223.044C200.448,222.258 201.668,221.671 203.041,221.284C204.414,220.898 205.848,220.704 207.341,220.704C208.674,220.704 209.861,220.818 210.901,221.044C211.941,221.271 212.854,221.571 213.641,221.944C214.428,222.318 215.101,222.744 215.661,223.224C216.221,223.704 216.701,224.211 217.101,224.744C218.621,224.958 219.834,225.464 220.741,226.264C221.648,227.064 222.101,228.078 222.101,229.304C222.101,229.918 221.974,230.451 221.721,230.904C221.468,231.358 221.128,231.731 220.701,232.024C220.274,232.318 219.788,232.538 219.241,232.684C218.694,232.831 218.128,232.904 217.541,232.904C217.754,232.531 217.941,232.104 218.101,231.624C218.261,231.144 218.394,230.664 218.501,230.184L214.021,230.184C213.994,229.651 213.881,229.051 213.681,228.384C213.481,227.718 213.034,227.104 212.341,226.544C211.914,226.944 211.594,227.431 211.381,228.004C211.168,228.578 211.061,229.198 211.061,229.864C211.061,230.798 211.201,231.678 211.481,232.504C211.761,233.331 212.101,234.171 212.501,235.024C212.554,235.158 212.614,235.284 212.681,235.404C212.748,235.524 212.808,235.651 212.861,235.784C213.314,236.718 213.714,237.704 214.061,238.744C214.408,239.784 214.581,240.931 214.581,242.184L214.581,242.224C214.554,243.238 214.274,244.218 213.741,245.164C213.208,246.111 212.528,246.944 211.701,247.664C211.088,248.198 210.414,248.658 209.681,249.044C208.948,249.431 208.221,249.691 207.501,249.824L207.661,249.984C209.821,249.718 211.908,249.131 213.921,248.224C215.934,247.318 217.861,246.184 219.701,244.824C222.208,242.958 224.494,240.824 226.561,238.424C228.628,236.024 230.421,233.624 231.941,231.224ZM206.301,233.424L208.021,233.864C207.728,232.984 207.581,232.184 207.581,231.464C207.581,230.158 207.901,229.031 208.541,228.084C209.181,227.138 210.008,226.371 211.021,225.784C210.488,225.571 209.888,225.404 209.221,225.284C208.554,225.164 207.754,225.104 206.821,225.104C206.421,225.104 205.888,225.151 205.221,225.244C204.554,225.338 203.894,225.531 203.241,225.824C202.588,226.118 202.021,226.551 201.541,227.124C201.061,227.698 200.821,228.451 200.821,229.384C200.821,229.998 200.921,230.511 201.121,230.924C201.321,231.338 201.641,231.691 202.081,231.984C202.521,232.278 203.088,232.531 203.781,232.744C204.474,232.958 205.314,233.184 206.301,233.424Z" style="fill:rgb(19,33,140);fill-rule:nonzero;"/>
            </g>
        </g>
    </g>
</svg>
