<?xml version="1.0" encoding="UTF-8" standalone="no"?>
<!DOCTYPE svg PUBLIC "-//W3C//DTD SVG 1.1//EN" "http://www.w3.org/Graphics/SVG/1.1/DTD/svg11.dtd">
<svg width="100%" height="100%" viewBox="0 0 621 223" version="1.1" xmlns="http://www.w3.org/2000/svg" xmlns:xlink="http://www.w3.org/1999/xlink" xml:space="preserve" xmlns:serif="http://www.serif.com/" style="fill-rule:evenodd;clip-rule:evenodd;stroke-linejoin:round;stroke-miterlimit:2;">
    <g transform="matrix(1,0,0,1,-879.143,-1799.2)">
        <g transform="matrix(1,0,0,1.00385,0,-7.79283)">
            <rect x="879.143" y="1800.05" width="620.204" height="221.585" style="fill:rgb(130,130,130);fill-opacity:0;"/>
        </g>
        <g transform="matrix(1,0,0,1,944.059,1614.5)">
            <path d="M222.186,247.001C219.387,250.869 216.379,253.186 213.163,253.954C211.223,254.423 208.977,254.267 206.424,253.486C201.971,252.119 198.911,249.319 197.245,245.087C196.464,243.069 196.073,240.979 196.073,238.818C196.073,236.852 196.392,234.827 197.03,232.744C198.384,228.316 200.669,224.944 203.885,222.626C206.281,220.895 208.892,220.029 211.717,220.029C213.228,220.029 214.797,220.276 216.424,220.771C219.393,221.682 222.076,223.388 224.471,225.888C226.06,227.542 226.854,229.215 226.854,230.908C226.854,231.454 226.77,232.001 226.6,232.548C226.353,233.382 225.845,234.007 225.077,234.423C224.647,234.645 224.172,234.755 223.651,234.755C223.26,234.755 222.837,234.69 222.382,234.56C221.73,234.352 221.307,233.395 221.112,231.689C220.839,229.241 220.552,227.626 220.253,226.845C219.563,224.983 218.273,223.759 216.385,223.173C215.461,222.9 214.569,222.763 213.71,222.763C209.113,222.763 205.663,226.539 203.358,234.091C202.746,236.083 202.44,237.932 202.44,239.638C202.44,241.474 202.792,243.147 203.495,244.658C204.706,247.275 206.737,249.02 209.589,249.892C211.568,250.491 213.628,250.481 215.77,249.863C217.912,249.244 219.771,247.991 221.346,246.103L222.186,247.001Z" style="fill:rgb(19,33,140);fill-rule:nonzero;"/>
            <path d="M223.202,251.337C225.129,250.908 226.561,249.553 227.499,247.275L236.932,224.189L238.358,224.15L248.397,246.552C249.048,247.984 249.628,248.961 250.135,249.482C250.695,250.068 251.464,250.348 252.44,250.322L252.499,251.747L239.335,252.216L239.276,250.771C241.893,250.68 243.176,249.898 243.124,248.427C243.098,247.867 242.915,247.177 242.577,246.357L236.112,230.615L229.374,246.826C229.1,247.75 228.97,248.447 228.983,248.915C229.009,249.632 229.315,250.169 229.901,250.527C230.487,250.885 231.509,251.044 232.967,251.005L233.026,252.431L223.241,252.763L223.202,251.337Z" style="fill:rgb(19,33,140);fill-rule:nonzero;"/>
            <path d="M270.448,218.642C270.474,218.941 270.487,219.228 270.487,219.501C270.487,221.428 269.803,222.451 268.436,222.568C268.007,222.607 266.444,221.448 263.749,219.091C262.447,217.945 261.177,217.431 259.94,217.548C258.625,217.652 257.766,218.421 257.362,219.853C256.932,221.337 256.796,222.952 256.952,224.697L257.733,233.72L264.979,233.095L264.647,235.693L257.967,236.279L259.706,256.201C259.823,257.529 260.109,258.382 260.565,258.759C261.268,259.358 262.811,259.553 265.194,259.345L265.331,260.927L250.37,262.236L250.214,260.654C251.945,260.497 253.078,260.165 253.612,259.658C254.341,258.954 254.621,257.626 254.452,255.673L252.792,236.728L247.635,237.177L247.948,234.579L252.577,234.189L252.186,229.814C252.134,229.163 252.108,228.525 252.108,227.9C252.108,224.905 252.779,222.314 254.12,220.126C255.93,217.197 258.658,215.576 262.303,215.263C264.764,215.042 266.708,215.221 268.133,215.8C269.559,216.38 270.331,217.327 270.448,218.642Z" style="fill:rgb(19,33,140);fill-rule:nonzero;"/>
            <path d="M295.253,239.814C293.586,246.389 290.318,250.107 285.448,250.966C284.146,251.201 282.922,251.318 281.776,251.318C275.096,251.318 271.125,247.731 269.862,240.556C269.706,239.671 269.628,238.805 269.628,237.958C269.628,235.302 270.376,232.757 271.874,230.322C273.801,227.158 276.464,225.276 279.862,224.677C280.839,224.508 281.783,224.423 282.694,224.423C284.699,224.423 286.555,224.84 288.26,225.673C290.747,226.884 292.473,228.896 293.436,231.708L273.69,235.185C273.651,236.253 273.697,237.151 273.827,237.88C274.348,240.836 275.682,243.264 277.831,245.165C279.576,246.715 281.431,247.49 283.397,247.49C283.866,247.49 284.335,247.444 284.803,247.353C287.954,246.806 290.383,245.523 292.089,243.505C293.052,242.372 293.651,241.07 293.885,239.599L295.253,239.814ZM286.268,231.513C285.956,229.768 285.24,228.388 284.12,227.372C282.896,226.253 281.438,225.843 279.745,226.142C278.052,226.441 276.665,227.366 275.585,228.915C274.621,230.283 274.042,231.884 273.846,233.72L286.268,231.513ZM292.382,213.388C292.382,213.857 292.284,214.293 292.089,214.697C291.854,215.152 291.483,215.556 290.975,215.908L281.815,222.275L279.549,222.275L287.792,212.685C288.703,211.63 289.602,211.103 290.487,211.103C291.75,211.103 292.382,211.865 292.382,213.388Z" style="fill:rgb(19,33,140);fill-rule:nonzero;"/>
        </g>
        <g transform="matrix(1,0,0,1,805.258,-1201.86)">
            <g transform="matrix(1.6967,0,0,1.6967,-225.243,2771.88)">
                <path d="M204.421,193.184C201.914,193.184 199.754,194.011 197.941,195.664C195.914,197.478 194.901,199.824 194.901,202.704L194.901,209.504C194.901,212.011 195.728,214.171 197.381,215.984C199.141,218.011 201.488,219.024 204.421,219.024L208.341,219.024L208.341,240.384L207.221,240.384L207.221,220.144L194.901,220.144L194.901,243.184C194.901,246.118 195.914,248.464 197.941,250.224C199.754,251.878 201.914,252.704 204.421,252.704L211.221,252.704C214.101,252.704 216.448,251.691 218.261,249.664C219.914,247.851 220.741,245.691 220.741,243.184L220.741,216.224C220.741,213.291 219.728,210.918 217.701,209.104C215.888,207.504 213.728,206.704 211.221,206.704L207.221,206.704L207.221,205.584L220.741,205.584L220.741,193.184L204.421,193.184Z" style="fill:rgb(19,33,140);fill-rule:nonzero;"/>
            </g>
            <g transform="matrix(2.28625,0,0,2.28625,-375.418,2621.51)">
                <path d="M260.421,221.264L260.421,253.604L245.361,253.604L245.361,221.264L231.801,221.264L231.801,208.844L273.981,208.844L273.981,221.264L260.421,221.264Z" style="fill:rgb(251,110,47);fill-rule:nonzero;"/>
            </g>
            <g transform="matrix(1.82009,0,0,1.82009,-196.737,2735.24)">
                <path d="M256.081,224.354C256.734,222.394 258.088,221.414 260.141,221.414C261.354,221.414 262.381,221.834 263.221,222.674C264.061,223.514 264.481,224.541 264.481,225.754C264.481,226.968 264.061,227.994 263.221,228.834C262.381,229.674 261.354,230.094 260.141,230.094C258.088,230.094 256.734,229.114 256.081,227.154L252.231,227.154L252.231,249.904L265.251,249.904C265.858,247.758 267.258,246.684 269.451,246.684C270.664,246.684 271.691,247.104 272.531,247.944C273.371,248.784 273.791,249.811 273.791,251.024C273.791,252.238 273.371,253.264 272.531,254.104C271.691,254.944 270.664,255.364 269.451,255.364C267.538,255.364 266.208,254.478 265.461,252.704L249.431,252.704L249.431,203.704L265.321,203.704C265.881,201.604 267.258,200.554 269.451,200.554C270.664,200.554 271.691,200.974 272.531,201.814C273.371,202.654 273.791,203.681 273.791,204.894C273.791,206.108 273.371,207.134 272.531,207.974C271.691,208.814 270.664,209.234 269.451,209.234C267.491,209.234 266.161,208.324 265.461,206.504L252.231,206.504L252.231,224.354L256.081,224.354Z" style="fill:rgb(142,189,31);fill-rule:nonzero;"/>
            </g>
            <g transform="matrix(1.63046,0,0,1.63046,-339.623,2767.67)">
                <path d="M450.321,234.584C450.321,243.584 447.121,250.904 440.721,256.544C434.641,261.864 427.061,264.524 417.981,264.524C410.661,264.524 404.241,261.284 398.721,254.804C393.401,248.644 390.741,241.884 390.741,234.524C390.741,226.324 393.651,219.294 399.471,213.434C405.291,207.574 412.281,204.644 420.441,204.644C428.601,204.644 435.621,207.584 441.501,213.464C447.381,219.344 450.321,226.384 450.321,234.584ZM448.941,234.704L446.241,234.704L446.241,234.284L448.941,234.284L448.941,233.084C448.941,232.324 448.801,231.264 448.521,229.904C448.361,229.864 447.481,229.964 445.881,230.204L445.881,229.844L448.401,229.364L447.321,225.044L444.861,225.884L444.561,225.584L447.021,224.624L445.341,220.544L442.941,221.864L442.701,221.444L445.101,220.004C444.581,219.124 443.701,217.924 442.461,216.404L440.361,218.204L440.001,217.844L442.221,215.984C441.061,214.704 439.981,213.664 438.981,212.864L437.181,214.904L436.881,214.664L438.741,212.504C437.661,211.584 436.421,210.704 435.021,209.864L433.521,212.324L433.221,212.024L434.601,209.624L430.581,207.704L429.381,210.344L429.141,210.224L430.101,207.524C429.981,207.444 428.541,207.044 425.781,206.324L425.181,209.204L424.761,209.084L425.301,206.264C424.021,205.904 422.481,205.784 420.681,205.904L420.681,208.784L420.261,208.784L420.261,205.904L417.741,205.904C417.741,205.904 417.081,206.024 415.761,206.264L416.181,209.204L415.881,209.204C415.681,208.524 415.481,207.564 415.281,206.324C414.521,206.444 413.781,206.584 413.061,206.744C412.181,206.944 411.481,207.204 410.961,207.524L411.921,210.164L411.501,210.344L410.421,207.584L406.401,209.504L407.841,212.084L407.421,212.324L405.921,209.804C405.041,210.284 403.841,211.184 402.321,212.504L404.121,214.664L403.761,214.904L401.901,212.744C400.621,213.904 399.581,214.984 398.781,215.984L400.941,217.844L400.581,218.204L398.421,216.284C397.621,217.084 396.781,218.344 395.901,220.064L398.361,221.504L398.121,221.864L395.601,220.484L393.741,224.504L396.381,225.644L396.141,225.884L393.561,225.044C393.041,226.244 392.681,227.644 392.481,229.244L395.181,229.904L394.941,230.264L392.361,229.784C392.001,232.064 391.861,233.564 391.941,234.284L394.821,234.284L394.821,234.704L391.941,234.704L391.941,235.964C391.941,236.644 392.081,237.744 392.361,239.264L394.881,238.784L395.181,239.144L392.421,239.684L392.421,240.104C392.421,240.504 392.761,241.804 393.441,244.004L396.201,243.104L396.381,243.464L393.741,244.544L395.541,248.564L398.121,247.184L398.361,247.544L395.781,249.104C396.301,249.984 397.181,251.184 398.421,252.704L400.581,250.844L400.941,251.204L398.661,253.184C399.821,254.424 400.901,255.464 401.901,256.304L403.761,254.144L404.121,254.384L402.201,256.664L405.861,259.244L407.541,256.664L407.841,256.964L406.401,259.544L410.421,261.464L411.561,258.584L411.921,258.824L410.841,261.584C413.081,262.344 414.561,262.724 415.281,262.724L415.881,259.844L416.301,259.904L415.761,262.844C416.921,263.244 418.421,263.364 420.261,263.204L420.261,260.264L420.681,260.264L420.681,263.204L423.321,263.204C423.321,263.204 423.961,263.064 425.241,262.784L424.881,259.844L425.781,262.724L426.321,262.724C426.441,262.724 427.701,262.324 430.101,261.524L429.141,258.884L429.441,258.584L430.581,261.344C431.181,261.104 432.541,260.504 434.661,259.544L433.221,256.904L433.521,256.664L435.021,259.244C436.581,258.204 437.821,257.304 438.741,256.544L436.881,254.384L437.001,254.084C437.601,254.524 438.301,255.264 439.101,256.304L442.281,253.064L440.001,251.204L440.361,250.844L442.581,252.704C443.741,251.104 444.561,249.844 445.041,248.924L442.701,247.424L442.941,247.184L445.341,248.564L447.141,244.424L444.561,243.404L444.741,243.104L447.321,244.004L448.401,239.684C448.241,239.724 447.401,239.564 445.881,239.204L445.881,238.844L446.181,238.784L448.641,239.084C448.881,237.084 448.981,235.624 448.941,234.704ZM441.441,223.064C441.441,223.264 441.311,223.474 441.051,223.694C440.791,223.914 440.561,224.024 440.361,224.024C439.681,224.024 439.341,223.564 439.341,222.644C439.341,221.604 439.681,221.084 440.361,221.084C441.001,221.084 441.321,221.344 441.321,221.864L440.721,221.864L440.721,221.744C440.761,221.544 440.641,221.444 440.361,221.444C440.201,221.444 440.061,221.564 439.941,221.804L440.001,222.224C440.121,222.104 440.281,222.044 440.481,222.044C441.121,222.044 441.441,222.384 441.441,223.064ZM432.981,215.384C432.981,215.944 432.641,216.224 431.961,216.224C431.321,216.224 431.021,215.964 431.061,215.444L431.061,215.324L431.481,215.324C431.681,215.644 431.861,215.804 432.021,215.804C432.341,215.804 432.501,215.664 432.501,215.384C432.501,214.904 432.241,214.744 431.721,214.904C431.881,214.784 432.101,214.584 432.381,214.304L432.381,213.884C432.221,213.724 432.121,213.644 432.081,213.644C431.761,213.644 431.601,213.804 431.601,214.124L431.121,214.124C431.201,213.524 431.521,213.224 432.081,213.224C432.681,213.224 432.981,213.504 432.981,214.064C432.981,214.224 432.861,214.424 432.621,214.664C432.861,214.864 432.981,215.104 432.981,215.384ZM444.861,233.444L443.601,233.444L443.601,234.104C443.761,234.144 443.921,234.164 444.081,234.164L444.321,234.164C444.481,234.164 444.661,234.144 444.861,234.104L444.861,234.644C444.621,234.604 444.421,234.584 444.261,234.584L444.021,234.584C443.901,234.584 443.761,234.604 443.601,234.644L443.601,235.484L444.861,235.484L444.861,235.904L443.001,235.904L443.001,232.964L444.861,232.964L444.861,233.444ZM421.581,213.104L421.161,213.104C420.681,212.264 420.221,211.544 419.781,210.944C419.741,211.264 419.721,211.604 419.721,211.964C419.721,212.324 419.761,212.704 419.841,213.104L419.361,213.104L419.361,210.164L419.901,210.164C420.141,210.484 420.561,211.184 421.161,212.264C421.201,211.984 421.221,211.684 421.221,211.364C421.221,211.004 421.201,210.604 421.161,210.164L421.581,210.164L421.581,213.104ZM441.981,245.024C441.981,245.704 441.601,246.204 440.841,246.524C440.961,246.564 441.121,246.584 441.321,246.584C441.521,246.584 441.741,246.564 441.981,246.524L441.981,247.064L440.241,247.064L440.241,246.524C440.481,246.284 440.751,246.014 441.051,245.714C441.351,245.414 441.501,245.184 441.501,245.024C441.501,244.704 441.381,244.544 441.141,244.544C441.021,244.544 440.881,244.704 440.721,245.024L440.241,245.024L440.241,244.904C440.241,244.384 440.521,244.124 441.081,244.124C441.681,244.124 441.981,244.424 441.981,245.024ZM410.421,215.444C410.421,216.004 410.081,216.284 409.401,216.284C408.761,216.284 408.441,216.044 408.441,215.564C408.441,215.524 408.461,215.484 408.501,215.444L409.041,215.444C409.041,215.764 409.201,215.924 409.521,215.924C409.801,215.924 409.941,215.764 409.941,215.444C409.941,215.124 409.761,214.964 409.401,214.964C409.281,214.964 409.201,214.984 409.161,215.024C409.201,214.864 409.321,214.734 409.521,214.634C409.721,214.534 409.821,214.364 409.821,214.124C409.821,213.884 409.721,213.764 409.521,213.764C409.201,213.764 409.041,213.924 409.041,214.244L408.561,214.244C408.681,213.644 409.001,213.344 409.521,213.344C410.041,213.344 410.301,213.604 410.301,214.124C410.301,214.404 410.221,214.624 410.061,214.784C410.101,214.824 410.181,214.844 410.301,214.844C410.301,214.924 410.321,215.024 410.361,215.144C410.401,215.264 410.421,215.364 410.421,215.444ZM440.001,247.064L439.461,247.064C439.501,246.664 439.521,246.304 439.521,245.984L439.521,245.624C439.521,245.424 439.501,245.144 439.461,244.784C439.421,244.864 439.261,244.964 438.981,245.084C438.981,245.004 439.051,244.844 439.191,244.604C439.331,244.364 439.461,244.244 439.581,244.244L440.001,244.244L440.001,247.064ZM408.381,215.624C408.381,215.704 408.361,215.764 408.321,215.804C407.921,216.124 407.581,216.284 407.301,216.284C406.701,216.284 406.401,216.044 406.401,215.564L406.401,215.444L406.881,215.444C406.921,215.764 407.081,215.924 407.361,215.924C407.681,215.924 407.841,215.764 407.841,215.444C407.841,215.124 407.581,214.984 407.061,215.024C407.181,214.904 407.421,214.684 407.781,214.364L407.781,214.004C407.581,213.844 407.461,213.764 407.421,213.764C407.101,213.764 406.941,213.924 406.941,214.244L406.461,214.244C406.541,213.644 406.861,213.344 407.421,213.344C408.061,213.344 408.381,213.624 408.381,214.184C408.381,214.344 408.241,214.544 407.961,214.784C408.241,215.064 408.381,215.344 408.381,215.624ZM424.161,227.084C424.041,227.124 423.641,227.144 422.961,227.144C422.641,227.144 422.361,227.284 422.121,227.564L422.121,244.004C422.121,244.204 422.421,244.324 423.021,244.364C423.421,244.404 423.801,244.424 424.161,244.424L424.161,244.844L415.581,244.844L415.461,244.424C415.861,244.464 416.461,244.404 417.261,244.244C417.461,244.164 417.561,244.064 417.561,243.944L417.561,227.564C417.401,227.284 416.921,227.144 416.121,227.144C416.121,227.144 415.901,227.124 415.461,227.084L415.581,226.664L424.161,226.664L424.161,227.084ZM402.921,222.704C402.921,223.704 402.581,224.204 401.901,224.204C401.261,224.204 400.941,223.724 400.941,222.764C400.941,221.764 401.281,221.264 401.961,221.264C402.601,221.264 402.921,221.744 402.921,222.704ZM434.001,254.984C434.001,255.744 433.681,256.124 433.041,256.124C432.561,256.124 432.261,255.824 432.141,255.224L432.681,255.224C432.841,255.464 432.981,255.584 433.101,255.584C433.421,255.584 433.581,255.384 433.581,254.984C433.581,254.664 433.421,254.504 433.101,254.504C433.061,254.504 432.761,254.644 432.201,254.924L432.201,253.124L433.761,253.124C433.441,253.244 433.121,253.364 432.801,253.484C432.761,253.524 432.701,253.744 432.621,254.144L433.221,254.144C433.741,254.144 434.001,254.424 434.001,254.984ZM400.821,223.304C400.821,223.904 400.481,224.204 399.801,224.204C399.281,224.204 398.961,223.924 398.841,223.364L399.441,223.364C399.561,223.604 399.721,223.724 399.921,223.724C400.041,223.724 400.181,223.644 400.341,223.484C400.261,223.164 400.131,222.954 399.951,222.854C399.771,222.754 399.641,222.624 399.561,222.464C399.841,222.464 400.061,222.404 400.221,222.284L400.221,221.924C400.221,221.764 400.101,221.684 399.861,221.684C399.661,221.684 399.521,221.804 399.441,222.044L398.961,222.044L398.961,221.924C398.961,221.484 399.281,221.264 399.921,221.264C400.521,221.264 400.821,221.504 400.821,221.984C400.821,222.144 400.701,222.344 400.461,222.584C400.701,222.864 400.821,223.104 400.821,223.304ZM431.901,256.004L431.541,253.904C431.461,253.864 431.401,253.844 431.361,253.844C431.281,253.844 431.141,253.904 430.941,254.024C430.981,253.624 431.301,253.324 431.901,253.124L431.901,256.004ZM399.921,232.844L399.021,235.784L398.601,235.784C398.601,235.784 398.401,235.024 398.001,233.504C397.681,234.224 397.421,234.984 397.221,235.784C397.021,235.584 396.641,234.604 396.081,232.844L396.561,232.844C396.681,233.324 396.861,234.024 397.101,234.944C397.261,234.624 397.481,233.924 397.761,232.844L398.241,232.844C398.361,233.324 398.581,234.044 398.901,235.004C399.021,234.524 399.201,233.804 399.441,232.844L399.921,232.844ZM421.641,257.744C421.641,258.344 421.241,258.644 420.441,258.644C419.841,258.644 419.481,258.324 419.361,257.684L419.841,257.684C419.961,258.084 420.181,258.284 420.501,258.284C420.581,258.284 420.781,258.184 421.101,257.984L421.101,257.624C420.781,257.504 420.421,257.364 420.021,257.204C419.621,257.044 419.421,256.784 419.421,256.424C419.421,255.864 419.781,255.584 420.501,255.584C421.221,255.584 421.561,255.884 421.521,256.484L421.041,256.484C420.961,256.164 420.781,256.004 420.501,256.004C420.461,256.004 420.281,256.084 419.961,256.244C420.001,256.524 420.291,256.764 420.831,256.964C421.371,257.164 421.641,257.424 421.641,257.744ZM402.501,246.464C402.261,246.624 402.161,246.824 402.201,247.064L401.721,247.064L401.721,246.524C401.521,246.484 401.321,246.464 401.121,246.464C400.881,246.464 400.661,246.484 400.461,246.524L400.461,245.804C400.821,245.324 401.181,244.804 401.541,244.244L402.201,244.244C402.201,244.164 402.201,244.484 402.201,245.204C402.201,245.644 402.301,245.924 402.501,246.044L402.501,246.464ZM410.241,256.004L409.761,256.004L409.761,253.904C409.681,253.864 409.621,253.844 409.581,253.844C409.501,253.844 409.361,253.904 409.161,254.024L409.161,253.844C409.161,253.724 409.341,253.484 409.701,253.124L410.241,253.124L410.241,256.004ZM400.341,244.964C400.341,245.084 399.981,245.604 399.261,246.524C399.421,246.604 399.781,246.624 400.341,246.584L400.341,247.064L398.481,247.064L398.481,246.644C399.401,245.684 399.861,245.124 399.861,244.964C399.861,244.684 399.701,244.544 399.381,244.544C399.141,244.544 399.021,244.704 399.021,245.024L398.541,245.024L398.541,244.544C398.821,244.264 399.081,244.124 399.321,244.124C400.001,244.124 400.341,244.404 400.341,244.964ZM408.921,253.904C408.921,254.344 408.541,254.884 407.781,255.524C407.941,255.564 408.101,255.584 408.261,255.584C408.461,255.584 408.681,255.564 408.921,255.524L408.921,256.004L407.181,256.004L407.181,255.524C408.021,254.764 408.441,254.224 408.441,253.904C408.441,253.944 408.361,253.784 408.201,253.424C407.961,253.424 407.781,253.624 407.661,254.024L407.181,254.024C407.141,253.344 407.421,253.004 408.021,253.004C408.621,253.004 408.921,253.304 408.921,253.904ZM440.901,223.064C440.901,222.824 440.721,222.624 440.361,222.464C440.201,222.584 440.061,222.644 439.941,222.644L439.941,223.304C439.941,223.504 440.081,223.604 440.361,223.604C440.721,223.604 440.901,223.424 440.901,223.064ZM402.441,222.764L402.441,222.464C402.441,221.944 402.221,221.684 401.781,221.684C401.541,222.004 401.421,222.284 401.421,222.524C401.421,223.324 401.601,223.724 401.961,223.724C402.121,223.724 402.221,223.684 402.261,223.604C402.301,223.524 402.341,223.384 402.381,223.184C402.421,222.984 402.441,222.844 402.441,222.764ZM401.721,245.984L401.721,244.904C401.521,245.144 401.261,245.504 400.941,245.984L401.721,245.984Z" style="fill:rgb(236,58,148);fill-rule:nonzero;"/>
            </g>
            <g transform="matrix(1.76482,0,0,1.76482,-250.662,2733.48)">
                <path d="M405.166,263.594L388.721,263.594L380.526,217.724L380.526,263.594L368.976,263.594L368.976,208.594L386.796,208.594L395.156,250.119L395.156,208.594L405.166,208.594L405.166,263.594ZM402.691,213.269L402.196,213.269C401.389,213.306 400.858,212.829 400.601,211.839C400.308,212.976 399.556,213.453 398.346,213.269C398.676,213.453 399.134,213.783 399.721,214.259C399.611,214.553 399.464,215.029 399.281,215.689C399.978,215.213 400.399,214.974 400.546,214.974C400.619,214.974 401.041,215.176 401.811,215.579C401.664,215.286 401.591,215.011 401.591,214.754C401.591,214.094 401.958,213.599 402.691,213.269ZM402.691,224.434L402.196,224.434C401.389,224.434 400.858,223.958 400.601,223.004C400.344,224.104 399.593,224.581 398.346,224.434C398.676,224.581 399.134,224.893 399.721,225.369C399.611,225.699 399.464,226.176 399.281,226.799C399.978,226.359 400.399,226.139 400.546,226.139C400.619,226.139 401.041,226.341 401.811,226.744C401.664,226.451 401.591,226.158 401.591,225.864C401.591,225.241 401.958,224.764 402.691,224.434ZM387.126,217.944C386.429,217.944 386.154,217.944 386.301,217.944C385.458,217.944 385.036,217.504 385.036,216.624C384.743,217.651 383.991,218.073 382.781,217.889C383.368,218.366 383.789,218.751 384.046,219.044C383.973,219.338 383.863,219.796 383.716,220.419C384.523,219.869 384.944,219.594 384.981,219.594C384.871,219.594 385.293,219.851 386.246,220.364C386.099,220.071 386.026,219.796 386.026,219.539C386.026,218.879 386.393,218.348 387.126,217.944ZM402.691,235.434L402.196,235.434C401.389,235.471 400.858,234.994 400.601,234.004C400.308,235.141 399.556,235.618 398.346,235.434C398.639,235.654 399.098,236.021 399.721,236.534C399.721,236.571 399.574,236.993 399.281,237.799C399.978,237.359 400.399,237.139 400.546,237.139C400.619,237.139 401.041,237.341 401.811,237.744C401.664,237.451 401.591,237.194 401.591,236.974C401.591,236.424 401.958,235.911 402.691,235.434ZM376.566,213.269C376.383,213.306 376.218,213.324 376.071,213.324C375.081,213.324 374.513,212.793 374.366,211.729C374.183,212.829 373.706,213.379 372.936,213.379C372.716,213.379 372.478,213.343 372.221,213.269C372.514,213.489 372.936,213.819 373.486,214.259C373.413,214.589 373.303,215.066 373.156,215.689C373.853,215.213 374.238,214.974 374.311,214.974C374.531,214.974 374.953,215.194 375.576,215.634C375.393,215.231 375.301,214.901 375.301,214.644C375.301,214.314 375.448,214.049 375.741,213.847C376.034,213.645 376.309,213.453 376.566,213.269ZM389.216,228.834L388.721,228.834C387.914,228.871 387.383,228.394 387.126,227.404C386.869,228.504 386.118,228.981 384.871,228.834C385.164,229.054 385.586,229.384 386.136,229.824C386.063,230.118 385.953,230.576 385.806,231.199C386.503,230.759 386.924,230.539 387.071,230.539C387.144,230.539 387.566,230.741 388.336,231.144C388.189,230.851 388.116,230.576 388.116,230.319C388.116,229.659 388.483,229.164 389.216,228.834ZM402.691,246.434C402.471,246.471 402.288,246.489 402.141,246.489C401.298,246.489 400.729,245.994 400.436,245.004C400.473,245.151 400.491,245.279 400.491,245.389C400.491,246.233 399.776,246.581 398.346,246.434C398.639,246.691 399.098,247.058 399.721,247.534C399.611,247.864 399.464,248.341 399.281,248.964C399.978,248.488 400.399,248.249 400.546,248.249C400.619,248.249 401.041,248.469 401.811,248.909C401.664,248.616 401.591,248.323 401.591,248.029C401.591,247.406 401.958,246.874 402.691,246.434ZM376.566,224.434L375.961,224.434C375.044,224.434 374.513,223.958 374.366,223.004C374.109,224.068 373.394,224.544 372.221,224.434C372.514,224.654 372.936,224.984 373.486,225.424C373.413,225.718 373.303,226.176 373.156,226.799C373.853,226.359 374.238,226.139 374.311,226.139C374.531,226.139 374.953,226.359 375.576,226.799C375.393,226.396 375.301,226.048 375.301,225.754C375.301,225.424 375.448,225.159 375.741,224.957C376.034,224.755 376.309,224.581 376.566,224.434ZM391.416,239.614L390.481,239.614C389.748,239.614 389.326,239.174 389.216,238.294C389.143,238.734 388.886,239.092 388.446,239.367C388.006,239.642 387.548,239.724 387.071,239.614C387.658,240.054 388.079,240.421 388.336,240.714C388.263,241.044 388.153,241.503 388.006,242.089C388.813,241.576 389.198,241.319 389.161,241.319C389.271,241.319 389.693,241.576 390.426,242.089C390.243,241.723 390.151,241.393 390.151,241.099C390.151,240.733 390.289,240.439 390.564,240.219C390.839,239.999 391.123,239.798 391.416,239.614ZM402.691,257.599L402.196,257.599C401.389,257.636 400.858,257.159 400.601,256.169C400.308,257.269 399.556,257.746 398.346,257.599C398.639,257.819 399.098,258.168 399.721,258.644C399.721,258.681 399.574,259.121 399.281,259.964C399.978,259.524 400.399,259.304 400.546,259.304C400.619,259.304 401.041,259.506 401.811,259.909C401.664,259.616 401.591,259.359 401.591,259.139C401.591,258.589 401.958,258.076 402.691,257.599ZM393.836,251.109L393.286,251.109C392.333,251.146 391.838,250.669 391.801,249.679C391.544,250.779 390.774,251.256 389.491,251.109C389.784,251.329 390.224,251.659 390.811,252.099C390.738,252.393 390.628,252.851 390.481,253.474C391.141,253.034 391.544,252.814 391.691,252.814C391.801,252.814 392.223,253.016 392.956,253.419C392.809,253.126 392.736,252.851 392.736,252.594C392.736,251.934 393.103,251.439 393.836,251.109ZM376.566,235.434L375.961,235.434C375.044,235.434 374.513,234.958 374.366,234.004C374.109,235.104 373.394,235.581 372.221,235.434C372.844,235.874 373.266,236.241 373.486,236.534C373.449,236.828 373.339,237.249 373.156,237.799C373.853,237.359 374.238,237.139 374.311,237.139C374.458,237.139 374.879,237.359 375.576,237.799C375.503,237.506 375.393,237.084 375.246,236.534C375.613,236.241 376.053,235.874 376.566,235.434ZM376.566,246.434C376.383,246.471 376.218,246.489 376.071,246.489C374.971,246.489 374.366,245.994 374.256,245.004C374.146,246.031 373.724,246.544 372.991,246.544C372.771,246.544 372.514,246.508 372.221,246.434C372.808,246.874 373.229,247.259 373.486,247.589C373.413,247.883 373.303,248.341 373.156,248.964C373.853,248.488 374.238,248.249 374.311,248.249C374.531,248.249 374.953,248.488 375.576,248.964C375.393,248.561 375.301,248.213 375.301,247.919C375.301,247.589 375.439,247.314 375.714,247.094C375.989,246.874 376.273,246.654 376.566,246.434ZM376.566,257.599L375.961,257.599C375.044,257.599 374.513,257.123 374.366,256.169C374.109,257.269 373.394,257.746 372.221,257.599C372.844,258.039 373.266,258.406 373.486,258.699C373.449,258.993 373.339,259.414 373.156,259.964C373.853,259.524 374.238,259.304 374.311,259.304C374.458,259.304 374.879,259.524 375.576,259.964C375.503,259.671 375.393,259.249 375.246,258.699C375.613,258.406 376.053,258.039 376.566,257.599Z" style="fill:rgb(0,163,39);fill-rule:nonzero;"/>
            </g>
            <g transform="matrix(2.30619,0,0,2.30619,-417.452,2615.38)">
                <path d="M450.561,231.464C450.481,231.704 450.441,231.904 450.441,232.064C450.441,233.064 451.641,233.564 454.041,233.564C454.041,234.324 453.781,235.204 453.261,236.204C452.981,236.724 452.621,237.404 452.181,238.244C451.741,239.084 451.201,240.124 450.561,241.364C449.241,243.844 448.561,245.344 448.521,245.864C448.401,246.944 448.341,247.604 448.341,247.844C448.341,251.204 450.361,252.884 454.401,252.884C456.001,252.884 457.781,252.264 459.741,251.024C460.741,250.384 461.671,249.724 462.531,249.044C463.391,248.364 464.181,247.624 464.901,246.824C466.381,245.224 467.121,244.084 467.121,243.404C467.121,243.404 467.081,243.284 467.001,243.044C466.881,242.924 466.761,242.864 466.641,242.864C466.241,242.864 465.361,243.524 464.001,244.844C462.601,246.164 461.451,247.174 460.551,247.874C459.651,248.574 458.661,248.964 457.581,249.044C457.221,249.044 457.041,248.864 457.041,248.504C457.041,248.224 457.241,247.424 457.641,246.104C457.841,245.384 458.031,244.694 458.211,244.034C458.391,243.374 458.541,242.744 458.661,242.144C459.061,240.544 459.261,238.984 459.261,237.464C459.261,235.664 458.881,234.364 458.121,233.564C457.921,233.524 457.671,233.454 457.371,233.354C457.071,233.254 456.921,233.144 456.921,233.024C456.921,232.904 457.181,232.784 457.701,232.664C459.501,232.144 461.141,231.574 462.621,230.954C464.101,230.334 465.361,229.624 466.401,228.824C467.441,228.024 468.251,227.114 468.831,226.094C469.411,225.074 469.701,223.904 469.701,222.584C469.701,221.464 469.531,220.424 469.191,219.464C468.851,218.504 468.391,217.634 467.811,216.854C467.231,216.074 466.571,215.394 465.831,214.814C465.091,214.234 464.321,213.744 463.521,213.344C463.521,213.384 463.661,213.304 463.941,213.104C464.221,212.904 464.701,212.604 465.381,212.204C465.821,211.964 466.041,211.704 466.041,211.424C466.041,211.144 465.861,210.964 465.501,210.884C464.381,210.884 462.361,211.364 459.441,212.324C458.401,212.124 457.461,211.964 456.621,211.844C455.781,211.724 455.021,211.624 454.341,211.544C453.661,211.464 452.901,211.404 452.061,211.364C451.221,211.324 450.281,211.304 449.241,211.304C446.601,211.304 444.161,211.494 441.921,211.874C439.681,212.254 437.641,212.774 435.801,213.434C433.961,214.094 432.321,214.864 430.881,215.744C429.441,216.624 428.221,217.544 427.221,218.504C425.221,220.464 423.791,222.354 422.931,224.174C422.071,225.994 421.601,227.404 421.521,228.404C421.521,230.484 422.161,232.044 423.441,233.084C424.681,234.044 426.141,234.684 427.821,235.004C428.021,235.044 428.261,235.074 428.541,235.094C428.821,235.114 429.161,235.124 429.561,235.124C431.281,235.124 433.081,234.764 434.961,234.044C436.801,233.324 438.001,232.684 438.561,232.124C440.281,230.484 441.681,227.904 442.761,224.384C443.001,223.624 443.121,222.624 443.121,221.384C443.121,220.344 443.071,219.444 442.971,218.684C442.871,217.924 442.801,217.364 442.761,217.004C442.481,216.844 442.261,216.764 442.101,216.764C441.741,216.764 441.531,216.994 441.471,217.454C441.411,217.914 441.261,218.424 441.021,218.984C439.821,222.664 438.261,225.804 436.341,228.404C434.421,230.924 431.601,232.304 427.881,232.544C426.761,232.544 425.851,232.204 425.151,231.524C424.451,230.844 424.101,229.764 424.101,228.284C424.181,227.084 424.771,225.634 425.871,223.934C426.971,222.234 428.551,220.604 430.611,219.044C432.671,217.484 435.201,216.164 438.201,215.084C441.201,214.004 444.681,213.484 448.641,213.524C449.081,213.524 450.081,213.644 451.641,213.884C453.161,214.124 454.401,214.364 455.361,214.604C453.641,215.844 452.131,217.114 450.831,218.414C449.531,219.714 448.321,221.124 447.201,222.644C446.641,223.404 446.121,224.154 445.641,224.894C445.161,225.634 444.701,226.344 444.261,227.024C443.821,227.704 443.291,228.584 442.671,229.664C442.051,230.744 441.321,231.984 440.481,233.384C440.081,234.064 439.621,234.874 439.101,235.814C438.581,236.754 437.981,237.804 437.301,238.964C436.021,241.244 434.741,243.204 433.461,244.844C432.261,246.444 430.971,247.714 429.591,248.654C428.211,249.594 426.761,250.064 425.241,250.064C423.401,250.064 421.961,249.794 420.921,249.254C419.881,248.714 419.201,247.764 418.881,246.404C419.401,246.524 419.941,246.584 420.501,246.584C421.741,246.584 422.791,246.274 423.651,245.654C424.511,245.034 424.941,244.084 424.941,242.804C424.861,241.724 424.521,240.824 423.921,240.104C423.321,239.384 422.381,239.024 421.101,239.024C419.661,239.064 418.441,239.514 417.441,240.374C416.441,241.234 415.941,242.644 415.941,244.604C415.941,247.044 416.871,249.024 418.731,250.544C420.591,252.064 423.141,252.844 426.381,252.884C429.621,252.884 432.521,252.284 435.081,251.084C437.641,249.884 439.821,248.264 441.621,246.224C443.461,244.184 445.051,241.844 446.391,239.204C447.731,236.564 448.961,233.604 450.081,230.324C450.681,228.604 451.361,226.934 452.121,225.314C452.881,223.694 453.691,222.204 454.551,220.844C455.411,219.484 456.301,218.314 457.221,217.334C458.141,216.354 459.081,215.644 460.041,215.204C462.241,216.324 463.341,218.004 463.341,220.244C463.381,221.284 463.131,222.404 462.591,223.604C462.051,224.804 461.381,225.934 460.581,226.994C459.781,228.054 458.931,229.004 458.031,229.844C457.131,230.684 456.341,231.264 455.661,231.584C454.381,230.744 453.301,230.324 452.421,230.324C451.541,230.324 450.921,230.704 450.561,231.464Z" style="fill:rgb(247,2,1);fill-rule:nonzero;"/>
            </g>
            <g transform="matrix(1.80396,0,0,1.80396,-271.106,2742.55)">
                <path d="M456.621,199.544L459.201,207.464L457.221,205.124C456.261,203.964 455.401,203.074 454.641,202.454C453.881,201.834 453.061,201.424 452.181,201.224C448.861,201.224 443.871,201.084 437.211,200.804C430.551,200.524 426.801,200.384 425.961,200.384C424.441,200.984 423.681,201.684 423.681,202.484C423.681,203.444 423.941,204.064 424.461,204.344C424.981,204.624 425.821,204.844 426.981,205.004C428.141,205.164 429.001,205.384 429.561,205.664C431.481,204.744 432.761,204.134 433.401,203.834C434.041,203.534 434.881,203.204 435.921,202.844C437.481,202.204 439.281,201.884 441.321,201.884C444.521,201.884 447.511,202.394 450.291,203.414C453.071,204.434 455.351,205.974 457.131,208.034C458.911,210.094 459.801,212.644 459.801,215.684C459.801,218.084 459.471,220.014 458.811,221.474C458.151,222.934 457.261,224.144 456.141,225.104L453.861,227.084C453.461,227.524 453.181,228.144 453.021,228.944L450.741,228.944L449.661,230.564C449.261,231.324 448.831,231.924 448.371,232.364C447.911,232.804 447.301,233.024 446.541,233.024L446.301,232.724C446.341,232.564 446.541,232.344 446.901,232.064L447.561,231.404C447.721,231.244 447.801,230.984 447.801,230.624C447.201,230.624 446.401,230.764 445.401,231.044L443.361,231.524L442.101,231.764L440.721,232.184L439.881,232.724C440.521,233.884 441.341,234.684 442.341,235.124C443.381,235.484 444.601,235.664 446.001,235.664L449.301,235.844C449.821,235.844 450.221,235.864 450.501,235.904C450.781,235.944 451.201,236.014 451.761,236.114C452.321,236.214 452.771,236.304 453.111,236.384C453.451,236.464 453.961,236.634 454.641,236.894C455.321,237.154 455.981,237.624 456.621,238.304C457.381,239.504 457.761,241.364 457.761,243.884C457.041,245.684 455.911,247.164 454.371,248.324C452.831,249.484 451.021,250.164 448.941,250.364C447.261,250.364 445.481,250.164 443.601,249.764C441.721,249.364 440.481,249.164 439.881,249.164C438.401,249.164 437.301,249.664 436.581,250.664L435.681,250.904C435.281,251.104 434.901,251.204 434.541,251.204L442.101,251.324L450.081,251.564C453.561,251.084 456.601,248.824 459.201,244.784L458.361,249.284L457.761,252.704L413.361,252.704L413.061,252.404C413.141,252.004 413.381,251.724 413.781,251.564C413.941,251.444 414.321,251.264 414.921,251.024C415.521,250.784 415.881,250.464 416.001,250.064C414.841,249.144 413.911,247.884 413.211,246.284C412.511,244.684 412.161,243.004 412.161,241.244C412.161,239.564 412.501,238.114 413.181,236.894C413.861,235.674 414.411,234.754 414.831,234.134C415.251,233.514 415.941,232.544 416.901,231.224L416.901,207.764C414.181,206.004 412.821,204.244 412.821,202.484L413.361,201.884C413.601,202.044 413.851,202.334 414.111,202.754C414.371,203.174 414.621,203.444 414.861,203.564C415.061,203.804 415.441,203.924 416.001,203.924C416.521,203.604 416.781,203.344 416.781,203.144L416.601,202.724C416.481,202.324 416.381,202.054 416.301,201.914C416.221,201.774 416.161,201.654 416.121,201.554C416.081,201.454 416.041,201.344 416.001,201.224L413.961,199.784L415.101,199.184L423.621,199.304L435.741,199.304C437.381,199.304 439.151,199.314 441.051,199.334C442.951,199.354 445.001,199.384 447.201,199.424C448.121,199.424 449.621,199.444 451.701,199.484C453.781,199.524 455.421,199.544 456.621,199.544ZM454.221,207.104C452.981,205.624 451.361,204.464 449.361,203.624C447.201,202.864 445.021,202.484 442.821,202.484C440.421,202.484 437.961,202.964 435.441,203.924C435.081,203.924 434.771,204.114 434.511,204.494C434.251,204.874 433.961,205.064 433.641,205.064C432.681,205.784 432.201,206.384 432.201,206.864L432.381,207.584L432.981,208.304L433.641,208.904C434.641,210.544 435.141,212.324 435.141,214.244C435.141,215.524 434.841,216.684 434.241,217.724C434.601,218.004 435.061,218.144 435.621,218.144C436.261,218.144 436.681,218.204 436.881,218.324C436.881,218.524 436.601,218.904 436.041,219.464C435.241,219.464 434.521,219.684 433.881,220.124C433.241,220.564 432.751,221.014 432.411,221.474C432.071,221.934 431.751,222.344 431.451,222.704C431.151,223.064 430.901,223.364 430.701,223.604C431.341,223.604 431.861,223.504 432.261,223.304L433.641,222.644C434.121,222.324 434.501,222.164 434.781,222.164C435.261,222.164 435.681,222.644 436.041,223.604L438.381,220.664C438.581,220.864 438.681,221.344 438.681,222.104C438.681,222.784 438.781,223.284 438.981,223.604L439.881,223.604C440.401,223.324 440.661,222.924 440.661,222.404L440.421,221.264C440.301,220.984 440.221,220.714 440.181,220.454C440.141,220.194 440.121,219.964 440.121,219.764L440.361,218.924C440.441,218.644 440.661,218.444 441.021,218.324C441.621,219.124 441.921,220.484 441.921,222.404L442.161,222.404C443.361,221.244 443.961,219.884 443.961,218.324L442.341,218.084L440.481,217.664C439.921,217.384 439.501,217.104 439.221,216.824C437.861,215.904 437.181,214.244 437.181,211.844L437.301,208.784L437.481,205.424C438.641,205.664 439.471,206.224 439.971,207.104C440.471,207.984 440.791,209.014 440.931,210.194C441.071,211.374 441.201,212.294 441.321,212.954C441.441,213.614 441.521,214.044 441.561,214.244C442.201,215.364 442.801,215.924 443.361,215.924C442.161,214.964 441.561,213.804 441.561,212.444L441.681,209.504C441.841,208.184 441.921,206.704 441.921,205.064L442.101,204.344C442.341,204.064 442.581,203.924 442.821,203.924C442.901,204.004 442.961,204.104 443.001,204.224C443.041,204.344 443.061,204.544 443.061,204.824C444.501,205.864 445.341,206.974 445.581,208.154C445.821,209.334 446.001,210.544 446.121,211.784C446.241,213.024 446.301,214.224 446.301,215.384C446.621,214.624 446.781,213.784 446.781,212.864L446.901,209.564C446.901,208.524 447.221,207.544 447.861,206.624C448.421,205.944 449.381,205.424 450.741,205.064L450.861,208.364L450.981,211.544C450.981,213.544 450.401,215.124 449.241,216.284C448.001,216.444 447.001,217.074 446.241,218.174C445.481,219.274 445.021,220.484 444.861,221.804C445.741,221.804 446.401,221.844 446.841,221.924C447.281,222.004 447.781,222.164 448.341,222.404C448.101,222.644 447.861,222.834 447.621,222.974C447.381,223.114 446.941,223.324 446.301,223.604L449.481,223.604C450.201,223.484 450.681,223.204 450.921,222.764L451.881,221.024C452.281,220.304 452.661,219.784 453.021,219.464C453.301,219.864 453.441,220.324 453.441,220.844L453.501,222.344C453.501,222.544 453.541,222.754 453.621,222.974C453.701,223.194 453.801,223.404 453.921,223.604C454.361,222.804 454.761,222.324 455.121,222.164C456.281,220.084 456.861,217.704 456.861,215.024C456.861,212.184 455.981,209.544 454.221,207.104ZM428.901,205.964C428.301,205.684 427.611,205.454 426.831,205.274C426.051,205.094 425.221,205.004 424.341,205.004L418.881,204.884C417.241,204.884 415.701,204.564 414.261,203.924C414.261,204.244 414.361,204.554 414.561,204.854C414.761,205.154 415.061,205.464 415.461,205.784L416.601,206.564L420.801,206.924L424.941,207.104C425.501,207.104 426.091,207.144 426.711,207.224C427.331,207.304 427.881,207.384 428.361,207.464C428.721,207.264 428.901,206.764 428.901,205.964ZM428.901,214.244C428.901,210.324 429.881,207.384 431.841,205.424C431.401,205.784 430.911,206.214 430.371,206.714C429.831,207.214 429.421,207.634 429.141,207.974C428.861,208.314 428.601,208.684 428.361,209.084C428.121,209.484 427.921,209.924 427.761,210.404C427.761,212.164 427.881,213.644 428.121,214.844C428.241,215.844 428.721,216.804 429.561,217.724C430.041,217.884 430.621,217.964 431.301,217.964C430.421,217.084 429.801,216.394 429.441,215.894C429.081,215.394 428.901,214.844 428.901,214.244ZM444.861,216.524L445.101,213.464L445.401,210.404C445.401,208.164 444.541,206.684 442.821,205.964C442.821,206.684 442.781,207.364 442.701,208.004C442.621,208.644 442.541,209.144 442.461,209.504C442.461,210.664 442.601,211.644 442.881,212.444C443.081,213.204 443.441,214.024 443.961,214.904L444.861,216.524ZM449.841,206.564C448.761,207.084 448.091,207.834 447.831,208.814C447.571,209.794 447.441,211.104 447.441,212.744C447.441,214.544 447.141,215.804 446.541,216.524C447.181,216.524 447.781,216.324 448.341,215.924C448.861,215.404 449.161,214.984 449.241,214.664C449.321,214.344 449.431,213.864 449.571,213.224C449.711,212.584 449.781,212.044 449.781,211.604L449.841,206.564ZM443.361,217.184C442.161,216.784 441.471,216.184 441.291,215.384C441.111,214.584 440.931,213.664 440.751,212.624C440.571,211.584 440.381,210.494 440.181,209.354C439.981,208.214 439.461,207.384 438.621,206.864C438.341,207.984 438.121,208.904 437.961,209.624C437.801,210.344 437.721,210.904 437.721,211.304C437.721,212.784 438.221,214.324 439.221,215.924C440.261,216.764 441.641,217.184 443.361,217.184ZM427.221,210.044C427.221,209.364 427.041,208.864 426.681,208.544L425.601,207.944L424.281,207.764L423.921,212.084L423.801,217.304L423.681,222.404C423.881,223.204 424.761,223.604 426.321,223.604C427.961,223.364 429.421,221.984 430.701,219.464L427.461,216.524L427.341,214.304L427.221,210.044ZM434.241,216.284C434.241,212.164 433.261,209.324 431.301,207.764C430.901,207.884 430.701,208.344 430.701,209.144C430.701,210.104 431.081,211.004 431.841,211.844C432.281,212.604 432.501,213.884 432.501,215.684C432.141,218.884 431.161,221.344 429.561,223.064C431.681,221.384 433.241,219.124 434.241,216.284ZM458.301,220.664C458.701,219.904 458.901,218.444 458.901,216.284C458.901,214.324 458.641,212.634 458.121,211.214C457.601,209.794 456.881,208.644 455.961,207.764C457.161,209.884 457.761,212.304 457.761,215.024C457.761,217.984 457.081,220.444 455.721,222.404C455.681,222.644 455.361,223.124 454.761,223.844C454.201,224.644 453.921,225.364 453.921,226.004L455.421,224.504C456.221,223.744 456.861,223.044 457.341,222.404C457.781,221.924 458.101,221.344 458.301,220.664ZM431.601,216.824C431.601,215.944 431.581,215.194 431.541,214.574C431.501,213.954 431.401,213.384 431.241,212.864C431.041,211.824 430.561,211.004 429.801,210.404L429.561,210.704C429.561,212.144 429.661,213.424 429.861,214.544C430.141,215.584 430.721,216.344 431.601,216.824ZM441.321,221.564L441.561,221.264L441.021,219.764L441.321,221.564ZM444.261,223.064C444.421,222.904 444.801,222.824 445.401,222.824C446.121,222.744 446.501,222.604 446.541,222.404C445.381,222.404 444.621,222.624 444.261,223.064ZM438.081,223.064C437.921,223.064 437.801,223.084 437.721,223.124C437.641,223.164 437.561,223.224 437.481,223.304L438.081,223.304L438.081,223.064ZM425.421,225.104C424.981,224.864 424.601,224.744 424.281,224.744C424.201,224.824 424.121,224.924 424.041,225.044C423.961,225.164 423.921,225.364 423.921,225.644C424.121,225.644 424.321,225.574 424.521,225.434C424.721,225.294 425.021,225.184 425.421,225.104ZM430.161,224.744C428.241,225.184 426.721,225.854 425.601,226.754C424.481,227.654 423.921,229.064 423.921,230.984C424.161,229.824 425.141,228.344 426.861,226.544C426.861,227.744 426.681,228.924 426.321,230.084C427.161,230.084 427.671,229.964 427.851,229.724C428.031,229.484 428.191,229.164 428.331,228.764C428.471,228.364 428.601,227.924 428.721,227.444C428.841,226.964 429.121,226.564 429.561,226.244L429.561,227.684C429.721,227.444 429.841,226.944 429.921,226.184L430.161,224.744ZM432.201,224.744C431.641,224.744 431.341,224.884 431.301,225.164L431.061,226.724C431.061,227.484 430.841,228.004 430.401,228.284L430.701,228.284C431.701,228.284 432.201,227.104 432.201,224.744ZM433.521,225.524L433.641,224.744C433.561,224.864 433.491,225.034 433.431,225.254C433.371,225.474 433.341,225.724 433.341,226.004L433.521,225.524ZM436.281,224.744C435.841,224.744 435.481,224.844 435.201,225.044C434.921,225.244 434.581,225.584 434.181,226.064C433.781,226.544 433.501,226.804 433.341,226.844L433.941,226.844C434.021,226.684 434.351,226.494 434.931,226.274C435.511,226.054 435.881,225.884 436.041,225.764C436.201,225.644 436.281,225.304 436.281,224.744ZM450.741,226.004C449.981,225.644 449.311,225.384 448.731,225.224C448.151,225.064 447.481,224.984 446.721,224.984C445.321,224.824 443.421,224.744 441.021,224.744C440.941,224.864 440.781,224.964 440.541,225.044C440.301,225.124 440.081,225.174 439.881,225.194C439.681,225.214 439.481,225.294 439.281,225.434C439.081,225.574 438.981,225.764 438.981,226.004C440.381,226.004 441.241,226.084 441.561,226.244C441.521,226.444 441.241,226.544 440.721,226.544C440.281,226.544 440.001,226.644 439.881,226.844L442.461,226.844L441.561,226.244L441.921,226.004C442.241,225.564 442.801,225.344 443.601,225.344C444.121,225.344 445.021,225.594 446.301,226.094C447.581,226.594 448.461,226.844 448.941,226.844C449.461,226.844 450.061,226.564 450.741,226.004ZM446.541,227.684C446.461,227.364 446.141,227.144 445.581,227.024L444.501,226.544C444.301,227.144 443.861,227.544 443.181,227.744C442.501,227.944 441.661,228.044 440.661,228.044C440.141,228.404 439.881,229.384 439.881,230.984C440.081,230.864 440.391,230.724 440.811,230.564C441.231,230.404 441.921,230.184 442.881,229.904C443.841,229.624 444.591,229.324 445.131,229.004C445.671,228.684 446.141,228.244 446.541,227.684ZM439.521,227.684C438.601,227.124 437.921,226.844 437.481,226.844C436.921,226.844 436.021,227.244 434.781,228.044C435.821,228.044 436.921,228.624 438.081,229.784C437.561,230.184 437.061,230.384 436.581,230.384C436.141,230.384 435.421,230.144 434.421,229.664C433.421,229.184 432.681,228.944 432.201,228.944C431.481,228.944 430.981,229.324 430.701,230.084C432.501,230.484 433.581,230.964 433.941,231.524C433.581,231.924 433.001,232.124 432.201,232.124C431.761,232.124 431.101,231.934 430.221,231.554C429.341,231.174 428.721,230.984 428.361,230.984C427.801,230.984 427.301,231.164 426.861,231.524L427.641,231.764L428.421,232.124C428.581,232.164 428.761,232.284 428.961,232.484C429.161,232.684 429.261,232.964 429.261,233.324L428.601,233.624C428.281,233.824 428.001,233.924 427.761,233.924C427.521,233.924 426.961,233.744 426.081,233.384C425.281,232.944 424.681,232.724 424.281,232.724L424.281,235.364L438.081,231.224L438.861,229.724C439.021,229.444 439.171,229.094 439.311,228.674C439.451,228.254 439.521,227.924 439.521,227.684ZM451.881,227.684L451.881,226.844L447.801,228.764C445.721,229.844 443.941,230.584 442.461,230.984C444.421,230.464 446.211,229.934 447.831,229.394C449.451,228.854 450.801,228.284 451.881,227.684ZM434.781,229.184L436.581,229.184L434.781,228.944L434.781,229.184ZM448.941,230.984C448.941,230.744 448.921,230.564 448.881,230.444C448.841,230.324 448.781,230.204 448.701,230.084L448.701,231.224L448.941,230.984ZM431.841,231.224L431.841,230.984L431.301,230.984L431.841,231.224ZM439.521,236.264L438.381,233.024C437.301,233.024 435.491,233.334 432.951,233.954C430.411,234.574 428.581,234.944 427.461,235.064C427.221,235.224 426.681,235.384 425.841,235.544C424.961,235.784 424.441,236.104 424.281,236.504C425.441,236.144 427.281,235.964 429.801,235.964C433.761,235.964 436.621,236.844 438.381,238.604C440.341,240.044 441.321,242.584 441.321,246.224C442.881,246.824 444.041,247.234 444.801,247.454C445.561,247.674 446.641,247.944 448.041,248.264L451.281,248.084C451.721,248.004 452.161,247.924 452.601,247.844C453.041,247.764 453.481,247.624 453.921,247.424C454.681,247.184 455.361,246.684 455.961,245.924C456.401,244.164 456.621,243.104 456.621,242.744C456.621,241.184 456.061,240.164 454.941,239.684C453.821,239.204 451.921,238.964 449.241,238.964C446.801,238.964 444.801,238.824 443.241,238.544C441.681,238.264 440.441,237.504 439.521,236.264ZM414.861,238.124L415.941,236.384C416.181,235.744 416.301,235.104 416.301,234.464C414.741,236.104 413.961,237.884 413.961,239.804C414.041,239.524 414.341,238.964 414.861,238.124ZM456.261,239.144C455.141,237.224 453.081,236.264 450.081,236.264L445.761,236.504C443.081,236.504 441.121,235.824 439.881,234.464C440.481,235.744 441.351,236.614 442.491,237.074C443.631,237.534 444.981,237.764 446.541,237.764L450.981,237.764C453.341,237.764 455.101,238.224 456.261,239.144ZM437.421,238.604C436.701,238.204 435.921,237.844 435.081,237.524C434.241,237.204 433.461,236.984 432.741,236.864L434.721,237.824C435.841,238.344 436.661,238.884 437.181,239.444C437.981,239.964 438.461,240.594 438.621,241.334C438.781,242.074 438.881,242.624 438.921,242.984C438.961,243.344 438.981,243.944 438.981,244.784C437.301,247.504 435.521,248.864 433.641,248.864C432.721,248.864 431.781,248.624 430.821,248.144C429.861,247.584 429.221,246.944 428.901,246.224C428.901,247.384 429.111,248.174 429.531,248.594C429.951,249.014 430.201,249.244 430.281,249.284L431.241,249.764L432.561,250.124L433.641,250.364C436.481,250.364 438.441,249.384 439.521,247.424C439.921,246.464 440.121,244.684 440.121,242.084C439.681,240.604 438.781,239.444 437.421,238.604ZM437.721,241.844C437.321,240.684 436.751,239.854 436.011,239.354C435.271,238.854 434.731,238.524 434.391,238.364C434.051,238.204 433.611,238.074 433.071,237.974C432.531,237.874 431.841,237.754 431.001,237.614C430.161,237.474 429.461,237.404 428.901,237.404C428.621,237.724 427.921,237.944 426.801,238.064C426.361,238.064 426.021,238.094 425.781,238.154C425.541,238.214 425.231,238.294 424.851,238.394C424.471,238.494 424.281,238.844 424.281,239.444C425.401,239.444 426.521,239.544 427.641,239.744C428.761,239.944 429.881,240.224 431.001,240.584C432.121,241.064 433.271,241.594 434.451,242.174C435.631,242.754 436.841,243.424 438.081,244.184L437.961,242.924C437.961,242.364 437.881,242.004 437.721,241.844ZM415.821,239.924C415.581,240.484 415.461,240.924 415.461,241.244L415.941,240.584L416.421,239.804L416.601,238.904C416.321,239.024 416.061,239.364 415.821,239.924ZM437.181,244.784C432.061,241.824 427.861,240.344 424.581,240.344C422.221,240.344 420.161,240.844 418.401,241.844L422.181,240.944C422.741,240.944 423.371,240.954 424.071,240.974C424.771,240.994 425.561,241.124 426.441,241.364C427.321,241.604 428.001,241.794 428.481,241.934C428.961,242.074 429.561,242.284 430.281,242.564L434.121,244.424L437.181,245.924L437.181,244.784ZM415.461,244.184L416.001,242.744L416.301,241.244L415.461,244.184ZM436.041,246.524L432.021,244.304C430.741,243.544 429.481,242.944 428.241,242.504C427.001,242.064 425.681,241.844 424.281,241.844L424.401,248.624C424.601,249.744 424.941,250.604 425.421,251.204L433.341,251.204C430.941,251.204 429.081,250.044 427.761,247.724C427.761,246.844 427.801,246.214 427.881,245.834C427.961,245.454 428.051,245.144 428.151,244.904C428.251,244.664 428.501,244.424 428.901,244.184C429.261,244.184 429.501,244.264 429.621,244.424L429.801,245.444C429.841,245.724 429.891,245.934 429.951,246.074C430.011,246.214 430.231,246.564 430.611,247.124C430.991,247.684 432.201,247.964 434.241,247.964L435.201,247.604C435.761,247.364 436.041,247.004 436.041,246.524ZM416.601,247.124L416.601,244.784L416.301,244.784C416.301,246.064 416.401,246.844 416.601,247.124ZM415.341,248.204L414.621,247.184C414.421,246.704 414.201,246.384 413.961,246.224C414.121,246.544 414.491,246.934 415.071,247.394C415.651,247.854 415.961,248.264 416.001,248.624L415.341,248.204ZM450.741,249.164L446.541,248.804C445.901,248.804 444.941,248.624 443.661,248.264C442.781,247.944 441.901,247.464 441.021,246.824L440.121,247.964C441.481,248.444 442.741,248.824 443.901,249.104C445.061,249.384 446.161,249.604 447.201,249.764C448.521,249.764 449.701,249.564 450.741,249.164Z" style="fill:rgb(3,178,239);fill-rule:nonzero;"/>
            </g>
        </g>
    </g>
</svg>
