<?xml version="1.0" encoding="UTF-8" standalone="no"?>
<!DOCTYPE svg PUBLIC "-//W3C//DTD SVG 1.1//EN" "http://www.w3.org/Graphics/SVG/1.1/DTD/svg11.dtd">
<svg width="100%" height="100%" viewBox="0 0 621 223" version="1.1" xmlns="http://www.w3.org/2000/svg" xmlns:xlink="http://www.w3.org/1999/xlink" xml:space="preserve" xmlns:serif="http://www.serif.com/" style="fill-rule:evenodd;clip-rule:evenodd;stroke-linejoin:round;stroke-miterlimit:2;">
    <g transform="matrix(1,0,0,1,-879.143,-1799.2)">
        <g transform="matrix(1,0,0,1.00385,0,-7.79283)">
            <rect x="879.143" y="1800.05" width="620.204" height="221.585" style="fill:rgb(130,130,130);fill-opacity:0;"/>
        </g>
        <g transform="matrix(1,0,0,1,944.059,1614.5)">
            <path d="M222.186,247.001C219.387,250.869 216.379,253.186 213.163,253.954C211.223,254.423 208.977,254.267 206.424,253.486C201.971,252.119 198.911,249.319 197.245,245.087C196.464,243.069 196.073,240.979 196.073,238.818C196.073,236.852 196.392,234.827 197.03,232.744C198.384,228.316 200.669,224.944 203.885,222.626C206.281,220.895 208.892,220.029 211.717,220.029C213.228,220.029 214.797,220.276 216.424,220.771C219.393,221.682 222.076,223.388 224.471,225.888C226.06,227.542 226.854,229.215 226.854,230.908C226.854,231.454 226.77,232.001 226.6,232.548C226.353,233.382 225.845,234.007 225.077,234.423C224.647,234.645 224.172,234.755 223.651,234.755C223.26,234.755 222.837,234.69 222.382,234.56C221.73,234.352 221.307,233.395 221.112,231.689C220.839,229.241 220.552,227.626 220.253,226.845C219.563,224.983 218.273,223.759 216.385,223.173C215.461,222.9 214.569,222.763 213.71,222.763C209.113,222.763 205.663,226.539 203.358,234.091C202.746,236.083 202.44,237.932 202.44,239.638C202.44,241.474 202.792,243.147 203.495,244.658C204.706,247.275 206.737,249.02 209.589,249.892C211.568,250.491 213.628,250.481 215.77,249.863C217.912,249.244 219.771,247.991 221.346,246.103L222.186,247.001Z" style="fill:rgb(19,33,140);fill-rule:nonzero;"/>
            <path d="M223.202,251.337C225.129,250.908 226.561,249.553 227.499,247.275L236.932,224.189L238.358,224.15L248.397,246.552C249.048,247.984 249.628,248.961 250.135,249.482C250.695,250.068 251.464,250.348 252.44,250.322L252.499,251.747L239.335,252.216L239.276,250.771C241.893,250.68 243.176,249.898 243.124,248.427C243.098,247.867 242.915,247.177 242.577,246.357L236.112,230.615L229.374,246.826C229.1,247.75 228.97,248.447 228.983,248.915C229.009,249.632 229.315,250.169 229.901,250.527C230.487,250.885 231.509,251.044 232.967,251.005L233.026,252.431L223.241,252.763L223.202,251.337Z" style="fill:rgb(19,33,140);fill-rule:nonzero;"/>
            <path d="M270.448,218.642C270.474,218.941 270.487,219.228 270.487,219.501C270.487,221.428 269.803,222.451 268.436,222.568C268.007,222.607 266.444,221.448 263.749,219.091C262.447,217.945 261.177,217.431 259.94,217.548C258.625,217.652 257.766,218.421 257.362,219.853C256.932,221.337 256.796,222.952 256.952,224.697L257.733,233.72L264.979,233.095L264.647,235.693L257.967,236.279L259.706,256.201C259.823,257.529 260.109,258.382 260.565,258.759C261.268,259.358 262.811,259.553 265.194,259.345L265.331,260.927L250.37,262.236L250.214,260.654C251.945,260.497 253.078,260.165 253.612,259.658C254.341,258.954 254.621,257.626 254.452,255.673L252.792,236.728L247.635,237.177L247.948,234.579L252.577,234.189L252.186,229.814C252.134,229.163 252.108,228.525 252.108,227.9C252.108,224.905 252.779,222.314 254.12,220.126C255.93,217.197 258.658,215.576 262.303,215.263C264.764,215.042 266.708,215.221 268.133,215.8C269.559,216.38 270.331,217.327 270.448,218.642Z" style="fill:rgb(19,33,140);fill-rule:nonzero;"/>
            <path d="M295.253,239.814C293.586,246.389 290.318,250.107 285.448,250.966C284.146,251.201 282.922,251.318 281.776,251.318C275.096,251.318 271.125,247.731 269.862,240.556C269.706,239.671 269.628,238.805 269.628,237.958C269.628,235.302 270.376,232.757 271.874,230.322C273.801,227.158 276.464,225.276 279.862,224.677C280.839,224.508 281.783,224.423 282.694,224.423C284.699,224.423 286.555,224.84 288.26,225.673C290.747,226.884 292.473,228.896 293.436,231.708L273.69,235.185C273.651,236.253 273.697,237.151 273.827,237.88C274.348,240.836 275.682,243.264 277.831,245.165C279.576,246.715 281.431,247.49 283.397,247.49C283.866,247.49 284.335,247.444 284.803,247.353C287.954,246.806 290.383,245.523 292.089,243.505C293.052,242.372 293.651,241.07 293.885,239.599L295.253,239.814ZM286.268,231.513C285.956,229.768 285.24,228.388 284.12,227.372C282.896,226.253 281.438,225.843 279.745,226.142C278.052,226.441 276.665,227.366 275.585,228.915C274.621,230.283 274.042,231.884 273.846,233.72L286.268,231.513ZM292.382,213.388C292.382,213.857 292.284,214.293 292.089,214.697C291.854,215.152 291.483,215.556 290.975,215.908L281.815,222.275L279.549,222.275L287.792,212.685C288.703,211.63 289.602,211.103 290.487,211.103C291.75,211.103 292.382,211.865 292.382,213.388Z" style="fill:rgb(19,33,140);fill-rule:nonzero;"/>
        </g>
        <g transform="matrix(1,0,0,1,805.539,-997.219)">
            <g transform="matrix(1.57628,0,0,1.57628,-206.568,2579.49)">
                <path d="M255.621,264.404L194.961,264.404L194.961,204.524L255.621,204.524L255.621,264.404ZM246.921,215.204C246.921,213.724 246.161,212.984 244.641,212.984C243.161,212.984 242.421,213.724 242.421,215.204C242.421,216.884 243.161,217.724 244.641,217.724C245.161,217.724 245.671,217.514 246.171,217.094C246.671,216.674 246.921,216.044 246.921,215.204ZM241.401,210.824C241.401,210.304 241.131,209.784 240.591,209.264C240.051,208.744 239.481,208.484 238.881,208.484C238.441,208.484 237.961,208.754 237.441,209.294C236.921,209.834 236.661,210.384 236.661,210.944C236.661,211.464 236.841,211.944 237.201,212.384C237.681,212.944 238.281,213.224 239.001,213.224C240.601,213.224 241.401,212.424 241.401,210.824ZM251.421,220.964C251.421,220.564 251.221,220.084 250.821,219.524C250.341,218.804 249.741,218.444 249.021,218.444C248.301,218.444 247.701,218.784 247.221,219.464C246.821,219.984 246.621,220.444 246.621,220.844C246.621,222.404 247.421,223.184 249.021,223.184C250.621,223.184 251.421,222.444 251.421,220.964ZM234.621,208.184C234.621,207.584 234.401,207.024 233.961,206.504C233.521,205.984 233.001,205.724 232.401,205.724C231.841,205.724 231.281,206.004 230.721,206.564C230.161,207.124 229.881,207.624 229.881,208.064C229.881,208.624 230.101,209.164 230.541,209.684C230.981,210.204 231.601,210.464 232.401,210.464C233.881,210.464 234.621,209.704 234.621,208.184ZM254.121,227.444C254.121,226.964 253.921,226.474 253.521,225.974C253.121,225.474 252.541,225.224 251.781,225.224C251.221,225.224 250.681,225.424 250.161,225.824C249.641,226.224 249.381,226.764 249.381,227.444C249.381,228.124 249.611,228.714 250.071,229.214C250.531,229.714 251.101,229.964 251.781,229.964C252.301,229.964 252.821,229.704 253.341,229.184C253.861,228.664 254.121,228.084 254.121,227.444ZM227.661,207.224C227.661,206.824 227.461,206.344 227.061,205.784C226.541,205.064 225.941,204.704 225.261,204.704C224.781,204.704 224.271,204.984 223.731,205.544C223.191,206.104 222.921,206.664 222.921,207.224C222.921,207.624 223.121,208.104 223.521,208.664C224.041,209.344 224.661,209.684 225.381,209.684C225.901,209.684 226.411,209.464 226.911,209.024C227.411,208.584 227.661,207.984 227.661,207.224ZM254.901,234.704C254.901,233.024 254.141,232.184 252.621,232.184C251.981,232.184 251.451,232.434 251.031,232.934C250.611,233.434 250.401,234.024 250.401,234.704C250.401,235.224 250.581,235.704 250.941,236.144C251.421,236.704 252.021,236.984 252.741,236.984C253.221,236.984 253.701,236.774 254.181,236.354C254.661,235.934 254.901,235.384 254.901,234.704ZM254.121,241.724C254.121,241.364 253.881,240.854 253.401,240.194C252.921,239.534 252.381,239.204 251.781,239.204C251.101,239.204 250.531,239.474 250.071,240.014C249.611,240.554 249.381,241.124 249.381,241.724C249.381,242.204 249.591,242.694 250.011,243.194C250.431,243.694 251.021,243.944 251.781,243.944C252.341,243.944 252.871,243.744 253.371,243.344C253.871,242.944 254.121,242.404 254.121,241.724ZM220.641,208.184C220.641,207.664 220.461,207.184 220.101,206.744C219.621,206.224 218.961,205.964 218.121,205.964C216.641,205.964 215.901,206.704 215.901,208.184C215.901,208.744 216.111,209.264 216.531,209.744C216.951,210.224 217.481,210.464 218.121,210.464C219.801,210.464 220.641,209.704 220.641,208.184ZM213.921,210.824C213.921,210.264 213.711,209.734 213.291,209.234C212.871,208.734 212.321,208.484 211.641,208.484C211.081,208.484 210.521,208.764 209.961,209.324C209.401,209.884 209.121,210.424 209.121,210.944C209.121,211.464 209.341,211.944 209.781,212.384C210.261,212.944 210.881,213.224 211.641,213.224C213.161,213.224 213.921,212.424 213.921,210.824ZM251.421,248.324C251.421,247.804 251.201,247.284 250.761,246.764C250.321,246.244 249.781,245.984 249.141,245.984C248.541,245.984 248.001,246.184 247.521,246.584C246.921,247.064 246.621,247.644 246.621,248.324C246.621,248.884 246.851,249.424 247.311,249.944C247.771,250.464 248.341,250.724 249.021,250.724C249.581,250.724 250.121,250.494 250.641,250.034C251.161,249.574 251.421,249.004 251.421,248.324ZM246.921,253.964C246.921,253.324 246.701,252.744 246.261,252.224C245.821,251.704 245.281,251.444 244.641,251.444C244.041,251.444 243.521,251.714 243.081,252.254C242.641,252.794 242.421,253.364 242.421,253.964C242.421,255.444 243.161,256.184 244.641,256.184C246.161,256.184 246.921,255.444 246.921,253.964ZM249.381,234.464C249.381,227.984 247.001,222.364 242.241,217.604C237.481,212.844 231.821,210.464 225.261,210.464C218.781,210.464 213.181,212.824 208.461,217.544C203.741,222.264 201.381,227.904 201.381,234.464C201.381,240.984 203.661,246.624 208.221,251.384C212.901,256.264 218.581,258.704 225.261,258.704C231.861,258.704 237.561,256.264 242.361,251.384C247.041,246.584 249.381,240.944 249.381,234.464ZM208.401,215.324C208.401,214.764 208.161,214.234 207.681,213.734C207.201,213.234 206.601,212.984 205.881,212.984C205.401,212.984 204.911,213.194 204.411,213.614C203.911,214.034 203.661,214.564 203.661,215.204C203.661,215.604 203.841,216.084 204.201,216.644C204.641,217.364 205.201,217.724 205.881,217.724C206.521,217.724 207.101,217.484 207.621,217.004C208.141,216.524 208.401,215.964 208.401,215.324ZM203.901,220.844C203.901,220.244 203.701,219.694 203.301,219.194C202.901,218.694 202.341,218.444 201.621,218.444C201.101,218.444 200.561,218.724 200.001,219.284C199.441,219.844 199.161,220.404 199.161,220.964C199.161,221.444 199.401,221.934 199.881,222.434C200.361,222.934 200.901,223.184 201.501,223.184C203.101,223.184 203.901,222.404 203.901,220.844ZM241.401,258.344C241.401,257.784 241.181,257.244 240.741,256.724C240.301,256.204 239.721,255.944 239.001,255.944C238.321,255.944 237.761,256.194 237.321,256.694C236.881,257.194 236.661,257.744 236.661,258.344C236.661,258.904 236.881,259.434 237.321,259.934C237.761,260.434 238.321,260.684 239.001,260.684C239.561,260.684 240.101,260.444 240.621,259.964C241.141,259.484 241.401,258.944 241.401,258.344ZM201.141,227.444C201.141,226.964 200.931,226.474 200.511,225.974C200.091,225.474 199.561,225.224 198.921,225.224C197.401,225.224 196.641,225.964 196.641,227.444C196.641,229.124 197.401,229.964 198.921,229.964C199.441,229.964 199.941,229.754 200.421,229.334C200.901,228.914 201.141,228.284 201.141,227.444ZM234.621,260.984C234.621,260.464 234.411,259.954 233.991,259.454C233.571,258.954 233.041,258.704 232.401,258.704C231.801,258.704 231.261,258.904 230.781,259.304C230.181,259.784 229.881,260.424 229.881,261.224C229.881,261.624 230.171,262.094 230.751,262.634C231.331,263.174 231.881,263.444 232.401,263.444C232.881,263.444 233.371,263.214 233.871,262.754C234.371,262.294 234.621,261.704 234.621,260.984ZM200.421,234.584C200.421,234.104 200.141,233.584 199.581,233.024C199.021,232.464 198.461,232.184 197.901,232.184C197.421,232.184 196.881,232.464 196.281,233.024C195.681,233.584 195.381,234.144 195.381,234.704C195.381,235.144 195.661,235.634 196.221,236.174C196.781,236.714 197.341,236.984 197.901,236.984C199.581,236.984 200.421,236.184 200.421,234.584ZM227.661,261.944C227.661,260.464 226.901,259.724 225.381,259.724C224.741,259.724 224.171,259.934 223.671,260.354C223.171,260.774 222.921,261.304 222.921,261.944C222.921,262.464 223.101,262.944 223.461,263.384C223.941,263.944 224.581,264.224 225.381,264.224C226.901,264.224 227.661,263.464 227.661,261.944ZM201.141,241.724C201.141,240.044 200.361,239.204 198.801,239.204C198.121,239.204 197.591,239.484 197.211,240.044C196.831,240.604 196.641,241.164 196.641,241.724C196.641,243.204 197.401,243.944 198.921,243.944C200.401,243.944 201.141,243.204 201.141,241.724ZM220.641,260.984C220.641,260.464 220.461,259.984 220.101,259.544C219.621,258.984 218.961,258.704 218.121,258.704C217.641,258.704 217.151,258.914 216.651,259.334C216.151,259.754 215.901,260.304 215.901,260.984C215.901,261.344 216.081,261.804 216.441,262.364C216.921,263.084 217.481,263.444 218.121,263.444C218.721,263.444 219.291,263.204 219.831,262.724C220.371,262.244 220.641,261.664 220.641,260.984ZM203.901,248.324C203.901,246.764 203.141,245.984 201.621,245.984C201.101,245.984 200.561,246.244 200.001,246.764C199.441,247.284 199.161,247.804 199.161,248.324C199.161,248.844 199.441,249.374 200.001,249.914C200.561,250.454 201.061,250.724 201.501,250.724C203.101,250.724 203.901,249.924 203.901,248.324ZM213.921,258.344C213.921,256.744 213.161,255.944 211.641,255.944C211.201,255.944 210.701,256.164 210.141,256.604C209.461,257.124 209.121,257.704 209.121,258.344C209.121,258.864 209.391,259.384 209.931,259.904C210.471,260.424 211.001,260.684 211.521,260.684C213.121,260.684 213.921,259.904 213.921,258.344ZM208.401,254.084C208.401,253.564 208.201,253.024 207.801,252.464C207.281,251.784 206.641,251.444 205.881,251.444C205.401,251.444 204.911,251.724 204.411,252.284C203.911,252.844 203.661,253.404 203.661,253.964C203.661,254.444 203.861,254.934 204.261,255.434C204.661,255.934 205.201,256.184 205.881,256.184C207.561,256.184 208.401,255.484 208.401,254.084ZM236.661,238.964C236.661,242.084 235.261,244.424 232.461,245.984C230.381,247.144 228.061,247.724 225.501,247.724C225.381,247.724 223.461,247.444 219.741,246.884C218.621,246.724 217.411,245.804 216.111,244.124C214.811,242.444 214.161,241.004 214.161,239.804L214.161,238.544L221.601,238.544C221.641,239.864 222.061,240.884 222.861,241.604C223.661,242.324 224.581,242.684 225.621,242.684C227.821,242.684 228.921,241.824 228.921,240.104C228.921,238.864 227.781,237.884 225.501,237.164C221.621,235.924 219.401,235.144 218.841,234.824C216.201,233.424 214.881,231.424 214.881,228.824C214.881,225.984 216.201,223.944 218.841,222.704C220.641,221.864 222.821,221.444 225.381,221.444C228.141,221.444 230.281,221.824 231.801,222.584C232.721,223.024 233.591,223.824 234.411,224.984C235.231,226.144 235.641,227.084 235.641,227.804L235.641,229.124L228.441,229.124C228.041,227.004 226.821,225.944 224.781,225.944C223.021,225.944 222.141,226.624 222.141,227.984C222.141,229.144 223.521,229.924 226.281,230.324C229.041,230.724 231.361,231.584 233.241,232.904C235.521,234.504 236.661,236.524 236.661,238.964Z" style="fill:rgb(19,33,140);fill-rule:nonzero;"/>
            </g>
            <g transform="matrix(2.10898,0,0,2.10898,-248.252,2464.91)">
                <path d="M240.261,215.604L240.261,210.914L231.021,210.914L231.021,248.294L235.501,248.294L235.501,252.704L221.851,252.704L221.851,248.294L226.541,248.294L226.541,210.914L217.301,210.914L217.301,215.604L212.891,215.604L212.891,206.434L244.671,206.434L244.671,215.604L240.261,215.604Z" style="fill:rgb(251,110,47);fill-rule:nonzero;"/>
            </g>
            <g transform="matrix(1.66123,0,0,1.66123,-274.876,2556.57)">
                <path d="M382.401,234.584C382.401,243.584 379.201,250.904 372.801,256.544C366.721,261.864 359.141,264.524 350.061,264.524C342.741,264.524 336.321,261.284 330.801,254.804C325.481,248.644 322.821,241.884 322.821,234.524C322.821,226.324 325.731,219.294 331.551,213.434C337.371,207.574 344.361,204.644 352.521,204.644C360.681,204.644 367.701,207.584 373.581,213.464C379.461,219.344 382.401,226.384 382.401,234.584ZM381.021,234.704L378.321,234.704L378.321,234.284L381.021,234.284L381.021,233.084C381.021,232.324 380.881,231.264 380.601,229.904C380.441,229.864 379.561,229.964 377.961,230.204L377.961,229.844L380.481,229.364L379.401,225.044L376.941,225.884L376.641,225.584L379.101,224.624L377.421,220.544L375.021,221.864L374.781,221.444L377.181,220.004C376.661,219.124 375.781,217.924 374.541,216.404L372.441,218.204L372.081,217.844L374.301,215.984C373.141,214.704 372.061,213.664 371.061,212.864L369.261,214.904L368.961,214.664L370.821,212.504C369.741,211.584 368.501,210.704 367.101,209.864L365.601,212.324L365.301,212.024L366.681,209.624L362.661,207.704L361.461,210.344L361.221,210.224L362.181,207.524C362.061,207.444 360.621,207.044 357.861,206.324L357.261,209.204L356.841,209.084L357.381,206.264C356.101,205.904 354.561,205.784 352.761,205.904L352.761,208.784L352.341,208.784L352.341,205.904L349.821,205.904C349.821,205.904 349.161,206.024 347.841,206.264L348.261,209.204L347.961,209.204C347.761,208.524 347.561,207.564 347.361,206.324C346.601,206.444 345.861,206.584 345.141,206.744C344.261,206.944 343.561,207.204 343.041,207.524L344.001,210.164L343.581,210.344L342.501,207.584L338.481,209.504L339.921,212.084L339.501,212.324L338.001,209.804C337.121,210.284 335.921,211.184 334.401,212.504L336.201,214.664L335.841,214.904L333.981,212.744C332.701,213.904 331.661,214.984 330.861,215.984L333.021,217.844L332.661,218.204L330.501,216.284C329.701,217.084 328.861,218.344 327.981,220.064L330.441,221.504L330.201,221.864L327.681,220.484L325.821,224.504L328.461,225.644L328.221,225.884L325.641,225.044C325.121,226.244 324.761,227.644 324.561,229.244L327.261,229.904L327.021,230.264L324.441,229.784C324.081,232.064 323.941,233.564 324.021,234.284L326.901,234.284L326.901,234.704L324.021,234.704L324.021,235.964C324.021,236.644 324.161,237.744 324.441,239.264L326.961,238.784L327.261,239.144L324.501,239.684L324.501,240.104C324.501,240.504 324.841,241.804 325.521,244.004L328.281,243.104L328.461,243.464L325.821,244.544L327.621,248.564L330.201,247.184L330.441,247.544L327.861,249.104C328.381,249.984 329.261,251.184 330.501,252.704L332.661,250.844L333.021,251.204L330.741,253.184C331.901,254.424 332.981,255.464 333.981,256.304L335.841,254.144L336.201,254.384L334.281,256.664L337.941,259.244L339.621,256.664L339.921,256.964L338.481,259.544L342.501,261.464L343.641,258.584L344.001,258.824L342.921,261.584C345.161,262.344 346.641,262.724 347.361,262.724L347.961,259.844L348.381,259.904L347.841,262.844C349.001,263.244 350.501,263.364 352.341,263.204L352.341,260.264L352.761,260.264L352.761,263.204L355.401,263.204C355.401,263.204 356.041,263.064 357.321,262.784L356.961,259.844L357.861,262.724L358.401,262.724C358.521,262.724 359.781,262.324 362.181,261.524L361.221,258.884L361.521,258.584L362.661,261.344C363.261,261.104 364.621,260.504 366.741,259.544L365.301,256.904L365.601,256.664L367.101,259.244C368.661,258.204 369.901,257.304 370.821,256.544L368.961,254.384L369.081,254.084C369.681,254.524 370.381,255.264 371.181,256.304L374.361,253.064L372.081,251.204L372.441,250.844L374.661,252.704C375.821,251.104 376.641,249.844 377.121,248.924L374.781,247.424L375.021,247.184L377.421,248.564L379.221,244.424L376.641,243.404L376.821,243.104L379.401,244.004L380.481,239.684C380.321,239.724 379.481,239.564 377.961,239.204L377.961,238.844L378.261,238.784L380.721,239.084C380.961,237.084 381.061,235.624 381.021,234.704ZM373.521,223.064C373.521,223.264 373.391,223.474 373.131,223.694C372.871,223.914 372.641,224.024 372.441,224.024C371.761,224.024 371.421,223.564 371.421,222.644C371.421,221.604 371.761,221.084 372.441,221.084C373.081,221.084 373.401,221.344 373.401,221.864L372.801,221.864L372.801,221.744C372.841,221.544 372.721,221.444 372.441,221.444C372.281,221.444 372.141,221.564 372.021,221.804L372.081,222.224C372.201,222.104 372.361,222.044 372.561,222.044C373.201,222.044 373.521,222.384 373.521,223.064ZM365.061,215.384C365.061,215.944 364.721,216.224 364.041,216.224C363.401,216.224 363.101,215.964 363.141,215.444L363.141,215.324L363.561,215.324C363.761,215.644 363.941,215.804 364.101,215.804C364.421,215.804 364.581,215.664 364.581,215.384C364.581,214.904 364.321,214.744 363.801,214.904C363.961,214.784 364.181,214.584 364.461,214.304L364.461,213.884C364.301,213.724 364.201,213.644 364.161,213.644C363.841,213.644 363.681,213.804 363.681,214.124L363.201,214.124C363.281,213.524 363.601,213.224 364.161,213.224C364.761,213.224 365.061,213.504 365.061,214.064C365.061,214.224 364.941,214.424 364.701,214.664C364.941,214.864 365.061,215.104 365.061,215.384ZM376.941,233.444L375.681,233.444L375.681,234.104C375.841,234.144 376.001,234.164 376.161,234.164L376.401,234.164C376.561,234.164 376.741,234.144 376.941,234.104L376.941,234.644C376.701,234.604 376.501,234.584 376.341,234.584L376.101,234.584C375.981,234.584 375.841,234.604 375.681,234.644L375.681,235.484L376.941,235.484L376.941,235.904L375.081,235.904L375.081,232.964L376.941,232.964L376.941,233.444ZM353.661,213.104L353.241,213.104C352.761,212.264 352.301,211.544 351.861,210.944C351.821,211.264 351.801,211.604 351.801,211.964C351.801,212.324 351.841,212.704 351.921,213.104L351.441,213.104L351.441,210.164L351.981,210.164C352.221,210.484 352.641,211.184 353.241,212.264C353.281,211.984 353.301,211.684 353.301,211.364C353.301,211.004 353.281,210.604 353.241,210.164L353.661,210.164L353.661,213.104ZM374.061,245.024C374.061,245.704 373.681,246.204 372.921,246.524C373.041,246.564 373.201,246.584 373.401,246.584C373.601,246.584 373.821,246.564 374.061,246.524L374.061,247.064L372.321,247.064L372.321,246.524C372.561,246.284 372.831,246.014 373.131,245.714C373.431,245.414 373.581,245.184 373.581,245.024C373.581,244.704 373.461,244.544 373.221,244.544C373.101,244.544 372.961,244.704 372.801,245.024L372.321,245.024L372.321,244.904C372.321,244.384 372.601,244.124 373.161,244.124C373.761,244.124 374.061,244.424 374.061,245.024ZM342.501,215.444C342.501,216.004 342.161,216.284 341.481,216.284C340.841,216.284 340.521,216.044 340.521,215.564C340.521,215.524 340.541,215.484 340.581,215.444L341.121,215.444C341.121,215.764 341.281,215.924 341.601,215.924C341.881,215.924 342.021,215.764 342.021,215.444C342.021,215.124 341.841,214.964 341.481,214.964C341.361,214.964 341.281,214.984 341.241,215.024C341.281,214.864 341.401,214.734 341.601,214.634C341.801,214.534 341.901,214.364 341.901,214.124C341.901,213.884 341.801,213.764 341.601,213.764C341.281,213.764 341.121,213.924 341.121,214.244L340.641,214.244C340.761,213.644 341.081,213.344 341.601,213.344C342.121,213.344 342.381,213.604 342.381,214.124C342.381,214.404 342.301,214.624 342.141,214.784C342.181,214.824 342.261,214.844 342.381,214.844C342.381,214.924 342.401,215.024 342.441,215.144C342.481,215.264 342.501,215.364 342.501,215.444ZM372.081,247.064L371.541,247.064C371.581,246.664 371.601,246.304 371.601,245.984L371.601,245.624C371.601,245.424 371.581,245.144 371.541,244.784C371.501,244.864 371.341,244.964 371.061,245.084C371.061,245.004 371.131,244.844 371.271,244.604C371.411,244.364 371.541,244.244 371.661,244.244L372.081,244.244L372.081,247.064ZM340.461,215.624C340.461,215.704 340.441,215.764 340.401,215.804C340.001,216.124 339.661,216.284 339.381,216.284C338.781,216.284 338.481,216.044 338.481,215.564L338.481,215.444L338.961,215.444C339.001,215.764 339.161,215.924 339.441,215.924C339.761,215.924 339.921,215.764 339.921,215.444C339.921,215.124 339.661,214.984 339.141,215.024C339.261,214.904 339.501,214.684 339.861,214.364L339.861,214.004C339.661,213.844 339.541,213.764 339.501,213.764C339.181,213.764 339.021,213.924 339.021,214.244L338.541,214.244C338.621,213.644 338.941,213.344 339.501,213.344C340.141,213.344 340.461,213.624 340.461,214.184C340.461,214.344 340.321,214.544 340.041,214.784C340.321,215.064 340.461,215.344 340.461,215.624ZM362.001,239.204L361.281,244.844L343.041,244.844L343.041,244.424C343.161,244.384 343.561,244.364 344.241,244.364C344.561,244.364 344.841,244.224 345.081,243.944L345.081,227.564C344.961,227.324 344.501,227.204 343.701,227.204C343.701,227.204 343.481,227.164 343.041,227.084L343.101,226.604L360.381,226.604L361.281,232.004C361.041,232.044 360.701,231.644 360.261,230.804C360.021,230.284 359.761,229.764 359.481,229.244C359.201,228.724 358.601,228.254 357.681,227.834C356.761,227.414 355.981,227.204 355.341,227.204L349.641,227.204L349.641,234.944L354.921,234.944C355.521,234.944 356.101,234.484 356.661,233.564C357.141,232.764 357.381,232.024 357.381,231.344L357.741,231.704L357.621,239.564C357.301,238.724 356.961,237.864 356.601,236.984C356.081,236.064 355.361,235.604 354.441,235.604L349.641,235.604L349.641,243.584C349.641,244.104 350.281,244.364 351.561,244.364C354.881,244.364 357.001,244.164 357.921,243.764C359.441,243.124 360.721,241.404 361.761,238.604C361.961,238.884 362.041,239.084 362.001,239.204ZM335.001,222.704C335.001,223.704 334.661,224.204 333.981,224.204C333.341,224.204 333.021,223.724 333.021,222.764C333.021,221.764 333.361,221.264 334.041,221.264C334.681,221.264 335.001,221.744 335.001,222.704ZM366.081,254.984C366.081,255.744 365.761,256.124 365.121,256.124C364.641,256.124 364.341,255.824 364.221,255.224L364.761,255.224C364.921,255.464 365.061,255.584 365.181,255.584C365.501,255.584 365.661,255.384 365.661,254.984C365.661,254.664 365.501,254.504 365.181,254.504C365.141,254.504 364.841,254.644 364.281,254.924L364.281,253.124L365.841,253.124C365.521,253.244 365.201,253.364 364.881,253.484C364.841,253.524 364.781,253.744 364.701,254.144L365.301,254.144C365.821,254.144 366.081,254.424 366.081,254.984ZM332.901,223.304C332.901,223.904 332.561,224.204 331.881,224.204C331.361,224.204 331.041,223.924 330.921,223.364L331.521,223.364C331.641,223.604 331.801,223.724 332.001,223.724C332.121,223.724 332.261,223.644 332.421,223.484C332.341,223.164 332.211,222.954 332.031,222.854C331.851,222.754 331.721,222.624 331.641,222.464C331.921,222.464 332.141,222.404 332.301,222.284L332.301,221.924C332.301,221.764 332.181,221.684 331.941,221.684C331.741,221.684 331.601,221.804 331.521,222.044L331.041,222.044L331.041,221.924C331.041,221.484 331.361,221.264 332.001,221.264C332.601,221.264 332.901,221.504 332.901,221.984C332.901,222.144 332.781,222.344 332.541,222.584C332.781,222.864 332.901,223.104 332.901,223.304ZM363.981,256.004L363.621,253.904C363.541,253.864 363.481,253.844 363.441,253.844C363.361,253.844 363.221,253.904 363.021,254.024C363.061,253.624 363.381,253.324 363.981,253.124L363.981,256.004ZM332.001,232.844L331.101,235.784L330.681,235.784C330.681,235.784 330.481,235.024 330.081,233.504C329.761,234.224 329.501,234.984 329.301,235.784C329.101,235.584 328.721,234.604 328.161,232.844L328.641,232.844C328.761,233.324 328.941,234.024 329.181,234.944C329.341,234.624 329.561,233.924 329.841,232.844L330.321,232.844C330.441,233.324 330.661,234.044 330.981,235.004C331.101,234.524 331.281,233.804 331.521,232.844L332.001,232.844ZM353.721,257.744C353.721,258.344 353.321,258.644 352.521,258.644C351.921,258.644 351.561,258.324 351.441,257.684L351.921,257.684C352.041,258.084 352.261,258.284 352.581,258.284C352.661,258.284 352.861,258.184 353.181,257.984L353.181,257.624C352.861,257.504 352.501,257.364 352.101,257.204C351.701,257.044 351.501,256.784 351.501,256.424C351.501,255.864 351.861,255.584 352.581,255.584C353.301,255.584 353.641,255.884 353.601,256.484L353.121,256.484C353.041,256.164 352.861,256.004 352.581,256.004C352.541,256.004 352.361,256.084 352.041,256.244C352.081,256.524 352.371,256.764 352.911,256.964C353.451,257.164 353.721,257.424 353.721,257.744ZM334.581,246.464C334.341,246.624 334.241,246.824 334.281,247.064L333.801,247.064L333.801,246.524C333.601,246.484 333.401,246.464 333.201,246.464C332.961,246.464 332.741,246.484 332.541,246.524L332.541,245.804C332.901,245.324 333.261,244.804 333.621,244.244L334.281,244.244C334.281,244.164 334.281,244.484 334.281,245.204C334.281,245.644 334.381,245.924 334.581,246.044L334.581,246.464ZM342.321,256.004L341.841,256.004L341.841,253.904C341.761,253.864 341.701,253.844 341.661,253.844C341.581,253.844 341.441,253.904 341.241,254.024L341.241,253.844C341.241,253.724 341.421,253.484 341.781,253.124L342.321,253.124L342.321,256.004ZM332.421,244.964C332.421,245.084 332.061,245.604 331.341,246.524C331.501,246.604 331.861,246.624 332.421,246.584L332.421,247.064L330.561,247.064L330.561,246.644C331.481,245.684 331.941,245.124 331.941,244.964C331.941,244.684 331.781,244.544 331.461,244.544C331.221,244.544 331.101,244.704 331.101,245.024L330.621,245.024L330.621,244.544C330.901,244.264 331.161,244.124 331.401,244.124C332.081,244.124 332.421,244.404 332.421,244.964ZM341.001,253.904C341.001,254.344 340.621,254.884 339.861,255.524C340.021,255.564 340.181,255.584 340.341,255.584C340.541,255.584 340.761,255.564 341.001,255.524L341.001,256.004L339.261,256.004L339.261,255.524C340.101,254.764 340.521,254.224 340.521,253.904C340.521,253.944 340.441,253.784 340.281,253.424C340.041,253.424 339.861,253.624 339.741,254.024L339.261,254.024C339.221,253.344 339.501,253.004 340.101,253.004C340.701,253.004 341.001,253.304 341.001,253.904ZM372.981,223.064C372.981,222.824 372.801,222.624 372.441,222.464C372.281,222.584 372.141,222.644 372.021,222.644L372.021,223.304C372.021,223.504 372.161,223.604 372.441,223.604C372.801,223.604 372.981,223.424 372.981,223.064ZM334.521,222.764L334.521,222.464C334.521,221.944 334.301,221.684 333.861,221.684C333.621,222.004 333.501,222.284 333.501,222.524C333.501,223.324 333.681,223.724 334.041,223.724C334.201,223.724 334.301,223.684 334.341,223.604C334.381,223.524 334.421,223.384 334.461,223.184C334.501,222.984 334.521,222.844 334.521,222.764ZM333.801,245.984L333.801,244.904C333.601,245.144 333.341,245.504 333.021,245.984L333.801,245.984Z" style="fill:rgb(142,189,31);fill-rule:nonzero;"/>
            </g>
            <g transform="matrix(1.76764,0,0,1.76764,-249.965,2528.94)">
                <path d="M360.891,263.594L348.021,263.594L348.021,208.594L360.891,208.594L360.891,263.594ZM356.766,213.489L356.271,213.544C355.464,213.544 354.933,213.049 354.676,212.059C354.346,213.049 353.796,213.544 353.026,213.544C352.843,213.544 352.641,213.526 352.421,213.489C352.751,213.746 353.228,214.113 353.851,214.589C353.741,214.919 353.576,215.396 353.356,216.019C354.163,215.469 354.584,215.194 354.621,215.194C354.731,215.194 354.942,215.323 355.254,215.579C355.565,215.836 355.739,215.983 355.776,216.019C355.593,215.616 355.501,215.268 355.501,214.974C355.501,214.644 355.648,214.369 355.941,214.149C356.234,213.929 356.509,213.709 356.766,213.489ZM356.766,224.654L356.271,224.654C355.464,224.691 354.933,224.214 354.676,223.224C354.346,224.214 353.778,224.709 352.971,224.709C352.824,224.709 352.641,224.691 352.421,224.654C352.788,224.838 353.264,225.149 353.851,225.589C353.741,225.919 353.576,226.396 353.356,227.019C354.053,226.579 354.474,226.359 354.621,226.359C354.621,226.359 355.006,226.579 355.776,227.019C355.593,226.616 355.501,226.286 355.501,226.029C355.501,225.699 355.648,225.434 355.941,225.232C356.234,225.03 356.509,224.838 356.766,224.654ZM356.766,235.654C356.583,235.691 356.399,235.709 356.216,235.709C355.373,235.709 354.823,235.214 354.566,234.224C354.419,235.361 353.704,235.838 352.421,235.654C352.751,235.911 353.228,236.278 353.851,236.754C353.741,237.048 353.576,237.524 353.356,238.184C354.053,237.708 354.474,237.469 354.621,237.469C354.621,237.469 355.006,237.708 355.776,238.184C355.593,237.781 355.501,237.433 355.501,237.139C355.501,236.809 355.648,236.534 355.941,236.314C356.234,236.094 356.509,235.874 356.766,235.654ZM356.766,246.709L356.216,246.709C355.373,246.709 354.823,246.233 354.566,245.279C354.419,246.379 353.704,246.856 352.421,246.709C352.751,246.929 353.228,247.278 353.851,247.754C353.741,248.084 353.576,248.561 353.356,249.184C354.053,248.744 354.474,248.524 354.621,248.524C354.621,248.524 355.006,248.744 355.776,249.184C355.593,248.781 355.501,248.451 355.501,248.194C355.501,247.828 355.648,247.534 355.941,247.314C356.234,247.094 356.509,246.893 356.766,246.709ZM356.766,257.819L356.271,257.819C355.464,257.856 354.933,257.379 354.676,256.389C354.346,257.379 353.796,257.874 353.026,257.874C352.843,257.874 352.641,257.856 352.421,257.819C352.751,258.039 353.209,258.406 353.796,258.919C353.723,259.213 353.576,259.634 353.356,260.184C354.053,259.744 354.474,259.524 354.621,259.524C354.694,259.524 355.079,259.763 355.776,260.239C355.703,259.946 355.593,259.506 355.446,258.919C355.813,258.626 356.253,258.259 356.766,257.819Z" style="fill:rgb(236,58,148);fill-rule:nonzero;"/>
            </g>
            <g transform="matrix(1.8446,0,0,1.8446,-266.51,2531.37)">
                <path d="M373.281,200.384C373.521,200.384 373.961,200.264 374.601,200.024L376.341,199.004L377.961,198.044C381.481,198.044 383.921,198.544 385.281,199.544C386.641,201.064 387.321,203.024 387.321,205.424C387.321,205.864 387.211,206.584 386.991,207.584C386.771,208.584 386.661,209.104 386.661,209.144L385.821,212.924C385.661,213.724 385.581,214.724 385.581,215.924L390.021,221.564C390.421,221.084 390.621,220.684 390.621,220.364L390.021,218.684C389.581,217.684 389.361,216.684 389.361,215.684C389.841,215.684 390.161,215.824 390.321,216.104C390.521,216.224 390.761,216.564 391.041,217.124C391.201,217.604 391.361,217.884 391.521,217.964L391.521,219.224C391.921,219.224 392.361,218.674 392.841,217.574C393.321,216.474 393.641,215.844 393.801,215.684C393.681,215.004 393.081,214.344 392.001,213.704L389.721,212.024C389.321,211.624 389.121,210.964 389.121,210.044L389.301,207.764L389.781,205.304L390.141,203.204L390.261,200.984L390.561,200.624C390.561,200.544 390.661,200.464 390.861,200.384L391.341,200.504C391.461,200.544 391.581,200.664 391.701,200.864L392.061,201.164L392.301,201.584C393.141,202.664 393.561,203.944 393.561,205.424L393.561,209.054C393.561,210.074 393.641,211.304 393.801,212.744L394.101,212.744C393.741,211.544 393.561,210.764 393.561,210.404C393.561,209.564 393.691,208.794 393.951,208.094C394.211,207.394 394.641,206.464 395.241,205.304L396.501,202.844L397.041,200.984L398.181,200.984C398.781,203.504 399.081,205.364 399.081,206.564C399.081,207.524 398.901,208.304 398.541,208.904C398.901,208.904 399.561,208.644 400.521,208.124C400.921,207.964 401.311,207.814 401.691,207.674C402.071,207.534 402.381,207.464 402.621,207.464C403.061,207.024 403.281,206.224 403.281,205.064C400.881,203.504 399.681,201.944 399.681,200.384L399.681,199.784C400.361,200.984 401.341,201.764 402.621,202.124C402.821,202.124 402.921,201.744 402.921,200.984C402.721,200.264 402.401,199.784 401.961,199.544C401.521,199.304 401.171,199.144 400.911,199.064C400.651,198.984 400.041,198.844 399.081,198.644L402.021,198.524L405.261,198.464L405.981,198.464C406.661,198.464 407.301,198.404 407.901,198.284C407.741,198.684 407.301,199.024 406.581,199.304L405.021,200.384C404.701,200.544 404.501,200.944 404.421,201.584C404.421,202.024 404.521,202.424 404.721,202.784C404.921,203.144 405.281,203.544 405.801,203.984L406.881,205.004C407.161,205.284 407.321,205.604 407.361,205.964C408.321,207.884 408.801,209.844 408.801,211.844C408.801,212.884 408.721,213.794 408.561,214.574C408.401,215.354 408.081,216.264 407.601,217.304C407.001,219.024 406.021,220.724 404.661,222.404L404.961,245.684C406.361,245.084 407.541,244.784 408.501,244.784C408.701,245.104 408.801,245.984 408.801,247.424L407.121,248.924C406.401,249.644 405.701,250.204 405.021,250.604C404.341,251.004 403.461,251.204 402.381,251.204C400.621,251.604 399.041,251.804 397.641,251.804C392.761,251.804 388.641,250.044 385.281,246.524C384.921,246.524 384.421,246.644 383.781,246.884L382.221,247.904L380.901,248.864C379.381,249.384 377.971,249.804 376.671,250.124C375.371,250.444 374.041,250.604 372.681,250.604C371.521,250.604 369.671,250.654 367.131,250.754C364.591,250.854 362.901,250.904 362.061,250.904L364.701,249.164C363.861,248.684 363.161,247.814 362.601,246.554C362.041,245.294 361.761,244.104 361.761,242.984C361.761,242.344 361.911,241.624 362.211,240.824C362.511,240.024 362.891,239.374 363.351,238.874C363.811,238.374 364.181,237.974 364.461,237.674C364.741,237.374 365.001,237.014 365.241,236.594C365.481,236.174 365.601,235.464 365.601,234.464C363.921,233.344 362.771,231.774 362.151,229.754C361.531,227.734 361.221,225.384 361.221,222.704C362.021,219.664 363.381,217.824 365.301,217.184C365.301,216.344 365.351,214.774 365.451,212.474C365.551,210.174 365.601,208.504 365.601,207.464L363.981,206.864C363.621,206.744 363.281,206.624 362.961,206.504C362.641,206.384 362.281,206.174 361.881,205.874C361.481,205.574 361.141,205.124 360.861,204.524C360.861,202.204 361.461,200.924 362.661,200.684L363.261,200.684L363.441,202.064L363.741,203.804C363.861,204.204 364.101,204.544 364.461,204.824C365.221,204.824 365.601,204.604 365.601,204.164C365.601,201.804 364.821,200.264 363.261,199.544L362.601,199.304C362.121,199.224 361.821,199.134 361.701,199.034C361.581,198.934 361.521,198.684 361.521,198.284C361.881,198.284 362.541,198.264 363.501,198.224C364.461,198.184 365.261,198.164 365.901,198.164L369.141,198.044C371.221,198.044 372.601,198.824 373.281,200.384ZM385.581,201.224C385.141,200.384 384.471,199.744 383.571,199.304C382.671,198.864 381.661,198.644 380.541,198.644C378.501,198.644 377.041,199.224 376.161,200.384L378.501,199.784C380.421,199.784 382.081,200.384 383.481,201.584C384.881,203.104 385.581,205.164 385.581,207.764C385.501,208.524 385.411,209.234 385.311,209.894C385.211,210.554 385.061,211.224 384.861,211.904L383.181,217.124L381.801,220.904C383.121,218.184 384.221,215.614 385.101,213.194C385.981,210.774 386.421,208.464 386.421,206.264C386.421,205.384 386.361,204.554 386.241,203.774C386.121,202.994 385.901,202.144 385.581,201.224ZM383.841,203.324C383.561,202.524 382.981,201.884 382.101,201.404C381.221,200.924 380.221,200.684 379.101,200.684C377.421,200.684 376.061,201.084 375.021,201.884C376.141,203.644 377.461,205.464 378.981,207.344C380.501,209.224 382.121,211.104 383.841,212.984C384.441,211.424 384.741,209.584 384.741,207.464C384.741,205.504 384.441,204.124 383.841,203.324ZM393.801,213.884C392.801,212.884 392.301,211.724 392.301,210.404L392.601,208.244C392.721,207.564 392.811,207.034 392.871,206.654C392.931,206.274 392.961,205.944 392.961,205.664C392.961,204.104 392.481,202.924 391.521,202.124C391.441,202.484 391.351,202.874 391.251,203.294C391.151,203.714 391.001,204.124 390.801,204.524L390.021,207.164C389.821,207.804 389.721,208.764 389.721,210.044C390.321,212.044 391.681,213.324 393.801,213.884ZM402.621,203.624C402.621,203.224 402.401,202.884 401.961,202.604C401.721,202.524 401.551,202.444 401.451,202.364C401.351,202.284 401.241,202.204 401.121,202.124L400.881,202.484L402.621,203.624ZM365.301,205.664C363.341,204.904 362.361,203.724 362.361,202.124C362.201,202.484 362.111,202.904 362.091,203.384C362.071,203.864 362.061,204.244 362.061,204.524C362.781,205.684 363.861,206.264 365.301,206.264L365.301,205.664ZM397.941,203.024L397.401,203.024C397.041,204.464 396.241,205.644 395.001,206.564C394.641,207.124 394.461,207.904 394.461,208.904L394.461,209.984C394.581,210.424 394.701,210.874 394.821,211.334C394.941,211.794 395.001,212.344 395.001,212.984C395.001,213.464 394.821,214.144 394.461,215.024C395.421,215.024 396.541,214.874 397.821,214.574C399.101,214.274 400.091,213.764 400.791,213.044C401.491,212.324 402.241,211.264 403.041,209.864L404.421,207.464C403.141,207.464 402.051,207.784 401.151,208.424C400.251,209.064 399.421,209.944 398.661,211.064L396.501,214.484C395.901,214.484 395.401,214.284 395.001,213.884C395.121,213.484 395.301,213.044 395.541,212.564C395.781,212.084 396.101,211.524 396.501,210.884L398.061,207.944C398.381,207.344 398.541,206.584 398.541,205.664C398.541,205.224 398.341,204.344 397.941,203.024ZM370.041,204.524L368.901,204.824L367.701,205.004C367.501,205.124 367.401,205.344 367.401,205.664L368.361,205.544L369.261,205.004L370.041,204.524ZM406.761,206.564L406.341,205.784C406.021,205.184 405.791,204.824 405.651,204.704C405.511,204.584 405.181,204.524 404.661,204.524C404.661,204.924 404.961,205.364 405.561,205.844L406.761,206.864L406.761,206.564ZM407.361,210.704C407.281,210.584 407.181,210.414 407.061,210.194C406.941,209.974 406.761,209.464 406.521,208.664C406.281,207.864 405.961,207.464 405.561,207.464C405.201,207.464 404.901,207.644 404.661,208.004C404.661,210.404 404.721,212.574 404.841,214.514C404.961,216.454 405.121,218.024 405.321,219.224C406.201,218.264 406.761,217.094 407.001,215.714C407.241,214.334 407.361,212.664 407.361,210.704ZM403.281,220.904L403.281,211.844C402.121,213.124 400.901,214.124 399.621,214.844C398.341,215.564 397.001,215.924 395.601,215.924L394.281,217.784C393.521,218.824 393.081,219.684 392.961,220.364L394.761,218.804C394.961,218.724 395.231,218.624 395.571,218.504C395.911,218.384 396.221,218.324 396.501,218.324L397.161,218.564C397.361,218.564 397.581,218.634 397.821,218.774C398.061,218.914 398.181,219.144 398.181,219.464C397.221,220.664 395.381,221.264 392.661,221.264C391.901,221.264 391.521,221.944 391.521,223.304L392.961,223.064C393.681,222.824 394.261,222.704 394.701,222.704L396.141,223.304C396.141,223.864 396.001,224.204 395.721,224.324L394.461,224.864C393.741,225.064 393.321,225.324 393.201,225.644C393.401,225.724 393.741,226.164 394.221,226.964C394.701,227.604 395.161,228.044 395.601,228.284L403.281,220.904ZM397.041,212.444C396.681,212.444 396.501,212.744 396.501,213.344L396.741,213.344C396.741,212.944 396.841,212.644 397.041,212.444ZM375.561,218.624C374.121,216.944 372.441,216.104 370.521,216.104L368.541,216.284C368.101,216.364 367.731,216.454 367.431,216.554C367.131,216.654 366.681,216.884 366.081,217.244C365.241,217.644 364.701,218.184 364.461,218.864L366.081,218.204L367.641,217.664C368.161,217.504 368.761,217.424 369.441,217.424C370.801,217.424 372.261,218.024 373.821,219.224C374.981,220.304 375.561,221.764 375.561,223.604L376.161,223.304C376.161,220.864 375.961,219.304 375.561,218.624ZM390.861,218.624L390.021,216.824C390.021,217.744 390.301,218.344 390.861,218.624ZM396.741,219.224C395.461,219.224 394.701,219.604 394.461,220.364L395.721,220.124C396.241,219.924 396.581,219.624 396.741,219.224ZM393.801,243.884C393.801,240.524 394.261,237.494 395.181,234.794C396.101,232.094 397.321,229.704 398.841,227.624C400.361,225.544 402.101,223.524 404.061,221.564L399.681,225.704C399.161,226.264 398.521,226.974 397.761,227.834C397.001,228.694 396.231,229.604 395.451,230.564C394.671,231.524 393.911,232.944 393.171,234.824C392.431,236.704 392.061,238.844 392.061,241.244C392.781,244.764 394.341,247.004 396.741,247.964C396.141,247.724 395.621,247.304 395.181,246.704L393.801,243.884ZM386.421,228.584L385.101,226.664L383.421,224.564C383.141,224.084 382.681,223.664 382.041,223.304C381.281,225.784 380.901,228.644 380.901,231.884C380.901,235.724 381.681,238.944 383.241,241.544C383.481,242.064 383.701,242.504 383.901,242.864C384.101,243.224 384.351,243.564 384.651,243.884C384.951,244.204 385.361,244.404 385.881,244.484C385.881,244.044 385.741,243.684 385.461,243.404C385.181,243.124 384.841,242.804 384.441,242.444C384.041,242.084 383.841,241.784 383.841,241.544L386.781,241.544C386.621,241.184 386.481,240.854 386.361,240.554C386.241,240.254 386.021,239.984 385.701,239.744C385.261,239.224 384.641,238.744 383.841,238.304C383.281,237.864 382.841,237.324 382.521,236.684C382.201,236.044 382.041,235.304 382.041,234.464C382.361,234.504 382.741,234.684 383.181,235.004L384.381,235.904L385.581,236.864C385.581,236.464 385.551,236.054 385.491,235.634C385.431,235.214 385.301,234.674 385.101,234.014C384.901,233.354 384.641,232.684 384.321,232.004L383.481,229.904C383.321,229.384 383.241,228.764 383.241,228.044C383.641,228.084 384.001,228.274 384.321,228.614C384.641,228.954 384.841,229.284 384.921,229.604L385.581,230.984L386.421,228.584ZM393.801,223.844L392.301,223.844L392.661,224.204C393.221,224.204 393.601,224.084 393.801,223.844ZM372.081,231.524C372.441,231.164 372.621,230.484 372.621,229.484C372.621,228.884 372.441,228.304 372.081,227.744L370.341,225.644L368.781,223.844C368.781,224.444 368.981,225.124 369.381,225.884C369.781,226.644 370.141,227.384 370.461,228.104C370.781,228.824 371.031,229.374 371.211,229.754C371.391,230.134 371.481,230.924 371.481,232.124L372.081,231.524ZM403.281,224.504C401.401,225.664 399.521,227.824 397.641,230.984C397.841,231.184 398.091,231.514 398.391,231.974C398.691,232.434 399.041,232.944 399.441,233.504L401.121,236.144C401.481,236.544 401.771,236.854 401.991,237.074C402.211,237.294 402.521,237.524 402.921,237.764C402.921,236.404 402.981,234.264 403.101,231.344C403.221,228.424 403.281,226.144 403.281,224.504ZM384.741,230.984L384.501,230.204C384.501,229.844 384.381,229.604 384.141,229.484C384.141,230.084 384.341,230.584 384.741,230.984ZM387.681,231.524L387.681,230.084L387.081,232.124L387.681,231.524ZM389.721,230.984C389.401,230.984 389.071,231.144 388.731,231.464C388.391,231.784 388.221,232.104 388.221,232.424L388.821,232.424L389.601,231.644L389.721,230.984ZM391.521,242.084C391.081,241.444 390.861,240.764 390.861,240.044L391.161,238.004C391.201,237.724 391.271,237.374 391.371,236.954C391.471,236.534 391.521,236.204 391.521,235.964C391.521,234.924 390.801,233.944 389.361,233.024L388.401,233.444C388.121,233.524 387.801,233.674 387.441,233.894C387.081,234.114 386.861,234.424 386.781,234.824C386.781,236.344 386.961,237.324 387.321,237.764C388.161,236.044 389.061,234.944 390.021,234.464C390.021,234.824 389.991,235.174 389.931,235.514C389.871,235.854 389.761,236.184 389.601,236.504L388.401,238.424C387.921,239.104 387.681,239.644 387.681,240.044C387.681,240.404 387.861,240.804 388.221,241.244C388.861,239.684 389.541,238.904 390.261,238.904C390.261,240.424 389.961,241.704 389.361,242.744L390.381,242.504C390.861,242.504 391.241,242.364 391.521,242.084ZM379.701,237.104L375.261,236.444C374.461,236.364 373.611,236.254 372.711,236.114C371.811,235.974 370.711,235.744 369.411,235.424C368.111,235.104 366.841,234.604 365.601,233.924C367.441,235.484 369.601,236.704 372.081,237.584C374.561,238.464 377.301,238.904 380.301,238.904C380.301,238.504 380.201,238.164 380.001,237.884C379.801,237.604 379.701,237.344 379.701,237.104ZM384.741,237.764L384.381,237.044C384.341,236.964 384.261,236.824 384.141,236.624C384.021,236.424 383.911,236.264 383.811,236.144C383.711,236.024 383.521,235.964 383.241,235.964C383.241,236.484 383.381,236.884 383.661,237.164C383.941,237.564 384.301,237.764 384.741,237.764ZM389.121,236.264L388.821,236.864C388.661,237.264 388.581,237.564 388.581,237.764C388.941,237.484 389.121,236.984 389.121,236.264ZM380.541,239.804C378.821,239.804 376.931,239.554 374.871,239.054C372.811,238.554 370.401,237.824 367.641,236.864C367.641,239.184 367.661,241.224 367.701,242.984C367.741,244.744 367.821,246.224 367.941,247.424C369.741,247.984 371.601,248.264 373.521,248.264C375.401,248.264 377.251,247.994 379.071,247.454C380.891,246.914 382.481,246.104 383.841,245.024L380.541,239.804ZM365.601,245.924L365.601,238.304L364.461,240.344C364.461,243.144 364.841,245.004 365.601,245.924ZM397.041,242.384C396.881,242.304 396.551,241.804 396.051,240.884C395.551,239.964 395.021,239.384 394.461,239.144C394.461,239.704 394.641,240.184 395.001,240.584C395.361,240.984 395.741,241.324 396.141,241.604L397.041,242.384ZM365.601,247.124C365.081,246.764 364.641,246.264 364.281,245.624C364.161,245.304 364.051,244.974 363.951,244.634C363.851,244.294 363.741,243.844 363.621,243.284L363.261,241.544L362.661,243.884C363.021,246.084 363.901,247.444 365.301,247.964L365.601,247.124ZM386.421,242.744C386.221,242.304 385.941,242.084 385.581,242.084C385.701,242.284 385.801,242.404 385.881,242.444L386.421,242.744ZM395.601,242.384C395.401,242.184 395.021,242.084 394.461,242.084C394.821,242.524 395.201,242.744 395.601,242.744L395.601,242.384ZM393.561,247.424C393.321,247.264 393.001,246.794 392.601,246.014C392.201,245.234 391.811,244.644 391.431,244.244C391.051,243.844 390.481,243.644 389.721,243.644C390.881,245.444 392.161,246.704 393.561,247.424ZM397.941,246.824C397.581,244.944 396.601,243.884 395.001,243.644L395.001,244.484C396.001,246.444 396.981,247.424 397.941,247.424L397.941,246.824ZM392.061,248.264C391.581,248.104 391.081,247.724 390.561,247.124L388.941,245.504C388.501,244.984 388.081,244.644 387.681,244.484C387.561,244.684 387.321,244.844 386.961,244.964C386.601,245.244 386.421,245.484 386.421,245.684C387.901,247.124 389.381,248.114 390.861,248.654C392.341,249.194 393.511,249.564 394.371,249.764C395.231,249.964 396.121,250.064 397.041,250.064C396.801,250.064 396.511,250.034 396.171,249.974C395.831,249.914 395.581,249.864 395.421,249.824L393.801,249.164L392.061,248.264ZM401.481,247.964L398.781,244.484C398.941,244.684 399.081,245.264 399.201,246.224L399.561,248.264C399.681,248.664 399.941,248.864 400.341,248.864C400.461,248.784 400.621,248.684 400.821,248.564C401.021,248.444 401.241,248.244 401.481,247.964ZM407.901,246.224L407.901,245.684L407.601,245.684L407.901,246.224ZM406.761,246.824C406.401,246.824 406.001,246.964 405.561,247.244C405.161,247.404 404.961,247.644 404.961,247.964C405.041,248.044 405.131,248.104 405.231,248.144C405.331,248.184 405.441,248.224 405.561,248.264C406.361,247.904 406.761,247.424 406.761,246.824ZM377.361,248.864L371.781,248.864C370.221,248.864 369.141,248.784 368.541,248.624C369.021,249.584 370.001,250.064 371.481,250.064C372.121,249.944 372.631,249.854 373.011,249.794C373.391,249.734 373.941,249.604 374.661,249.404L377.361,248.864ZM362.841,228.164L363.681,230.084C364.001,230.884 364.271,231.384 364.491,231.584C364.711,231.784 365.081,231.964 365.601,232.124L365.601,219.464C364.401,219.784 363.521,220.484 362.961,221.564C362.721,221.924 362.601,222.624 362.601,223.664L362.721,225.824L362.841,228.164ZM370.881,221.804L371.061,221.924C370.861,222.204 370.691,222.414 370.551,222.554C370.411,222.694 370.301,222.824 370.221,222.944C370.141,223.064 370.081,223.184 370.041,223.304C370.041,223.744 370.441,224.464 371.241,225.464L373.041,227.564C373.361,228.004 373.521,228.644 373.521,229.484C373.521,229.964 373.501,230.324 373.461,230.564C373.421,230.804 373.281,231.104 373.041,231.464L371.481,233.504L370.341,234.824C372.341,235.424 375.361,235.904 379.401,236.264C379.401,234.544 379.421,232.984 379.461,231.584C379.501,230.184 379.581,228.924 379.701,227.804C379.701,226.804 379.811,225.764 380.031,224.684C380.251,223.604 380.541,222.464 380.901,221.264L370.041,207.104L369.201,206.984L367.401,206.864L367.401,215.684C368.441,215.324 369.481,215.144 370.521,215.144C373.841,215.144 376.021,216.684 377.061,219.764C377.061,221.124 376.981,222.174 376.821,222.914C376.661,223.654 376.241,224.264 375.561,224.744L373.821,224.744L374.421,223.844C374.421,222.004 374.161,220.794 373.641,220.214C373.121,219.634 372.421,219.184 371.541,218.864C370.741,218.664 369.981,218.564 369.261,218.564C368.421,218.564 367.761,218.684 367.281,218.924L367.401,233.564L367.941,234.164C368.541,234.164 368.941,234.104 369.141,233.984C369.341,233.864 369.561,233.694 369.801,233.474C370.041,233.254 370.221,233.104 370.341,233.024C370.341,232.424 370.201,231.564 369.921,230.444C369.641,229.324 369.241,227.884 368.721,226.124L367.941,222.224C368.021,221.904 368.081,221.724 368.121,221.684L368.721,221.564L369.561,221.624L370.881,221.804Z" style="fill:rgb(0,163,39);fill-rule:nonzero;"/>
            </g>
            <g transform="matrix(2.80099,0,0,2.80099,-605.462,2286.89)">
                <path d="M455.121,241.484L455.571,241.694C454.751,242.954 453.796,244.349 452.706,245.879C451.616,247.409 450.301,248.974 448.761,250.574C448.401,250.954 448.041,251.309 447.681,251.639C447.321,251.969 446.971,252.284 446.631,252.584L446.631,252.704L441.681,252.704C441.541,252.244 441.426,251.649 441.336,250.919C441.246,250.189 441.176,249.449 441.126,248.699C441.076,247.949 441.041,247.249 441.021,246.599C441.001,245.949 440.991,245.484 440.991,245.204C440.991,245.024 440.986,244.844 440.976,244.664C440.966,244.484 440.951,244.304 440.931,244.124C440.871,243.424 440.706,242.764 440.436,242.144C440.166,241.524 439.691,241.014 439.011,240.614C438.611,240.394 438.141,240.219 437.601,240.089C437.061,239.959 436.411,239.894 435.651,239.894L425.871,239.894L425.871,252.704L421.821,252.704L421.821,243.014C421.121,243.434 420.381,243.759 419.601,243.989C418.821,244.219 417.991,244.334 417.111,244.334C416.031,244.334 415.046,244.169 414.156,243.839C413.266,243.509 412.511,243.034 411.891,242.414C411.271,241.794 410.791,241.044 410.451,240.164C410.111,239.284 409.941,238.294 409.941,237.194C409.941,235.434 410.321,233.744 411.081,232.124C411.841,230.504 412.881,228.989 414.201,227.579C415.521,226.169 417.066,224.884 418.836,223.724C420.606,222.564 422.501,221.569 424.521,220.739C426.541,219.909 428.631,219.264 430.791,218.804C432.951,218.344 435.071,218.114 437.151,218.114C437.891,218.114 438.656,218.144 439.446,218.204C440.236,218.264 441.011,218.354 441.771,218.474C442.531,218.594 443.261,218.759 443.961,218.969C444.661,219.179 445.291,219.434 445.851,219.734C446.191,219.594 446.591,219.439 447.051,219.269C447.511,219.099 447.986,218.934 448.476,218.774C448.966,218.614 449.461,218.474 449.961,218.354C450.461,218.234 450.911,218.154 451.311,218.114L451.371,218.414C450.531,218.514 449.706,218.719 448.896,219.029C448.086,219.339 447.331,219.694 446.631,220.094C447.911,220.814 448.891,221.714 449.571,222.794C450.251,223.874 450.591,225.124 450.591,226.544C450.591,227.784 450.426,228.899 450.096,229.889C449.766,230.879 449.306,231.754 448.716,232.514C448.126,233.274 447.431,233.924 446.631,234.464C445.831,235.004 444.961,235.444 444.021,235.784C443.621,236.304 443.186,236.734 442.716,237.074C442.246,237.414 441.781,237.724 441.321,238.004C441.741,238.184 442.156,238.384 442.566,238.604C442.976,238.824 443.346,239.134 443.676,239.534C444.006,239.934 444.281,240.454 444.501,241.094C444.721,241.734 444.851,242.574 444.891,243.614L445.131,249.044C445.151,249.444 445.181,249.789 445.221,250.079C445.261,250.369 445.331,250.624 445.431,250.844C445.531,251.064 445.666,251.264 445.836,251.444C446.006,251.624 446.231,251.794 446.511,251.954C446.871,251.654 447.221,251.334 447.561,250.994C450.241,248.374 452.761,245.204 455.121,241.484ZM447.771,225.224C447.771,224.364 447.601,223.539 447.261,222.749C446.921,221.959 446.431,221.314 445.791,220.814C445.131,221.214 444.481,221.699 443.841,222.269C443.201,222.839 442.561,223.474 441.921,224.174C442.981,224.754 443.836,225.579 444.486,226.649C445.136,227.719 445.461,229.114 445.461,230.834C445.461,231.134 445.451,231.419 445.431,231.689C445.411,231.959 445.381,232.214 445.341,232.454C446.121,231.494 446.721,230.394 447.141,229.154C447.561,227.914 447.771,226.604 447.771,225.224ZM426.891,236.414L435.231,236.414L435.441,235.904C435.801,235.964 436.166,236.014 436.536,236.054C436.906,236.094 437.271,236.114 437.631,236.114C437.771,236.114 437.871,236.104 437.931,236.084C438.411,235.964 438.856,235.784 439.266,235.544C439.676,235.304 440.031,234.994 440.331,234.614C440.631,234.234 440.871,233.769 441.051,233.219C441.231,232.669 441.321,232.014 441.321,231.254C441.321,230.154 441.151,229.279 440.811,228.629C440.471,227.979 440.051,227.484 439.551,227.144C439.211,226.924 438.846,226.749 438.456,226.619C438.066,226.489 437.681,226.404 437.301,226.364C437.761,225.844 438.236,225.339 438.726,224.849C439.216,224.359 439.721,223.894 440.241,223.454C441.001,222.814 441.771,222.219 442.551,221.669C443.331,221.119 444.151,220.644 445.011,220.244C444.451,219.964 443.841,219.729 443.181,219.539C442.521,219.349 441.846,219.194 441.156,219.074C440.466,218.954 439.771,218.869 439.071,218.819C438.371,218.769 437.681,218.744 437.001,218.744C435.821,218.744 434.596,218.829 433.326,218.999C432.056,219.169 430.781,219.429 429.501,219.779C428.221,220.129 426.946,220.559 425.676,221.069C424.406,221.579 423.181,222.164 422.001,222.824L421.821,222.914C420.421,223.714 419.111,224.624 417.891,225.644C416.671,226.664 415.611,227.789 414.711,229.019C413.811,230.249 413.101,231.574 412.581,232.994C412.061,234.414 411.801,235.924 411.801,237.524C411.801,239.424 412.271,240.929 413.211,242.039C414.151,243.149 415.471,243.704 417.171,243.704C418.071,243.704 418.906,243.579 419.676,243.329C420.446,243.079 421.161,242.734 421.821,242.294C422.861,241.614 423.756,240.764 424.506,239.744C425.256,238.724 425.831,237.614 426.231,236.414C426.451,235.774 426.616,235.134 426.726,234.494C426.836,233.854 426.891,233.214 426.891,232.574L427.521,232.574C427.521,233.894 427.311,235.174 426.891,236.414Z" style="fill:rgb(247,2,1);fill-rule:nonzero;"/>
            </g>
            <g transform="matrix(2.34272,0,0,2.34272,-414.539,2403.02)">
                <path d="M408.261,229.604C408.261,228.124 407.301,227.384 405.381,227.384C404.701,227.384 404.001,227.444 403.281,227.564C403.121,227.204 402.921,226.604 402.681,225.764C402.441,224.924 402.321,223.984 402.321,222.944C402.481,221.744 402.841,220.624 403.401,219.584C403.961,218.544 404.631,217.634 405.411,216.854C406.191,216.074 407.071,215.464 408.051,215.024C409.031,214.584 410.041,214.364 411.081,214.364C411.881,214.444 412.621,214.604 413.301,214.844C413.981,215.084 414.641,215.364 415.281,215.684C416.561,216.364 417.201,217.744 417.201,219.824C417.201,221.344 416.741,222.684 415.821,223.844C414.941,224.964 413.941,225.524 412.821,225.524C412.221,225.524 411.681,225.344 411.201,224.984C410.481,224.464 410.121,223.784 410.121,222.944C410.121,222.104 410.461,221.204 411.141,220.244C411.821,219.284 412.681,218.404 413.721,217.604C413.641,217.604 413.581,217.504 413.541,217.304C413.501,217.104 413.421,217.004 413.301,217.004C412.701,217.084 412.091,217.264 411.471,217.544C410.851,217.824 410.291,218.214 409.791,218.714C409.291,219.214 408.891,219.814 408.591,220.514C408.291,221.214 408.141,222.044 408.141,223.004C408.141,223.964 408.561,224.884 409.401,225.764C410.281,226.644 411.181,227.084 412.101,227.084C412.981,227.084 413.831,226.964 414.651,226.724C415.471,226.484 416.201,226.074 416.841,225.494C417.481,224.914 417.981,224.164 418.341,223.244C418.701,222.324 418.881,221.184 418.881,219.824C418.881,218.624 418.641,217.494 418.161,216.434C417.681,215.374 417.001,214.444 416.121,213.644C415.241,212.844 414.181,212.214 412.941,211.754C411.701,211.294 410.321,211.064 408.801,211.064C406.961,211.064 405.331,211.254 403.911,211.634C402.491,212.014 401.281,212.504 400.281,213.104C399.281,213.704 398.461,214.354 397.821,215.054C397.181,215.754 396.721,216.424 396.441,217.064C395.961,218.104 395.721,219.324 395.721,220.724C395.721,223.324 396.441,225.664 397.881,227.744C396.041,227.904 394.231,228.324 392.451,229.004C390.671,229.684 389.081,230.584 387.681,231.704C386.281,232.824 385.161,234.124 384.321,235.604C383.481,237.084 383.101,238.684 383.181,240.404C383.101,241.964 383.461,243.494 384.261,244.994C385.061,246.494 386.111,247.824 387.411,248.984C388.711,250.144 390.151,251.064 391.731,251.744C393.311,252.424 394.821,252.744 396.261,252.704C398.021,252.704 399.801,252.384 401.601,251.744C403.401,251.104 405.041,250.234 406.521,249.134C408.001,248.034 409.201,246.744 410.121,245.264C411.041,243.784 411.501,242.204 411.501,240.524C411.421,239.284 411.201,238.284 410.841,237.524C410.481,236.764 410.031,236.174 409.491,235.754C408.951,235.334 408.351,235.044 407.691,234.884C407.031,234.724 406.341,234.604 405.621,234.524C404.821,234.524 403.931,234.674 402.951,234.974C401.971,235.274 401.061,235.774 400.221,236.474C399.381,237.174 398.681,238.114 398.121,239.294C397.561,240.474 397.281,241.944 397.281,243.704C397.281,244.144 397.291,244.534 397.311,244.874C397.331,245.214 397.361,245.504 397.401,245.744L398.181,245.864C398.341,245.584 398.531,245.204 398.751,244.724C398.971,244.244 399.221,243.664 399.501,242.984C400.101,241.624 400.641,240.484 401.121,239.564C401.601,238.684 402.231,237.914 403.011,237.254C403.791,236.594 404.721,236.244 405.801,236.204C406.801,236.204 407.671,236.584 408.411,237.344C409.151,238.104 409.541,239.064 409.581,240.224C409.621,241.064 409.331,242.094 408.711,243.314C408.091,244.534 407.241,245.704 406.161,246.824C405.081,247.944 403.781,248.884 402.261,249.644C400.741,250.404 399.101,250.744 397.341,250.664C395.421,250.664 393.781,249.924 392.421,248.444C391.021,246.924 390.261,245.304 390.141,243.584C390.061,242.184 390.401,240.664 391.161,239.024C391.921,237.384 392.831,235.854 393.891,234.434C394.951,233.014 396.061,231.844 397.221,230.924C398.381,230.004 399.341,229.564 400.101,229.604C400.541,229.604 400.921,229.764 401.241,230.084C402.321,231.164 403.641,231.704 405.201,231.704C406.041,231.704 406.761,231.514 407.361,231.134C407.961,230.754 408.261,230.244 408.261,229.604Z" style="fill:rgb(3,178,239);fill-rule:nonzero;"/>
            </g>
        </g>
    </g>
</svg>
