<?xml version="1.0" encoding="UTF-8" standalone="no"?>
<!DOCTYPE svg PUBLIC "-//W3C//DTD SVG 1.1//EN" "http://www.w3.org/Graphics/SVG/1.1/DTD/svg11.dtd">
<svg width="100%" height="100%" viewBox="0 0 621 223" version="1.1" xmlns="http://www.w3.org/2000/svg" xmlns:xlink="http://www.w3.org/1999/xlink" xml:space="preserve" xmlns:serif="http://www.serif.com/" style="fill-rule:evenodd;clip-rule:evenodd;stroke-linejoin:round;stroke-miterlimit:2;">
    <g transform="matrix(1,0,0,1,-879.143,-1799.2)">
        <g transform="matrix(1,0,0,1.00385,0,-7.79283)">
            <rect x="879.143" y="1800.05" width="620.204" height="221.585" style="fill:rgb(130,130,130);fill-opacity:0;"/>
        </g>
        <g transform="matrix(1,0,0,1,944.059,1614.5)">
            <path d="M222.186,247.001C219.387,250.869 216.379,253.186 213.163,253.954C211.223,254.423 208.977,254.267 206.424,253.486C201.971,252.119 198.911,249.319 197.245,245.087C196.464,243.069 196.073,240.979 196.073,238.818C196.073,236.852 196.392,234.827 197.03,232.744C198.384,228.316 200.669,224.944 203.885,222.626C206.281,220.895 208.892,220.029 211.717,220.029C213.228,220.029 214.797,220.276 216.424,220.771C219.393,221.682 222.076,223.388 224.471,225.888C226.06,227.542 226.854,229.215 226.854,230.908C226.854,231.454 226.77,232.001 226.6,232.548C226.353,233.382 225.845,234.007 225.077,234.423C224.647,234.645 224.172,234.755 223.651,234.755C223.26,234.755 222.837,234.69 222.382,234.56C221.73,234.352 221.307,233.395 221.112,231.689C220.839,229.241 220.552,227.626 220.253,226.845C219.563,224.983 218.273,223.759 216.385,223.173C215.461,222.9 214.569,222.763 213.71,222.763C209.113,222.763 205.663,226.539 203.358,234.091C202.746,236.083 202.44,237.932 202.44,239.638C202.44,241.474 202.792,243.147 203.495,244.658C204.706,247.275 206.737,249.02 209.589,249.892C211.568,250.491 213.628,250.481 215.77,249.863C217.912,249.244 219.771,247.991 221.346,246.103L222.186,247.001Z" style="fill:rgb(19,33,140);fill-rule:nonzero;"/>
            <path d="M223.202,251.337C225.129,250.908 226.561,249.553 227.499,247.275L236.932,224.189L238.358,224.15L248.397,246.552C249.048,247.984 249.628,248.961 250.135,249.482C250.695,250.068 251.464,250.348 252.44,250.322L252.499,251.747L239.335,252.216L239.276,250.771C241.893,250.68 243.176,249.898 243.124,248.427C243.098,247.867 242.915,247.177 242.577,246.357L236.112,230.615L229.374,246.826C229.1,247.75 228.97,248.447 228.983,248.915C229.009,249.632 229.315,250.169 229.901,250.527C230.487,250.885 231.509,251.044 232.967,251.005L233.026,252.431L223.241,252.763L223.202,251.337Z" style="fill:rgb(19,33,140);fill-rule:nonzero;"/>
            <path d="M270.448,218.642C270.474,218.941 270.487,219.228 270.487,219.501C270.487,221.428 269.803,222.451 268.436,222.568C268.007,222.607 266.444,221.448 263.749,219.091C262.447,217.945 261.177,217.431 259.94,217.548C258.625,217.652 257.766,218.421 257.362,219.853C256.932,221.337 256.796,222.952 256.952,224.697L257.733,233.72L264.979,233.095L264.647,235.693L257.967,236.279L259.706,256.201C259.823,257.529 260.109,258.382 260.565,258.759C261.268,259.358 262.811,259.553 265.194,259.345L265.331,260.927L250.37,262.236L250.214,260.654C251.945,260.497 253.078,260.165 253.612,259.658C254.341,258.954 254.621,257.626 254.452,255.673L252.792,236.728L247.635,237.177L247.948,234.579L252.577,234.189L252.186,229.814C252.134,229.163 252.108,228.525 252.108,227.9C252.108,224.905 252.779,222.314 254.12,220.126C255.93,217.197 258.658,215.576 262.303,215.263C264.764,215.042 266.708,215.221 268.133,215.8C269.559,216.38 270.331,217.327 270.448,218.642Z" style="fill:rgb(19,33,140);fill-rule:nonzero;"/>
            <path d="M295.253,239.814C293.586,246.389 290.318,250.107 285.448,250.966C284.146,251.201 282.922,251.318 281.776,251.318C275.096,251.318 271.125,247.731 269.862,240.556C269.706,239.671 269.628,238.805 269.628,237.958C269.628,235.302 270.376,232.757 271.874,230.322C273.801,227.158 276.464,225.276 279.862,224.677C280.839,224.508 281.783,224.423 282.694,224.423C284.699,224.423 286.555,224.84 288.26,225.673C290.747,226.884 292.473,228.896 293.436,231.708L273.69,235.185C273.651,236.253 273.697,237.151 273.827,237.88C274.348,240.836 275.682,243.264 277.831,245.165C279.576,246.715 281.431,247.49 283.397,247.49C283.866,247.49 284.335,247.444 284.803,247.353C287.954,246.806 290.383,245.523 292.089,243.505C293.052,242.372 293.651,241.07 293.885,239.599L295.253,239.814ZM286.268,231.513C285.956,229.768 285.24,228.388 284.12,227.372C282.896,226.253 281.438,225.843 279.745,226.142C278.052,226.441 276.665,227.366 275.585,228.915C274.621,230.283 274.042,231.884 273.846,233.72L286.268,231.513ZM292.382,213.388C292.382,213.857 292.284,214.293 292.089,214.697C291.854,215.152 291.483,215.556 290.975,215.908L281.815,222.275L279.549,222.275L287.792,212.685C288.703,211.63 289.602,211.103 290.487,211.103C291.75,211.103 292.382,211.865 292.382,213.388Z" style="fill:rgb(19,33,140);fill-rule:nonzero;"/>
        </g>
        <g transform="matrix(1,0,0,1,803.61,-1401.15)">
            <g transform="matrix(1.727,0,0,1.727,-208.272,2964.85)">
                <path d="M222.101,193.184L222.101,205.584L228.821,205.584L228.821,252.704L241.221,252.704L241.221,205.584L247.941,205.584L247.941,193.184L222.101,193.184Z" style="fill:rgb(251,110,47);fill-rule:nonzero;"/>
            </g>
            <g transform="matrix(1.727,0,0,1.727,-235.739,2948.58)">
                <path d="M223.521,250.784C221.241,253.184 218.381,254.624 214.941,255.104L214.941,260.624L208.401,260.624L208.401,255.104C203.681,254.304 200.201,252.144 197.961,248.624C196.601,246.504 195.781,243.424 195.501,239.384L204.081,237.764C204.441,240.244 204.801,241.984 205.161,242.984C205.841,244.864 206.921,246.164 208.401,246.884L208.401,233.744C200.481,231.624 196.521,227.144 196.521,220.304C196.521,216.584 197.621,213.524 199.821,211.124C201.901,208.844 204.761,207.404 208.401,206.804L208.401,204.104L214.941,204.104L214.941,206.804C221.621,207.964 225.521,212.484 226.641,220.364L217.821,221.684C217.301,218.204 216.341,216.044 214.941,215.204L214.941,226.664C218.941,227.664 221.881,229.104 223.761,230.984C226.241,233.464 227.481,236.624 227.481,240.464C227.481,244.584 226.161,248.024 223.521,250.784ZM208.401,214.964C206.281,215.924 205.221,217.564 205.221,219.884C205.221,222.124 206.281,223.764 208.401,224.804L208.401,214.964ZM217.581,237.284C217.101,236.724 216.221,236.164 214.941,235.604L214.941,246.944C217.381,245.824 218.601,243.784 218.601,240.824C218.601,239.344 218.261,238.164 217.581,237.284Z" style="fill:rgb(19,33,140);fill-rule:nonzero;"/>
            </g>
            <g transform="matrix(1.727,0,0,1.727,-233.227,2949.83)">
                <path d="M291.681,258.944C282.881,258.944 278.481,255.104 278.481,247.424C278.481,245.104 278.831,243.164 279.531,241.604C280.231,240.044 281.441,238.424 283.161,236.744C280.041,234.704 278.481,231.504 278.481,227.144C278.481,223.264 279.761,219.984 282.321,217.304L279.201,217.304L279.201,204.344L312.081,204.344L312.081,218.144L295.341,218.144C291.501,218.144 289.581,219.404 289.581,221.924C289.581,223.244 290.241,224.124 291.561,224.564C291.961,224.684 292.801,224.744 294.081,224.744L312.081,224.744L312.081,238.484L295.161,238.484C291.481,238.484 289.641,239.764 289.641,242.324C289.641,244.244 290.921,245.204 293.481,245.204L312.081,245.204L312.081,258.944L291.681,258.944Z" style="fill:rgb(142,189,31);fill-rule:nonzero;"/>
            </g>
            <g transform="matrix(2.20994,0,0,2.20994,-277.4,2843.16)">
                <path d="M280.721,252.704C280.114,252.704 279.601,252.494 279.181,252.074C278.761,251.654 278.551,251.141 278.551,250.534L278.551,207.974C278.551,207.414 278.761,206.924 279.181,206.504C279.601,206.084 280.114,205.874 280.721,205.874L282.401,205.874C282.961,205.874 283.451,206.084 283.871,206.504C284.291,206.924 284.501,207.414 284.501,207.974L284.501,250.534C284.501,251.141 284.291,251.654 283.871,252.074C283.451,252.494 282.961,252.704 282.401,252.704L280.721,252.704Z" style="fill:rgb(236,58,148);fill-rule:nonzero;"/>
            </g>
            <g transform="matrix(1.727,0,0,1.727,-399.868,2944.75)">
                <path d="M510.321,234.584C510.321,243.584 507.121,250.904 500.721,256.544C494.641,261.864 487.061,264.524 477.981,264.524C470.661,264.524 464.241,261.284 458.721,254.804C453.401,248.644 450.741,241.884 450.741,234.524C450.741,226.324 453.651,219.294 459.471,213.434C465.291,207.574 472.281,204.644 480.441,204.644C488.601,204.644 495.621,207.584 501.501,213.464C507.381,219.344 510.321,226.384 510.321,234.584ZM508.941,234.704L506.241,234.704L506.241,234.284L508.941,234.284L508.941,233.084C508.941,232.324 508.801,231.264 508.521,229.904C508.361,229.864 507.481,229.964 505.881,230.204L505.881,229.844L508.401,229.364L507.321,225.044L504.861,225.884L504.561,225.584L507.021,224.624L505.341,220.544L502.941,221.864L502.701,221.444L505.101,220.004C504.581,219.124 503.701,217.924 502.461,216.404L500.361,218.204L500.001,217.844L502.221,215.984C501.061,214.704 499.981,213.664 498.981,212.864L497.181,214.904L496.881,214.664L498.741,212.504C497.661,211.584 496.421,210.704 495.021,209.864L493.521,212.324L493.221,212.024L494.601,209.624L490.581,207.704L489.381,210.344L489.141,210.224L490.101,207.524C489.981,207.444 488.541,207.044 485.781,206.324L485.181,209.204L484.761,209.084L485.301,206.264C484.021,205.904 482.481,205.784 480.681,205.904L480.681,208.784L480.261,208.784L480.261,205.904L477.741,205.904C477.741,205.904 477.081,206.024 475.761,206.264L476.181,209.204L475.881,209.204C475.681,208.524 475.481,207.564 475.281,206.324C474.521,206.444 473.781,206.584 473.061,206.744C472.181,206.944 471.481,207.204 470.961,207.524L471.921,210.164L471.501,210.344L470.421,207.584L466.401,209.504L467.841,212.084L467.421,212.324L465.921,209.804C465.041,210.284 463.841,211.184 462.321,212.504L464.121,214.664L463.761,214.904L461.901,212.744C460.621,213.904 459.581,214.984 458.781,215.984L460.941,217.844L460.581,218.204L458.421,216.284C457.621,217.084 456.781,218.344 455.901,220.064L458.361,221.504L458.121,221.864L455.601,220.484L453.741,224.504L456.381,225.644L456.141,225.884L453.561,225.044C453.041,226.244 452.681,227.644 452.481,229.244L455.181,229.904L454.941,230.264L452.361,229.784C452.001,232.064 451.861,233.564 451.941,234.284L454.821,234.284L454.821,234.704L451.941,234.704L451.941,235.964C451.941,236.644 452.081,237.744 452.361,239.264L454.881,238.784L455.181,239.144L452.421,239.684L452.421,240.104C452.421,240.504 452.761,241.804 453.441,244.004L456.201,243.104L456.381,243.464L453.741,244.544L455.541,248.564L458.121,247.184L458.361,247.544L455.781,249.104C456.301,249.984 457.181,251.184 458.421,252.704L460.581,250.844L460.941,251.204L458.661,253.184C459.821,254.424 460.901,255.464 461.901,256.304L463.761,254.144L464.121,254.384L462.201,256.664L465.861,259.244L467.541,256.664L467.841,256.964L466.401,259.544L470.421,261.464L471.561,258.584L471.921,258.824L470.841,261.584C473.081,262.344 474.561,262.724 475.281,262.724L475.881,259.844L476.301,259.904L475.761,262.844C476.921,263.244 478.421,263.364 480.261,263.204L480.261,260.264L480.681,260.264L480.681,263.204L483.321,263.204C483.321,263.204 483.961,263.064 485.241,262.784L484.881,259.844L485.781,262.724L486.321,262.724C486.441,262.724 487.701,262.324 490.101,261.524L489.141,258.884L489.441,258.584L490.581,261.344C491.181,261.104 492.541,260.504 494.661,259.544L493.221,256.904L493.521,256.664L495.021,259.244C496.581,258.204 497.821,257.304 498.741,256.544L496.881,254.384L497.001,254.084C497.601,254.524 498.301,255.264 499.101,256.304L502.281,253.064L500.001,251.204L500.361,250.844L502.581,252.704C503.741,251.104 504.561,249.844 505.041,248.924L502.701,247.424L502.941,247.184L505.341,248.564L507.141,244.424L504.561,243.404L504.741,243.104L507.321,244.004L508.401,239.684C508.241,239.724 507.401,239.564 505.881,239.204L505.881,238.844L506.181,238.784L508.641,239.084C508.881,237.084 508.981,235.624 508.941,234.704ZM501.441,223.064C501.441,223.264 501.311,223.474 501.051,223.694C500.791,223.914 500.561,224.024 500.361,224.024C499.681,224.024 499.341,223.564 499.341,222.644C499.341,221.604 499.681,221.084 500.361,221.084C501.001,221.084 501.321,221.344 501.321,221.864L500.721,221.864L500.721,221.744C500.761,221.544 500.641,221.444 500.361,221.444C500.201,221.444 500.061,221.564 499.941,221.804L500.001,222.224C500.121,222.104 500.281,222.044 500.481,222.044C501.121,222.044 501.441,222.384 501.441,223.064ZM492.981,215.384C492.981,215.944 492.641,216.224 491.961,216.224C491.321,216.224 491.021,215.964 491.061,215.444L491.061,215.324L491.481,215.324C491.681,215.644 491.861,215.804 492.021,215.804C492.341,215.804 492.501,215.664 492.501,215.384C492.501,214.904 492.241,214.744 491.721,214.904C491.881,214.784 492.101,214.584 492.381,214.304L492.381,213.884C492.221,213.724 492.121,213.644 492.081,213.644C491.761,213.644 491.601,213.804 491.601,214.124L491.121,214.124C491.201,213.524 491.521,213.224 492.081,213.224C492.681,213.224 492.981,213.504 492.981,214.064C492.981,214.224 492.861,214.424 492.621,214.664C492.861,214.864 492.981,215.104 492.981,215.384ZM504.861,233.444L503.601,233.444L503.601,234.104C503.761,234.144 503.921,234.164 504.081,234.164L504.321,234.164C504.481,234.164 504.661,234.144 504.861,234.104L504.861,234.644C504.621,234.604 504.421,234.584 504.261,234.584L504.021,234.584C503.901,234.584 503.761,234.604 503.601,234.644L503.601,235.484L504.861,235.484L504.861,235.904L503.001,235.904L503.001,232.964L504.861,232.964L504.861,233.444ZM481.581,213.104L481.161,213.104C480.681,212.264 480.221,211.544 479.781,210.944C479.741,211.264 479.721,211.604 479.721,211.964C479.721,212.324 479.761,212.704 479.841,213.104L479.361,213.104L479.361,210.164L479.901,210.164C480.141,210.484 480.561,211.184 481.161,212.264C481.201,211.984 481.221,211.684 481.221,211.364C481.221,211.004 481.201,210.604 481.161,210.164L481.581,210.164L481.581,213.104ZM501.981,245.024C501.981,245.704 501.601,246.204 500.841,246.524C500.961,246.564 501.121,246.584 501.321,246.584C501.521,246.584 501.741,246.564 501.981,246.524L501.981,247.064L500.241,247.064L500.241,246.524C500.481,246.284 500.751,246.014 501.051,245.714C501.351,245.414 501.501,245.184 501.501,245.024C501.501,244.704 501.381,244.544 501.141,244.544C501.021,244.544 500.881,244.704 500.721,245.024L500.241,245.024L500.241,244.904C500.241,244.384 500.521,244.124 501.081,244.124C501.681,244.124 501.981,244.424 501.981,245.024ZM470.421,215.444C470.421,216.004 470.081,216.284 469.401,216.284C468.761,216.284 468.441,216.044 468.441,215.564C468.441,215.524 468.461,215.484 468.501,215.444L469.041,215.444C469.041,215.764 469.201,215.924 469.521,215.924C469.801,215.924 469.941,215.764 469.941,215.444C469.941,215.124 469.761,214.964 469.401,214.964C469.281,214.964 469.201,214.984 469.161,215.024C469.201,214.864 469.321,214.734 469.521,214.634C469.721,214.534 469.821,214.364 469.821,214.124C469.821,213.884 469.721,213.764 469.521,213.764C469.201,213.764 469.041,213.924 469.041,214.244L468.561,214.244C468.681,213.644 469.001,213.344 469.521,213.344C470.041,213.344 470.301,213.604 470.301,214.124C470.301,214.404 470.221,214.624 470.061,214.784C470.101,214.824 470.181,214.844 470.301,214.844C470.301,214.924 470.321,215.024 470.361,215.144C470.401,215.264 470.421,215.364 470.421,215.444ZM500.001,247.064L499.461,247.064C499.501,246.664 499.521,246.304 499.521,245.984L499.521,245.624C499.521,245.424 499.501,245.144 499.461,244.784C499.421,244.864 499.261,244.964 498.981,245.084C498.981,245.004 499.051,244.844 499.191,244.604C499.331,244.364 499.461,244.244 499.581,244.244L500.001,244.244L500.001,247.064ZM468.381,215.624C468.381,215.704 468.361,215.764 468.321,215.804C467.921,216.124 467.581,216.284 467.301,216.284C466.701,216.284 466.401,216.044 466.401,215.564L466.401,215.444L466.881,215.444C466.921,215.764 467.081,215.924 467.361,215.924C467.681,215.924 467.841,215.764 467.841,215.444C467.841,215.124 467.581,214.984 467.061,215.024C467.181,214.904 467.421,214.684 467.781,214.364L467.781,214.004C467.581,213.844 467.461,213.764 467.421,213.764C467.101,213.764 466.941,213.924 466.941,214.244L466.461,214.244C466.541,213.644 466.861,213.344 467.421,213.344C468.061,213.344 468.381,213.624 468.381,214.184C468.381,214.344 468.241,214.544 467.961,214.784C468.241,215.064 468.381,215.344 468.381,215.624ZM492.681,226.724C492.721,226.924 492.571,227.074 492.231,227.174C491.891,227.274 491.581,227.364 491.301,227.444C490.501,227.804 490.101,228.384 490.101,229.184L490.101,245.024C489.421,245.144 489.161,245.204 489.321,245.204C488.801,245.204 486.141,242.904 481.341,238.304C478.541,235.504 475.721,232.724 472.881,229.964L472.821,242.084C472.821,242.764 473.091,243.324 473.631,243.764C474.171,244.204 474.781,244.424 475.461,244.424L475.461,244.844L469.581,244.844L469.461,244.424C471.221,244.304 472.101,243.584 472.101,242.264L472.101,229.124C471.741,228.724 471.341,228.304 470.901,227.864C470.461,227.424 469.981,227.204 469.461,227.204L469.461,226.604L475.521,226.604L489.441,239.204L489.441,229.244C489.441,228.404 489.081,227.824 488.361,227.504C487.401,227.064 486.901,226.804 486.861,226.724L492.681,226.724ZM462.921,222.704C462.921,223.704 462.581,224.204 461.901,224.204C461.261,224.204 460.941,223.724 460.941,222.764C460.941,221.764 461.281,221.264 461.961,221.264C462.601,221.264 462.921,221.744 462.921,222.704ZM494.001,254.984C494.001,255.744 493.681,256.124 493.041,256.124C492.561,256.124 492.261,255.824 492.141,255.224L492.681,255.224C492.841,255.464 492.981,255.584 493.101,255.584C493.421,255.584 493.581,255.384 493.581,254.984C493.581,254.664 493.421,254.504 493.101,254.504C493.061,254.504 492.761,254.644 492.201,254.924L492.201,253.124L493.761,253.124C493.441,253.244 493.121,253.364 492.801,253.484C492.761,253.524 492.701,253.744 492.621,254.144L493.221,254.144C493.741,254.144 494.001,254.424 494.001,254.984ZM460.821,223.304C460.821,223.904 460.481,224.204 459.801,224.204C459.281,224.204 458.961,223.924 458.841,223.364L459.441,223.364C459.561,223.604 459.721,223.724 459.921,223.724C460.041,223.724 460.181,223.644 460.341,223.484C460.261,223.164 460.131,222.954 459.951,222.854C459.771,222.754 459.641,222.624 459.561,222.464C459.841,222.464 460.061,222.404 460.221,222.284L460.221,221.924C460.221,221.764 460.101,221.684 459.861,221.684C459.661,221.684 459.521,221.804 459.441,222.044L458.961,222.044L458.961,221.924C458.961,221.484 459.281,221.264 459.921,221.264C460.521,221.264 460.821,221.504 460.821,221.984C460.821,222.144 460.701,222.344 460.461,222.584C460.701,222.864 460.821,223.104 460.821,223.304ZM491.901,256.004L491.541,253.904C491.461,253.864 491.401,253.844 491.361,253.844C491.281,253.844 491.141,253.904 490.941,254.024C490.981,253.624 491.301,253.324 491.901,253.124L491.901,256.004ZM459.921,232.844L459.021,235.784L458.601,235.784C458.601,235.784 458.401,235.024 458.001,233.504C457.681,234.224 457.421,234.984 457.221,235.784C457.021,235.584 456.641,234.604 456.081,232.844L456.561,232.844C456.681,233.324 456.861,234.024 457.101,234.944C457.261,234.624 457.481,233.924 457.761,232.844L458.241,232.844C458.361,233.324 458.581,234.044 458.901,235.004C459.021,234.524 459.201,233.804 459.441,232.844L459.921,232.844ZM481.641,257.744C481.641,258.344 481.241,258.644 480.441,258.644C479.841,258.644 479.481,258.324 479.361,257.684L479.841,257.684C479.961,258.084 480.181,258.284 480.501,258.284C480.581,258.284 480.781,258.184 481.101,257.984L481.101,257.624C480.781,257.504 480.421,257.364 480.021,257.204C479.621,257.044 479.421,256.784 479.421,256.424C479.421,255.864 479.781,255.584 480.501,255.584C481.221,255.584 481.561,255.884 481.521,256.484L481.041,256.484C480.961,256.164 480.781,256.004 480.501,256.004C480.461,256.004 480.281,256.084 479.961,256.244C480.001,256.524 480.291,256.764 480.831,256.964C481.371,257.164 481.641,257.424 481.641,257.744ZM462.501,246.464C462.261,246.624 462.161,246.824 462.201,247.064L461.721,247.064L461.721,246.524C461.521,246.484 461.321,246.464 461.121,246.464C460.881,246.464 460.661,246.484 460.461,246.524L460.461,245.804C460.821,245.324 461.181,244.804 461.541,244.244L462.201,244.244C462.201,244.164 462.201,244.484 462.201,245.204C462.201,245.644 462.301,245.924 462.501,246.044L462.501,246.464ZM470.241,256.004L469.761,256.004L469.761,253.904C469.681,253.864 469.621,253.844 469.581,253.844C469.501,253.844 469.361,253.904 469.161,254.024L469.161,253.844C469.161,253.724 469.341,253.484 469.701,253.124L470.241,253.124L470.241,256.004ZM460.341,244.964C460.341,245.084 459.981,245.604 459.261,246.524C459.421,246.604 459.781,246.624 460.341,246.584L460.341,247.064L458.481,247.064L458.481,246.644C459.401,245.684 459.861,245.124 459.861,244.964C459.861,244.684 459.701,244.544 459.381,244.544C459.141,244.544 459.021,244.704 459.021,245.024L458.541,245.024L458.541,244.544C458.821,244.264 459.081,244.124 459.321,244.124C460.001,244.124 460.341,244.404 460.341,244.964ZM468.921,253.904C468.921,254.344 468.541,254.884 467.781,255.524C467.941,255.564 468.101,255.584 468.261,255.584C468.461,255.584 468.681,255.564 468.921,255.524L468.921,256.004L467.181,256.004L467.181,255.524C468.021,254.764 468.441,254.224 468.441,253.904C468.441,253.944 468.361,253.784 468.201,253.424C467.961,253.424 467.781,253.624 467.661,254.024L467.181,254.024C467.141,253.344 467.421,253.004 468.021,253.004C468.621,253.004 468.921,253.304 468.921,253.904ZM500.901,223.064C500.901,222.824 500.721,222.624 500.361,222.464C500.201,222.584 500.061,222.644 499.941,222.644L499.941,223.304C499.941,223.504 500.081,223.604 500.361,223.604C500.721,223.604 500.901,223.424 500.901,223.064ZM462.441,222.764L462.441,222.464C462.441,221.944 462.221,221.684 461.781,221.684C461.541,222.004 461.421,222.284 461.421,222.524C461.421,223.324 461.601,223.724 461.961,223.724C462.121,223.724 462.221,223.684 462.261,223.604C462.301,223.524 462.341,223.384 462.381,223.184C462.421,222.984 462.441,222.844 462.441,222.764ZM461.721,245.984L461.721,244.904C461.521,245.144 461.261,245.504 460.941,245.984L461.721,245.984Z" style="fill:rgb(0,163,39);fill-rule:nonzero;"/>
            </g>
            <g transform="matrix(1.727,0,0,1.727,-256.812,2942.09)">
                <path d="M472.101,263.594L445.591,263.594L445.591,208.649L472.101,208.649L472.101,216.954L458.736,216.954C458.553,217.431 458.461,217.669 458.461,217.669L458.461,228.944L471.606,228.944L471.606,237.304L458.461,237.304L458.461,255.234L472.101,255.234L472.101,263.594ZM470.176,212.554C469.993,212.628 469.809,212.664 469.626,212.664C468.599,212.664 468.049,212.078 467.976,210.904C467.976,212.004 467.738,212.554 467.261,212.554L466.546,212.554C466.253,212.591 466.014,212.609 465.831,212.609C466.711,213.233 467.151,213.581 467.151,213.654C467.151,213.801 467.096,214.021 466.986,214.314C466.876,214.608 466.821,214.828 466.821,214.974C467.481,214.498 467.884,214.259 468.031,214.259C468.141,214.259 468.563,214.534 469.296,215.084C469.223,214.754 469.076,214.278 468.856,213.654C469.296,213.324 469.736,212.958 470.176,212.554ZM461.871,212.609L461.266,212.609C460.423,212.609 459.928,212.133 459.781,211.179C459.744,211.216 459.653,211.454 459.506,211.894C459.359,212.334 459.176,212.554 458.956,212.554C458.773,212.554 458.534,212.481 458.241,212.334C458.094,212.481 457.856,212.573 457.526,212.609C457.783,212.829 458.204,213.141 458.791,213.544C458.718,213.838 458.608,214.314 458.461,214.974C458.571,214.938 458.782,214.809 459.094,214.589C459.405,214.369 459.616,214.259 459.726,214.259C459.836,214.259 460.047,214.36 460.359,214.562C460.67,214.764 460.881,214.864 460.991,214.864C460.844,214.608 460.771,214.351 460.771,214.094C460.771,213.618 461.138,213.123 461.871,212.609ZM453.511,212.719L452.961,212.719C452.118,212.719 451.659,212.243 451.586,211.289C451.219,212.316 450.413,212.793 449.166,212.719C449.496,212.939 449.973,213.288 450.596,213.764C450.523,214.058 450.413,214.498 450.266,215.084C450.559,214.938 450.963,214.699 451.476,214.369C451.989,214.736 452.374,214.919 452.631,214.919C452.521,214.736 452.466,214.553 452.466,214.369C452.466,213.819 452.814,213.269 453.511,212.719ZM466.271,230.429L466.271,230.209L465.666,230.209L465.666,230.429L466.271,230.429ZM464.181,232.849C462.824,232.813 462.128,232.263 462.091,231.199C461.981,232.519 461.229,233.069 459.836,232.849C460.166,233.033 460.624,233.344 461.211,233.784C461.138,234.151 460.991,234.664 460.771,235.324C461.504,234.811 461.963,234.554 462.146,234.554C462.256,234.554 462.678,234.811 463.411,235.324C463.338,234.994 463.191,234.481 462.971,233.784C463.228,233.564 463.631,233.253 464.181,232.849ZM453.511,222.179C453.328,222.216 453.144,222.234 452.961,222.234C452.191,222.234 451.678,221.666 451.421,220.529C451.164,221.776 450.413,222.326 449.166,222.179C449.496,222.399 449.973,222.711 450.596,223.114C450.486,223.481 450.339,224.013 450.156,224.709C450.853,224.159 451.274,223.884 451.421,223.884C451.458,223.884 451.861,224.104 452.631,224.544C452.558,224.251 452.448,223.793 452.301,223.169C452.851,222.766 453.254,222.436 453.511,222.179ZM460.001,235.764L459.836,235.434L459.671,235.489L459.836,235.764L460.001,235.764ZM453.511,232.134C453.328,232.171 453.144,232.189 452.961,232.189C451.898,232.189 451.384,231.621 451.421,230.484C451.238,231.621 450.688,232.189 449.771,232.189C449.588,232.189 449.386,232.171 449.166,232.134C449.496,232.391 449.973,232.758 450.596,233.234C450.486,233.454 450.339,233.931 450.156,234.664C450.926,234.114 451.329,233.839 451.366,233.839C451.476,233.839 451.687,233.931 451.999,234.114C452.31,234.298 452.521,234.389 452.631,234.389C452.484,234.169 452.411,233.931 452.411,233.674C452.411,233.198 452.778,232.684 453.511,232.134ZM453.511,241.539C453.328,241.576 453.144,241.594 452.961,241.594C451.898,241.594 451.403,241.008 451.476,239.834C451.219,241.118 450.449,241.686 449.166,241.539C449.496,241.759 449.973,242.108 450.596,242.584C450.523,242.878 450.413,243.318 450.266,243.904C450.963,243.464 451.366,243.244 451.476,243.244C451.439,243.244 451.824,243.446 452.631,243.849C452.484,243.556 452.411,243.281 452.411,243.024C452.411,242.511 452.778,242.016 453.511,241.539ZM468.636,258.644C468.416,258.681 468.233,258.699 468.086,258.699C467.096,258.699 466.564,258.168 466.491,257.104C466.344,258.278 465.593,258.791 464.236,258.644C464.566,258.864 465.024,259.231 465.611,259.744C465.501,260.074 465.354,260.588 465.171,261.284C465.978,260.734 466.399,260.459 466.436,260.459C466.509,260.459 466.931,260.661 467.701,261.064C467.591,260.771 467.536,260.514 467.536,260.294C467.536,259.964 467.655,259.662 467.894,259.387C468.132,259.112 468.379,258.864 468.636,258.644ZM453.511,249.954C453.328,249.991 453.144,250.009 452.961,250.009C452.484,250.009 452.09,249.844 451.779,249.514C451.467,249.184 451.366,248.781 451.476,248.304C451.219,249.588 450.449,250.138 449.166,249.954C449.606,250.284 450.083,250.651 450.596,251.054C450.523,251.348 450.413,251.769 450.266,252.319C450.339,252.319 450.532,252.209 450.844,251.989C451.155,251.769 451.366,251.659 451.476,251.659C451.549,251.659 451.733,251.76 452.026,251.962C452.319,252.164 452.521,252.264 452.631,252.264C452.521,251.971 452.466,251.714 452.466,251.494C452.466,250.944 452.814,250.431 453.511,249.954ZM461.156,258.644C459.909,258.828 459.139,258.351 458.846,257.214C459.029,258.204 458.534,258.699 457.361,258.699C457.178,258.699 456.958,258.681 456.701,258.644C457.618,259.121 458.076,259.488 458.076,259.744C458.076,260.001 457.893,260.514 457.526,261.284C458.259,260.734 458.718,260.459 458.901,260.459C459.121,260.459 459.543,260.679 460.166,261.119C459.983,260.753 459.891,260.423 459.891,260.129C459.891,259.689 460.313,259.194 461.156,258.644ZM453.511,258.644C452.228,258.718 451.586,258.278 451.586,257.324C451.256,258.241 450.596,258.699 449.606,258.699C449.459,258.699 449.313,258.681 449.166,258.644C449.496,258.864 449.973,259.231 450.596,259.744C450.486,260.074 450.339,260.588 450.156,261.284C450.339,261.101 450.761,260.789 451.421,260.349C451.714,260.533 452.154,260.844 452.741,261.284C452.631,260.918 452.484,260.404 452.301,259.744C452.594,259.524 452.998,259.158 453.511,258.644Z" style="fill:rgb(3,178,239);fill-rule:nonzero;"/>
            </g>
            <g transform="matrix(1.727,0,0,1.727,-212.769,2959.15)">
                <path d="M506.421,203.324L506.241,202.064L506.121,200.684L506.061,199.184C506.541,198.704 507.521,198.464 509.001,198.464L509.241,198.944L509.541,199.304L508.701,199.604L508.041,199.964C507.801,200.004 507.581,200.164 507.381,200.444L507.201,201.104C507.201,201.784 507.311,202.654 507.531,203.714C507.751,204.774 507.981,205.844 508.221,206.924L509.241,211.964C509.241,214.484 508.661,216.444 507.501,217.844C508.221,218.844 508.761,219.924 509.121,221.084C509.481,222.244 509.661,223.624 509.661,225.224C509.781,225.464 509.841,225.804 509.841,226.244C509.841,226.804 509.641,227.744 509.241,229.064C508.801,229.544 507.901,230.174 506.541,230.954C505.181,231.734 504.161,232.444 503.481,233.084C502.801,233.724 502.461,234.584 502.461,235.664L504.261,236.504C504.181,237.104 503.161,237.404 501.201,237.404C500.681,236.964 500.421,235.984 500.421,234.464L502.941,232.124C504.341,230.964 505.381,229.814 506.061,228.674C506.741,227.534 507.081,226.084 507.081,224.324C506.761,223.444 505.961,222.304 504.681,220.904C502.401,222.104 500.331,223.024 498.471,223.664C496.611,224.304 494.961,224.624 493.521,224.624L492.921,225.524L494.301,229.544C494.701,230.704 495.121,231.844 495.561,232.964L496.881,236.084C497.041,236.484 497.291,237.024 497.631,237.704C497.971,238.384 498.261,238.924 498.501,239.324C501.301,239.324 503.541,239.504 505.221,239.864C506.901,240.224 508.381,241.024 509.661,242.264C509.301,242.704 509.121,243.204 509.121,243.764C509.241,244.284 509.381,244.644 509.541,244.844L510.201,245.924C510.481,246.404 510.691,246.764 510.831,247.004C510.971,247.244 511.041,247.524 511.041,247.844C511.041,248.324 510.741,248.924 510.141,249.644L506.061,250.904C506.821,252.064 508.321,253.164 510.561,254.204C510.201,254.564 509.801,254.744 509.361,254.744C508.921,254.744 508.341,254.564 507.621,254.204L506.301,253.604C505.621,252.524 504.921,251.864 504.201,251.624C503.481,251.384 502.801,251.204 502.161,251.084C501.521,250.964 500.741,250.904 499.821,250.904L495.501,250.724C495.021,250.724 494.521,250.654 494.001,250.514C493.481,250.374 492.981,250.164 492.501,249.884C490.421,251.164 488.561,251.804 486.921,251.804C485.761,251.804 484.941,251.634 484.461,251.294C483.981,250.954 483.681,250.444 483.561,249.764L483.321,248.144C483.321,247.864 483.361,247.654 483.441,247.514C483.521,247.374 483.601,247.244 483.681,247.124L484.581,246.224C484.141,245.864 483.721,245.684 483.321,245.684C482.641,245.764 481.641,246.124 480.321,246.764L478.341,247.844C476.741,247.844 475.681,248.344 475.161,249.344C475.641,250.504 476.621,251.084 478.101,251.084L478.101,251.384L464.541,251.924L466.281,250.904C467.241,250.424 467.841,249.844 468.081,249.164C468.081,248.404 467.741,247.604 467.061,246.764C466.381,245.924 465.861,245.254 465.501,244.754C465.141,244.254 464.821,243.774 464.541,243.314C464.261,242.854 464.121,242.024 464.121,240.824C464.121,239.904 464.271,239.134 464.571,238.514C464.871,237.894 465.141,237.404 465.381,237.044C465.621,236.684 465.961,236.264 466.401,235.784L467.961,233.804C468.241,233.404 468.381,232.844 468.381,232.124C468.381,231.404 468.081,230.624 467.481,229.784C466.041,227.344 464.951,224.954 464.211,222.614C463.471,220.274 463.101,217.904 463.101,215.504L463.281,213.044L463.521,210.824L464.961,208.244L466.701,205.304C466.981,204.624 467.141,204.184 467.181,203.984C467.221,203.784 467.241,203.464 467.241,203.024C467.241,201.984 466.841,201.104 466.041,200.384L464.301,199.064L464.301,198.764L470.781,198.524L477.741,198.044L484.221,197.744C488.861,197.744 492.781,197.984 495.981,198.464C499.901,199.544 503.381,201.164 506.421,203.324ZM509.361,224.984C509.361,226.424 509.161,227.484 508.761,228.164L507.201,229.604L507.021,226.124L506.601,223.604L506.181,221.564C505.621,220.684 504.811,219.934 503.751,219.314C502.691,218.694 501.381,218.164 499.821,217.724C494.141,217.724 490.521,218.954 488.961,221.414C487.401,223.874 486.541,225.844 486.381,227.324C486.141,228.884 486.021,230.684 486.021,232.724L485.901,228.704L485.721,226.544L485.781,225.944L485.901,225.344C486.261,223.104 487.521,221.074 489.681,219.254C491.841,217.434 494.141,216.284 496.581,215.804C499.221,215.804 501.481,216.114 503.361,216.734C505.241,217.354 506.761,218.524 507.921,220.244C508.881,221.204 509.361,222.784 509.361,224.984ZM467.481,236.864C466.881,237.424 466.521,238.154 466.401,239.054C466.281,239.954 466.221,241.184 466.221,242.744C466.341,243.544 466.811,244.294 467.631,244.994C468.451,245.694 469.301,246.204 470.181,246.524C470.901,246.924 471.821,247.124 472.941,247.124C473.261,247.124 473.541,247.094 473.781,247.034C474.021,246.974 474.181,246.944 474.261,246.944C474.781,246.944 475.291,246.904 475.791,246.824C476.291,246.744 477.041,246.564 478.041,246.284L481.641,245.504C481.001,245.504 479.881,245.604 478.281,245.804L475.161,246.104L474.921,243.464L474.741,240.224L475.581,240.224C475.821,240.544 476.121,240.844 476.481,241.124C476.841,241.404 477.301,241.704 477.861,242.024L480.621,243.704C481.301,244.184 481.741,244.724 481.941,245.324C479.541,247.004 476.781,247.844 473.661,247.844C471.381,247.844 469.421,247.404 467.781,246.524C465.581,244.804 464.361,242.984 464.121,241.064C464.601,237.784 465.401,235.914 466.521,235.454C467.641,234.994 468.281,234.734 468.441,234.674C468.601,234.614 468.901,234.564 469.341,234.524L473.961,234.344C472.481,234.344 471.211,234.564 470.151,235.004C469.091,235.444 468.201,236.064 467.481,236.864ZM483.081,202.484L482.541,202.484L480.861,204.464L479.121,206.684C478.721,207.324 478.421,208.104 478.221,209.024C478.221,211.544 479.161,213.324 481.041,214.364L480.261,211.724C480.261,211.324 480.281,210.964 480.321,210.644C480.361,210.324 480.461,210.024 480.621,209.744C480.741,209.264 480.901,208.814 481.101,208.394C481.301,207.974 481.481,207.604 481.641,207.284L482.721,204.704C482.961,204.024 483.081,203.284 483.081,202.484ZM487.641,210.944C488.441,209.704 488.841,208.244 488.841,206.564C488.841,205.084 488.481,203.804 487.761,202.724C487.681,203.204 487.531,203.684 487.311,204.164C487.091,204.644 486.801,205.124 486.441,205.604L483.561,208.904C482.961,209.504 482.661,210.264 482.661,211.184L482.541,213.884C482.541,214.724 482.241,215.404 481.641,215.924L481.941,215.924C482.181,215.124 482.641,214.504 483.321,214.064L485.721,212.804C486.561,212.364 487.201,211.744 487.641,210.944ZM480.861,203.504C477.461,203.504 475.221,203.884 474.141,204.644L474.741,224.084L477.681,224.084C476.401,223.044 475.641,221.384 475.401,219.104C476.001,219.224 476.461,219.484 476.781,219.884L478.041,221.624L478.821,222.824C479.181,222.504 479.361,221.824 479.361,220.784C479.281,220.304 479.181,219.944 479.061,219.704L478.101,218.264L477.201,216.824C477.121,216.544 477.051,216.304 476.991,216.104C476.931,215.904 476.901,215.704 476.901,215.504L477.501,214.004L478.581,215.024L479.301,216.644L479.841,217.844C480.441,217.284 480.741,216.724 480.741,216.164C480.741,215.684 480.661,215.314 480.501,215.054C480.341,214.794 480.121,214.484 479.841,214.124C479.561,213.764 479.241,213.354 478.881,212.894C478.521,212.434 478.191,211.884 477.891,211.244C477.591,210.604 477.421,210.194 477.381,210.014C477.341,209.834 477.321,209.504 477.321,209.024C477.641,207.024 478.821,205.184 480.861,203.504ZM485.901,205.064C485.661,204.704 485.161,204.524 484.401,204.524C483.401,205.964 482.631,207.264 482.091,208.424C481.551,209.584 481.241,210.684 481.161,211.724L481.461,211.544C481.461,211.184 481.511,210.884 481.611,210.644C481.711,210.404 481.881,210.124 482.121,209.804L484.041,207.584C485.001,206.544 485.621,205.704 485.901,205.064ZM493.281,205.184C492.761,205.744 492.011,207.054 491.031,209.114C490.051,211.174 489.091,212.734 488.151,213.794C487.211,214.854 486.021,215.384 484.581,215.384C485.541,215.744 487.081,215.924 489.201,215.924C490.241,215.404 490.951,214.854 491.331,214.274C491.711,213.694 491.981,213.224 492.141,212.864C492.301,212.504 492.431,212.114 492.531,211.694C492.631,211.274 492.721,210.734 492.801,210.074C492.881,209.414 492.961,208.864 493.041,208.424L493.281,205.184ZM490.341,207.284L489.981,207.284C489.461,209.924 488.041,212.244 485.721,214.244L486.261,214.244C488.341,213.564 489.701,211.244 490.341,207.284ZM500.301,208.604L498.441,208.484L496.221,208.124L494.421,207.884C494.541,208.164 494.741,208.364 495.021,208.484L496.221,208.844L497.001,209.024C498.561,209.024 499.741,208.994 500.541,208.934C501.341,208.874 502.301,208.734 503.421,208.514C504.541,208.294 505.461,207.824 506.181,207.104C504.181,208.104 502.221,208.604 500.301,208.604ZM501.741,210.404L494.421,209.384C493.941,211.824 493.001,213.784 491.601,215.264C490.681,215.824 489.521,216.184 488.121,216.344L483.081,216.524C482.601,216.724 482.241,217.034 482.001,217.454C481.761,217.874 481.641,218.344 481.641,218.864L482.181,218.324L482.961,217.964L483.921,217.604C484.121,217.484 484.341,217.424 484.581,217.424C484.821,217.424 485.201,217.604 485.721,217.964C485.481,218.684 484.681,219.304 483.321,219.824L480.681,221.084C480.241,221.364 480.021,222.064 480.021,223.184L480.861,222.584L481.821,221.864L482.781,221.504C483.061,221.344 483.401,221.264 483.801,221.264C483.801,221.824 483.401,222.424 482.601,223.064C481.801,223.704 481.321,224.124 481.161,224.324L484.521,224.204C485.041,224.124 485.401,224.004 485.601,223.844C485.801,223.684 485.901,223.424 485.901,223.064C487.141,220.424 488.791,218.614 490.851,217.634C492.911,216.654 494.711,215.974 496.251,215.594C497.791,215.214 499.361,215.024 500.961,215.024C501.481,214.424 501.741,212.884 501.741,210.404ZM467.061,225.104C467.061,222.984 467.011,220.244 466.911,216.884C466.811,213.524 466.761,211.544 466.761,210.944C466.081,212.864 465.741,215.324 465.741,218.324C465.741,219.764 465.861,221.034 466.101,222.134C466.341,223.234 466.661,224.224 467.061,225.104ZM499.701,203.624C498.141,201.944 496.321,200.864 494.241,200.384C493.121,200.064 491.961,199.844 490.761,199.724C489.561,199.604 488.061,199.544 486.261,199.544L476.901,199.664C476.261,199.664 475.661,199.894 475.101,200.354C474.541,200.814 474.161,201.444 473.961,202.244C470.041,203.124 467.241,205.044 465.561,208.004C464.961,209.244 464.491,210.594 464.151,212.054C463.811,213.514 463.641,214.964 463.641,216.404C463.641,218.484 463.931,220.484 464.511,222.404C465.091,224.324 465.941,226.284 467.061,228.284C466.221,225.964 465.591,223.964 465.171,222.284C464.751,220.604 464.541,219.124 464.541,217.844C464.541,216.884 464.761,215.484 465.201,213.644C465.201,211.884 465.791,210.254 466.971,208.754C468.151,207.254 469.661,205.944 471.501,204.824C473.341,203.824 475.141,203.084 476.901,202.604C476.861,202.324 476.651,202.154 476.271,202.094C475.891,202.034 475.601,201.904 475.401,201.704C475.641,201.704 476.011,201.724 476.511,201.764C477.011,201.804 477.561,201.884 478.161,202.004L481.041,202.244C481.881,202.124 482.561,201.604 483.081,200.684C483.361,200.964 483.641,201.444 483.921,202.124C484.201,202.804 484.461,203.304 484.701,203.624C485.301,203.624 485.781,203.504 486.141,203.264C486.501,203.024 486.801,202.724 487.041,202.364L487.761,201.584C488.241,201.584 488.541,201.724 488.661,202.004C488.821,202.164 488.941,202.564 489.021,203.204C489.021,203.724 489.091,204.204 489.231,204.644C489.371,205.084 489.621,205.384 489.981,205.544C490.701,205.544 491.471,205.344 492.291,204.944C493.111,204.544 493.921,204.344 494.721,204.344L494.421,206.684L500.541,207.764C500.981,207.764 501.201,207.364 501.201,206.564C500.801,205.204 500.121,204.524 499.161,204.524L499.701,203.624ZM478.701,216.944C478.701,216.584 478.501,216.404 478.101,216.404L478.701,217.604L478.701,216.944ZM499.821,218.864C499.101,218.584 497.941,218.444 496.341,218.444C491.981,219.764 489.481,221.684 488.841,224.204C491.401,224.204 493.661,223.764 495.621,222.884C497.501,222.164 498.901,220.824 499.821,218.864ZM476.421,220.784C476.421,220.984 476.461,221.194 476.541,221.414C476.621,221.634 476.721,221.844 476.841,222.044C477.201,222.404 477.481,222.584 477.681,222.584L476.421,220.784ZM481.461,222.824L482.061,222.164L481.761,222.164L481.461,222.824ZM478.221,228.164L478.221,225.524L474.741,225.224L474.561,233.444C475.561,234.444 476.061,235.244 476.061,235.844L474.861,235.844L475.041,237.884L482.061,243.884C483.381,243.884 484.161,243.684 484.401,243.284L482.721,242.984C482.281,242.904 481.971,242.834 481.791,242.774C481.611,242.714 481.331,242.604 480.951,242.444C480.571,242.284 480.261,242.044 480.021,241.724L480.381,241.544L482.661,241.544C482.541,240.784 482.061,240.224 481.221,239.864L478.701,238.904C477.781,238.544 477.141,238.004 476.781,237.284C477.701,237.284 478.521,237.384 479.241,237.584L480.621,237.884C480.621,236.844 480.241,236.064 479.481,235.544L477.021,234.044C476.021,233.564 475.401,232.884 475.161,232.004C475.801,232.004 476.321,232.084 476.721,232.244C477.121,232.404 477.411,232.514 477.591,232.574C477.771,232.634 477.921,232.744 478.041,232.904L479.001,233.444C479.001,231.524 478.221,230.144 476.661,229.304C475.741,227.904 475.281,226.724 475.281,225.764L478.221,228.164ZM485.001,226.544C484.161,226.024 482.401,225.764 479.721,225.764L479.841,228.704L481.161,226.664C481.401,226.464 481.711,226.304 482.091,226.184C482.471,226.064 482.761,226.004 482.961,226.004C482.961,226.524 482.801,227.034 482.481,227.534C482.161,228.034 481.741,228.504 481.221,228.944L480.021,230.204C479.741,230.524 479.601,230.924 479.601,231.404C479.601,232.004 479.861,232.584 480.381,233.144C480.541,232.824 480.701,232.514 480.861,232.214C481.021,231.914 481.281,231.524 481.641,231.044C482.001,230.564 482.481,230.244 483.081,230.084C483.081,230.804 482.981,231.324 482.781,231.644L481.581,233.684C481.021,234.684 480.741,235.404 480.741,235.844C480.741,236.524 481.181,237.044 482.061,237.404L482.541,236.384L483.321,235.004C483.441,234.804 483.601,234.634 483.801,234.494C484.001,234.354 484.141,234.244 484.221,234.164C484.221,236.204 484.081,237.584 483.801,238.304C483.801,239.544 484.001,240.624 484.401,241.544L485.601,238.604C485.841,238.604 486.001,238.824 486.081,239.264L486.141,242.744L488.181,242.024C488.621,241.824 488.841,241.464 488.841,240.944C487.881,239.904 487.211,238.924 486.831,238.004C486.451,237.084 486.161,236.234 485.961,235.454C485.761,234.674 485.591,233.844 485.451,232.964C485.311,232.084 485.201,231.144 485.121,230.144C485.041,229.144 485.001,227.944 485.001,226.544ZM477.021,227.684C476.821,227.404 476.541,227.264 476.181,227.264L476.421,228.044L477.021,228.764C477.181,228.964 477.441,229.064 477.801,229.064L477.021,227.684ZM481.161,227.564L480.861,228.464L481.161,228.464L481.161,227.564ZM492.921,240.524L486.921,230.624C486.921,233.984 487.641,237.044 489.081,239.804L489.561,240.344L490.581,240.524L492.921,240.524ZM481.641,232.544L481.941,231.884L481.941,231.224L481.641,232.544ZM477.801,233.444L477.201,232.544L476.661,232.544L477.801,233.444ZM486.021,233.324L486.261,234.824L486.621,234.824L486.021,233.024L486.021,233.324ZM507.741,199.064C506.981,199.064 506.601,199.604 506.601,200.684L506.901,200.564C507.061,200.284 507.181,200.004 507.261,199.724C507.341,199.444 507.501,199.224 507.741,199.064ZM501.621,234.824C501.421,234.824 501.221,234.884 501.021,235.004L500.841,235.544L500.721,235.964C500.721,236.284 500.901,236.604 501.261,236.924C501.621,237.244 501.981,237.404 502.341,237.404C502.541,237.284 502.661,237.184 502.701,237.104L502.881,236.864C502.841,236.744 502.661,236.584 502.341,236.384L501.801,235.784C501.681,235.544 501.621,235.224 501.621,234.824ZM467.661,243.284C467.661,241.284 467.561,239.624 467.361,238.304C467.241,238.504 467.161,238.714 467.121,238.934C467.081,239.154 467.061,239.384 467.061,239.624C467.061,241.264 467.261,242.484 467.661,243.284ZM485.601,240.044L485.601,240.704L485.901,240.704L485.901,240.044L485.601,240.044ZM505.041,240.704C504.881,240.704 504.651,240.674 504.351,240.614C504.051,240.554 503.691,240.454 503.271,240.314C502.851,240.174 502.451,240.054 502.071,239.954C501.691,239.854 501.401,239.804 501.201,239.804C500.521,239.804 500.021,239.984 499.701,240.344C499.941,241.144 500.441,241.544 501.201,241.544L503.001,241.184C503.801,240.864 504.481,240.704 505.041,240.704ZM495.561,244.664C495.481,244.144 495.241,243.584 494.841,242.984C494.441,242.384 493.921,241.744 493.281,241.064C492.761,241.064 492.161,241.284 491.481,241.724C491.481,242.204 491.601,242.584 491.841,242.864C491.961,243.144 492.301,243.584 492.861,244.184L493.821,245.204C494.781,245.204 495.361,245.024 495.561,244.664ZM507.321,242.564C506.881,242.244 506.121,242.084 505.041,242.084C504.001,242.084 502.721,242.304 501.201,242.744C501.241,243.304 501.351,243.814 501.531,244.274C501.711,244.734 501.941,245.204 502.221,245.684C502.501,246.164 502.941,246.814 503.541,247.634C504.141,248.454 504.681,249.164 505.161,249.764L506.301,249.584L507.801,249.224C508.081,249.144 508.361,248.884 508.641,248.444C508.641,247.844 508.541,247.424 508.341,247.184C508.221,246.904 508.081,246.664 507.921,246.464C507.761,246.264 507.641,246.104 507.561,245.984L506.901,245.324L507.141,243.944L507.321,242.564ZM493.941,245.804L492.501,244.664C491.581,243.904 490.901,243.394 490.461,243.134C490.021,242.874 489.561,242.744 489.081,242.744C488.281,242.744 487.601,243.124 487.041,243.884C487.281,244.124 487.501,244.344 487.701,244.544C487.901,244.744 488.181,244.964 488.541,245.204L490.941,246.284L492.501,246.944L492.981,246.764L493.641,246.404C493.841,246.284 493.941,246.084 493.941,245.804ZM490.461,247.844L488.181,246.344C486.941,245.464 485.961,244.944 485.241,244.784L484.881,245.324L486.621,245.684C487.061,246.444 487.391,246.874 487.611,246.974C487.831,247.074 488.251,247.214 488.871,247.394C489.491,247.574 490.021,247.724 490.461,247.844ZM507.921,244.664L508.641,245.204L508.221,244.304L507.921,244.664ZM498.381,247.244C498.261,247.124 498.141,247.004 498.021,246.884C497.901,246.764 497.741,246.554 497.541,246.254C497.341,245.954 497.121,245.804 496.881,245.804L496.881,247.844L496.101,247.604C495.781,247.364 495.441,247.244 495.081,247.244L494.841,247.664C494.641,247.704 494.541,247.864 494.541,248.144C496.421,249.024 498.381,249.464 500.421,249.464L498.921,248.924C498.161,248.684 497.681,248.324 497.481,247.844L497.781,247.604C497.941,247.764 498.141,247.844 498.381,247.844L498.381,247.244ZM485.721,246.524L485.181,246.764C484.781,246.924 484.541,247.044 484.461,247.124L483.981,247.424C483.981,248.464 484.061,249.304 484.221,249.944C484.501,250.464 484.921,250.784 485.481,250.904C487.001,250.904 488.441,250.614 489.801,250.034C491.161,249.454 492.161,248.724 492.801,247.844L491.361,248.564C490.761,248.804 490.201,249.014 489.681,249.194C489.161,249.374 488.621,249.464 488.061,249.464C486.501,249.104 485.721,248.124 485.721,246.524ZM494.541,246.944L494.001,247.004L493.641,247.604L493.941,247.604L494.361,247.184L494.541,246.944ZM488.061,247.844C487.581,247.564 487.201,247.424 486.921,247.424C486.921,247.984 487.601,248.264 488.961,248.264L488.061,247.844Z" style="fill:rgb(247,2,1);fill-rule:nonzero;"/>
            </g>
        </g>
    </g>
</svg>
