<?xml version="1.0" encoding="UTF-8" standalone="no"?>
<!DOCTYPE svg PUBLIC "-//W3C//DTD SVG 1.1//EN" "http://www.w3.org/Graphics/SVG/1.1/DTD/svg11.dtd">
<svg width="100%" height="100%" viewBox="0 0 621 223" version="1.1" xmlns="http://www.w3.org/2000/svg" xmlns:xlink="http://www.w3.org/1999/xlink" xml:space="preserve" xmlns:serif="http://www.serif.com/" style="fill-rule:evenodd;clip-rule:evenodd;stroke-linejoin:round;stroke-miterlimit:2;">
    <g transform="matrix(1,0,0,1,-879.143,-1799.2)">
        <g transform="matrix(1,0,0,1.00385,0,-7.79283)">
            <rect x="879.143" y="1800.05" width="620.204" height="221.585" style="fill:rgb(130,130,130);fill-opacity:0;"/>
        </g>
        <g transform="matrix(1,0,0,1,944.059,1614.5)">
            <path d="M222.186,247.001C219.387,250.869 216.379,253.186 213.163,253.954C211.223,254.423 208.977,254.267 206.424,253.486C201.971,252.119 198.911,249.319 197.245,245.087C196.464,243.069 196.073,240.979 196.073,238.818C196.073,236.852 196.392,234.827 197.03,232.744C198.384,228.316 200.669,224.944 203.885,222.626C206.281,220.895 208.892,220.029 211.717,220.029C213.228,220.029 214.797,220.276 216.424,220.771C219.393,221.682 222.076,223.388 224.471,225.888C226.06,227.542 226.854,229.215 226.854,230.908C226.854,231.454 226.77,232.001 226.6,232.548C226.353,233.382 225.845,234.007 225.077,234.423C224.647,234.645 224.172,234.755 223.651,234.755C223.26,234.755 222.837,234.69 222.382,234.56C221.73,234.352 221.307,233.395 221.112,231.689C220.839,229.241 220.552,227.626 220.253,226.845C219.563,224.983 218.273,223.759 216.385,223.173C215.461,222.9 214.569,222.763 213.71,222.763C209.113,222.763 205.663,226.539 203.358,234.091C202.746,236.083 202.44,237.932 202.44,239.638C202.44,241.474 202.792,243.147 203.495,244.658C204.706,247.275 206.737,249.02 209.589,249.892C211.568,250.491 213.628,250.481 215.77,249.863C217.912,249.244 219.771,247.991 221.346,246.103L222.186,247.001Z" style="fill:rgb(19,33,140);fill-rule:nonzero;"/>
            <path d="M223.202,251.337C225.129,250.908 226.561,249.553 227.499,247.275L236.932,224.189L238.358,224.15L248.397,246.552C249.048,247.984 249.628,248.961 250.135,249.482C250.695,250.068 251.464,250.348 252.44,250.322L252.499,251.747L239.335,252.216L239.276,250.771C241.893,250.68 243.176,249.898 243.124,248.427C243.098,247.867 242.915,247.177 242.577,246.357L236.112,230.615L229.374,246.826C229.1,247.75 228.97,248.447 228.983,248.915C229.009,249.632 229.315,250.169 229.901,250.527C230.487,250.885 231.509,251.044 232.967,251.005L233.026,252.431L223.241,252.763L223.202,251.337Z" style="fill:rgb(19,33,140);fill-rule:nonzero;"/>
            <path d="M270.448,218.642C270.474,218.941 270.487,219.228 270.487,219.501C270.487,221.428 269.803,222.451 268.436,222.568C268.007,222.607 266.444,221.448 263.749,219.091C262.447,217.945 261.177,217.431 259.94,217.548C258.625,217.652 257.766,218.421 257.362,219.853C256.932,221.337 256.796,222.952 256.952,224.697L257.733,233.72L264.979,233.095L264.647,235.693L257.967,236.279L259.706,256.201C259.823,257.529 260.109,258.382 260.565,258.759C261.268,259.358 262.811,259.553 265.194,259.345L265.331,260.927L250.37,262.236L250.214,260.654C251.945,260.497 253.078,260.165 253.612,259.658C254.341,258.954 254.621,257.626 254.452,255.673L252.792,236.728L247.635,237.177L247.948,234.579L252.577,234.189L252.186,229.814C252.134,229.163 252.108,228.525 252.108,227.9C252.108,224.905 252.779,222.314 254.12,220.126C255.93,217.197 258.658,215.576 262.303,215.263C264.764,215.042 266.708,215.221 268.133,215.8C269.559,216.38 270.331,217.327 270.448,218.642Z" style="fill:rgb(19,33,140);fill-rule:nonzero;"/>
            <path d="M295.253,239.814C293.586,246.389 290.318,250.107 285.448,250.966C284.146,251.201 282.922,251.318 281.776,251.318C275.096,251.318 271.125,247.731 269.862,240.556C269.706,239.671 269.628,238.805 269.628,237.958C269.628,235.302 270.376,232.757 271.874,230.322C273.801,227.158 276.464,225.276 279.862,224.677C280.839,224.508 281.783,224.423 282.694,224.423C284.699,224.423 286.555,224.84 288.26,225.673C290.747,226.884 292.473,228.896 293.436,231.708L273.69,235.185C273.651,236.253 273.697,237.151 273.827,237.88C274.348,240.836 275.682,243.264 277.831,245.165C279.576,246.715 281.431,247.49 283.397,247.49C283.866,247.49 284.335,247.444 284.803,247.353C287.954,246.806 290.383,245.523 292.089,243.505C293.052,242.372 293.651,241.07 293.885,239.599L295.253,239.814ZM286.268,231.513C285.956,229.768 285.24,228.388 284.12,227.372C282.896,226.253 281.438,225.843 279.745,226.142C278.052,226.441 276.665,227.366 275.585,228.915C274.621,230.283 274.042,231.884 273.846,233.72L286.268,231.513ZM292.382,213.388C292.382,213.857 292.284,214.293 292.089,214.697C291.854,215.152 291.483,215.556 290.975,215.908L281.815,222.275L279.549,222.275L287.792,212.685C288.703,211.63 289.602,211.103 290.487,211.103C291.75,211.103 292.382,211.865 292.382,213.388Z" style="fill:rgb(19,33,140);fill-rule:nonzero;"/>
        </g>
        <g transform="matrix(1,0,0,1,805.84,-1598.97)">
            <g transform="matrix(1.70776,0,0,1.70776,-273.252,3147.8)">
                <path d="M314.481,234.584C314.481,243.584 311.281,250.904 304.881,256.544C298.801,261.864 291.221,264.524 282.141,264.524C274.821,264.524 268.401,261.284 262.881,254.804C257.561,248.644 254.901,241.884 254.901,234.524C254.901,226.324 257.811,219.294 263.631,213.434C269.451,207.574 276.441,204.644 284.601,204.644C292.761,204.644 299.781,207.584 305.661,213.464C311.541,219.344 314.481,226.384 314.481,234.584ZM313.101,234.704L310.401,234.704L310.401,234.284L313.101,234.284L313.101,233.084C313.101,232.324 312.961,231.264 312.681,229.904C312.521,229.864 311.641,229.964 310.041,230.204L310.041,229.844L312.561,229.364L311.481,225.044L309.021,225.884L308.721,225.584L311.181,224.624L309.501,220.544L307.101,221.864L306.861,221.444L309.261,220.004C308.741,219.124 307.861,217.924 306.621,216.404L304.521,218.204L304.161,217.844L306.381,215.984C305.221,214.704 304.141,213.664 303.141,212.864L301.341,214.904L301.041,214.664L302.901,212.504C301.821,211.584 300.581,210.704 299.181,209.864L297.681,212.324L297.381,212.024L298.761,209.624L294.741,207.704L293.541,210.344L293.301,210.224L294.261,207.524C294.141,207.444 292.701,207.044 289.941,206.324L289.341,209.204L288.921,209.084L289.461,206.264C288.181,205.904 286.641,205.784 284.841,205.904L284.841,208.784L284.421,208.784L284.421,205.904L281.901,205.904C281.901,205.904 281.241,206.024 279.921,206.264L280.341,209.204L280.041,209.204C279.841,208.524 279.641,207.564 279.441,206.324C278.681,206.444 277.941,206.584 277.221,206.744C276.341,206.944 275.641,207.204 275.121,207.524L276.081,210.164L275.661,210.344L274.581,207.584L270.561,209.504L272.001,212.084L271.581,212.324L270.081,209.804C269.201,210.284 268.001,211.184 266.481,212.504L268.281,214.664L267.921,214.904L266.061,212.744C264.781,213.904 263.741,214.984 262.941,215.984L265.101,217.844L264.741,218.204L262.581,216.284C261.781,217.084 260.941,218.344 260.061,220.064L262.521,221.504L262.281,221.864L259.761,220.484L257.901,224.504L260.541,225.644L260.301,225.884L257.721,225.044C257.201,226.244 256.841,227.644 256.641,229.244L259.341,229.904L259.101,230.264L256.521,229.784C256.161,232.064 256.021,233.564 256.101,234.284L258.981,234.284L258.981,234.704L256.101,234.704L256.101,235.964C256.101,236.644 256.241,237.744 256.521,239.264L259.041,238.784L259.341,239.144L256.581,239.684L256.581,240.104C256.581,240.504 256.921,241.804 257.601,244.004L260.361,243.104L260.541,243.464L257.901,244.544L259.701,248.564L262.281,247.184L262.521,247.544L259.941,249.104C260.461,249.984 261.341,251.184 262.581,252.704L264.741,250.844L265.101,251.204L262.821,253.184C263.981,254.424 265.061,255.464 266.061,256.304L267.921,254.144L268.281,254.384L266.361,256.664L270.021,259.244L271.701,256.664L272.001,256.964L270.561,259.544L274.581,261.464L275.721,258.584L276.081,258.824L275.001,261.584C277.241,262.344 278.721,262.724 279.441,262.724L280.041,259.844L280.461,259.904L279.921,262.844C281.081,263.244 282.581,263.364 284.421,263.204L284.421,260.264L284.841,260.264L284.841,263.204L287.481,263.204C287.481,263.204 288.121,263.064 289.401,262.784L289.041,259.844L289.941,262.724L290.481,262.724C290.601,262.724 291.861,262.324 294.261,261.524L293.301,258.884L293.601,258.584L294.741,261.344C295.341,261.104 296.701,260.504 298.821,259.544L297.381,256.904L297.681,256.664L299.181,259.244C300.741,258.204 301.981,257.304 302.901,256.544L301.041,254.384L301.161,254.084C301.761,254.524 302.461,255.264 303.261,256.304L306.441,253.064L304.161,251.204L304.521,250.844L306.741,252.704C307.901,251.104 308.721,249.844 309.201,248.924L306.861,247.424L307.101,247.184L309.501,248.564L311.301,244.424L308.721,243.404L308.901,243.104L311.481,244.004L312.561,239.684C312.401,239.724 311.561,239.564 310.041,239.204L310.041,238.844L310.341,238.784L312.801,239.084C313.041,237.084 313.141,235.624 313.101,234.704ZM305.601,223.064C305.601,223.264 305.471,223.474 305.211,223.694C304.951,223.914 304.721,224.024 304.521,224.024C303.841,224.024 303.501,223.564 303.501,222.644C303.501,221.604 303.841,221.084 304.521,221.084C305.161,221.084 305.481,221.344 305.481,221.864L304.881,221.864L304.881,221.744C304.921,221.544 304.801,221.444 304.521,221.444C304.361,221.444 304.221,221.564 304.101,221.804L304.161,222.224C304.281,222.104 304.441,222.044 304.641,222.044C305.281,222.044 305.601,222.384 305.601,223.064ZM297.141,215.384C297.141,215.944 296.801,216.224 296.121,216.224C295.481,216.224 295.181,215.964 295.221,215.444L295.221,215.324L295.641,215.324C295.841,215.644 296.021,215.804 296.181,215.804C296.501,215.804 296.661,215.664 296.661,215.384C296.661,214.904 296.401,214.744 295.881,214.904C296.041,214.784 296.261,214.584 296.541,214.304L296.541,213.884C296.381,213.724 296.281,213.644 296.241,213.644C295.921,213.644 295.761,213.804 295.761,214.124L295.281,214.124C295.361,213.524 295.681,213.224 296.241,213.224C296.841,213.224 297.141,213.504 297.141,214.064C297.141,214.224 297.021,214.424 296.781,214.664C297.021,214.864 297.141,215.104 297.141,215.384ZM309.021,233.444L307.761,233.444L307.761,234.104C307.921,234.144 308.081,234.164 308.241,234.164L308.481,234.164C308.641,234.164 308.821,234.144 309.021,234.104L309.021,234.644C308.781,234.604 308.581,234.584 308.421,234.584L308.181,234.584C308.061,234.584 307.921,234.604 307.761,234.644L307.761,235.484L309.021,235.484L309.021,235.904L307.161,235.904L307.161,232.964L309.021,232.964L309.021,233.444ZM285.741,213.104L285.321,213.104C284.841,212.264 284.381,211.544 283.941,210.944C283.901,211.264 283.881,211.604 283.881,211.964C283.881,212.324 283.921,212.704 284.001,213.104L283.521,213.104L283.521,210.164L284.061,210.164C284.301,210.484 284.721,211.184 285.321,212.264C285.361,211.984 285.381,211.684 285.381,211.364C285.381,211.004 285.361,210.604 285.321,210.164L285.741,210.164L285.741,213.104ZM306.141,245.024C306.141,245.704 305.761,246.204 305.001,246.524C305.121,246.564 305.281,246.584 305.481,246.584C305.681,246.584 305.901,246.564 306.141,246.524L306.141,247.064L304.401,247.064L304.401,246.524C304.641,246.284 304.911,246.014 305.211,245.714C305.511,245.414 305.661,245.184 305.661,245.024C305.661,244.704 305.541,244.544 305.301,244.544C305.181,244.544 305.041,244.704 304.881,245.024L304.401,245.024L304.401,244.904C304.401,244.384 304.681,244.124 305.241,244.124C305.841,244.124 306.141,244.424 306.141,245.024ZM274.581,215.444C274.581,216.004 274.241,216.284 273.561,216.284C272.921,216.284 272.601,216.044 272.601,215.564C272.601,215.524 272.621,215.484 272.661,215.444L273.201,215.444C273.201,215.764 273.361,215.924 273.681,215.924C273.961,215.924 274.101,215.764 274.101,215.444C274.101,215.124 273.921,214.964 273.561,214.964C273.441,214.964 273.361,214.984 273.321,215.024C273.361,214.864 273.481,214.734 273.681,214.634C273.881,214.534 273.981,214.364 273.981,214.124C273.981,213.884 273.881,213.764 273.681,213.764C273.361,213.764 273.201,213.924 273.201,214.244L272.721,214.244C272.841,213.644 273.161,213.344 273.681,213.344C274.201,213.344 274.461,213.604 274.461,214.124C274.461,214.404 274.381,214.624 274.221,214.784C274.261,214.824 274.341,214.844 274.461,214.844C274.461,214.924 274.481,215.024 274.521,215.144C274.561,215.264 274.581,215.364 274.581,215.444ZM304.161,247.064L303.621,247.064C303.661,246.664 303.681,246.304 303.681,245.984L303.681,245.624C303.681,245.424 303.661,245.144 303.621,244.784C303.581,244.864 303.421,244.964 303.141,245.084C303.141,245.004 303.211,244.844 303.351,244.604C303.491,244.364 303.621,244.244 303.741,244.244L304.161,244.244L304.161,247.064ZM272.541,215.624C272.541,215.704 272.521,215.764 272.481,215.804C272.081,216.124 271.741,216.284 271.461,216.284C270.861,216.284 270.561,216.044 270.561,215.564L270.561,215.444L271.041,215.444C271.081,215.764 271.241,215.924 271.521,215.924C271.841,215.924 272.001,215.764 272.001,215.444C272.001,215.124 271.741,214.984 271.221,215.024C271.341,214.904 271.581,214.684 271.941,214.364L271.941,214.004C271.741,213.844 271.621,213.764 271.581,213.764C271.261,213.764 271.101,213.924 271.101,214.244L270.621,214.244C270.701,213.644 271.021,213.344 271.581,213.344C272.221,213.344 272.541,213.624 272.541,214.184C272.541,214.344 272.401,214.544 272.121,214.784C272.401,215.064 272.541,215.344 272.541,215.624ZM294.201,232.184C294.201,232.184 294.161,232.364 294.081,232.724C293.521,231.724 292.961,230.704 292.401,229.664C291.481,228.104 290.321,227.384 288.921,227.504C288.841,227.464 288.541,227.444 288.021,227.444L286.461,227.504L286.461,244.184C286.461,244.384 286.801,244.504 287.481,244.544C287.881,244.584 288.301,244.604 288.741,244.604L288.741,245.024L279.741,245.024L279.621,244.664C279.821,244.544 280.221,244.504 280.821,244.544C281.301,244.544 281.661,244.404 281.901,244.124L281.901,227.384L281.001,227.384C278.801,227.384 277.321,227.824 276.561,228.704C275.801,230.064 275.021,231.404 274.221,232.724L274.881,226.544L275.361,226.784L293.061,226.784L293.481,226.544L294.201,232.184ZM267.081,222.704C267.081,223.704 266.741,224.204 266.061,224.204C265.421,224.204 265.101,223.724 265.101,222.764C265.101,221.764 265.441,221.264 266.121,221.264C266.761,221.264 267.081,221.744 267.081,222.704ZM298.161,254.984C298.161,255.744 297.841,256.124 297.201,256.124C296.721,256.124 296.421,255.824 296.301,255.224L296.841,255.224C297.001,255.464 297.141,255.584 297.261,255.584C297.581,255.584 297.741,255.384 297.741,254.984C297.741,254.664 297.581,254.504 297.261,254.504C297.221,254.504 296.921,254.644 296.361,254.924L296.361,253.124L297.921,253.124C297.601,253.244 297.281,253.364 296.961,253.484C296.921,253.524 296.861,253.744 296.781,254.144L297.381,254.144C297.901,254.144 298.161,254.424 298.161,254.984ZM264.981,223.304C264.981,223.904 264.641,224.204 263.961,224.204C263.441,224.204 263.121,223.924 263.001,223.364L263.601,223.364C263.721,223.604 263.881,223.724 264.081,223.724C264.201,223.724 264.341,223.644 264.501,223.484C264.421,223.164 264.291,222.954 264.111,222.854C263.931,222.754 263.801,222.624 263.721,222.464C264.001,222.464 264.221,222.404 264.381,222.284L264.381,221.924C264.381,221.764 264.261,221.684 264.021,221.684C263.821,221.684 263.681,221.804 263.601,222.044L263.121,222.044L263.121,221.924C263.121,221.484 263.441,221.264 264.081,221.264C264.681,221.264 264.981,221.504 264.981,221.984C264.981,222.144 264.861,222.344 264.621,222.584C264.861,222.864 264.981,223.104 264.981,223.304ZM296.061,256.004L295.701,253.904C295.621,253.864 295.561,253.844 295.521,253.844C295.441,253.844 295.301,253.904 295.101,254.024C295.141,253.624 295.461,253.324 296.061,253.124L296.061,256.004ZM264.081,232.844L263.181,235.784L262.761,235.784C262.761,235.784 262.561,235.024 262.161,233.504C261.841,234.224 261.581,234.984 261.381,235.784C261.181,235.584 260.801,234.604 260.241,232.844L260.721,232.844C260.841,233.324 261.021,234.024 261.261,234.944C261.421,234.624 261.641,233.924 261.921,232.844L262.401,232.844C262.521,233.324 262.741,234.044 263.061,235.004C263.181,234.524 263.361,233.804 263.601,232.844L264.081,232.844ZM285.801,257.744C285.801,258.344 285.401,258.644 284.601,258.644C284.001,258.644 283.641,258.324 283.521,257.684L284.001,257.684C284.121,258.084 284.341,258.284 284.661,258.284C284.741,258.284 284.941,258.184 285.261,257.984L285.261,257.624C284.941,257.504 284.581,257.364 284.181,257.204C283.781,257.044 283.581,256.784 283.581,256.424C283.581,255.864 283.941,255.584 284.661,255.584C285.381,255.584 285.721,255.884 285.681,256.484L285.201,256.484C285.121,256.164 284.941,256.004 284.661,256.004C284.621,256.004 284.441,256.084 284.121,256.244C284.161,256.524 284.451,256.764 284.991,256.964C285.531,257.164 285.801,257.424 285.801,257.744ZM266.661,246.464C266.421,246.624 266.321,246.824 266.361,247.064L265.881,247.064L265.881,246.524C265.681,246.484 265.481,246.464 265.281,246.464C265.041,246.464 264.821,246.484 264.621,246.524L264.621,245.804C264.981,245.324 265.341,244.804 265.701,244.244L266.361,244.244C266.361,244.164 266.361,244.484 266.361,245.204C266.361,245.644 266.461,245.924 266.661,246.044L266.661,246.464ZM274.401,256.004L273.921,256.004L273.921,253.904C273.841,253.864 273.781,253.844 273.741,253.844C273.661,253.844 273.521,253.904 273.321,254.024L273.321,253.844C273.321,253.724 273.501,253.484 273.861,253.124L274.401,253.124L274.401,256.004ZM264.501,244.964C264.501,245.084 264.141,245.604 263.421,246.524C263.581,246.604 263.941,246.624 264.501,246.584L264.501,247.064L262.641,247.064L262.641,246.644C263.561,245.684 264.021,245.124 264.021,244.964C264.021,244.684 263.861,244.544 263.541,244.544C263.301,244.544 263.181,244.704 263.181,245.024L262.701,245.024L262.701,244.544C262.981,244.264 263.241,244.124 263.481,244.124C264.161,244.124 264.501,244.404 264.501,244.964ZM273.081,253.904C273.081,254.344 272.701,254.884 271.941,255.524C272.101,255.564 272.261,255.584 272.421,255.584C272.621,255.584 272.841,255.564 273.081,255.524L273.081,256.004L271.341,256.004L271.341,255.524C272.181,254.764 272.601,254.224 272.601,253.904C272.601,253.944 272.521,253.784 272.361,253.424C272.121,253.424 271.941,253.624 271.821,254.024L271.341,254.024C271.301,253.344 271.581,253.004 272.181,253.004C272.781,253.004 273.081,253.304 273.081,253.904ZM305.061,223.064C305.061,222.824 304.881,222.624 304.521,222.464C304.361,222.584 304.221,222.644 304.101,222.644L304.101,223.304C304.101,223.504 304.241,223.604 304.521,223.604C304.881,223.604 305.061,223.424 305.061,223.064ZM266.601,222.764L266.601,222.464C266.601,221.944 266.381,221.684 265.941,221.684C265.701,222.004 265.581,222.284 265.581,222.524C265.581,223.324 265.761,223.724 266.121,223.724C266.281,223.724 266.381,223.684 266.421,223.604C266.461,223.524 266.501,223.384 266.541,223.184C266.581,222.984 266.601,222.844 266.601,222.764ZM265.881,245.984L265.881,244.904C265.681,245.144 265.421,245.504 265.101,245.984L265.881,245.984Z" style="fill:rgb(251,110,47);fill-rule:nonzero;"/>
            </g>
            <g transform="matrix(1.70776,0,0,1.70776,-385.569,3148.01)">
                <path d="M615.621,264.404L554.961,264.404L554.961,204.524L615.621,204.524L615.621,264.404ZM606.921,215.204C606.921,213.724 606.161,212.984 604.641,212.984C603.161,212.984 602.421,213.724 602.421,215.204C602.421,216.884 603.161,217.724 604.641,217.724C605.161,217.724 605.671,217.514 606.171,217.094C606.671,216.674 606.921,216.044 606.921,215.204ZM601.401,210.824C601.401,210.304 601.131,209.784 600.591,209.264C600.051,208.744 599.481,208.484 598.881,208.484C598.441,208.484 597.961,208.754 597.441,209.294C596.921,209.834 596.661,210.384 596.661,210.944C596.661,211.464 596.841,211.944 597.201,212.384C597.681,212.944 598.281,213.224 599.001,213.224C600.601,213.224 601.401,212.424 601.401,210.824ZM611.421,220.964C611.421,220.564 611.221,220.084 610.821,219.524C610.341,218.804 609.741,218.444 609.021,218.444C608.301,218.444 607.701,218.784 607.221,219.464C606.821,219.984 606.621,220.444 606.621,220.844C606.621,222.404 607.421,223.184 609.021,223.184C610.621,223.184 611.421,222.444 611.421,220.964ZM594.621,208.184C594.621,207.584 594.401,207.024 593.961,206.504C593.521,205.984 593.001,205.724 592.401,205.724C591.841,205.724 591.281,206.004 590.721,206.564C590.161,207.124 589.881,207.624 589.881,208.064C589.881,208.624 590.101,209.164 590.541,209.684C590.981,210.204 591.601,210.464 592.401,210.464C593.881,210.464 594.621,209.704 594.621,208.184ZM614.121,227.444C614.121,226.964 613.921,226.474 613.521,225.974C613.121,225.474 612.541,225.224 611.781,225.224C611.221,225.224 610.681,225.424 610.161,225.824C609.641,226.224 609.381,226.764 609.381,227.444C609.381,228.124 609.611,228.714 610.071,229.214C610.531,229.714 611.101,229.964 611.781,229.964C612.301,229.964 612.821,229.704 613.341,229.184C613.861,228.664 614.121,228.084 614.121,227.444ZM587.661,207.224C587.661,206.824 587.461,206.344 587.061,205.784C586.541,205.064 585.941,204.704 585.261,204.704C584.781,204.704 584.271,204.984 583.731,205.544C583.191,206.104 582.921,206.664 582.921,207.224C582.921,207.624 583.121,208.104 583.521,208.664C584.041,209.344 584.661,209.684 585.381,209.684C585.901,209.684 586.411,209.464 586.911,209.024C587.411,208.584 587.661,207.984 587.661,207.224ZM614.901,234.704C614.901,233.024 614.141,232.184 612.621,232.184C611.981,232.184 611.451,232.434 611.031,232.934C610.611,233.434 610.401,234.024 610.401,234.704C610.401,235.224 610.581,235.704 610.941,236.144C611.421,236.704 612.021,236.984 612.741,236.984C613.221,236.984 613.701,236.774 614.181,236.354C614.661,235.934 614.901,235.384 614.901,234.704ZM614.121,241.724C614.121,241.364 613.881,240.854 613.401,240.194C612.921,239.534 612.381,239.204 611.781,239.204C611.101,239.204 610.531,239.474 610.071,240.014C609.611,240.554 609.381,241.124 609.381,241.724C609.381,242.204 609.591,242.694 610.011,243.194C610.431,243.694 611.021,243.944 611.781,243.944C612.341,243.944 612.871,243.744 613.371,243.344C613.871,242.944 614.121,242.404 614.121,241.724ZM580.641,208.184C580.641,207.664 580.461,207.184 580.101,206.744C579.621,206.224 578.961,205.964 578.121,205.964C576.641,205.964 575.901,206.704 575.901,208.184C575.901,208.744 576.111,209.264 576.531,209.744C576.951,210.224 577.481,210.464 578.121,210.464C579.801,210.464 580.641,209.704 580.641,208.184ZM573.921,210.824C573.921,210.264 573.711,209.734 573.291,209.234C572.871,208.734 572.321,208.484 571.641,208.484C571.081,208.484 570.521,208.764 569.961,209.324C569.401,209.884 569.121,210.424 569.121,210.944C569.121,211.464 569.341,211.944 569.781,212.384C570.261,212.944 570.881,213.224 571.641,213.224C573.161,213.224 573.921,212.424 573.921,210.824ZM611.421,248.324C611.421,247.804 611.201,247.284 610.761,246.764C610.321,246.244 609.781,245.984 609.141,245.984C608.541,245.984 608.001,246.184 607.521,246.584C606.921,247.064 606.621,247.644 606.621,248.324C606.621,248.884 606.851,249.424 607.311,249.944C607.771,250.464 608.341,250.724 609.021,250.724C609.581,250.724 610.121,250.494 610.641,250.034C611.161,249.574 611.421,249.004 611.421,248.324ZM606.921,253.964C606.921,253.324 606.701,252.744 606.261,252.224C605.821,251.704 605.281,251.444 604.641,251.444C604.041,251.444 603.521,251.714 603.081,252.254C602.641,252.794 602.421,253.364 602.421,253.964C602.421,255.444 603.161,256.184 604.641,256.184C606.161,256.184 606.921,255.444 606.921,253.964ZM609.381,234.464C609.381,227.984 607.001,222.364 602.241,217.604C597.481,212.844 591.821,210.464 585.261,210.464C578.781,210.464 573.181,212.824 568.461,217.544C563.741,222.264 561.381,227.904 561.381,234.464C561.381,240.984 563.661,246.624 568.221,251.384C572.901,256.264 578.581,258.704 585.261,258.704C591.861,258.704 597.561,256.264 602.361,251.384C607.041,246.584 609.381,240.944 609.381,234.464ZM568.401,215.324C568.401,214.764 568.161,214.234 567.681,213.734C567.201,213.234 566.601,212.984 565.881,212.984C565.401,212.984 564.911,213.194 564.411,213.614C563.911,214.034 563.661,214.564 563.661,215.204C563.661,215.604 563.841,216.084 564.201,216.644C564.641,217.364 565.201,217.724 565.881,217.724C566.521,217.724 567.101,217.484 567.621,217.004C568.141,216.524 568.401,215.964 568.401,215.324ZM563.901,220.844C563.901,220.244 563.701,219.694 563.301,219.194C562.901,218.694 562.341,218.444 561.621,218.444C561.101,218.444 560.561,218.724 560.001,219.284C559.441,219.844 559.161,220.404 559.161,220.964C559.161,221.444 559.401,221.934 559.881,222.434C560.361,222.934 560.901,223.184 561.501,223.184C563.101,223.184 563.901,222.404 563.901,220.844ZM601.401,258.344C601.401,257.784 601.181,257.244 600.741,256.724C600.301,256.204 599.721,255.944 599.001,255.944C598.321,255.944 597.761,256.194 597.321,256.694C596.881,257.194 596.661,257.744 596.661,258.344C596.661,258.904 596.881,259.434 597.321,259.934C597.761,260.434 598.321,260.684 599.001,260.684C599.561,260.684 600.101,260.444 600.621,259.964C601.141,259.484 601.401,258.944 601.401,258.344ZM561.141,227.444C561.141,226.964 560.931,226.474 560.511,225.974C560.091,225.474 559.561,225.224 558.921,225.224C557.401,225.224 556.641,225.964 556.641,227.444C556.641,229.124 557.401,229.964 558.921,229.964C559.441,229.964 559.941,229.754 560.421,229.334C560.901,228.914 561.141,228.284 561.141,227.444ZM594.621,260.984C594.621,260.464 594.411,259.954 593.991,259.454C593.571,258.954 593.041,258.704 592.401,258.704C591.801,258.704 591.261,258.904 590.781,259.304C590.181,259.784 589.881,260.424 589.881,261.224C589.881,261.624 590.171,262.094 590.751,262.634C591.331,263.174 591.881,263.444 592.401,263.444C592.881,263.444 593.371,263.214 593.871,262.754C594.371,262.294 594.621,261.704 594.621,260.984ZM560.421,234.584C560.421,234.104 560.141,233.584 559.581,233.024C559.021,232.464 558.461,232.184 557.901,232.184C557.421,232.184 556.881,232.464 556.281,233.024C555.681,233.584 555.381,234.144 555.381,234.704C555.381,235.144 555.661,235.634 556.221,236.174C556.781,236.714 557.341,236.984 557.901,236.984C559.581,236.984 560.421,236.184 560.421,234.584ZM587.661,261.944C587.661,260.464 586.901,259.724 585.381,259.724C584.741,259.724 584.171,259.934 583.671,260.354C583.171,260.774 582.921,261.304 582.921,261.944C582.921,262.464 583.101,262.944 583.461,263.384C583.941,263.944 584.581,264.224 585.381,264.224C586.901,264.224 587.661,263.464 587.661,261.944ZM561.141,241.724C561.141,240.044 560.361,239.204 558.801,239.204C558.121,239.204 557.591,239.484 557.211,240.044C556.831,240.604 556.641,241.164 556.641,241.724C556.641,243.204 557.401,243.944 558.921,243.944C560.401,243.944 561.141,243.204 561.141,241.724ZM580.641,260.984C580.641,260.464 580.461,259.984 580.101,259.544C579.621,258.984 578.961,258.704 578.121,258.704C577.641,258.704 577.151,258.914 576.651,259.334C576.151,259.754 575.901,260.304 575.901,260.984C575.901,261.344 576.081,261.804 576.441,262.364C576.921,263.084 577.481,263.444 578.121,263.444C578.721,263.444 579.291,263.204 579.831,262.724C580.371,262.244 580.641,261.664 580.641,260.984ZM563.901,248.324C563.901,246.764 563.141,245.984 561.621,245.984C561.101,245.984 560.561,246.244 560.001,246.764C559.441,247.284 559.161,247.804 559.161,248.324C559.161,248.844 559.441,249.374 560.001,249.914C560.561,250.454 561.061,250.724 561.501,250.724C563.101,250.724 563.901,249.924 563.901,248.324ZM573.921,258.344C573.921,256.744 573.161,255.944 571.641,255.944C571.201,255.944 570.701,256.164 570.141,256.604C569.461,257.124 569.121,257.704 569.121,258.344C569.121,258.864 569.391,259.384 569.931,259.904C570.471,260.424 571.001,260.684 571.521,260.684C573.121,260.684 573.921,259.904 573.921,258.344ZM568.401,254.084C568.401,253.564 568.201,253.024 567.801,252.464C567.281,251.784 566.641,251.444 565.881,251.444C565.401,251.444 564.911,251.724 564.411,252.284C563.911,252.844 563.661,253.404 563.661,253.964C563.661,254.444 563.861,254.934 564.261,255.434C564.661,255.934 565.201,256.184 565.881,256.184C567.561,256.184 568.401,255.484 568.401,254.084ZM597.381,246.944L588.741,246.944C587.781,245.184 586.841,243.424 585.921,241.664C584.201,238.504 582.981,236.924 582.261,236.924L580.761,236.924L580.761,246.944L572.961,246.944L572.961,221.984L588.501,221.984C590.781,221.984 592.541,222.644 593.781,223.964C595.021,225.284 595.641,226.944 595.641,228.944C595.641,230.904 595.211,232.374 594.351,233.354C593.491,234.334 591.921,235.244 589.641,236.084C591.321,236.764 592.901,238.404 594.381,241.004C595.381,242.964 596.381,244.944 597.381,246.944ZM588.141,229.604C588.141,229.284 587.981,228.844 587.661,228.284C587.221,227.564 586.741,227.204 586.221,227.204L580.701,227.204L580.701,232.184L584.961,232.184C585.761,232.184 586.491,231.944 587.151,231.464C587.811,230.984 588.141,230.364 588.141,229.604Z" style="fill:rgb(247,2,1);fill-rule:nonzero;"/>
            </g>
            <g transform="matrix(1.70776,0,0,1.70776,-231.078,3121.58)">
                <path d="M256.361,267.404C256.361,269.271 255.696,270.869 254.366,272.199C253.036,273.529 251.438,274.194 249.571,274.194C247.658,274.194 246.036,273.529 244.706,272.199C243.376,270.869 242.711,269.271 242.711,267.404C242.711,265.491 243.376,263.869 244.706,262.539C246.036,261.209 247.658,260.544 249.571,260.544C251.438,260.544 253.036,261.209 254.366,262.539C255.696,263.869 256.361,265.491 256.361,267.404ZM215.621,244.794C215.621,247.268 214.804,249.193 213.171,250.569C211.538,251.946 209.251,252.634 206.311,252.634C201.084,252.634 197.608,250.534 195.881,246.334L199.101,245.494C199.101,246.894 199.894,248.038 201.481,248.924C202.928,249.718 204.538,250.114 206.311,250.114C210.464,250.114 212.541,248.411 212.541,245.004C212.541,243.418 211.234,241.948 208.621,240.594C206.241,239.428 203.861,238.261 201.481,237.094C198.914,235.648 197.631,234.014 197.631,232.194C197.631,230.234 198.471,228.659 200.151,227.469C201.831,226.279 203.838,225.684 206.171,225.684C209.764,225.684 212.471,227.201 214.291,230.234L211.281,231.214C210.021,229.254 208.318,228.274 206.171,228.274C204.724,228.274 203.453,228.648 202.356,229.394C201.259,230.141 200.711,231.098 200.711,232.264C200.711,233.384 201.994,234.551 204.561,235.764C208.901,237.818 211.281,238.984 211.701,239.264C214.268,240.851 215.551,242.694 215.551,244.794L215.621,244.794ZM232.211,267.404C232.211,269.271 231.546,270.869 230.216,272.199C228.886,273.529 227.288,274.194 225.421,274.194C223.508,274.194 221.886,273.529 220.556,272.199C219.226,270.869 218.561,269.271 218.561,267.404C218.561,265.491 219.226,263.869 220.556,262.539C221.886,261.209 223.508,260.544 225.421,260.544C227.288,260.544 228.886,261.209 230.216,262.539C231.546,263.869 232.211,265.491 232.211,267.404ZM208.061,267.404C208.061,269.271 207.396,270.869 206.066,272.199C204.736,273.529 203.138,274.194 201.271,274.194C199.358,274.194 197.736,273.529 196.406,272.199C195.076,270.869 194.411,269.271 194.411,267.404C194.411,265.491 195.076,263.869 196.406,262.539C197.736,261.209 199.358,260.544 201.271,260.544C203.138,260.544 204.736,261.209 206.066,262.539C207.396,263.869 208.061,265.491 208.061,267.404Z" style="fill:rgb(19,33,140);fill-rule:nonzero;"/>
            </g>
            <g transform="matrix(1.77801,0,0,1.77801,-262.254,3128.59)">
                <path d="M328.881,263.594L302.371,263.594L302.371,208.649L328.881,208.649L328.881,216.954L315.516,216.954C315.333,217.431 315.241,217.669 315.241,217.669L315.241,228.944L328.386,228.944L328.386,237.304L315.241,237.304L315.241,255.234L328.881,255.234L328.881,263.594ZM326.956,212.554C326.773,212.628 326.589,212.664 326.406,212.664C325.379,212.664 324.829,212.078 324.756,210.904C324.756,212.004 324.518,212.554 324.041,212.554L323.326,212.554C323.033,212.591 322.794,212.609 322.611,212.609C323.491,213.233 323.931,213.581 323.931,213.654C323.931,213.801 323.876,214.021 323.766,214.314C323.656,214.608 323.601,214.828 323.601,214.974C324.261,214.498 324.664,214.259 324.811,214.259C324.921,214.259 325.343,214.534 326.076,215.084C326.003,214.754 325.856,214.278 325.636,213.654C326.076,213.324 326.516,212.958 326.956,212.554ZM318.651,212.609L318.046,212.609C317.203,212.609 316.708,212.133 316.561,211.179C316.524,211.216 316.433,211.454 316.286,211.894C316.139,212.334 315.956,212.554 315.736,212.554C315.553,212.554 315.314,212.481 315.021,212.334C314.874,212.481 314.636,212.573 314.306,212.609C314.563,212.829 314.984,213.141 315.571,213.544C315.498,213.838 315.388,214.314 315.241,214.974C315.351,214.938 315.562,214.809 315.874,214.589C316.185,214.369 316.396,214.259 316.506,214.259C316.616,214.259 316.827,214.36 317.139,214.562C317.45,214.764 317.661,214.864 317.771,214.864C317.624,214.608 317.551,214.351 317.551,214.094C317.551,213.618 317.918,213.123 318.651,212.609ZM310.291,212.719L309.741,212.719C308.898,212.719 308.439,212.243 308.366,211.289C307.999,212.316 307.193,212.793 305.946,212.719C306.276,212.939 306.753,213.288 307.376,213.764C307.303,214.058 307.193,214.498 307.046,215.084C307.339,214.938 307.743,214.699 308.256,214.369C308.769,214.736 309.154,214.919 309.411,214.919C309.301,214.736 309.246,214.553 309.246,214.369C309.246,213.819 309.594,213.269 310.291,212.719ZM323.051,230.429L323.051,230.209L322.446,230.209L322.446,230.429L323.051,230.429ZM320.961,232.849C319.604,232.813 318.908,232.263 318.871,231.199C318.761,232.519 318.009,233.069 316.616,232.849C316.946,233.033 317.404,233.344 317.991,233.784C317.918,234.151 317.771,234.664 317.551,235.324C318.284,234.811 318.743,234.554 318.926,234.554C319.036,234.554 319.458,234.811 320.191,235.324C320.118,234.994 319.971,234.481 319.751,233.784C320.008,233.564 320.411,233.253 320.961,232.849ZM310.291,222.179C310.108,222.216 309.924,222.234 309.741,222.234C308.971,222.234 308.458,221.666 308.201,220.529C307.944,221.776 307.193,222.326 305.946,222.179C306.276,222.399 306.753,222.711 307.376,223.114C307.266,223.481 307.119,224.013 306.936,224.709C307.633,224.159 308.054,223.884 308.201,223.884C308.238,223.884 308.641,224.104 309.411,224.544C309.338,224.251 309.228,223.793 309.081,223.169C309.631,222.766 310.034,222.436 310.291,222.179ZM316.781,235.764L316.616,235.434L316.451,235.489L316.616,235.764L316.781,235.764ZM310.291,232.134C310.108,232.171 309.924,232.189 309.741,232.189C308.678,232.189 308.164,231.621 308.201,230.484C308.018,231.621 307.468,232.189 306.551,232.189C306.368,232.189 306.166,232.171 305.946,232.134C306.276,232.391 306.753,232.758 307.376,233.234C307.266,233.454 307.119,233.931 306.936,234.664C307.706,234.114 308.109,233.839 308.146,233.839C308.256,233.839 308.467,233.931 308.779,234.114C309.09,234.298 309.301,234.389 309.411,234.389C309.264,234.169 309.191,233.931 309.191,233.674C309.191,233.198 309.558,232.684 310.291,232.134ZM310.291,241.539C310.108,241.576 309.924,241.594 309.741,241.594C308.678,241.594 308.183,241.008 308.256,239.834C307.999,241.118 307.229,241.686 305.946,241.539C306.276,241.759 306.753,242.108 307.376,242.584C307.303,242.878 307.193,243.318 307.046,243.904C307.743,243.464 308.146,243.244 308.256,243.244C308.219,243.244 308.604,243.446 309.411,243.849C309.264,243.556 309.191,243.281 309.191,243.024C309.191,242.511 309.558,242.016 310.291,241.539ZM325.416,258.644C325.196,258.681 325.013,258.699 324.866,258.699C323.876,258.699 323.344,258.168 323.271,257.104C323.124,258.278 322.373,258.791 321.016,258.644C321.346,258.864 321.804,259.231 322.391,259.744C322.281,260.074 322.134,260.588 321.951,261.284C322.758,260.734 323.179,260.459 323.216,260.459C323.289,260.459 323.711,260.661 324.481,261.064C324.371,260.771 324.316,260.514 324.316,260.294C324.316,259.964 324.435,259.662 324.674,259.387C324.912,259.112 325.159,258.864 325.416,258.644ZM310.291,249.954C310.108,249.991 309.924,250.009 309.741,250.009C309.264,250.009 308.87,249.844 308.559,249.514C308.247,249.184 308.146,248.781 308.256,248.304C307.999,249.588 307.229,250.138 305.946,249.954C306.386,250.284 306.863,250.651 307.376,251.054C307.303,251.348 307.193,251.769 307.046,252.319C307.119,252.319 307.312,252.209 307.624,251.989C307.935,251.769 308.146,251.659 308.256,251.659C308.329,251.659 308.513,251.76 308.806,251.962C309.099,252.164 309.301,252.264 309.411,252.264C309.301,251.971 309.246,251.714 309.246,251.494C309.246,250.944 309.594,250.431 310.291,249.954ZM317.936,258.644C316.689,258.828 315.919,258.351 315.626,257.214C315.809,258.204 315.314,258.699 314.141,258.699C313.958,258.699 313.738,258.681 313.481,258.644C314.398,259.121 314.856,259.488 314.856,259.744C314.856,260.001 314.673,260.514 314.306,261.284C315.039,260.734 315.498,260.459 315.681,260.459C315.901,260.459 316.323,260.679 316.946,261.119C316.763,260.753 316.671,260.423 316.671,260.129C316.671,259.689 317.093,259.194 317.936,258.644ZM310.291,258.644C309.008,258.718 308.366,258.278 308.366,257.324C308.036,258.241 307.376,258.699 306.386,258.699C306.239,258.699 306.093,258.681 305.946,258.644C306.276,258.864 306.753,259.231 307.376,259.744C307.266,260.074 307.119,260.588 306.936,261.284C307.119,261.101 307.541,260.789 308.201,260.349C308.494,260.533 308.934,260.844 309.521,261.284C309.411,260.918 309.264,260.404 309.081,259.744C309.374,259.524 309.778,259.158 310.291,258.644Z" style="fill:rgb(142,189,31);fill-rule:nonzero;"/>
            </g>
            <g transform="matrix(1.85728,0,0,1.85728,-295.555,3127.66)">
                <path d="M357.261,200.684C357.021,200.964 356.561,201.224 355.881,201.464C355.161,201.584 354.631,201.834 354.291,202.214C353.951,202.594 353.781,203.464 353.781,204.824L355.161,204.824C355.161,205.304 355.111,205.644 355.011,205.844C354.911,206.044 354.791,206.214 354.651,206.354C354.511,206.494 354.351,206.674 354.171,206.894C353.991,207.114 353.851,207.314 353.751,207.494C353.651,207.674 353.561,207.844 353.481,208.004C353.481,208.404 353.661,208.784 354.021,209.144C354.621,208.904 355.181,208.754 355.701,208.694C356.221,208.634 356.941,208.604 357.861,208.604C357.621,208.604 357.091,209.154 356.271,210.254C355.451,211.354 354.681,212.594 353.961,213.974C353.241,215.354 352.881,216.604 352.881,217.724C352.881,218.364 353.081,219.164 353.481,220.124C356.401,220.604 357.861,221.664 357.861,223.304L357.741,224.264L357.501,225.284C357.381,225.564 357.201,225.804 356.961,226.004C356.761,225.724 356.591,225.374 356.451,224.954C356.311,224.534 356.091,224.154 355.791,223.814C355.491,223.474 355.101,223.304 354.621,223.304C353.861,223.704 353.481,224.604 353.481,226.004C353.481,226.484 353.581,227.084 353.781,227.804L354.021,229.784C355.141,232.104 356.011,234.374 356.631,236.594C357.251,238.814 357.561,241.164 357.561,243.644C357.561,245.884 357.181,248.024 356.421,250.064L355.821,250.664L357.261,252.104L343.461,252.704L342.861,252.104C342.941,252.024 343.101,251.924 343.341,251.804C343.581,251.684 343.841,251.544 344.121,251.384L345.501,250.724C345.821,250.524 346.021,250.204 346.101,249.764C345.101,249.764 344.261,249.424 343.581,248.744C342.861,248.144 342.341,247.304 342.021,246.224C342.021,245.024 342.271,243.934 342.771,242.954C343.271,241.974 344.001,241.224 344.961,240.704C345.881,240.344 346.461,239.924 346.701,239.444C346.621,239.204 346.551,238.884 346.491,238.484C346.431,238.084 346.401,237.644 346.401,237.164C346.401,236.164 346.201,235.464 345.801,235.064C345.801,234.864 345.951,234.534 346.251,234.074C346.551,233.614 346.701,233.164 346.701,232.724C346.381,232.404 345.991,232.204 345.531,232.124C345.071,232.044 344.671,231.974 344.331,231.914C343.991,231.854 343.721,231.784 343.521,231.704C343.001,231.624 342.681,231.384 342.561,230.984C343.161,230.384 344.241,230.084 345.801,230.084L346.101,230.384L345.801,229.184C345.481,228.864 344.981,228.624 344.301,228.464L342.741,227.744C342.381,227.584 342.141,227.184 342.021,226.544L342.741,226.424C343.061,226.304 343.301,226.164 343.461,226.004C342.501,224.324 342.021,222.544 342.021,220.664C342.021,218.544 342.501,216.964 343.461,215.924C342.501,214.044 342.021,212.204 342.021,210.404C342.021,209.044 342.201,208.064 342.561,207.464L343.521,205.844L344.301,204.584L345.201,203.684C345.641,203.444 346.041,203.324 346.401,203.324C346.401,203.204 346.281,202.824 346.041,202.184C345.761,201.784 345.481,201.584 345.201,201.584L342.561,200.984L342.861,200.384L357.261,200.684ZM354.201,214.004C353.201,215.244 351.861,216.004 350.181,216.284C348.781,216.284 347.721,216.164 347.001,215.924C347.881,215.924 348.621,215.624 349.221,215.024C349.781,214.624 350.211,214.284 350.511,214.004C350.811,213.724 351.351,213.144 352.131,212.264C352.911,211.384 353.721,210.624 354.561,209.984C355.441,209.424 356.341,209.144 357.261,209.144C356.741,210.184 356.231,211.124 355.731,211.964C355.231,212.804 354.721,213.484 354.201,214.004ZM354.621,205.664C354.101,205.664 353.681,205.724 353.361,205.844L352.221,205.964C349.381,205.964 347.241,208.524 345.801,213.644C347.681,212.924 349.271,211.934 350.571,210.674C351.871,209.414 353.221,207.744 354.621,205.664ZM346.401,207.764C346.401,208.524 346.111,209.534 345.531,210.794C344.951,212.054 344.661,213.004 344.661,213.644C345.501,211.844 346.081,209.884 346.401,207.764ZM343.461,212.444L344.361,210.224L345.501,207.344C345.701,206.424 345.801,205.484 345.801,204.524C345.121,204.844 344.721,205.204 344.601,205.604L344.301,207.044C344.181,207.564 343.901,207.884 343.461,208.004L343.581,208.784L343.521,210.224L343.461,212.444ZM344.961,215.024C344.361,215.024 344.061,215.324 344.061,215.924L344.661,215.924C344.861,215.724 344.961,215.424 344.961,215.024ZM346.401,217.424C346.401,217.024 345.821,216.824 344.661,216.824C343.861,217.624 343.461,218.804 343.461,220.364C343.461,221.204 343.661,222.284 344.061,223.604L345.201,220.364C345.401,220.444 345.571,220.544 345.711,220.664C345.851,220.784 345.971,221.134 346.071,221.714C346.171,222.294 346.281,222.624 346.401,222.704L346.401,217.424ZM356.961,222.704C356.881,222.264 356.611,221.924 356.151,221.684C355.691,221.444 355.241,221.274 354.801,221.174C354.361,221.074 354.101,220.984 354.021,220.904C352.461,221.504 351.681,222.904 351.681,225.104C351.681,226.664 352.461,228.704 354.021,231.224L353.301,228.524L352.581,226.004C352.581,225.124 352.881,224.224 353.481,223.304C353.961,223.144 355.121,223.064 356.961,223.064L356.961,222.704ZM345.501,222.164L345.501,224.504L345.801,224.504L345.801,222.164L345.501,222.164ZM346.401,227.444L346.401,224.504L346.101,225.464C345.901,225.864 345.801,226.224 345.801,226.544C345.841,226.664 345.901,226.784 345.981,226.904C346.061,227.024 346.201,227.204 346.401,227.444ZM347.901,226.544C347.901,227.384 347.921,227.954 347.961,228.254C348.001,228.554 348.061,228.784 348.141,228.944L347.901,226.544ZM350.181,229.484C350.181,230.884 350.481,232.064 351.081,233.024C351.081,231.064 350.781,229.884 350.181,229.484ZM356.961,244.784L356.661,244.784C356.661,244.144 356.571,243.554 356.391,243.014C356.211,242.474 356.041,242.004 355.881,241.604C355.641,241.204 355.441,240.884 355.281,240.644C355.121,240.404 354.941,240.104 354.741,239.744C354.541,239.384 354.401,239.104 354.321,238.904C354.241,238.704 354.171,238.464 354.111,238.184C354.051,237.904 354.021,237.544 354.021,237.104C354.021,236.784 354.221,236.104 354.621,235.064L353.781,232.724C355.901,236.404 356.961,240.424 356.961,244.784ZM353.781,234.164C353.781,235.564 353.861,236.344 354.021,236.504C354.021,235.784 353.981,235.254 353.901,234.914C353.821,234.574 353.781,234.324 353.781,234.164ZM349.941,238.604L351.681,238.604L350.181,238.304L349.941,238.604ZM354.621,251.204L355.041,249.464L355.401,247.724L355.521,246.224C355.521,243.424 354.841,241.464 353.481,240.344L353.541,241.424L354.021,242.924L354.501,244.784L354.621,246.524L353.781,244.484C353.781,247.324 353.861,249.084 354.021,249.764L354.621,246.824L354.621,251.204ZM350.841,240.944C347.721,240.944 345.541,241.324 344.301,242.084C343.341,243.404 342.861,244.884 342.861,246.524L343.461,247.484C343.661,247.884 343.911,248.174 344.211,248.354C344.511,248.534 344.761,248.624 344.961,248.624C344.521,247.824 344.301,246.244 344.301,243.884C344.941,241.924 347.121,240.944 350.841,240.944ZM346.101,247.964L346.101,242.744L344.961,244.484C344.961,246.324 345.341,247.484 346.101,247.964Z" style="fill:rgb(236,58,148);fill-rule:nonzero;"/>
            </g>
            <g transform="matrix(2.42577,0,0,2.42577,-442.959,2984.68)">
                <path d="M391.221,216.644C391.261,216.524 391.441,216.464 391.761,216.464C392.041,216.464 392.421,216.494 392.901,216.554C393.381,216.614 393.921,216.644 394.521,216.644C395.281,216.644 395.891,216.494 396.351,216.194C396.811,215.894 397.041,215.304 397.041,214.424C396.881,212.944 396.181,212.204 394.941,212.204C394.581,212.204 394.171,212.284 393.711,212.444C393.251,212.604 392.791,212.814 392.331,213.074C391.871,213.334 391.441,213.624 391.041,213.944C390.641,214.264 390.301,214.604 390.021,214.964C389.621,215.404 389.241,215.864 388.881,216.344C388.521,216.824 388.141,217.324 387.741,217.844C387.381,218.364 386.831,219.154 386.091,220.214C385.351,221.274 384.401,222.624 383.241,224.264C380.961,227.504 379.121,230.084 377.721,232.004C376.321,233.924 375.181,235.324 374.301,236.204C374.381,235.684 374.471,235.044 374.571,234.284C374.671,233.524 374.801,232.624 374.961,231.584C375.121,230.544 375.241,229.574 375.321,228.674C375.401,227.774 375.481,226.984 375.561,226.304C375.641,225.664 375.711,224.984 375.771,224.264C375.831,223.544 375.901,222.784 375.981,221.984C376.061,221.144 376.121,220.444 376.161,219.884C376.201,219.324 376.241,218.884 376.281,218.564C376.321,218.244 376.371,217.814 376.431,217.274C376.491,216.734 376.561,216.064 376.641,215.264C376.721,214.464 376.801,213.764 376.881,213.164C376.961,212.564 377.041,212.104 377.121,211.784C376.881,211.824 376.661,211.864 376.461,211.904C376.261,211.944 376.121,212.024 376.041,212.144C373.521,214.184 371.241,216.204 369.201,218.204C367.161,220.204 365.301,222.244 363.621,224.324C360.301,228.404 357.121,232.904 354.081,237.824C350.961,242.744 348.561,246.144 346.881,248.024C345.121,249.904 343.081,250.844 340.761,250.844C339.361,250.844 338.241,250.404 337.401,249.524C336.561,248.644 336.081,247.564 335.961,246.284C336.681,246.524 337.341,246.644 337.941,246.644C339.021,246.644 339.861,246.304 340.461,245.624C341.061,244.944 341.361,244.184 341.361,243.344C341.361,242.184 340.981,241.214 340.221,240.434C339.461,239.654 338.541,239.264 337.461,239.264C336.141,239.264 335.111,239.734 334.371,240.674C333.631,241.614 333.261,242.984 333.261,244.784C333.381,247.064 334.081,248.954 335.361,250.454C336.641,251.954 338.441,252.704 340.761,252.704C342.361,252.704 343.911,252.224 345.411,251.264C346.911,250.304 348.321,249.064 349.641,247.544C350.321,246.744 351.061,245.824 351.861,244.784C352.661,243.744 353.521,242.544 354.441,241.184C355.361,239.824 356.121,238.744 356.721,237.944C357.321,237.144 357.721,236.584 357.921,236.264C358.361,235.624 358.881,234.884 359.481,234.044C360.081,233.204 360.741,232.264 361.461,231.224C362.181,230.184 362.851,229.214 363.471,228.314C364.091,227.414 364.661,226.584 365.181,225.824C366.261,224.344 367.361,222.964 368.481,221.684C369.601,220.404 370.781,219.244 372.021,218.204C371.181,219.804 370.401,221.424 369.681,223.064C368.961,224.704 368.321,226.524 367.761,228.524C367.201,230.524 366.741,232.784 366.381,235.304C366.021,237.824 365.781,240.744 365.661,244.064C365.661,244.704 365.681,245.414 365.721,246.194C365.761,246.974 365.821,247.824 365.901,248.744C366.101,250.664 366.221,252.084 366.261,253.004C368.101,252.484 369.801,251.904 371.361,251.264C372.921,250.624 374.021,250.144 374.661,249.824C374.461,247.984 374.321,246.374 374.241,244.994C374.161,243.614 374.121,242.244 374.121,240.884C374.681,240.084 375.391,239.064 376.251,237.824C377.111,236.584 378.121,235.104 379.281,233.384C380.441,231.664 381.621,229.954 382.821,228.254C384.021,226.554 385.221,224.824 386.421,223.064C387.661,221.304 388.671,219.894 389.451,218.834C390.231,217.774 390.821,217.044 391.221,216.644Z" style="fill:rgb(0,163,39);fill-rule:nonzero;"/>
            </g>
            <g transform="matrix(2.87015,0,0,2.87015,-590.853,2867.07)">
                <path d="M403.551,237.854C404.571,237.854 405.461,237.994 406.221,238.274C406.981,238.554 407.621,238.939 408.141,239.429C408.661,239.919 409.051,240.489 409.311,241.139C409.571,241.789 409.701,242.494 409.701,243.254C409.701,244.454 409.306,245.649 408.516,246.839C407.726,248.029 406.681,249.134 405.381,250.154L405.381,252.734L401.181,252.734C399.881,253.334 398.551,253.809 397.191,254.159C395.831,254.509 394.491,254.684 393.171,254.684C391.371,254.684 389.756,254.514 388.326,254.174C386.896,253.834 385.631,253.354 384.531,252.734L381.291,252.734L381.291,249.674C380.491,248.374 380.091,246.934 380.091,245.354C380.091,244.354 380.196,243.439 380.406,242.609C380.616,241.779 380.911,241.004 381.291,240.284L381.291,220.094L405.051,220.094L405.051,223.994L385.701,223.994L385.701,233.804L395.541,233.804L395.541,237.704L385.671,237.704C385.071,238.544 384.596,239.514 384.246,240.614C383.896,241.714 383.721,242.994 383.721,244.454C383.721,245.314 383.851,246.149 384.111,246.959C384.371,247.769 384.736,248.534 385.206,249.254C385.676,249.974 386.246,250.634 386.916,251.234C387.586,251.834 388.341,252.334 389.181,252.734C389.861,253.054 390.576,253.309 391.326,253.499C392.076,253.689 392.881,253.784 393.741,253.784C394.621,253.784 395.536,253.694 396.486,253.514C397.436,253.334 398.381,253.074 399.321,252.734C400.401,252.334 401.426,251.809 402.396,251.159C403.366,250.509 404.191,249.734 404.871,248.834C405.411,248.114 405.841,247.329 406.161,246.479C406.481,245.629 406.641,244.694 406.641,243.674C406.641,242.014 406.296,240.744 405.606,239.864C404.916,238.984 403.821,238.544 402.321,238.544C401.541,238.544 400.766,238.689 399.996,238.979C399.226,239.269 398.501,239.649 397.821,240.119C397.141,240.589 396.506,241.124 395.916,241.724C395.326,242.324 394.821,242.934 394.401,243.554L394.011,243.254C395.111,241.734 396.386,240.494 397.836,239.534C399.286,238.574 400.951,238.034 402.831,237.914C402.951,237.894 403.071,237.879 403.191,237.869C403.311,237.859 403.431,237.854 403.551,237.854Z" style="fill:rgb(3,178,239);fill-rule:nonzero;"/>
            </g>
        </g>
    </g>
</svg>
