<?xml version="1.0" encoding="UTF-8"?>
<svg id="Layer_2" data-name="Layer 2" xmlns="http://www.w3.org/2000/svg" viewBox="0 0 107.21 107.21">
  <defs>
    <style>
      .cls-1 {
        fill: #13218c;
        stroke: #13218c;
        stroke-miterlimit: 10;
        stroke-width: 2px;
      }
    </style>
  </defs>
  <g id="Layer_1-2" data-name="Layer 1">
    <path class="cls-1" d="M53.59,98.7c-24.96,0-45.03-20.11-45.03-45.07S28.59,8.55,53.55,8.55s45.11,20.07,45.11,45.07-20.07,45.07-45.07,45.07ZM53.59,106.21c28.8,0,52.63-23.83,52.63-52.59S82.34,1,53.55,1,1,24.83,1,53.63s23.83,52.59,52.59,52.59Z"/>
    <path class="cls-1" d="M77.7,60.78c3.96,0,7.19-3.23,7.19-7.23s-3.23-7.19-7.19-7.19-7.23,3.23-7.23,7.19,3.23,7.23,7.23,7.23Z"/>
    <path class="cls-1" d="M53.55,60.78c4,0,7.23-3.23,7.23-7.23s-3.23-7.19-7.23-7.19-7.19,3.23-7.19,7.19,3.23,7.23,7.19,7.23Z"/>
    <path class="cls-1" d="M29.43,60.78c3.96,0,7.19-3.23,7.19-7.23s-3.27-7.19-7.19-7.19-7.23,3.23-7.23,7.19,3.23,7.23,7.23,7.23Z"/>
  </g>
</svg>