<?xml version="1.0" encoding="UTF-8" standalone="no"?>
<!DOCTYPE svg PUBLIC "-//W3C//DTD SVG 1.1//EN" "http://www.w3.org/Graphics/SVG/1.1/DTD/svg11.dtd">
<svg width="100%" height="100%" viewBox="0 0 621 223" version="1.1" xmlns="http://www.w3.org/2000/svg" xmlns:xlink="http://www.w3.org/1999/xlink" xml:space="preserve" xmlns:serif="http://www.serif.com/" style="fill-rule:evenodd;clip-rule:evenodd;stroke-linejoin:round;stroke-miterlimit:2;">
    <g transform="matrix(1,0,0,1,-879.143,-1799.2)">
        <g transform="matrix(1,0,0,1.00385,0,-7.79283)">
            <rect x="879.143" y="1800.05" width="620.204" height="221.585" style="fill:rgb(130,130,130);fill-opacity:0;"/>
        </g>
        <g transform="matrix(1,0,0,1,944.059,1614.5)">
            <path d="M222.186,247.001C219.387,250.869 216.379,253.186 213.163,253.954C211.223,254.423 208.977,254.267 206.424,253.486C201.971,252.119 198.911,249.319 197.245,245.087C196.464,243.069 196.073,240.979 196.073,238.818C196.073,236.852 196.392,234.827 197.03,232.744C198.384,228.316 200.669,224.944 203.885,222.626C206.281,220.895 208.892,220.029 211.717,220.029C213.228,220.029 214.797,220.276 216.424,220.771C219.393,221.682 222.076,223.388 224.471,225.888C226.06,227.542 226.854,229.215 226.854,230.908C226.854,231.454 226.77,232.001 226.6,232.548C226.353,233.382 225.845,234.007 225.077,234.423C224.647,234.645 224.172,234.755 223.651,234.755C223.26,234.755 222.837,234.69 222.382,234.56C221.73,234.352 221.307,233.395 221.112,231.689C220.839,229.241 220.552,227.626 220.253,226.845C219.563,224.983 218.273,223.759 216.385,223.173C215.461,222.9 214.569,222.763 213.71,222.763C209.113,222.763 205.663,226.539 203.358,234.091C202.746,236.083 202.44,237.932 202.44,239.638C202.44,241.474 202.792,243.147 203.495,244.658C204.706,247.275 206.737,249.02 209.589,249.892C211.568,250.491 213.628,250.481 215.77,249.863C217.912,249.244 219.771,247.991 221.346,246.103L222.186,247.001Z" style="fill:rgb(19,33,140);fill-rule:nonzero;"/>
            <path d="M223.202,251.337C225.129,250.908 226.561,249.553 227.499,247.275L236.932,224.189L238.358,224.15L248.397,246.552C249.048,247.984 249.628,248.961 250.135,249.482C250.695,250.068 251.464,250.348 252.44,250.322L252.499,251.747L239.335,252.216L239.276,250.771C241.893,250.68 243.176,249.898 243.124,248.427C243.098,247.867 242.915,247.177 242.577,246.357L236.112,230.615L229.374,246.826C229.1,247.75 228.97,248.447 228.983,248.915C229.009,249.632 229.315,250.169 229.901,250.527C230.487,250.885 231.509,251.044 232.967,251.005L233.026,252.431L223.241,252.763L223.202,251.337Z" style="fill:rgb(19,33,140);fill-rule:nonzero;"/>
            <path d="M270.448,218.642C270.474,218.941 270.487,219.228 270.487,219.501C270.487,221.428 269.803,222.451 268.436,222.568C268.007,222.607 266.444,221.448 263.749,219.091C262.447,217.945 261.177,217.431 259.94,217.548C258.625,217.652 257.766,218.421 257.362,219.853C256.932,221.337 256.796,222.952 256.952,224.697L257.733,233.72L264.979,233.095L264.647,235.693L257.967,236.279L259.706,256.201C259.823,257.529 260.109,258.382 260.565,258.759C261.268,259.358 262.811,259.553 265.194,259.345L265.331,260.927L250.37,262.236L250.214,260.654C251.945,260.497 253.078,260.165 253.612,259.658C254.341,258.954 254.621,257.626 254.452,255.673L252.792,236.728L247.635,237.177L247.948,234.579L252.577,234.189L252.186,229.814C252.134,229.163 252.108,228.525 252.108,227.9C252.108,224.905 252.779,222.314 254.12,220.126C255.93,217.197 258.658,215.576 262.303,215.263C264.764,215.042 266.708,215.221 268.133,215.8C269.559,216.38 270.331,217.327 270.448,218.642Z" style="fill:rgb(19,33,140);fill-rule:nonzero;"/>
            <path d="M295.253,239.814C293.586,246.389 290.318,250.107 285.448,250.966C284.146,251.201 282.922,251.318 281.776,251.318C275.096,251.318 271.125,247.731 269.862,240.556C269.706,239.671 269.628,238.805 269.628,237.958C269.628,235.302 270.376,232.757 271.874,230.322C273.801,227.158 276.464,225.276 279.862,224.677C280.839,224.508 281.783,224.423 282.694,224.423C284.699,224.423 286.555,224.84 288.26,225.673C290.747,226.884 292.473,228.896 293.436,231.708L273.69,235.185C273.651,236.253 273.697,237.151 273.827,237.88C274.348,240.836 275.682,243.264 277.831,245.165C279.576,246.715 281.431,247.49 283.397,247.49C283.866,247.49 284.335,247.444 284.803,247.353C287.954,246.806 290.383,245.523 292.089,243.505C293.052,242.372 293.651,241.07 293.885,239.599L295.253,239.814ZM286.268,231.513C285.956,229.768 285.24,228.388 284.12,227.372C282.896,226.253 281.438,225.843 279.745,226.142C278.052,226.441 276.665,227.366 275.585,228.915C274.621,230.283 274.042,231.884 273.846,233.72L286.268,231.513ZM292.382,213.388C292.382,213.857 292.284,214.293 292.089,214.697C291.854,215.152 291.483,215.556 290.975,215.908L281.815,222.275L279.549,222.275L287.792,212.685C288.703,211.63 289.602,211.103 290.487,211.103C291.75,211.103 292.382,211.865 292.382,213.388Z" style="fill:rgb(19,33,140);fill-rule:nonzero;"/>
        </g>
        <g transform="matrix(1,0,0,1,803.432,-1801.44)">
            <g transform="matrix(1.63192,0,0,1.63192,-296.204,3366.1)">
                <path d="M555.621,264.404L494.961,264.404L494.961,204.524L555.621,204.524L555.621,264.404ZM546.921,215.204C546.921,213.724 546.161,212.984 544.641,212.984C543.161,212.984 542.421,213.724 542.421,215.204C542.421,216.884 543.161,217.724 544.641,217.724C545.161,217.724 545.671,217.514 546.171,217.094C546.671,216.674 546.921,216.044 546.921,215.204ZM541.401,210.824C541.401,210.304 541.131,209.784 540.591,209.264C540.051,208.744 539.481,208.484 538.881,208.484C538.441,208.484 537.961,208.754 537.441,209.294C536.921,209.834 536.661,210.384 536.661,210.944C536.661,211.464 536.841,211.944 537.201,212.384C537.681,212.944 538.281,213.224 539.001,213.224C540.601,213.224 541.401,212.424 541.401,210.824ZM551.421,220.964C551.421,220.564 551.221,220.084 550.821,219.524C550.341,218.804 549.741,218.444 549.021,218.444C548.301,218.444 547.701,218.784 547.221,219.464C546.821,219.984 546.621,220.444 546.621,220.844C546.621,222.404 547.421,223.184 549.021,223.184C550.621,223.184 551.421,222.444 551.421,220.964ZM534.621,208.184C534.621,207.584 534.401,207.024 533.961,206.504C533.521,205.984 533.001,205.724 532.401,205.724C531.841,205.724 531.281,206.004 530.721,206.564C530.161,207.124 529.881,207.624 529.881,208.064C529.881,208.624 530.101,209.164 530.541,209.684C530.981,210.204 531.601,210.464 532.401,210.464C533.881,210.464 534.621,209.704 534.621,208.184ZM554.121,227.444C554.121,226.964 553.921,226.474 553.521,225.974C553.121,225.474 552.541,225.224 551.781,225.224C551.221,225.224 550.681,225.424 550.161,225.824C549.641,226.224 549.381,226.764 549.381,227.444C549.381,228.124 549.611,228.714 550.071,229.214C550.531,229.714 551.101,229.964 551.781,229.964C552.301,229.964 552.821,229.704 553.341,229.184C553.861,228.664 554.121,228.084 554.121,227.444ZM527.661,207.224C527.661,206.824 527.461,206.344 527.061,205.784C526.541,205.064 525.941,204.704 525.261,204.704C524.781,204.704 524.271,204.984 523.731,205.544C523.191,206.104 522.921,206.664 522.921,207.224C522.921,207.624 523.121,208.104 523.521,208.664C524.041,209.344 524.661,209.684 525.381,209.684C525.901,209.684 526.411,209.464 526.911,209.024C527.411,208.584 527.661,207.984 527.661,207.224ZM554.901,234.704C554.901,233.024 554.141,232.184 552.621,232.184C551.981,232.184 551.451,232.434 551.031,232.934C550.611,233.434 550.401,234.024 550.401,234.704C550.401,235.224 550.581,235.704 550.941,236.144C551.421,236.704 552.021,236.984 552.741,236.984C553.221,236.984 553.701,236.774 554.181,236.354C554.661,235.934 554.901,235.384 554.901,234.704ZM554.121,241.724C554.121,241.364 553.881,240.854 553.401,240.194C552.921,239.534 552.381,239.204 551.781,239.204C551.101,239.204 550.531,239.474 550.071,240.014C549.611,240.554 549.381,241.124 549.381,241.724C549.381,242.204 549.591,242.694 550.011,243.194C550.431,243.694 551.021,243.944 551.781,243.944C552.341,243.944 552.871,243.744 553.371,243.344C553.871,242.944 554.121,242.404 554.121,241.724ZM520.641,208.184C520.641,207.664 520.461,207.184 520.101,206.744C519.621,206.224 518.961,205.964 518.121,205.964C516.641,205.964 515.901,206.704 515.901,208.184C515.901,208.744 516.111,209.264 516.531,209.744C516.951,210.224 517.481,210.464 518.121,210.464C519.801,210.464 520.641,209.704 520.641,208.184ZM513.921,210.824C513.921,210.264 513.711,209.734 513.291,209.234C512.871,208.734 512.321,208.484 511.641,208.484C511.081,208.484 510.521,208.764 509.961,209.324C509.401,209.884 509.121,210.424 509.121,210.944C509.121,211.464 509.341,211.944 509.781,212.384C510.261,212.944 510.881,213.224 511.641,213.224C513.161,213.224 513.921,212.424 513.921,210.824ZM551.421,248.324C551.421,247.804 551.201,247.284 550.761,246.764C550.321,246.244 549.781,245.984 549.141,245.984C548.541,245.984 548.001,246.184 547.521,246.584C546.921,247.064 546.621,247.644 546.621,248.324C546.621,248.884 546.851,249.424 547.311,249.944C547.771,250.464 548.341,250.724 549.021,250.724C549.581,250.724 550.121,250.494 550.641,250.034C551.161,249.574 551.421,249.004 551.421,248.324ZM546.921,253.964C546.921,253.324 546.701,252.744 546.261,252.224C545.821,251.704 545.281,251.444 544.641,251.444C544.041,251.444 543.521,251.714 543.081,252.254C542.641,252.794 542.421,253.364 542.421,253.964C542.421,255.444 543.161,256.184 544.641,256.184C546.161,256.184 546.921,255.444 546.921,253.964ZM549.381,234.464C549.381,227.984 547.001,222.364 542.241,217.604C537.481,212.844 531.821,210.464 525.261,210.464C518.781,210.464 513.181,212.824 508.461,217.544C503.741,222.264 501.381,227.904 501.381,234.464C501.381,240.984 503.661,246.624 508.221,251.384C512.901,256.264 518.581,258.704 525.261,258.704C531.861,258.704 537.561,256.264 542.361,251.384C547.041,246.584 549.381,240.944 549.381,234.464ZM508.401,215.324C508.401,214.764 508.161,214.234 507.681,213.734C507.201,213.234 506.601,212.984 505.881,212.984C505.401,212.984 504.911,213.194 504.411,213.614C503.911,214.034 503.661,214.564 503.661,215.204C503.661,215.604 503.841,216.084 504.201,216.644C504.641,217.364 505.201,217.724 505.881,217.724C506.521,217.724 507.101,217.484 507.621,217.004C508.141,216.524 508.401,215.964 508.401,215.324ZM503.901,220.844C503.901,220.244 503.701,219.694 503.301,219.194C502.901,218.694 502.341,218.444 501.621,218.444C501.101,218.444 500.561,218.724 500.001,219.284C499.441,219.844 499.161,220.404 499.161,220.964C499.161,221.444 499.401,221.934 499.881,222.434C500.361,222.934 500.901,223.184 501.501,223.184C503.101,223.184 503.901,222.404 503.901,220.844ZM541.401,258.344C541.401,257.784 541.181,257.244 540.741,256.724C540.301,256.204 539.721,255.944 539.001,255.944C538.321,255.944 537.761,256.194 537.321,256.694C536.881,257.194 536.661,257.744 536.661,258.344C536.661,258.904 536.881,259.434 537.321,259.934C537.761,260.434 538.321,260.684 539.001,260.684C539.561,260.684 540.101,260.444 540.621,259.964C541.141,259.484 541.401,258.944 541.401,258.344ZM501.141,227.444C501.141,226.964 500.931,226.474 500.511,225.974C500.091,225.474 499.561,225.224 498.921,225.224C497.401,225.224 496.641,225.964 496.641,227.444C496.641,229.124 497.401,229.964 498.921,229.964C499.441,229.964 499.941,229.754 500.421,229.334C500.901,228.914 501.141,228.284 501.141,227.444ZM534.621,260.984C534.621,260.464 534.411,259.954 533.991,259.454C533.571,258.954 533.041,258.704 532.401,258.704C531.801,258.704 531.261,258.904 530.781,259.304C530.181,259.784 529.881,260.424 529.881,261.224C529.881,261.624 530.171,262.094 530.751,262.634C531.331,263.174 531.881,263.444 532.401,263.444C532.881,263.444 533.371,263.214 533.871,262.754C534.371,262.294 534.621,261.704 534.621,260.984ZM500.421,234.584C500.421,234.104 500.141,233.584 499.581,233.024C499.021,232.464 498.461,232.184 497.901,232.184C497.421,232.184 496.881,232.464 496.281,233.024C495.681,233.584 495.381,234.144 495.381,234.704C495.381,235.144 495.661,235.634 496.221,236.174C496.781,236.714 497.341,236.984 497.901,236.984C499.581,236.984 500.421,236.184 500.421,234.584ZM527.661,261.944C527.661,260.464 526.901,259.724 525.381,259.724C524.741,259.724 524.171,259.934 523.671,260.354C523.171,260.774 522.921,261.304 522.921,261.944C522.921,262.464 523.101,262.944 523.461,263.384C523.941,263.944 524.581,264.224 525.381,264.224C526.901,264.224 527.661,263.464 527.661,261.944ZM501.141,241.724C501.141,240.044 500.361,239.204 498.801,239.204C498.121,239.204 497.591,239.484 497.211,240.044C496.831,240.604 496.641,241.164 496.641,241.724C496.641,243.204 497.401,243.944 498.921,243.944C500.401,243.944 501.141,243.204 501.141,241.724ZM520.641,260.984C520.641,260.464 520.461,259.984 520.101,259.544C519.621,258.984 518.961,258.704 518.121,258.704C517.641,258.704 517.151,258.914 516.651,259.334C516.151,259.754 515.901,260.304 515.901,260.984C515.901,261.344 516.081,261.804 516.441,262.364C516.921,263.084 517.481,263.444 518.121,263.444C518.721,263.444 519.291,263.204 519.831,262.724C520.371,262.244 520.641,261.664 520.641,260.984ZM503.901,248.324C503.901,246.764 503.141,245.984 501.621,245.984C501.101,245.984 500.561,246.244 500.001,246.764C499.441,247.284 499.161,247.804 499.161,248.324C499.161,248.844 499.441,249.374 500.001,249.914C500.561,250.454 501.061,250.724 501.501,250.724C503.101,250.724 503.901,249.924 503.901,248.324ZM513.921,258.344C513.921,256.744 513.161,255.944 511.641,255.944C511.201,255.944 510.701,256.164 510.141,256.604C509.461,257.124 509.121,257.704 509.121,258.344C509.121,258.864 509.391,259.384 509.931,259.904C510.471,260.424 511.001,260.684 511.521,260.684C513.121,260.684 513.921,259.904 513.921,258.344ZM508.401,254.084C508.401,253.564 508.201,253.024 507.801,252.464C507.281,251.784 506.641,251.444 505.881,251.444C505.401,251.444 504.911,251.724 504.411,252.284C503.911,252.844 503.661,253.404 503.661,253.964C503.661,254.444 503.861,254.934 504.261,255.434C504.661,255.934 505.201,256.184 505.881,256.184C507.561,256.184 508.401,255.484 508.401,254.084ZM535.881,246.944L514.701,246.944L514.701,221.984L535.341,221.984L535.341,227.444L522.441,227.444L522.441,231.104L534.381,231.104L534.381,236.444L522.441,236.444L522.441,241.364L535.881,241.364L535.881,246.944Z" style="fill:rgb(3,178,239);fill-rule:nonzero;"/>
            </g>
            <g transform="matrix(3.01234,0,0,3.01234,-613.11,3040.91)">
                <path d="M378.981,218.504C380.061,218.504 380.931,218.799 381.591,219.389C382.251,219.979 382.581,220.724 382.581,221.624C382.581,222.184 382.466,222.709 382.236,223.199C382.006,223.689 381.701,224.129 381.321,224.519C380.941,224.909 380.511,225.249 380.031,225.539C379.551,225.829 379.061,226.064 378.561,226.244L378.561,225.944C378.861,225.764 379.121,225.529 379.341,225.239C379.561,224.949 379.741,224.639 379.881,224.309C380.021,223.979 380.126,223.639 380.196,223.289C380.266,222.939 380.301,222.604 380.301,222.284C380.301,221.644 380.081,221.124 379.641,220.724C379.201,220.324 378.631,220.124 377.931,220.124C376.971,220.124 375.971,220.424 374.931,221.024C373.891,221.624 372.881,222.384 371.901,223.304C370.921,224.224 369.986,225.229 369.096,226.319C368.206,227.409 367.431,228.434 366.771,229.394C366.671,229.554 366.571,229.709 366.471,229.859C366.371,230.009 366.271,230.164 366.171,230.324C365.651,231.104 365.146,231.909 364.656,232.739C364.166,233.569 363.671,234.424 363.171,235.304C362.631,236.264 362.096,237.249 361.566,238.259C361.036,239.269 360.511,240.294 359.991,241.334C359.711,241.914 359.426,242.494 359.136,243.074C358.846,243.654 358.561,244.244 358.281,244.844C357.061,247.424 355.871,250.044 354.711,252.704L354.381,252.704C354.781,250.804 354.981,248.964 354.981,247.184C354.981,245.684 354.891,244.189 354.711,242.699C354.531,241.209 354.341,239.714 354.141,238.214L354.051,237.674C353.891,236.474 353.731,235.269 353.571,234.059C353.411,232.849 353.291,231.634 353.211,230.414C353.191,230.034 353.176,229.664 353.166,229.304C353.156,228.944 353.151,228.574 353.151,228.194C353.151,227.614 353.156,227.044 353.166,226.484C353.176,225.924 353.181,225.344 353.181,224.744L353.091,224.744C352.671,225.644 352.191,226.694 351.651,227.894C351.391,228.454 351.121,229.044 350.841,229.664C350.561,230.284 350.261,230.914 349.941,231.554C349.721,232.034 349.491,232.519 349.251,233.009C349.011,233.499 348.751,233.994 348.471,234.494L348.471,251.654L344.871,251.654L344.871,224.054L349.281,224.054L351.441,227.504C351.901,226.504 352.341,225.539 352.761,224.609C353.181,223.679 353.581,222.794 353.961,221.954C354.001,221.634 354.086,221.254 354.216,220.814C354.346,220.374 354.521,219.954 354.741,219.554C354.961,219.154 355.236,218.814 355.566,218.534C355.896,218.254 356.291,218.114 356.751,218.114C356.631,218.454 356.501,218.789 356.361,219.119C356.221,219.449 356.081,219.849 355.941,220.319C355.801,220.789 355.686,221.374 355.596,222.074C355.506,222.774 355.461,223.664 355.461,224.744C355.461,226.044 355.556,227.344 355.746,228.644C355.936,229.944 356.141,231.284 356.361,232.664C356.461,233.264 356.556,233.869 356.646,234.479C356.736,235.089 356.821,235.714 356.901,236.354L359.721,240.944C360.281,239.824 360.851,238.709 361.431,237.599C362.011,236.489 362.591,235.404 363.171,234.344L363.171,224.054L366.771,224.054L366.771,228.494C367.811,227.014 368.851,225.659 369.891,224.429C370.931,223.199 371.966,222.144 372.996,221.264C374.026,220.384 375.041,219.704 376.041,219.224C377.041,218.744 378.021,218.504 378.981,218.504ZM348.471,233.534C348.691,233.134 348.896,232.739 349.086,232.349C349.276,231.959 349.471,231.564 349.671,231.164L348.561,229.364L348.471,229.364L348.471,233.534ZM356.511,247.844C356.731,247.324 356.971,246.779 357.231,246.209C357.491,245.639 357.761,245.054 358.041,244.454L357.231,243.134C357.171,243.834 357.076,244.564 356.946,245.324C356.816,246.084 356.641,246.894 356.421,247.754L356.511,247.844Z" style="fill:rgb(0,163,39);fill-rule:nonzero;"/>
            </g>
            <g transform="matrix(1.68637,0,0,1.68637,44.4675,3374.38)">
                <path d="M360.981,193.184L344.661,193.184L344.661,252.704L356.981,252.704L356.981,239.264L358.101,239.264L358.101,252.704L370.501,252.704L370.501,236.384C370.501,235.584 370.154,234.704 369.461,233.744C368.928,232.998 368.394,232.251 367.861,231.504C368.394,230.651 368.968,229.758 369.581,228.824C370.194,227.891 370.501,227.051 370.501,226.304L370.501,202.704C370.501,199.824 369.488,197.478 367.461,195.664C365.648,194.011 363.488,193.184 360.981,193.184ZM356.981,205.584L358.101,205.584L358.101,223.504L356.981,223.504L356.981,205.584Z" style="fill:rgb(247,2,1);fill-rule:nonzero;"/>
            </g>
            <g transform="matrix(1.63192,0,0,1.63192,-217.13,3365.9)">
                <path d="M254.481,234.584C254.481,243.584 251.281,250.904 244.881,256.544C238.801,261.864 231.221,264.524 222.141,264.524C214.821,264.524 208.401,261.284 202.881,254.804C197.561,248.644 194.901,241.884 194.901,234.524C194.901,226.324 197.811,219.294 203.631,213.434C209.451,207.574 216.441,204.644 224.601,204.644C232.761,204.644 239.781,207.584 245.661,213.464C251.541,219.344 254.481,226.384 254.481,234.584ZM253.101,234.704L250.401,234.704L250.401,234.284L253.101,234.284L253.101,233.084C253.101,232.324 252.961,231.264 252.681,229.904C252.521,229.864 251.641,229.964 250.041,230.204L250.041,229.844L252.561,229.364L251.481,225.044L249.021,225.884L248.721,225.584L251.181,224.624L249.501,220.544L247.101,221.864L246.861,221.444L249.261,220.004C248.741,219.124 247.861,217.924 246.621,216.404L244.521,218.204L244.161,217.844L246.381,215.984C245.221,214.704 244.141,213.664 243.141,212.864L241.341,214.904L241.041,214.664L242.901,212.504C241.821,211.584 240.581,210.704 239.181,209.864L237.681,212.324L237.381,212.024L238.761,209.624L234.741,207.704L233.541,210.344L233.301,210.224L234.261,207.524C234.141,207.444 232.701,207.044 229.941,206.324L229.341,209.204L228.921,209.084L229.461,206.264C228.181,205.904 226.641,205.784 224.841,205.904L224.841,208.784L224.421,208.784L224.421,205.904L221.901,205.904C221.901,205.904 221.241,206.024 219.921,206.264L220.341,209.204L220.041,209.204C219.841,208.524 219.641,207.564 219.441,206.324C218.681,206.444 217.941,206.584 217.221,206.744C216.341,206.944 215.641,207.204 215.121,207.524L216.081,210.164L215.661,210.344L214.581,207.584L210.561,209.504L212.001,212.084L211.581,212.324L210.081,209.804C209.201,210.284 208.001,211.184 206.481,212.504L208.281,214.664L207.921,214.904L206.061,212.744C204.781,213.904 203.741,214.984 202.941,215.984L205.101,217.844L204.741,218.204L202.581,216.284C201.781,217.084 200.941,218.344 200.061,220.064L202.521,221.504L202.281,221.864L199.761,220.484L197.901,224.504L200.541,225.644L200.301,225.884L197.721,225.044C197.201,226.244 196.841,227.644 196.641,229.244L199.341,229.904L199.101,230.264L196.521,229.784C196.161,232.064 196.021,233.564 196.101,234.284L198.981,234.284L198.981,234.704L196.101,234.704L196.101,235.964C196.101,236.644 196.241,237.744 196.521,239.264L199.041,238.784L199.341,239.144L196.581,239.684L196.581,240.104C196.581,240.504 196.921,241.804 197.601,244.004L200.361,243.104L200.541,243.464L197.901,244.544L199.701,248.564L202.281,247.184L202.521,247.544L199.941,249.104C200.461,249.984 201.341,251.184 202.581,252.704L204.741,250.844L205.101,251.204L202.821,253.184C203.981,254.424 205.061,255.464 206.061,256.304L207.921,254.144L208.281,254.384L206.361,256.664L210.021,259.244L211.701,256.664L212.001,256.964L210.561,259.544L214.581,261.464L215.721,258.584L216.081,258.824L215.001,261.584C217.241,262.344 218.721,262.724 219.441,262.724L220.041,259.844L220.461,259.904L219.921,262.844C221.081,263.244 222.581,263.364 224.421,263.204L224.421,260.264L224.841,260.264L224.841,263.204L227.481,263.204C227.481,263.204 228.121,263.064 229.401,262.784L229.041,259.844L229.941,262.724L230.481,262.724C230.601,262.724 231.861,262.324 234.261,261.524L233.301,258.884L233.601,258.584L234.741,261.344C235.341,261.104 236.701,260.504 238.821,259.544L237.381,256.904L237.681,256.664L239.181,259.244C240.741,258.204 241.981,257.304 242.901,256.544L241.041,254.384L241.161,254.084C241.761,254.524 242.461,255.264 243.261,256.304L246.441,253.064L244.161,251.204L244.521,250.844L246.741,252.704C247.901,251.104 248.721,249.844 249.201,248.924L246.861,247.424L247.101,247.184L249.501,248.564L251.301,244.424L248.721,243.404L248.901,243.104L251.481,244.004L252.561,239.684C252.401,239.724 251.561,239.564 250.041,239.204L250.041,238.844L250.341,238.784L252.801,239.084C253.041,237.084 253.141,235.624 253.101,234.704ZM245.601,223.064C245.601,223.264 245.471,223.474 245.211,223.694C244.951,223.914 244.721,224.024 244.521,224.024C243.841,224.024 243.501,223.564 243.501,222.644C243.501,221.604 243.841,221.084 244.521,221.084C245.161,221.084 245.481,221.344 245.481,221.864L244.881,221.864L244.881,221.744C244.921,221.544 244.801,221.444 244.521,221.444C244.361,221.444 244.221,221.564 244.101,221.804L244.161,222.224C244.281,222.104 244.441,222.044 244.641,222.044C245.281,222.044 245.601,222.384 245.601,223.064ZM237.141,215.384C237.141,215.944 236.801,216.224 236.121,216.224C235.481,216.224 235.181,215.964 235.221,215.444L235.221,215.324L235.641,215.324C235.841,215.644 236.021,215.804 236.181,215.804C236.501,215.804 236.661,215.664 236.661,215.384C236.661,214.904 236.401,214.744 235.881,214.904C236.041,214.784 236.261,214.584 236.541,214.304L236.541,213.884C236.381,213.724 236.281,213.644 236.241,213.644C235.921,213.644 235.761,213.804 235.761,214.124L235.281,214.124C235.361,213.524 235.681,213.224 236.241,213.224C236.841,213.224 237.141,213.504 237.141,214.064C237.141,214.224 237.021,214.424 236.781,214.664C237.021,214.864 237.141,215.104 237.141,215.384ZM249.021,233.444L247.761,233.444L247.761,234.104C247.921,234.144 248.081,234.164 248.241,234.164L248.481,234.164C248.641,234.164 248.821,234.144 249.021,234.104L249.021,234.644C248.781,234.604 248.581,234.584 248.421,234.584L248.181,234.584C248.061,234.584 247.921,234.604 247.761,234.644L247.761,235.484L249.021,235.484L249.021,235.904L247.161,235.904L247.161,232.964L249.021,232.964L249.021,233.444ZM225.741,213.104L225.321,213.104C224.841,212.264 224.381,211.544 223.941,210.944C223.901,211.264 223.881,211.604 223.881,211.964C223.881,212.324 223.921,212.704 224.001,213.104L223.521,213.104L223.521,210.164L224.061,210.164C224.301,210.484 224.721,211.184 225.321,212.264C225.361,211.984 225.381,211.684 225.381,211.364C225.381,211.004 225.361,210.604 225.321,210.164L225.741,210.164L225.741,213.104ZM246.141,245.024C246.141,245.704 245.761,246.204 245.001,246.524C245.121,246.564 245.281,246.584 245.481,246.584C245.681,246.584 245.901,246.564 246.141,246.524L246.141,247.064L244.401,247.064L244.401,246.524C244.641,246.284 244.911,246.014 245.211,245.714C245.511,245.414 245.661,245.184 245.661,245.024C245.661,244.704 245.541,244.544 245.301,244.544C245.181,244.544 245.041,244.704 244.881,245.024L244.401,245.024L244.401,244.904C244.401,244.384 244.681,244.124 245.241,244.124C245.841,244.124 246.141,244.424 246.141,245.024ZM214.581,215.444C214.581,216.004 214.241,216.284 213.561,216.284C212.921,216.284 212.601,216.044 212.601,215.564C212.601,215.524 212.621,215.484 212.661,215.444L213.201,215.444C213.201,215.764 213.361,215.924 213.681,215.924C213.961,215.924 214.101,215.764 214.101,215.444C214.101,215.124 213.921,214.964 213.561,214.964C213.441,214.964 213.361,214.984 213.321,215.024C213.361,214.864 213.481,214.734 213.681,214.634C213.881,214.534 213.981,214.364 213.981,214.124C213.981,213.884 213.881,213.764 213.681,213.764C213.361,213.764 213.201,213.924 213.201,214.244L212.721,214.244C212.841,213.644 213.161,213.344 213.681,213.344C214.201,213.344 214.461,213.604 214.461,214.124C214.461,214.404 214.381,214.624 214.221,214.784C214.261,214.824 214.341,214.844 214.461,214.844C214.461,214.924 214.481,215.024 214.521,215.144C214.561,215.264 214.581,215.364 214.581,215.444ZM244.161,247.064L243.621,247.064C243.661,246.664 243.681,246.304 243.681,245.984L243.681,245.624C243.681,245.424 243.661,245.144 243.621,244.784C243.581,244.864 243.421,244.964 243.141,245.084C243.141,245.004 243.211,244.844 243.351,244.604C243.491,244.364 243.621,244.244 243.741,244.244L244.161,244.244L244.161,247.064ZM212.541,215.624C212.541,215.704 212.521,215.764 212.481,215.804C212.081,216.124 211.741,216.284 211.461,216.284C210.861,216.284 210.561,216.044 210.561,215.564L210.561,215.444L211.041,215.444C211.081,215.764 211.241,215.924 211.521,215.924C211.841,215.924 212.001,215.764 212.001,215.444C212.001,215.124 211.741,214.984 211.221,215.024C211.341,214.904 211.581,214.684 211.941,214.364L211.941,214.004C211.741,213.844 211.621,213.764 211.581,213.764C211.261,213.764 211.101,213.924 211.101,214.244L210.621,214.244C210.701,213.644 211.021,213.344 211.581,213.344C212.221,213.344 212.541,213.624 212.541,214.184C212.541,214.344 212.401,214.544 212.121,214.784C212.401,215.064 212.541,215.344 212.541,215.624ZM234.261,238.664C234.261,240.424 233.481,241.924 231.921,243.164C230.361,244.404 228.681,245.024 226.881,245.024L224.361,245.024C223.761,245.024 222.901,244.864 221.781,244.544C220.061,244.064 219.201,243.824 219.201,243.824C219.041,243.784 218.641,244.084 218.001,244.724L218.001,237.824C218.241,237.824 218.441,238.144 218.601,238.784C218.681,239.184 218.781,239.584 218.901,239.984C219.181,241.024 219.971,242.024 221.271,242.984C222.571,243.944 223.741,244.424 224.781,244.424L226.881,244.424C227.841,244.424 228.821,244.074 229.821,243.374C230.821,242.674 231.321,241.844 231.321,240.884C231.321,239.324 230.141,238.244 227.781,237.644C225.621,237.164 223.461,236.664 221.301,236.144C218.941,235.304 217.761,233.784 217.761,231.584C217.761,229.784 218.661,228.344 220.461,227.264C222.021,226.344 223.781,225.884 225.741,225.884C226.341,225.884 228.321,226.264 231.681,227.024C231.881,227.064 232.141,226.764 232.461,226.124C232.781,226.404 232.921,226.764 232.881,227.204L232.821,231.884C231.741,229.764 230.641,228.334 229.521,227.594C228.401,226.854 226.681,226.484 224.361,226.484C223.521,226.484 222.701,226.764 221.901,227.324C220.981,227.964 220.521,228.684 220.521,229.484C220.521,230.844 221.721,231.824 224.121,232.424C226.321,232.944 228.521,233.464 230.721,233.984C233.081,234.904 234.261,236.464 234.261,238.664ZM207.081,222.704C207.081,223.704 206.741,224.204 206.061,224.204C205.421,224.204 205.101,223.724 205.101,222.764C205.101,221.764 205.441,221.264 206.121,221.264C206.761,221.264 207.081,221.744 207.081,222.704ZM238.161,254.984C238.161,255.744 237.841,256.124 237.201,256.124C236.721,256.124 236.421,255.824 236.301,255.224L236.841,255.224C237.001,255.464 237.141,255.584 237.261,255.584C237.581,255.584 237.741,255.384 237.741,254.984C237.741,254.664 237.581,254.504 237.261,254.504C237.221,254.504 236.921,254.644 236.361,254.924L236.361,253.124L237.921,253.124C237.601,253.244 237.281,253.364 236.961,253.484C236.921,253.524 236.861,253.744 236.781,254.144L237.381,254.144C237.901,254.144 238.161,254.424 238.161,254.984ZM204.981,223.304C204.981,223.904 204.641,224.204 203.961,224.204C203.441,224.204 203.121,223.924 203.001,223.364L203.601,223.364C203.721,223.604 203.881,223.724 204.081,223.724C204.201,223.724 204.341,223.644 204.501,223.484C204.421,223.164 204.291,222.954 204.111,222.854C203.931,222.754 203.801,222.624 203.721,222.464C204.001,222.464 204.221,222.404 204.381,222.284L204.381,221.924C204.381,221.764 204.261,221.684 204.021,221.684C203.821,221.684 203.681,221.804 203.601,222.044L203.121,222.044L203.121,221.924C203.121,221.484 203.441,221.264 204.081,221.264C204.681,221.264 204.981,221.504 204.981,221.984C204.981,222.144 204.861,222.344 204.621,222.584C204.861,222.864 204.981,223.104 204.981,223.304ZM236.061,256.004L235.701,253.904C235.621,253.864 235.561,253.844 235.521,253.844C235.441,253.844 235.301,253.904 235.101,254.024C235.141,253.624 235.461,253.324 236.061,253.124L236.061,256.004ZM204.081,232.844L203.181,235.784L202.761,235.784C202.761,235.784 202.561,235.024 202.161,233.504C201.841,234.224 201.581,234.984 201.381,235.784C201.181,235.584 200.801,234.604 200.241,232.844L200.721,232.844C200.841,233.324 201.021,234.024 201.261,234.944C201.421,234.624 201.641,233.924 201.921,232.844L202.401,232.844C202.521,233.324 202.741,234.044 203.061,235.004C203.181,234.524 203.361,233.804 203.601,232.844L204.081,232.844ZM225.801,257.744C225.801,258.344 225.401,258.644 224.601,258.644C224.001,258.644 223.641,258.324 223.521,257.684L224.001,257.684C224.121,258.084 224.341,258.284 224.661,258.284C224.741,258.284 224.941,258.184 225.261,257.984L225.261,257.624C224.941,257.504 224.581,257.364 224.181,257.204C223.781,257.044 223.581,256.784 223.581,256.424C223.581,255.864 223.941,255.584 224.661,255.584C225.381,255.584 225.721,255.884 225.681,256.484L225.201,256.484C225.121,256.164 224.941,256.004 224.661,256.004C224.621,256.004 224.441,256.084 224.121,256.244C224.161,256.524 224.451,256.764 224.991,256.964C225.531,257.164 225.801,257.424 225.801,257.744ZM206.661,246.464C206.421,246.624 206.321,246.824 206.361,247.064L205.881,247.064L205.881,246.524C205.681,246.484 205.481,246.464 205.281,246.464C205.041,246.464 204.821,246.484 204.621,246.524L204.621,245.804C204.981,245.324 205.341,244.804 205.701,244.244L206.361,244.244C206.361,244.164 206.361,244.484 206.361,245.204C206.361,245.644 206.461,245.924 206.661,246.044L206.661,246.464ZM214.401,256.004L213.921,256.004L213.921,253.904C213.841,253.864 213.781,253.844 213.741,253.844C213.661,253.844 213.521,253.904 213.321,254.024L213.321,253.844C213.321,253.724 213.501,253.484 213.861,253.124L214.401,253.124L214.401,256.004ZM204.501,244.964C204.501,245.084 204.141,245.604 203.421,246.524C203.581,246.604 203.941,246.624 204.501,246.584L204.501,247.064L202.641,247.064L202.641,246.644C203.561,245.684 204.021,245.124 204.021,244.964C204.021,244.684 203.861,244.544 203.541,244.544C203.301,244.544 203.181,244.704 203.181,245.024L202.701,245.024L202.701,244.544C202.981,244.264 203.241,244.124 203.481,244.124C204.161,244.124 204.501,244.404 204.501,244.964ZM213.081,253.904C213.081,254.344 212.701,254.884 211.941,255.524C212.101,255.564 212.261,255.584 212.421,255.584C212.621,255.584 212.841,255.564 213.081,255.524L213.081,256.004L211.341,256.004L211.341,255.524C212.181,254.764 212.601,254.224 212.601,253.904C212.601,253.944 212.521,253.784 212.361,253.424C212.121,253.424 211.941,253.624 211.821,254.024L211.341,254.024C211.301,253.344 211.581,253.004 212.181,253.004C212.781,253.004 213.081,253.304 213.081,253.904ZM245.061,223.064C245.061,222.824 244.881,222.624 244.521,222.464C244.361,222.584 244.221,222.644 244.101,222.644L244.101,223.304C244.101,223.504 244.241,223.604 244.521,223.604C244.881,223.604 245.061,223.424 245.061,223.064ZM206.601,222.764L206.601,222.464C206.601,221.944 206.381,221.684 205.941,221.684C205.701,222.004 205.581,222.284 205.581,222.524C205.581,223.324 205.761,223.724 206.121,223.724C206.281,223.724 206.381,223.684 206.421,223.604C206.461,223.524 206.501,223.384 206.541,223.184C206.581,222.984 206.601,222.844 206.601,222.764ZM205.881,245.984L205.881,244.904C205.681,245.144 205.421,245.504 205.101,245.984L205.881,245.984Z" style="fill:rgb(19,33,140);fill-rule:nonzero;"/>
            </g>
            <g transform="matrix(1.84493,0,0,1.84493,-265.702,3315)">
                <path d="M279.656,216.899L270.801,216.899L270.801,263.594L258.151,263.594L258.151,217.009L249.241,217.009L249.241,208.649L279.656,208.649L279.656,216.899ZM276.631,212.334C276.374,212.371 276.154,212.389 275.971,212.389C275.054,212.389 274.578,211.894 274.541,210.904C274.138,212.004 273.386,212.481 272.286,212.334C272.579,212.554 273.001,212.903 273.551,213.379C273.478,213.673 273.368,214.131 273.221,214.754C273.918,214.278 274.339,214.039 274.486,214.039C274.596,214.039 274.999,214.278 275.696,214.754C275.623,214.424 275.476,213.948 275.256,213.324C275.549,213.068 276.008,212.738 276.631,212.334ZM266.291,212.334C266.108,212.371 265.924,212.389 265.741,212.389C264.898,212.389 264.403,211.821 264.256,210.684C263.999,211.968 263.248,212.518 262.001,212.334C262.478,212.591 262.936,212.939 263.376,213.379C263.303,213.673 263.193,214.131 263.046,214.754C263.743,214.278 264.164,214.039 264.311,214.039C264.238,214.039 264.604,214.241 265.411,214.644C265.264,214.351 265.191,214.076 265.191,213.819C265.191,213.159 265.558,212.664 266.291,212.334ZM256.721,212.334L256.226,212.389C255.419,212.389 254.888,211.894 254.631,210.904C254.228,212.004 253.476,212.481 252.376,212.334C252.706,212.518 253.164,212.848 253.751,213.324C253.641,213.618 253.494,214.094 253.311,214.754C254.008,214.278 254.429,214.039 254.576,214.039C254.686,214.039 255.108,214.278 255.841,214.754C255.731,214.424 255.566,213.948 255.346,213.324C255.639,213.068 256.098,212.738 256.721,212.334ZM266.291,223.554C266.108,223.628 265.924,223.664 265.741,223.664C264.898,223.664 264.403,223.078 264.256,221.904C263.999,223.188 263.248,223.738 262.001,223.554C262.294,223.811 262.753,224.178 263.376,224.654C263.303,224.948 263.193,225.388 263.046,225.974C263.706,225.498 264.128,225.259 264.311,225.259C264.238,225.259 264.604,225.479 265.411,225.919C265.301,225.626 265.246,225.351 265.246,225.094C265.246,224.544 265.594,224.031 266.291,223.554ZM266.291,234.829C266.108,234.866 265.924,234.884 265.741,234.884C264.824,234.884 264.329,234.298 264.256,233.124C263.999,234.408 263.248,234.976 262.001,234.829C262.478,235.049 262.936,235.379 263.376,235.819C263.303,236.113 263.193,236.571 263.046,237.194C263.743,236.718 264.164,236.479 264.311,236.479C264.238,236.479 264.604,236.699 265.411,237.139C265.264,236.846 265.191,236.553 265.191,236.259C265.191,235.636 265.558,235.159 266.291,234.829ZM266.291,246.049L265.906,246.049C264.806,246.049 264.219,245.573 264.146,244.619L264.146,244.949C264.146,245.719 263.743,246.104 262.936,246.104C262.789,246.104 262.624,246.086 262.441,246.049L262.001,246.049C262.551,246.489 263.009,246.856 263.376,247.149C263.303,247.443 263.193,247.901 263.046,248.524C263.743,248.084 264.164,247.864 264.311,247.864C264.238,247.864 264.604,248.066 265.411,248.469C265.264,248.176 265.191,247.901 265.191,247.644C265.191,247.021 265.558,246.489 266.291,246.049ZM266.291,257.269L265.906,257.269C265.026,257.269 264.458,256.793 264.201,255.839C264.164,256.829 263.688,257.324 262.771,257.324C262.698,257.324 262.441,257.306 262.001,257.269C262.551,257.673 263.009,258.039 263.376,258.369C263.303,258.699 263.193,259.158 263.046,259.744C263.853,259.231 264.274,258.974 264.311,258.974C264.384,258.974 264.577,259.084 264.889,259.304C265.2,259.524 265.374,259.653 265.411,259.689C265.264,259.396 265.191,259.121 265.191,258.864C265.191,258.241 265.558,257.709 266.291,257.269Z" style="fill:rgb(251,110,47);fill-rule:nonzero;"/>
            </g>
            <g transform="matrix(1.84493,0,0,1.84493,-290.548,3333.78)">
                <path d="M335.361,199.544L337.941,207.464L335.961,205.124C335.001,203.964 334.141,203.074 333.381,202.454C332.621,201.834 331.801,201.424 330.921,201.224C327.601,201.224 322.611,201.084 315.951,200.804C309.291,200.524 305.541,200.384 304.701,200.384C303.181,200.984 302.421,201.684 302.421,202.484C302.421,203.444 302.681,204.064 303.201,204.344C303.721,204.624 304.561,204.844 305.721,205.004C306.881,205.164 307.741,205.384 308.301,205.664C310.221,204.744 311.501,204.134 312.141,203.834C312.781,203.534 313.621,203.204 314.661,202.844C316.221,202.204 318.021,201.884 320.061,201.884C323.261,201.884 326.251,202.394 329.031,203.414C331.811,204.434 334.091,205.974 335.871,208.034C337.651,210.094 338.541,212.644 338.541,215.684C338.541,218.084 338.211,220.014 337.551,221.474C336.891,222.934 336.001,224.144 334.881,225.104L332.601,227.084C332.201,227.524 331.921,228.144 331.761,228.944L329.481,228.944L328.401,230.564C328.001,231.324 327.571,231.924 327.111,232.364C326.651,232.804 326.041,233.024 325.281,233.024L325.041,232.724C325.081,232.564 325.281,232.344 325.641,232.064L326.301,231.404C326.461,231.244 326.541,230.984 326.541,230.624C325.941,230.624 325.141,230.764 324.141,231.044L322.101,231.524L320.841,231.764L319.461,232.184L318.621,232.724C319.261,233.884 320.081,234.684 321.081,235.124C322.121,235.484 323.341,235.664 324.741,235.664L328.041,235.844C328.561,235.844 328.961,235.864 329.241,235.904C329.521,235.944 329.941,236.014 330.501,236.114C331.061,236.214 331.511,236.304 331.851,236.384C332.191,236.464 332.701,236.634 333.381,236.894C334.061,237.154 334.721,237.624 335.361,238.304C336.121,239.504 336.501,241.364 336.501,243.884C335.781,245.684 334.651,247.164 333.111,248.324C331.571,249.484 329.761,250.164 327.681,250.364C326.001,250.364 324.221,250.164 322.341,249.764C320.461,249.364 319.221,249.164 318.621,249.164C317.141,249.164 316.041,249.664 315.321,250.664L314.421,250.904C314.021,251.104 313.641,251.204 313.281,251.204L320.841,251.324L328.821,251.564C332.301,251.084 335.341,248.824 337.941,244.784L337.101,249.284L336.501,252.704L292.101,252.704L291.801,252.404C291.881,252.004 292.121,251.724 292.521,251.564C292.681,251.444 293.061,251.264 293.661,251.024C294.261,250.784 294.621,250.464 294.741,250.064C293.581,249.144 292.651,247.884 291.951,246.284C291.251,244.684 290.901,243.004 290.901,241.244C290.901,239.564 291.241,238.114 291.921,236.894C292.601,235.674 293.151,234.754 293.571,234.134C293.991,233.514 294.681,232.544 295.641,231.224L295.641,207.764C292.921,206.004 291.561,204.244 291.561,202.484L292.101,201.884C292.341,202.044 292.591,202.334 292.851,202.754C293.111,203.174 293.361,203.444 293.601,203.564C293.801,203.804 294.181,203.924 294.741,203.924C295.261,203.604 295.521,203.344 295.521,203.144L295.341,202.724C295.221,202.324 295.121,202.054 295.041,201.914C294.961,201.774 294.901,201.654 294.861,201.554C294.821,201.454 294.781,201.344 294.741,201.224L292.701,199.784L293.841,199.184L302.361,199.304L314.481,199.304C316.121,199.304 317.891,199.314 319.791,199.334C321.691,199.354 323.741,199.384 325.941,199.424C326.861,199.424 328.361,199.444 330.441,199.484C332.521,199.524 334.161,199.544 335.361,199.544ZM332.961,207.104C331.721,205.624 330.101,204.464 328.101,203.624C325.941,202.864 323.761,202.484 321.561,202.484C319.161,202.484 316.701,202.964 314.181,203.924C313.821,203.924 313.511,204.114 313.251,204.494C312.991,204.874 312.701,205.064 312.381,205.064C311.421,205.784 310.941,206.384 310.941,206.864L311.121,207.584L311.721,208.304L312.381,208.904C313.381,210.544 313.881,212.324 313.881,214.244C313.881,215.524 313.581,216.684 312.981,217.724C313.341,218.004 313.801,218.144 314.361,218.144C315.001,218.144 315.421,218.204 315.621,218.324C315.621,218.524 315.341,218.904 314.781,219.464C313.981,219.464 313.261,219.684 312.621,220.124C311.981,220.564 311.491,221.014 311.151,221.474C310.811,221.934 310.491,222.344 310.191,222.704C309.891,223.064 309.641,223.364 309.441,223.604C310.081,223.604 310.601,223.504 311.001,223.304L312.381,222.644C312.861,222.324 313.241,222.164 313.521,222.164C314.001,222.164 314.421,222.644 314.781,223.604L317.121,220.664C317.321,220.864 317.421,221.344 317.421,222.104C317.421,222.784 317.521,223.284 317.721,223.604L318.621,223.604C319.141,223.324 319.401,222.924 319.401,222.404L319.161,221.264C319.041,220.984 318.961,220.714 318.921,220.454C318.881,220.194 318.861,219.964 318.861,219.764L319.101,218.924C319.181,218.644 319.401,218.444 319.761,218.324C320.361,219.124 320.661,220.484 320.661,222.404L320.901,222.404C322.101,221.244 322.701,219.884 322.701,218.324L321.081,218.084L319.221,217.664C318.661,217.384 318.241,217.104 317.961,216.824C316.601,215.904 315.921,214.244 315.921,211.844L316.041,208.784L316.221,205.424C317.381,205.664 318.211,206.224 318.711,207.104C319.211,207.984 319.531,209.014 319.671,210.194C319.811,211.374 319.941,212.294 320.061,212.954C320.181,213.614 320.261,214.044 320.301,214.244C320.941,215.364 321.541,215.924 322.101,215.924C320.901,214.964 320.301,213.804 320.301,212.444L320.421,209.504C320.581,208.184 320.661,206.704 320.661,205.064L320.841,204.344C321.081,204.064 321.321,203.924 321.561,203.924C321.641,204.004 321.701,204.104 321.741,204.224C321.781,204.344 321.801,204.544 321.801,204.824C323.241,205.864 324.081,206.974 324.321,208.154C324.561,209.334 324.741,210.544 324.861,211.784C324.981,213.024 325.041,214.224 325.041,215.384C325.361,214.624 325.521,213.784 325.521,212.864L325.641,209.564C325.641,208.524 325.961,207.544 326.601,206.624C327.161,205.944 328.121,205.424 329.481,205.064L329.601,208.364L329.721,211.544C329.721,213.544 329.141,215.124 327.981,216.284C326.741,216.444 325.741,217.074 324.981,218.174C324.221,219.274 323.761,220.484 323.601,221.804C324.481,221.804 325.141,221.844 325.581,221.924C326.021,222.004 326.521,222.164 327.081,222.404C326.841,222.644 326.601,222.834 326.361,222.974C326.121,223.114 325.681,223.324 325.041,223.604L328.221,223.604C328.941,223.484 329.421,223.204 329.661,222.764L330.621,221.024C331.021,220.304 331.401,219.784 331.761,219.464C332.041,219.864 332.181,220.324 332.181,220.844L332.241,222.344C332.241,222.544 332.281,222.754 332.361,222.974C332.441,223.194 332.541,223.404 332.661,223.604C333.101,222.804 333.501,222.324 333.861,222.164C335.021,220.084 335.601,217.704 335.601,215.024C335.601,212.184 334.721,209.544 332.961,207.104ZM307.641,205.964C307.041,205.684 306.351,205.454 305.571,205.274C304.791,205.094 303.961,205.004 303.081,205.004L297.621,204.884C295.981,204.884 294.441,204.564 293.001,203.924C293.001,204.244 293.101,204.554 293.301,204.854C293.501,205.154 293.801,205.464 294.201,205.784L295.341,206.564L299.541,206.924L303.681,207.104C304.241,207.104 304.831,207.144 305.451,207.224C306.071,207.304 306.621,207.384 307.101,207.464C307.461,207.264 307.641,206.764 307.641,205.964ZM307.641,214.244C307.641,210.324 308.621,207.384 310.581,205.424C310.141,205.784 309.651,206.214 309.111,206.714C308.571,207.214 308.161,207.634 307.881,207.974C307.601,208.314 307.341,208.684 307.101,209.084C306.861,209.484 306.661,209.924 306.501,210.404C306.501,212.164 306.621,213.644 306.861,214.844C306.981,215.844 307.461,216.804 308.301,217.724C308.781,217.884 309.361,217.964 310.041,217.964C309.161,217.084 308.541,216.394 308.181,215.894C307.821,215.394 307.641,214.844 307.641,214.244ZM323.601,216.524L323.841,213.464L324.141,210.404C324.141,208.164 323.281,206.684 321.561,205.964C321.561,206.684 321.521,207.364 321.441,208.004C321.361,208.644 321.281,209.144 321.201,209.504C321.201,210.664 321.341,211.644 321.621,212.444C321.821,213.204 322.181,214.024 322.701,214.904L323.601,216.524ZM328.581,206.564C327.501,207.084 326.831,207.834 326.571,208.814C326.311,209.794 326.181,211.104 326.181,212.744C326.181,214.544 325.881,215.804 325.281,216.524C325.921,216.524 326.521,216.324 327.081,215.924C327.601,215.404 327.901,214.984 327.981,214.664C328.061,214.344 328.171,213.864 328.311,213.224C328.451,212.584 328.521,212.044 328.521,211.604L328.581,206.564ZM322.101,217.184C320.901,216.784 320.211,216.184 320.031,215.384C319.851,214.584 319.671,213.664 319.491,212.624C319.311,211.584 319.121,210.494 318.921,209.354C318.721,208.214 318.201,207.384 317.361,206.864C317.081,207.984 316.861,208.904 316.701,209.624C316.541,210.344 316.461,210.904 316.461,211.304C316.461,212.784 316.961,214.324 317.961,215.924C319.001,216.764 320.381,217.184 322.101,217.184ZM305.961,210.044C305.961,209.364 305.781,208.864 305.421,208.544L304.341,207.944L303.021,207.764L302.661,212.084L302.541,217.304L302.421,222.404C302.621,223.204 303.501,223.604 305.061,223.604C306.701,223.364 308.161,221.984 309.441,219.464L306.201,216.524L306.081,214.304L305.961,210.044ZM312.981,216.284C312.981,212.164 312.001,209.324 310.041,207.764C309.641,207.884 309.441,208.344 309.441,209.144C309.441,210.104 309.821,211.004 310.581,211.844C311.021,212.604 311.241,213.884 311.241,215.684C310.881,218.884 309.901,221.344 308.301,223.064C310.421,221.384 311.981,219.124 312.981,216.284ZM337.041,220.664C337.441,219.904 337.641,218.444 337.641,216.284C337.641,214.324 337.381,212.634 336.861,211.214C336.341,209.794 335.621,208.644 334.701,207.764C335.901,209.884 336.501,212.304 336.501,215.024C336.501,217.984 335.821,220.444 334.461,222.404C334.421,222.644 334.101,223.124 333.501,223.844C332.941,224.644 332.661,225.364 332.661,226.004L334.161,224.504C334.961,223.744 335.601,223.044 336.081,222.404C336.521,221.924 336.841,221.344 337.041,220.664ZM310.341,216.824C310.341,215.944 310.321,215.194 310.281,214.574C310.241,213.954 310.141,213.384 309.981,212.864C309.781,211.824 309.301,211.004 308.541,210.404L308.301,210.704C308.301,212.144 308.401,213.424 308.601,214.544C308.881,215.584 309.461,216.344 310.341,216.824ZM320.061,221.564L320.301,221.264L319.761,219.764L320.061,221.564ZM323.001,223.064C323.161,222.904 323.541,222.824 324.141,222.824C324.861,222.744 325.241,222.604 325.281,222.404C324.121,222.404 323.361,222.624 323.001,223.064ZM316.821,223.064C316.661,223.064 316.541,223.084 316.461,223.124C316.381,223.164 316.301,223.224 316.221,223.304L316.821,223.304L316.821,223.064ZM304.161,225.104C303.721,224.864 303.341,224.744 303.021,224.744C302.941,224.824 302.861,224.924 302.781,225.044C302.701,225.164 302.661,225.364 302.661,225.644C302.861,225.644 303.061,225.574 303.261,225.434C303.461,225.294 303.761,225.184 304.161,225.104ZM308.901,224.744C306.981,225.184 305.461,225.854 304.341,226.754C303.221,227.654 302.661,229.064 302.661,230.984C302.901,229.824 303.881,228.344 305.601,226.544C305.601,227.744 305.421,228.924 305.061,230.084C305.901,230.084 306.411,229.964 306.591,229.724C306.771,229.484 306.931,229.164 307.071,228.764C307.211,228.364 307.341,227.924 307.461,227.444C307.581,226.964 307.861,226.564 308.301,226.244L308.301,227.684C308.461,227.444 308.581,226.944 308.661,226.184L308.901,224.744ZM310.941,224.744C310.381,224.744 310.081,224.884 310.041,225.164L309.801,226.724C309.801,227.484 309.581,228.004 309.141,228.284L309.441,228.284C310.441,228.284 310.941,227.104 310.941,224.744ZM312.261,225.524L312.381,224.744C312.301,224.864 312.231,225.034 312.171,225.254C312.111,225.474 312.081,225.724 312.081,226.004L312.261,225.524ZM315.021,224.744C314.581,224.744 314.221,224.844 313.941,225.044C313.661,225.244 313.321,225.584 312.921,226.064C312.521,226.544 312.241,226.804 312.081,226.844L312.681,226.844C312.761,226.684 313.091,226.494 313.671,226.274C314.251,226.054 314.621,225.884 314.781,225.764C314.941,225.644 315.021,225.304 315.021,224.744ZM329.481,226.004C328.721,225.644 328.051,225.384 327.471,225.224C326.891,225.064 326.221,224.984 325.461,224.984C324.061,224.824 322.161,224.744 319.761,224.744C319.681,224.864 319.521,224.964 319.281,225.044C319.041,225.124 318.821,225.174 318.621,225.194C318.421,225.214 318.221,225.294 318.021,225.434C317.821,225.574 317.721,225.764 317.721,226.004C319.121,226.004 319.981,226.084 320.301,226.244C320.261,226.444 319.981,226.544 319.461,226.544C319.021,226.544 318.741,226.644 318.621,226.844L321.201,226.844L320.301,226.244L320.661,226.004C320.981,225.564 321.541,225.344 322.341,225.344C322.861,225.344 323.761,225.594 325.041,226.094C326.321,226.594 327.201,226.844 327.681,226.844C328.201,226.844 328.801,226.564 329.481,226.004ZM325.281,227.684C325.201,227.364 324.881,227.144 324.321,227.024L323.241,226.544C323.041,227.144 322.601,227.544 321.921,227.744C321.241,227.944 320.401,228.044 319.401,228.044C318.881,228.404 318.621,229.384 318.621,230.984C318.821,230.864 319.131,230.724 319.551,230.564C319.971,230.404 320.661,230.184 321.621,229.904C322.581,229.624 323.331,229.324 323.871,229.004C324.411,228.684 324.881,228.244 325.281,227.684ZM318.261,227.684C317.341,227.124 316.661,226.844 316.221,226.844C315.661,226.844 314.761,227.244 313.521,228.044C314.561,228.044 315.661,228.624 316.821,229.784C316.301,230.184 315.801,230.384 315.321,230.384C314.881,230.384 314.161,230.144 313.161,229.664C312.161,229.184 311.421,228.944 310.941,228.944C310.221,228.944 309.721,229.324 309.441,230.084C311.241,230.484 312.321,230.964 312.681,231.524C312.321,231.924 311.741,232.124 310.941,232.124C310.501,232.124 309.841,231.934 308.961,231.554C308.081,231.174 307.461,230.984 307.101,230.984C306.541,230.984 306.041,231.164 305.601,231.524L306.381,231.764L307.161,232.124C307.321,232.164 307.501,232.284 307.701,232.484C307.901,232.684 308.001,232.964 308.001,233.324L307.341,233.624C307.021,233.824 306.741,233.924 306.501,233.924C306.261,233.924 305.701,233.744 304.821,233.384C304.021,232.944 303.421,232.724 303.021,232.724L303.021,235.364L316.821,231.224L317.601,229.724C317.761,229.444 317.911,229.094 318.051,228.674C318.191,228.254 318.261,227.924 318.261,227.684ZM330.621,227.684L330.621,226.844L326.541,228.764C324.461,229.844 322.681,230.584 321.201,230.984C323.161,230.464 324.951,229.934 326.571,229.394C328.191,228.854 329.541,228.284 330.621,227.684ZM313.521,229.184L315.321,229.184L313.521,228.944L313.521,229.184ZM327.681,230.984C327.681,230.744 327.661,230.564 327.621,230.444C327.581,230.324 327.521,230.204 327.441,230.084L327.441,231.224L327.681,230.984ZM310.581,231.224L310.581,230.984L310.041,230.984L310.581,231.224ZM318.261,236.264L317.121,233.024C316.041,233.024 314.231,233.334 311.691,233.954C309.151,234.574 307.321,234.944 306.201,235.064C305.961,235.224 305.421,235.384 304.581,235.544C303.701,235.784 303.181,236.104 303.021,236.504C304.181,236.144 306.021,235.964 308.541,235.964C312.501,235.964 315.361,236.844 317.121,238.604C319.081,240.044 320.061,242.584 320.061,246.224C321.621,246.824 322.781,247.234 323.541,247.454C324.301,247.674 325.381,247.944 326.781,248.264L330.021,248.084C330.461,248.004 330.901,247.924 331.341,247.844C331.781,247.764 332.221,247.624 332.661,247.424C333.421,247.184 334.101,246.684 334.701,245.924C335.141,244.164 335.361,243.104 335.361,242.744C335.361,241.184 334.801,240.164 333.681,239.684C332.561,239.204 330.661,238.964 327.981,238.964C325.541,238.964 323.541,238.824 321.981,238.544C320.421,238.264 319.181,237.504 318.261,236.264ZM293.601,238.124L294.681,236.384C294.921,235.744 295.041,235.104 295.041,234.464C293.481,236.104 292.701,237.884 292.701,239.804C292.781,239.524 293.081,238.964 293.601,238.124ZM335.001,239.144C333.881,237.224 331.821,236.264 328.821,236.264L324.501,236.504C321.821,236.504 319.861,235.824 318.621,234.464C319.221,235.744 320.091,236.614 321.231,237.074C322.371,237.534 323.721,237.764 325.281,237.764L329.721,237.764C332.081,237.764 333.841,238.224 335.001,239.144ZM316.161,238.604C315.441,238.204 314.661,237.844 313.821,237.524C312.981,237.204 312.201,236.984 311.481,236.864L313.461,237.824C314.581,238.344 315.401,238.884 315.921,239.444C316.721,239.964 317.201,240.594 317.361,241.334C317.521,242.074 317.621,242.624 317.661,242.984C317.701,243.344 317.721,243.944 317.721,244.784C316.041,247.504 314.261,248.864 312.381,248.864C311.461,248.864 310.521,248.624 309.561,248.144C308.601,247.584 307.961,246.944 307.641,246.224C307.641,247.384 307.851,248.174 308.271,248.594C308.691,249.014 308.941,249.244 309.021,249.284L309.981,249.764L311.301,250.124L312.381,250.364C315.221,250.364 317.181,249.384 318.261,247.424C318.661,246.464 318.861,244.684 318.861,242.084C318.421,240.604 317.521,239.444 316.161,238.604ZM316.461,241.844C316.061,240.684 315.491,239.854 314.751,239.354C314.011,238.854 313.471,238.524 313.131,238.364C312.791,238.204 312.351,238.074 311.811,237.974C311.271,237.874 310.581,237.754 309.741,237.614C308.901,237.474 308.201,237.404 307.641,237.404C307.361,237.724 306.661,237.944 305.541,238.064C305.101,238.064 304.761,238.094 304.521,238.154C304.281,238.214 303.971,238.294 303.591,238.394C303.211,238.494 303.021,238.844 303.021,239.444C304.141,239.444 305.261,239.544 306.381,239.744C307.501,239.944 308.621,240.224 309.741,240.584C310.861,241.064 312.011,241.594 313.191,242.174C314.371,242.754 315.581,243.424 316.821,244.184L316.701,242.924C316.701,242.364 316.621,242.004 316.461,241.844ZM294.561,239.924C294.321,240.484 294.201,240.924 294.201,241.244L294.681,240.584L295.161,239.804L295.341,238.904C295.061,239.024 294.801,239.364 294.561,239.924ZM315.921,244.784C310.801,241.824 306.601,240.344 303.321,240.344C300.961,240.344 298.901,240.844 297.141,241.844L300.921,240.944C301.481,240.944 302.111,240.954 302.811,240.974C303.511,240.994 304.301,241.124 305.181,241.364C306.061,241.604 306.741,241.794 307.221,241.934C307.701,242.074 308.301,242.284 309.021,242.564L312.861,244.424L315.921,245.924L315.921,244.784ZM294.201,244.184L294.741,242.744L295.041,241.244L294.201,244.184ZM314.781,246.524L310.761,244.304C309.481,243.544 308.221,242.944 306.981,242.504C305.741,242.064 304.421,241.844 303.021,241.844L303.141,248.624C303.341,249.744 303.681,250.604 304.161,251.204L312.081,251.204C309.681,251.204 307.821,250.044 306.501,247.724C306.501,246.844 306.541,246.214 306.621,245.834C306.701,245.454 306.791,245.144 306.891,244.904C306.991,244.664 307.241,244.424 307.641,244.184C308.001,244.184 308.241,244.264 308.361,244.424L308.541,245.444C308.581,245.724 308.631,245.934 308.691,246.074C308.751,246.214 308.971,246.564 309.351,247.124C309.731,247.684 310.941,247.964 312.981,247.964L313.941,247.604C314.501,247.364 314.781,247.004 314.781,246.524ZM295.341,247.124L295.341,244.784L295.041,244.784C295.041,246.064 295.141,246.844 295.341,247.124ZM294.081,248.204L293.361,247.184C293.161,246.704 292.941,246.384 292.701,246.224C292.861,246.544 293.231,246.934 293.811,247.394C294.391,247.854 294.701,248.264 294.741,248.624L294.081,248.204ZM329.481,249.164L325.281,248.804C324.641,248.804 323.681,248.624 322.401,248.264C321.521,247.944 320.641,247.464 319.761,246.824L318.861,247.964C320.221,248.444 321.481,248.824 322.641,249.104C323.801,249.384 324.901,249.604 325.941,249.764C327.261,249.764 328.441,249.564 329.481,249.164Z" style="fill:rgb(142,189,31);fill-rule:nonzero;"/>
            </g>
            <g transform="matrix(2.25968,0,0,2.25968,-361.992,3224.47)">
                <path d="M317.301,229.784C317.301,232.224 317.761,234.144 318.681,235.544C319.161,236.224 319.711,236.824 320.331,237.344C320.951,237.864 321.591,238.314 322.251,238.694C322.911,239.074 323.531,239.404 324.111,239.684C324.691,239.964 325.201,240.204 325.641,240.404C324.961,241.404 324.311,242.324 323.691,243.164C323.071,244.004 322.441,244.764 321.801,245.444C320.601,246.804 319.191,247.964 317.571,248.924C315.951,249.884 314.241,250.364 312.441,250.364C309.161,249.844 307.521,248.524 307.521,246.404C307.841,246.444 308.111,246.474 308.331,246.494C308.551,246.514 308.701,246.524 308.781,246.524C310.141,246.524 311.171,246.104 311.871,245.264C312.571,244.424 312.921,243.484 312.921,242.444C312.921,241.484 312.561,240.634 311.841,239.894C311.121,239.154 310.221,238.784 309.141,238.784C308.421,238.784 307.751,238.954 307.131,239.294C306.511,239.634 305.971,240.094 305.511,240.674C305.051,241.254 304.701,241.914 304.461,242.654C304.221,243.394 304.101,244.184 304.101,245.024C304.101,247.424 305.181,249.304 307.341,250.664C309.421,252.024 311.861,252.704 314.661,252.704C316.381,252.704 318.091,252.504 319.791,252.104C321.491,251.704 323.131,251.034 324.711,250.094C326.291,249.154 327.831,247.894 329.331,246.314C330.831,244.734 332.261,242.764 333.621,240.404C335.661,240.124 337.371,239.414 338.751,238.274C340.131,237.134 341.241,235.834 342.081,234.374C342.921,232.914 343.521,231.454 343.881,229.994C344.241,228.534 344.421,227.364 344.421,226.484L343.281,226.004C343.001,227.604 342.681,229.034 342.321,230.294C341.961,231.554 341.521,232.644 341.001,233.564C340.001,235.404 338.101,236.584 335.301,237.104C336.501,232.424 337.901,228.574 339.501,225.554C341.101,222.534 342.681,220.164 344.241,218.444C345.041,217.564 345.871,216.744 346.731,215.984C347.591,215.224 348.481,214.504 349.401,213.824C350.321,213.144 351.041,212.614 351.561,212.234C352.081,211.854 352.381,211.624 352.461,211.544C352.061,211.504 351.391,211.454 350.451,211.394C349.511,211.334 348.501,211.304 347.421,211.304C346.661,211.304 345.971,211.324 345.351,211.364C344.731,211.404 344.181,211.464 343.701,211.544C340.341,211.904 337.101,212.524 333.981,213.404C330.861,214.284 328.081,215.464 325.641,216.944C323.201,218.424 321.221,220.224 319.701,222.344C318.181,224.464 317.381,226.944 317.301,229.784ZM344.061,214.064C341.621,215.944 339.561,217.724 337.881,219.404C336.201,221.084 334.621,222.904 333.141,224.864C332.621,225.584 332.021,226.584 331.341,227.864C330.661,229.144 330.001,230.444 329.361,231.764C328.721,233.084 328.141,234.314 327.621,235.454C327.101,236.594 326.761,237.404 326.601,237.884C325.961,237.724 325.101,237.304 324.021,236.624C322.981,235.904 322.281,234.784 321.921,233.264C321.881,232.184 322.101,230.964 322.581,229.604C323.061,228.244 323.761,226.864 324.681,225.464C325.601,224.064 326.731,222.684 328.071,221.324C329.411,219.964 330.901,218.754 332.541,217.694C334.181,216.634 335.971,215.774 337.911,215.114C339.851,214.454 341.901,214.104 344.061,214.064Z" style="fill:rgb(236,58,148);fill-rule:nonzero;"/>
            </g>
        </g>
    </g>
</svg>
