<?xml version="1.0" encoding="UTF-8" standalone="no"?>
<!DOCTYPE svg PUBLIC "-//W3C//DTD SVG 1.1//EN" "http://www.w3.org/Graphics/SVG/1.1/DTD/svg11.dtd">
<svg width="100%" height="100%" viewBox="0 0 621 223" version="1.1" xmlns="http://www.w3.org/2000/svg" xmlns:xlink="http://www.w3.org/1999/xlink" xml:space="preserve" xmlns:serif="http://www.serif.com/" style="fill-rule:evenodd;clip-rule:evenodd;stroke-linejoin:round;stroke-miterlimit:2;">
    <g transform="matrix(1,0,0,1,-879.143,-1799.2)">
        <g transform="matrix(1,0,0,1.00385,0,-7.79283)">
            <rect x="879.143" y="1800.05" width="620.204" height="221.585" style="fill:rgb(130,130,130);fill-opacity:0;"/>
        </g>
        <g transform="matrix(1,0,0,1,944.059,1614.5)">
            <path d="M222.186,247.001C219.387,250.869 216.379,253.186 213.163,253.954C211.223,254.423 208.977,254.267 206.424,253.486C201.971,252.119 198.911,249.319 197.245,245.087C196.464,243.069 196.073,240.979 196.073,238.818C196.073,236.852 196.392,234.827 197.03,232.744C198.384,228.316 200.669,224.944 203.885,222.626C206.281,220.895 208.892,220.029 211.717,220.029C213.228,220.029 214.797,220.276 216.424,220.771C219.393,221.682 222.076,223.388 224.471,225.888C226.06,227.542 226.854,229.215 226.854,230.908C226.854,231.454 226.77,232.001 226.6,232.548C226.353,233.382 225.845,234.007 225.077,234.423C224.647,234.645 224.172,234.755 223.651,234.755C223.26,234.755 222.837,234.69 222.382,234.56C221.73,234.352 221.307,233.395 221.112,231.689C220.839,229.241 220.552,227.626 220.253,226.845C219.563,224.983 218.273,223.759 216.385,223.173C215.461,222.9 214.569,222.763 213.71,222.763C209.113,222.763 205.663,226.539 203.358,234.091C202.746,236.083 202.44,237.932 202.44,239.638C202.44,241.474 202.792,243.147 203.495,244.658C204.706,247.275 206.737,249.02 209.589,249.892C211.568,250.491 213.628,250.481 215.77,249.863C217.912,249.244 219.771,247.991 221.346,246.103L222.186,247.001Z" style="fill:rgb(19,33,140);fill-rule:nonzero;"/>
            <path d="M223.202,251.337C225.129,250.908 226.561,249.553 227.499,247.275L236.932,224.189L238.358,224.15L248.397,246.552C249.048,247.984 249.628,248.961 250.135,249.482C250.695,250.068 251.464,250.348 252.44,250.322L252.499,251.747L239.335,252.216L239.276,250.771C241.893,250.68 243.176,249.898 243.124,248.427C243.098,247.867 242.915,247.177 242.577,246.357L236.112,230.615L229.374,246.826C229.1,247.75 228.97,248.447 228.983,248.915C229.009,249.632 229.315,250.169 229.901,250.527C230.487,250.885 231.509,251.044 232.967,251.005L233.026,252.431L223.241,252.763L223.202,251.337Z" style="fill:rgb(19,33,140);fill-rule:nonzero;"/>
            <path d="M270.448,218.642C270.474,218.941 270.487,219.228 270.487,219.501C270.487,221.428 269.803,222.451 268.436,222.568C268.007,222.607 266.444,221.448 263.749,219.091C262.447,217.945 261.177,217.431 259.94,217.548C258.625,217.652 257.766,218.421 257.362,219.853C256.932,221.337 256.796,222.952 256.952,224.697L257.733,233.72L264.979,233.095L264.647,235.693L257.967,236.279L259.706,256.201C259.823,257.529 260.109,258.382 260.565,258.759C261.268,259.358 262.811,259.553 265.194,259.345L265.331,260.927L250.37,262.236L250.214,260.654C251.945,260.497 253.078,260.165 253.612,259.658C254.341,258.954 254.621,257.626 254.452,255.673L252.792,236.728L247.635,237.177L247.948,234.579L252.577,234.189L252.186,229.814C252.134,229.163 252.108,228.525 252.108,227.9C252.108,224.905 252.779,222.314 254.12,220.126C255.93,217.197 258.658,215.576 262.303,215.263C264.764,215.042 266.708,215.221 268.133,215.8C269.559,216.38 270.331,217.327 270.448,218.642Z" style="fill:rgb(19,33,140);fill-rule:nonzero;"/>
            <path d="M295.253,239.814C293.586,246.389 290.318,250.107 285.448,250.966C284.146,251.201 282.922,251.318 281.776,251.318C275.096,251.318 271.125,247.731 269.862,240.556C269.706,239.671 269.628,238.805 269.628,237.958C269.628,235.302 270.376,232.757 271.874,230.322C273.801,227.158 276.464,225.276 279.862,224.677C280.839,224.508 281.783,224.423 282.694,224.423C284.699,224.423 286.555,224.84 288.26,225.673C290.747,226.884 292.473,228.896 293.436,231.708L273.69,235.185C273.651,236.253 273.697,237.151 273.827,237.88C274.348,240.836 275.682,243.264 277.831,245.165C279.576,246.715 281.431,247.49 283.397,247.49C283.866,247.49 284.335,247.444 284.803,247.353C287.954,246.806 290.383,245.523 292.089,243.505C293.052,242.372 293.651,241.07 293.885,239.599L295.253,239.814ZM286.268,231.513C285.956,229.768 285.24,228.388 284.12,227.372C282.896,226.253 281.438,225.843 279.745,226.142C278.052,226.441 276.665,227.366 275.585,228.915C274.621,230.283 274.042,231.884 273.846,233.72L286.268,231.513ZM292.382,213.388C292.382,213.857 292.284,214.293 292.089,214.697C291.854,215.152 291.483,215.556 290.975,215.908L281.815,222.275L279.549,222.275L287.792,212.685C288.703,211.63 289.602,211.103 290.487,211.103C291.75,211.103 292.382,211.865 292.382,213.388Z" style="fill:rgb(19,33,140);fill-rule:nonzero;"/>
        </g>
        <g transform="matrix(1,0,0,1,805.859,-599.239)">
            <g transform="matrix(3.23826,0,0,3.23826,-579.418,1780.66)">
                <path d="M277.821,227.944C276.061,228.531 274.308,229.451 272.561,230.704C270.814,231.958 269.221,233.398 267.781,235.024L264.661,235.024C264.661,233.904 264.868,232.824 265.281,231.784C265.694,230.744 266.261,229.824 266.981,229.024C267.701,228.224 268.554,227.584 269.541,227.104C270.528,226.624 271.581,226.384 272.701,226.384C273.821,226.384 274.801,226.524 275.641,226.804C276.481,227.084 277.208,227.464 277.821,227.944ZM292.341,233.224L292.901,233.544C292.128,235.011 291.094,236.611 289.801,238.344C288.508,240.078 287.021,241.784 285.341,243.464C285.234,243.891 285.061,244.411 284.821,245.024C284.581,245.638 284.261,246.278 283.861,246.944C283.461,247.611 282.968,248.271 282.381,248.924C281.794,249.578 281.101,250.171 280.301,250.704C279.981,250.918 279.608,251.144 279.181,251.384C278.754,251.624 278.234,251.844 277.621,252.044C277.008,252.244 276.281,252.404 275.441,252.524C274.601,252.644 273.594,252.704 272.421,252.704C272.181,252.704 271.941,252.698 271.701,252.684C271.461,252.671 271.221,252.651 270.981,252.624C269.034,252.438 267.321,251.911 265.841,251.044C264.361,250.178 263.114,249.038 262.101,247.624C261.248,246.344 260.588,244.911 260.121,243.324C259.654,241.738 259.421,240.011 259.421,238.144C259.421,235.904 259.694,233.798 260.241,231.824C260.788,229.851 261.634,228.138 262.781,226.684C263.928,225.231 265.381,224.084 267.141,223.244C268.901,222.404 270.981,221.984 273.381,221.984C275.808,221.984 277.848,222.511 279.501,223.564C281.154,224.618 282.514,226.091 283.581,227.984C284.381,228.438 284.794,229.158 284.821,230.144C284.821,230.278 284.794,230.478 284.741,230.744C284.581,231.518 284.141,232.291 283.421,233.064C282.701,233.838 281.801,234.571 280.721,235.264C279.641,235.958 278.448,236.618 277.141,237.244C275.834,237.871 274.514,238.438 273.181,238.944C272.221,239.291 271.288,239.604 270.381,239.884C269.474,240.164 268.634,240.398 267.861,240.584C267.514,241.278 267.214,242.044 266.961,242.884C266.708,243.724 266.528,244.584 266.421,245.464C266.341,246.051 266.301,246.664 266.301,247.304C266.328,247.838 266.401,248.378 266.521,248.924C266.641,249.471 266.841,249.964 267.121,250.404C267.401,250.844 267.768,251.198 268.221,251.464C268.674,251.731 269.221,251.851 269.861,251.824C270.874,251.798 271.988,251.551 273.201,251.084C274.414,250.618 275.674,249.984 276.981,249.184C278.288,248.384 279.621,247.438 280.981,246.344C282.341,245.251 283.661,244.051 284.941,242.744C286.381,241.304 287.741,239.778 289.021,238.164C290.301,236.551 291.408,234.904 292.341,233.224ZM280.501,232.904C280.341,232.051 280.088,231.251 279.741,230.504C279.394,229.758 278.941,229.091 278.381,228.504C277.794,228.691 277.181,229.004 276.541,229.444C275.901,229.884 275.261,230.391 274.621,230.964C273.981,231.538 273.354,232.178 272.741,232.884C272.128,233.591 271.554,234.304 271.021,235.024C270.541,235.718 270.088,236.391 269.661,237.044C269.234,237.698 268.874,238.331 268.581,238.944L271.221,238.944C272.448,238.491 273.708,237.938 275.001,237.284C276.294,236.631 277.461,235.878 278.501,235.024C278.901,234.704 279.274,234.364 279.621,234.004C279.968,233.644 280.261,233.278 280.501,232.904ZM272.701,226.384C271.581,226.384 270.528,226.624 269.541,227.104C268.554,227.584 267.701,228.224 266.981,229.024C266.261,229.824 265.694,230.744 265.281,231.784C264.868,232.824 264.661,233.904 264.661,235.024L267.781,235.024C269.221,233.398 270.814,231.958 272.561,230.704C274.308,229.451 276.061,228.531 277.821,227.944C277.208,227.464 276.481,227.084 275.641,226.804C274.801,226.524 273.821,226.384 272.701,226.384Z" style="fill:rgb(142,189,31);fill-rule:nonzero;"/>
            </g>
            <g transform="matrix(2.87117,0,0,2.87117,-438.455,1872.84)">
                <path d="M277.792,252.704L277.792,251.318L278.924,251.318C280.135,251.318 280.969,251.168 281.424,250.869C282.128,250.4 282.479,249.436 282.479,247.978L282.479,224.404C282.479,222.568 282.245,221.389 281.776,220.869C281.177,220.191 279.849,219.853 277.792,219.853L277.792,218.466L292.401,218.466L292.401,219.853C290.526,219.853 289.276,220.113 288.651,220.634C288.026,221.155 287.714,222.412 287.714,224.404L287.714,248.329C287.714,249.723 287.997,250.569 288.563,250.869C289.13,251.168 290.409,251.318 292.401,251.318L292.401,252.704L277.792,252.704Z" style="fill:rgb(236,58,148);fill-rule:nonzero;"/>
            </g>
            <g transform="matrix(1.6381,0,0,1.6381,-293.407,2165.17)">
                <path d="M495.621,264.404L434.961,264.404L434.961,204.524L495.621,204.524L495.621,264.404ZM486.921,215.204C486.921,213.724 486.161,212.984 484.641,212.984C483.161,212.984 482.421,213.724 482.421,215.204C482.421,216.884 483.161,217.724 484.641,217.724C485.161,217.724 485.671,217.514 486.171,217.094C486.671,216.674 486.921,216.044 486.921,215.204ZM481.401,210.824C481.401,210.304 481.131,209.784 480.591,209.264C480.051,208.744 479.481,208.484 478.881,208.484C478.441,208.484 477.961,208.754 477.441,209.294C476.921,209.834 476.661,210.384 476.661,210.944C476.661,211.464 476.841,211.944 477.201,212.384C477.681,212.944 478.281,213.224 479.001,213.224C480.601,213.224 481.401,212.424 481.401,210.824ZM491.421,220.964C491.421,220.564 491.221,220.084 490.821,219.524C490.341,218.804 489.741,218.444 489.021,218.444C488.301,218.444 487.701,218.784 487.221,219.464C486.821,219.984 486.621,220.444 486.621,220.844C486.621,222.404 487.421,223.184 489.021,223.184C490.621,223.184 491.421,222.444 491.421,220.964ZM474.621,208.184C474.621,207.584 474.401,207.024 473.961,206.504C473.521,205.984 473.001,205.724 472.401,205.724C471.841,205.724 471.281,206.004 470.721,206.564C470.161,207.124 469.881,207.624 469.881,208.064C469.881,208.624 470.101,209.164 470.541,209.684C470.981,210.204 471.601,210.464 472.401,210.464C473.881,210.464 474.621,209.704 474.621,208.184ZM494.121,227.444C494.121,226.964 493.921,226.474 493.521,225.974C493.121,225.474 492.541,225.224 491.781,225.224C491.221,225.224 490.681,225.424 490.161,225.824C489.641,226.224 489.381,226.764 489.381,227.444C489.381,228.124 489.611,228.714 490.071,229.214C490.531,229.714 491.101,229.964 491.781,229.964C492.301,229.964 492.821,229.704 493.341,229.184C493.861,228.664 494.121,228.084 494.121,227.444ZM467.661,207.224C467.661,206.824 467.461,206.344 467.061,205.784C466.541,205.064 465.941,204.704 465.261,204.704C464.781,204.704 464.271,204.984 463.731,205.544C463.191,206.104 462.921,206.664 462.921,207.224C462.921,207.624 463.121,208.104 463.521,208.664C464.041,209.344 464.661,209.684 465.381,209.684C465.901,209.684 466.411,209.464 466.911,209.024C467.411,208.584 467.661,207.984 467.661,207.224ZM494.901,234.704C494.901,233.024 494.141,232.184 492.621,232.184C491.981,232.184 491.451,232.434 491.031,232.934C490.611,233.434 490.401,234.024 490.401,234.704C490.401,235.224 490.581,235.704 490.941,236.144C491.421,236.704 492.021,236.984 492.741,236.984C493.221,236.984 493.701,236.774 494.181,236.354C494.661,235.934 494.901,235.384 494.901,234.704ZM494.121,241.724C494.121,241.364 493.881,240.854 493.401,240.194C492.921,239.534 492.381,239.204 491.781,239.204C491.101,239.204 490.531,239.474 490.071,240.014C489.611,240.554 489.381,241.124 489.381,241.724C489.381,242.204 489.591,242.694 490.011,243.194C490.431,243.694 491.021,243.944 491.781,243.944C492.341,243.944 492.871,243.744 493.371,243.344C493.871,242.944 494.121,242.404 494.121,241.724ZM460.641,208.184C460.641,207.664 460.461,207.184 460.101,206.744C459.621,206.224 458.961,205.964 458.121,205.964C456.641,205.964 455.901,206.704 455.901,208.184C455.901,208.744 456.111,209.264 456.531,209.744C456.951,210.224 457.481,210.464 458.121,210.464C459.801,210.464 460.641,209.704 460.641,208.184ZM453.921,210.824C453.921,210.264 453.711,209.734 453.291,209.234C452.871,208.734 452.321,208.484 451.641,208.484C451.081,208.484 450.521,208.764 449.961,209.324C449.401,209.884 449.121,210.424 449.121,210.944C449.121,211.464 449.341,211.944 449.781,212.384C450.261,212.944 450.881,213.224 451.641,213.224C453.161,213.224 453.921,212.424 453.921,210.824ZM491.421,248.324C491.421,247.804 491.201,247.284 490.761,246.764C490.321,246.244 489.781,245.984 489.141,245.984C488.541,245.984 488.001,246.184 487.521,246.584C486.921,247.064 486.621,247.644 486.621,248.324C486.621,248.884 486.851,249.424 487.311,249.944C487.771,250.464 488.341,250.724 489.021,250.724C489.581,250.724 490.121,250.494 490.641,250.034C491.161,249.574 491.421,249.004 491.421,248.324ZM486.921,253.964C486.921,253.324 486.701,252.744 486.261,252.224C485.821,251.704 485.281,251.444 484.641,251.444C484.041,251.444 483.521,251.714 483.081,252.254C482.641,252.794 482.421,253.364 482.421,253.964C482.421,255.444 483.161,256.184 484.641,256.184C486.161,256.184 486.921,255.444 486.921,253.964ZM489.381,234.464C489.381,227.984 487.001,222.364 482.241,217.604C477.481,212.844 471.821,210.464 465.261,210.464C458.781,210.464 453.181,212.824 448.461,217.544C443.741,222.264 441.381,227.904 441.381,234.464C441.381,240.984 443.661,246.624 448.221,251.384C452.901,256.264 458.581,258.704 465.261,258.704C471.861,258.704 477.561,256.264 482.361,251.384C487.041,246.584 489.381,240.944 489.381,234.464ZM448.401,215.324C448.401,214.764 448.161,214.234 447.681,213.734C447.201,213.234 446.601,212.984 445.881,212.984C445.401,212.984 444.911,213.194 444.411,213.614C443.911,214.034 443.661,214.564 443.661,215.204C443.661,215.604 443.841,216.084 444.201,216.644C444.641,217.364 445.201,217.724 445.881,217.724C446.521,217.724 447.101,217.484 447.621,217.004C448.141,216.524 448.401,215.964 448.401,215.324ZM443.901,220.844C443.901,220.244 443.701,219.694 443.301,219.194C442.901,218.694 442.341,218.444 441.621,218.444C441.101,218.444 440.561,218.724 440.001,219.284C439.441,219.844 439.161,220.404 439.161,220.964C439.161,221.444 439.401,221.934 439.881,222.434C440.361,222.934 440.901,223.184 441.501,223.184C443.101,223.184 443.901,222.404 443.901,220.844ZM481.401,258.344C481.401,257.784 481.181,257.244 480.741,256.724C480.301,256.204 479.721,255.944 479.001,255.944C478.321,255.944 477.761,256.194 477.321,256.694C476.881,257.194 476.661,257.744 476.661,258.344C476.661,258.904 476.881,259.434 477.321,259.934C477.761,260.434 478.321,260.684 479.001,260.684C479.561,260.684 480.101,260.444 480.621,259.964C481.141,259.484 481.401,258.944 481.401,258.344ZM441.141,227.444C441.141,226.964 440.931,226.474 440.511,225.974C440.091,225.474 439.561,225.224 438.921,225.224C437.401,225.224 436.641,225.964 436.641,227.444C436.641,229.124 437.401,229.964 438.921,229.964C439.441,229.964 439.941,229.754 440.421,229.334C440.901,228.914 441.141,228.284 441.141,227.444ZM474.621,260.984C474.621,260.464 474.411,259.954 473.991,259.454C473.571,258.954 473.041,258.704 472.401,258.704C471.801,258.704 471.261,258.904 470.781,259.304C470.181,259.784 469.881,260.424 469.881,261.224C469.881,261.624 470.171,262.094 470.751,262.634C471.331,263.174 471.881,263.444 472.401,263.444C472.881,263.444 473.371,263.214 473.871,262.754C474.371,262.294 474.621,261.704 474.621,260.984ZM440.421,234.584C440.421,234.104 440.141,233.584 439.581,233.024C439.021,232.464 438.461,232.184 437.901,232.184C437.421,232.184 436.881,232.464 436.281,233.024C435.681,233.584 435.381,234.144 435.381,234.704C435.381,235.144 435.661,235.634 436.221,236.174C436.781,236.714 437.341,236.984 437.901,236.984C439.581,236.984 440.421,236.184 440.421,234.584ZM467.661,261.944C467.661,260.464 466.901,259.724 465.381,259.724C464.741,259.724 464.171,259.934 463.671,260.354C463.171,260.774 462.921,261.304 462.921,261.944C462.921,262.464 463.101,262.944 463.461,263.384C463.941,263.944 464.581,264.224 465.381,264.224C466.901,264.224 467.661,263.464 467.661,261.944ZM441.141,241.724C441.141,240.044 440.361,239.204 438.801,239.204C438.121,239.204 437.591,239.484 437.211,240.044C436.831,240.604 436.641,241.164 436.641,241.724C436.641,243.204 437.401,243.944 438.921,243.944C440.401,243.944 441.141,243.204 441.141,241.724ZM460.641,260.984C460.641,260.464 460.461,259.984 460.101,259.544C459.621,258.984 458.961,258.704 458.121,258.704C457.641,258.704 457.151,258.914 456.651,259.334C456.151,259.754 455.901,260.304 455.901,260.984C455.901,261.344 456.081,261.804 456.441,262.364C456.921,263.084 457.481,263.444 458.121,263.444C458.721,263.444 459.291,263.204 459.831,262.724C460.371,262.244 460.641,261.664 460.641,260.984ZM443.901,248.324C443.901,246.764 443.141,245.984 441.621,245.984C441.101,245.984 440.561,246.244 440.001,246.764C439.441,247.284 439.161,247.804 439.161,248.324C439.161,248.844 439.441,249.374 440.001,249.914C440.561,250.454 441.061,250.724 441.501,250.724C443.101,250.724 443.901,249.924 443.901,248.324ZM453.921,258.344C453.921,256.744 453.161,255.944 451.641,255.944C451.201,255.944 450.701,256.164 450.141,256.604C449.461,257.124 449.121,257.704 449.121,258.344C449.121,258.864 449.391,259.384 449.931,259.904C450.471,260.424 451.001,260.684 451.521,260.684C453.121,260.684 453.921,259.904 453.921,258.344ZM448.401,254.084C448.401,253.564 448.201,253.024 447.801,252.464C447.281,251.784 446.641,251.444 445.881,251.444C445.401,251.444 444.911,251.724 444.411,252.284C443.911,252.844 443.661,253.404 443.661,253.964C443.661,254.444 443.861,254.934 444.261,255.434C444.661,255.934 445.201,256.184 445.881,256.184C447.561,256.184 448.401,255.484 448.401,254.084ZM477.381,246.944L469.941,246.944L460.701,233.444L460.701,246.944L453.201,246.944L453.201,221.984L460.581,221.984L469.821,235.484L469.821,221.984L477.381,221.984L477.381,246.944Z" style="fill:rgb(0,163,39);fill-rule:nonzero;"/>
            </g>
            <g transform="matrix(1.85533,0,0,1.85533,64.8152,2129.37)">
                <path d="M265.621,199.904L258.821,199.904C256.314,199.904 254.154,200.731 252.341,202.384C250.314,204.198 249.301,206.571 249.301,209.504L249.301,243.184C249.301,246.118 250.314,248.464 252.341,250.224C254.154,251.878 256.314,252.704 258.821,252.704L275.141,252.704L275.141,240.384L261.621,240.384L261.621,239.264L265.621,239.264C268.501,239.264 270.848,238.251 272.661,236.224C274.314,234.358 275.141,232.171 275.141,229.664L275.141,209.504C275.141,206.998 274.314,204.811 272.661,202.944C270.848,200.918 268.501,199.904 265.621,199.904ZM262.741,226.864L261.621,226.864L261.621,212.304L262.741,212.304L262.741,226.864Z" style="fill:rgb(3,178,239);fill-rule:nonzero;"/>
            </g>
            <g transform="matrix(2.94891,0,0,2.94891,-597.627,1850.93)">
                <path d="M424.281,232.184C422.441,231.424 421.181,231.044 420.501,231.044C419.261,231.044 418.301,231.564 417.621,232.604C416.461,234.284 415.881,237.504 415.881,242.264L415.881,253.604L402.141,253.604L402.141,220.664L415.101,220.664L415.101,223.364C416.741,221.124 418.961,220.004 421.761,220.004C423.641,220.004 425.941,220.704 428.661,222.104L424.281,232.184Z" style="fill:rgb(247,2,1);fill-rule:nonzero;"/>
            </g>
            <g transform="matrix(2.11821,0,0,2.11821,-314.669,2065.37)">
                <path d="M228.201,205.784C228.361,205.984 228.441,206.644 228.441,207.764C228.441,208.844 228.521,209.624 228.681,210.104C229.361,210.464 229.911,210.874 230.331,211.334C230.751,211.794 231.191,212.564 231.651,213.644C232.111,214.724 232.341,216.044 232.341,217.604C231.781,221.084 230.141,224.164 227.421,226.844C228.061,227.404 228.601,227.934 229.041,228.434C229.481,228.934 230.011,229.674 230.631,230.654C231.251,231.634 231.701,233.064 231.981,234.944C232.381,236.584 232.581,238.724 232.581,241.364C232.221,242.764 231.181,244.484 229.461,246.524C229.461,247.404 229.841,248.084 230.601,248.564L232.161,248.684L233.361,248.804C233.361,249.484 233.181,250.064 232.821,250.544C232.421,250.944 231.981,251.144 231.501,251.144L230.121,251.024L228.441,250.544L226.881,250.064L225.681,249.884C223.321,251.244 220.381,251.924 216.861,251.924C215.261,251.924 212.581,251.584 208.821,250.904L207.261,251.324L205.641,251.804L204.441,251.924C203.841,251.924 203.091,251.774 202.191,251.474C201.291,251.174 200.841,250.544 200.841,249.584C200.321,249.584 199.991,249.634 199.851,249.734C199.711,249.834 199.391,250.134 198.891,250.634C198.391,251.134 198.001,251.384 197.721,251.384C197.841,250.104 197.901,248.244 197.901,245.804L197.901,242.834C197.901,241.894 197.941,241.064 198.021,240.344L199.041,242.084C199.161,242.404 199.281,242.684 199.401,242.924C199.521,243.164 199.801,243.584 200.241,244.184C200.681,244.784 201.221,245.304 201.861,245.744L203.361,245.624L205.041,245.504L204.141,245.984C203.661,246.224 203.341,246.484 203.181,246.764C203.621,247.404 204.331,247.954 205.311,248.414C206.291,248.874 207.201,249.104 208.041,249.104L208.461,248.684L208.701,248.264L208.821,247.784C207.981,247.144 207.281,246.484 206.721,245.804L204.681,243.164C204.361,242.644 204.011,242.194 203.631,241.814C203.251,241.434 202.921,241.104 202.641,240.824C199.041,239.264 197.061,237.464 196.701,235.424C196.701,233.944 196.761,232.754 196.881,231.854C197.001,230.954 197.281,230.084 197.721,229.244C198.201,228.564 198.881,228.124 199.761,227.924L202.341,227.144C203.101,226.944 203.541,226.424 203.661,225.584C202.301,224.944 201.121,223.964 200.121,222.644C199.121,221.204 198.421,219.704 198.021,218.144C198.021,217.584 198.031,217.144 198.051,216.824C198.071,216.504 198.141,215.784 198.261,214.664L198.501,212.444C198.501,211.484 197.821,210.804 196.461,210.404C196.301,209.604 196.221,208.224 196.221,206.264L197.061,207.524L198.321,208.964C198.721,209.284 199.221,209.504 199.821,209.624C202.461,206.504 206.581,204.944 212.181,204.944L215.721,205.124C216.161,205.124 216.691,205.184 217.311,205.304C217.931,205.424 218.521,205.524 219.081,205.604L222.141,206.144L225.381,206.684C225.901,206.684 226.441,206.544 227.001,206.264L228.201,205.784ZM223.821,209.624C223.381,209.144 222.841,208.734 222.201,208.394C221.561,208.054 221.091,207.824 220.791,207.704C220.491,207.584 219.961,207.384 219.201,207.104L217.101,206.264C214.061,206.264 211.711,206.344 210.051,206.504C208.391,206.664 207.151,206.854 206.331,207.074C205.511,207.294 204.601,207.644 203.601,208.124C202.601,208.604 201.681,209.524 200.841,210.884C200.241,210.724 199.501,210.284 198.621,209.564L196.941,208.304L196.701,209.324C197.141,209.924 197.641,210.444 198.201,210.884L200.481,212.384C201.441,212.944 202.161,213.424 202.641,213.824C203.121,214.224 203.451,214.544 203.631,214.784C203.811,215.024 204.061,215.404 204.381,215.924C204.701,216.444 204.921,217.014 205.041,217.634C205.161,218.254 205.221,218.924 205.221,219.644C205.221,220.684 205.061,221.864 204.741,223.184C204.421,224.504 204.211,225.394 204.111,225.854C204.011,226.314 203.961,226.644 203.961,226.844C205.161,224.124 205.761,221.484 205.761,218.924C205.761,216.244 204.801,214.084 202.881,212.444L202.881,212.204C203.881,212.724 204.631,213.464 205.131,214.424C205.631,215.384 206.001,216.624 206.241,218.144L206.781,221.024C208.741,221.544 210.361,221.944 211.641,222.224C212.921,222.504 214.041,222.684 215.001,222.764L213.801,221.924C213.281,221.564 212.921,221.164 212.721,220.724C213.801,220.724 214.741,221.064 215.541,221.744C215.541,220.664 215.361,219.964 215.001,219.644L214.761,220.184C214.641,219.784 214.241,219.584 213.561,219.584L212.721,219.584L211.341,219.464C210.541,219.464 209.961,219.284 209.601,218.924C207.881,217.684 207.021,215.704 207.021,212.984C207.261,212.344 207.381,211.624 207.381,210.824C207.381,210.304 207.401,209.914 207.441,209.654C207.481,209.394 207.521,209.124 207.561,208.844C208.521,208.964 209.201,209.384 209.601,210.104C210.121,210.824 210.461,211.624 210.621,212.504L211.161,215.024C211.521,214.184 211.701,213.664 211.701,213.464C211.701,212.824 211.491,211.934 211.071,210.794C210.651,209.654 210.441,208.924 210.441,208.604C210.441,207.764 210.861,207.124 211.701,206.684C211.821,207.204 212.181,207.744 212.781,208.304L214.641,209.744C215.281,210.304 215.761,210.864 216.081,211.424L216.441,209.924C216.481,209.684 216.551,209.384 216.651,209.024C216.751,208.664 216.861,208.334 216.981,208.034C217.101,207.734 217.401,207.484 217.881,207.284C219.801,209.484 221.001,211.384 221.481,212.984C221.521,212.584 221.681,212.224 221.961,211.904C222.121,211.504 222.441,211.104 222.921,210.704L223.821,209.624ZM215.541,212.984C215.541,212.144 215.321,211.484 214.881,211.004C214.521,210.524 213.861,209.904 212.901,209.144L211.161,207.824L210.921,208.604C211.321,208.924 211.601,209.564 211.761,210.524C211.761,210.964 211.791,211.864 211.851,213.224C211.911,214.584 211.941,215.444 211.941,215.804C212.141,216.284 212.641,216.724 213.441,217.124L215.241,218.144C215.801,218.424 216.081,218.924 216.081,219.644L216.261,218.924C215.781,218.084 215.541,216.104 215.541,212.984ZM220.281,213.464C219.841,211.064 219.121,209.604 218.121,209.084C217.281,209.684 216.861,210.464 216.861,211.424L217.101,213.944C217.141,214.584 217.191,215.174 217.251,215.714C217.311,216.254 217.341,216.884 217.341,217.604C218.181,217.164 218.811,216.654 219.231,216.074C219.651,215.494 219.931,215.034 220.071,214.694C220.211,214.354 220.281,213.944 220.281,213.464ZM212.721,218.624C211.721,218.304 211.081,217.604 210.801,216.524L209.961,212.684C209.641,211.364 209.001,210.344 208.041,209.624L208.101,214.244C208.101,214.924 208.121,215.404 208.161,215.684C208.281,216.004 208.341,216.224 208.341,216.344C208.501,216.824 208.761,217.244 209.121,217.604C209.601,218.284 210.801,218.624 212.721,218.624ZM229.221,211.184C228.101,210.664 226.921,210.404 225.681,210.404C224.561,210.404 223.501,211.084 222.501,212.444L222.261,213.404L222.021,214.484C222.021,214.964 222.181,215.344 222.501,215.624L222.501,214.244C222.741,212.684 223.861,211.744 225.861,211.424C226.701,211.424 227.461,211.644 228.141,212.084L230.601,214.244C230.601,215.284 230.521,216.244 230.361,217.124C230.201,218.004 229.911,219.084 229.491,220.364C229.071,221.644 228.461,222.824 227.661,223.904C226.861,224.984 226.321,225.694 226.041,226.034C225.761,226.374 225.281,226.884 224.601,227.564L221.181,231.044L224.901,228.044L227.901,225.284C228.261,224.924 228.641,224.474 229.041,223.934C229.441,223.394 229.881,222.674 230.361,221.774C230.841,220.874 231.141,219.744 231.261,218.384C231.261,216.504 231.141,215.024 230.901,213.944C230.661,212.864 230.101,211.944 229.221,211.184ZM227.421,213.464C227.181,212.624 226.661,212.204 225.861,212.204C225.501,212.204 225.151,212.284 224.811,212.444C224.471,212.604 224.041,212.944 223.521,213.464L223.521,217.004C222.681,217.004 221.821,216.164 220.941,214.484C220.941,215.124 220.801,215.664 220.521,216.104L218.961,217.604C218.721,217.804 218.471,218.064 218.211,218.384C217.951,218.704 217.661,219.114 217.341,219.614C217.021,220.114 216.861,220.824 216.861,221.744C217.061,221.744 217.391,221.574 217.851,221.234C218.311,220.894 218.661,220.724 218.901,220.724C219.181,220.924 219.361,221.084 219.441,221.204C219.441,221.604 219.321,221.924 219.081,222.164L218.121,222.824L217.341,223.304C217.981,223.424 218.581,223.554 219.141,223.694C219.701,223.834 220.501,224.044 221.541,224.324L225.681,225.344L227.001,223.844C227.681,223.164 228.181,222.584 228.501,222.104C228.901,221.664 229.221,221.104 229.461,220.424L229.461,219.494C229.461,219.234 229.541,218.784 229.701,218.144L230.001,216.524C230.001,215.124 229.561,214.104 228.681,213.464C228.601,213.584 228.541,213.704 228.501,213.824C228.461,213.944 228.441,214.084 228.441,214.244C228.401,214.644 228.241,214.904 227.961,215.024C227.801,214.864 227.671,214.674 227.571,214.454C227.471,214.234 227.421,213.904 227.421,213.464ZM203.961,217.004L202.821,215.384C202.381,214.744 202.001,214.294 201.681,214.034C201.361,213.774 201.101,213.594 200.901,213.494C200.701,213.394 200.441,213.304 200.121,213.224L199.821,214.484C200.141,215.844 200.681,216.984 201.441,217.904C202.201,218.824 203.201,219.404 204.441,219.644C204.441,219.204 204.361,218.774 204.201,218.354C204.041,217.934 203.961,217.484 203.961,217.004ZM216.861,216.344C216.861,214.784 216.661,213.824 216.261,213.464L216.261,215.924C216.261,216.404 216.361,216.704 216.561,216.824C216.681,216.584 216.781,216.424 216.861,216.344ZM211.161,215.624L211.281,216.284C211.281,216.364 211.421,216.444 211.701,216.524C211.701,215.924 211.521,215.624 211.161,215.624ZM212.421,228.944L205.041,226.664C204.881,226.784 204.751,226.914 204.651,227.054C204.551,227.194 204.481,227.284 204.441,227.324C204.441,227.524 204.661,227.944 205.101,228.584C205.541,229.224 205.761,229.784 205.761,230.264L203.961,230.264L203.661,231.944L203.301,234.464L203.181,236.264C203.181,238.984 203.801,241.204 205.041,242.924L206.421,244.664C206.981,245.464 207.491,246.074 207.951,246.494C208.411,246.914 208.961,247.184 209.601,247.304C209.481,247.064 209.341,246.764 209.181,246.404C209.021,246.044 208.861,245.724 208.701,245.444L207.801,243.644C206.281,242.724 205.521,241.784 205.521,240.824C206.201,240.824 206.881,241.004 207.561,241.364C207.561,240.964 207.381,240.464 207.021,239.864L206.001,238.244C205.681,237.724 205.521,237.204 205.521,236.684L205.641,236.264C205.801,236.024 205.891,235.884 205.911,235.844C205.931,235.804 205.961,235.744 206.001,235.664C206.601,235.984 207.121,236.844 207.561,238.244C207.561,237.764 207.641,237.364 207.801,237.044L208.041,236.264C208.041,235.704 207.781,235.164 207.261,234.644L207.261,231.524C207.741,231.604 208.001,231.784 208.041,232.064C208.121,232.144 208.191,232.264 208.251,232.424C208.311,232.584 208.421,232.904 208.581,233.384C208.741,233.864 208.921,234.204 209.121,234.404L209.121,234.104C209.521,233.864 209.721,233.564 209.721,233.204L209.601,232.844C209.601,232.564 209.551,232.174 209.451,231.674C209.351,231.174 209.241,230.624 209.121,230.024L210.141,231.044L210.141,230.744C210.141,229.904 209.801,229.484 209.121,229.484L209.121,228.944C209.121,228.624 209.281,228.464 209.601,228.464C210.481,229.104 210.921,230.064 210.921,231.344C211.641,230.704 212.141,229.904 212.421,228.944ZM205.041,228.944C204.321,228.104 203.261,227.684 201.861,227.684C201.541,227.684 201.241,227.704 200.961,227.744C200.681,227.784 200.201,227.924 199.521,228.164C197.801,229.404 196.941,231.224 196.941,233.624C196.941,234.424 197.091,235.124 197.391,235.724C197.691,236.324 198.121,236.914 198.681,237.494C199.241,238.074 199.881,238.604 200.601,239.084C201.321,239.564 202.081,239.984 202.881,240.344L200.961,238.484C200.681,238.164 200.391,237.804 200.091,237.404C199.791,237.004 199.501,236.584 199.221,236.144C198.941,235.704 198.801,235.024 198.801,234.104C198.801,232.064 199.481,230.604 200.841,229.724L202.161,229.604L205.041,229.484L205.041,228.944ZM220.281,230.504C219.961,230.224 219.521,230.034 218.961,229.934C218.401,229.834 218.011,229.744 217.791,229.664C217.571,229.584 217.421,229.524 217.341,229.484L214.581,229.544C214.021,229.624 213.621,229.764 213.381,229.964C213.141,230.164 213.001,230.524 212.961,231.044L215.361,231.104C215.441,231.104 215.531,231.164 215.631,231.284C215.731,231.404 215.801,231.484 215.841,231.524C215.481,232.044 215.021,232.384 214.461,232.544C213.901,232.704 213.521,232.794 213.321,232.814C213.121,232.834 212.741,232.844 212.181,232.844C211.181,233.324 210.601,233.924 210.441,234.644L213.741,234.644C213.581,235.284 213.291,235.704 212.871,235.904C212.451,236.104 211.901,236.264 211.221,236.384C210.541,236.584 210.021,236.834 209.661,237.134C209.301,237.434 209.121,237.984 209.121,238.784L210.321,237.644C210.641,237.324 211.101,237.164 211.701,237.164C211.701,237.684 211.581,238.134 211.341,238.514C211.101,238.894 210.801,239.244 210.441,239.564L209.361,240.524C209.201,240.844 209.121,241.204 209.121,241.604L209.601,241.064C209.761,240.904 210.281,240.824 211.161,240.824C210.761,241.584 210.441,242.134 210.201,242.474C209.961,242.814 209.601,243.044 209.121,243.164C209.481,245.004 210.161,246.124 211.161,246.524C209.521,248.484 207.881,249.764 206.241,250.364C205.681,250.724 205.281,250.904 205.041,250.904C204.601,250.904 203.971,250.684 203.151,250.244C202.331,249.804 201.561,249.584 200.841,249.584C200.841,249.784 201.041,250.044 201.441,250.364L202.101,250.904C203.181,251.224 203.881,251.384 204.201,251.384C205.561,251.384 207.281,250.704 209.361,249.344C210.601,250.384 212.841,250.904 216.081,250.904C215.201,250.904 214.061,250.584 212.661,249.944C211.181,249.384 210.081,249.104 209.361,249.104L210.561,247.484L211.701,246.224L211.341,245.984C211.541,245.784 211.681,245.664 211.761,245.624L212.181,245.204C212.181,243.284 212.581,241.524 213.381,239.924C214.061,238.204 214.961,236.664 216.081,235.304C217.281,233.704 218.681,232.104 220.281,230.504ZM202.401,230.024C201.561,230.024 200.871,230.424 200.331,231.224C199.791,232.024 199.521,232.824 199.521,233.624C199.521,234.784 199.761,235.784 200.241,236.624C200.641,237.504 201.361,238.124 202.401,238.484L202.401,230.024ZM229.761,237.164C228.961,234.804 226.461,232.864 222.261,231.344C218.261,234.184 215.421,237.524 213.741,241.364C214.381,241.364 215.041,241.264 215.721,241.064L217.821,240.104C217.861,240.064 218.171,239.904 218.751,239.624C219.331,239.344 219.861,239.134 220.341,238.994C220.821,238.854 221.461,238.784 222.261,238.784C223.341,238.784 224.321,239.104 225.201,239.744C225.841,240.344 226.521,241.124 227.241,242.084L228.981,244.724C229.501,243.404 229.761,240.884 229.761,237.164ZM213.501,232.064C213.941,232.064 214.281,231.884 214.521,231.524C213.841,231.524 213.501,231.704 213.501,232.064ZM207.801,233.084L208.041,234.104L208.041,233.084L207.801,233.084ZM212.181,234.884L211.101,235.364L210.921,235.664L211.461,235.364C211.621,235.324 211.771,235.244 211.911,235.124C212.051,235.004 212.141,234.924 212.181,234.884ZM210.261,238.544L209.841,238.784C210.161,238.704 210.371,238.614 210.471,238.514C210.571,238.414 210.661,238.354 210.741,238.334C210.821,238.314 210.881,238.284 210.921,238.244C210.761,238.244 210.541,238.344 210.261,238.544ZM226.101,241.364C225.221,240.724 224.311,240.264 223.371,239.984C222.431,239.704 221.401,239.564 220.281,239.564C221.761,239.564 222.881,239.944 223.641,240.704C224.521,241.464 225.201,242.484 225.681,243.764L227.001,247.424C227.361,248.544 227.841,249.444 228.441,250.124L229.461,250.124C230.421,250.124 231.081,250.064 231.441,249.944C231.841,249.944 232.141,249.744 232.341,249.344C230.981,249.344 230.091,249.064 229.671,248.504C229.251,247.944 228.891,247.314 228.591,246.614C228.291,245.914 227.941,245.004 227.541,243.884C227.141,242.764 226.661,241.924 226.101,241.364ZM224.841,243.404C224.441,242.484 223.811,241.784 222.951,241.304C222.091,240.824 221.201,240.584 220.281,240.584C218.961,240.584 218.061,240.924 217.581,241.604L220.761,242.384C222.961,243.544 224.061,244.924 224.061,246.524C223.981,247.004 223.761,247.394 223.401,247.694C223.041,247.994 222.491,248.204 221.751,248.324C221.011,248.444 220.521,248.604 220.281,248.804C220.281,249.284 220.131,249.724 219.831,250.124C219.531,250.524 219.221,250.784 218.901,250.904C220.701,250.664 222.501,250.144 224.301,249.344C225.501,249.104 226.101,248.484 226.101,247.484C226.101,247.004 225.891,246.274 225.471,245.294C225.051,244.314 224.841,243.684 224.841,243.404ZM215.361,242.384C214.321,242.384 213.521,242.444 212.961,242.564C212.961,243.804 213.141,244.424 213.501,244.424L214.461,243.764C215.061,243.444 215.361,242.984 215.361,242.384ZM218.361,242.564L217.521,242.564L216.981,242.504C216.501,242.504 216.261,242.724 216.261,243.164C216.901,243.164 217.351,243.124 217.611,243.044C217.871,242.964 218.051,242.874 218.151,242.774C218.251,242.674 218.321,242.604 218.361,242.564ZM222.801,245.504C222.081,244.264 220.861,243.644 219.141,243.644C218.501,243.644 217.541,243.824 216.261,244.184C216.261,244.584 216.281,244.884 216.321,245.084C216.441,245.284 216.501,245.424 216.501,245.504L217.701,247.904L217.881,249.104L214.761,249.104C214.441,248.944 214.031,248.604 213.531,248.084C213.031,247.564 212.501,247.304 211.941,247.304C212.501,248.584 214.141,249.444 216.861,249.884C217.821,249.604 218.401,249.394 218.601,249.254C218.801,249.114 218.901,248.724 218.901,248.084C219.381,247.564 220.241,247.304 221.481,247.304C221.921,247.304 222.251,247.134 222.471,246.794C222.691,246.454 222.801,246.024 222.801,245.504ZM216.861,248.564L216.021,246.824C215.541,245.824 215.121,245.204 214.761,244.964L214.101,245.504C213.701,245.784 213.501,246.204 213.501,246.764C214.421,247.964 215.541,248.564 216.861,248.564ZM205.041,249.584L204.201,249.464L203.421,249.344C203.421,249.424 203.441,249.494 203.481,249.554C203.521,249.614 203.561,249.664 203.601,249.704L204.261,249.884C204.621,249.884 204.881,249.964 205.041,250.124L205.041,249.584ZM202.401,211.424L201.861,211.304C201.781,211.144 201.721,211.044 201.681,211.004C201.641,210.964 201.621,210.924 201.621,210.884L201.981,211.244L202.401,211.424ZM218.361,221.744L217.881,221.924L218.361,221.744Z" style="fill:rgb(19,33,140);fill-rule:nonzero;"/>
            </g>
            <g transform="matrix(1.92372,0,0,1.92372,-244.16,2111.59)">
                <path d="M246.341,213.264L241.781,213.264C241.141,213.904 240.768,214.411 240.661,214.784C240.341,215.371 240.181,215.878 240.181,216.304C240.181,216.678 241.194,216.864 243.221,216.864C242.528,218.518 241.648,219.904 240.581,221.024C240.101,221.558 239.194,222.478 237.861,223.784C236.528,225.091 234.741,226.811 232.501,228.944C231.434,230.011 230.448,230.998 229.541,231.904C228.634,232.811 227.768,233.718 226.941,234.624C226.114,235.531 225.288,236.451 224.461,237.384C223.634,238.318 222.768,239.344 221.861,240.464C221.754,240.891 221.701,241.078 221.701,241.024C221.701,241.504 222.074,241.798 222.821,241.904C223.141,241.904 223.434,241.824 223.701,241.664C224.074,241.291 224.528,240.811 225.061,240.224C225.594,239.638 226.234,238.918 226.981,238.064C228.528,236.411 230.088,234.798 231.661,233.224C233.234,231.651 234.768,230.198 236.261,228.864C234.928,231.051 233.794,232.944 232.861,234.544C231.928,236.144 231.154,237.598 230.541,238.904C229.928,240.211 229.488,241.411 229.221,242.504C228.954,243.598 228.821,244.704 228.821,245.824C228.821,247.904 229.381,249.571 230.501,250.824C231.621,252.078 232.981,252.704 234.581,252.704C237.248,252.438 240.168,251.184 243.341,248.944C246.514,246.704 249.728,243.664 252.981,239.824C253.301,239.291 253.461,238.758 253.461,238.224C253.461,237.798 253.274,237.584 252.901,237.584C249.434,240.944 246.074,243.798 242.821,246.144C239.514,248.491 237.354,249.664 236.341,249.664C236.181,249.664 236.048,249.611 235.941,249.504C235.781,249.344 235.701,249.104 235.701,248.784C235.701,247.451 236.634,245.118 238.501,241.784C240.368,238.451 242.981,234.038 246.341,228.544C247.034,227.478 247.674,226.438 248.261,225.424C248.848,224.411 249.434,223.451 250.021,222.544C251.141,220.678 251.994,219.304 252.581,218.424C253.168,217.544 253.728,216.864 254.261,216.384C254.528,216.384 255.074,216.371 255.901,216.344C256.728,216.318 258.314,216.278 260.661,216.224C260.981,215.958 261.261,215.571 261.501,215.064C261.741,214.558 261.861,214.118 261.861,213.744C261.861,213.531 261.808,213.371 261.701,213.264C261.168,213.158 260.288,213.104 259.061,213.104C257.888,213.104 256.901,213.078 256.101,213.024C256.954,211.478 257.888,209.864 258.901,208.184C259.914,206.504 260.954,204.544 262.021,202.304L253.541,202.304C252.314,204.171 251.261,205.744 250.381,207.024C249.501,208.304 248.821,209.318 248.341,210.064C247.914,210.811 247.528,211.438 247.181,211.944C246.834,212.451 246.554,212.891 246.341,213.264Z" style="fill:rgb(251,110,47);fill-rule:nonzero;"/>
            </g>
        </g>
    </g>
</svg>
