<?xml version="1.0" encoding="UTF-8" standalone="no"?>
<!DOCTYPE svg PUBLIC "-//W3C//DTD SVG 1.1//EN" "http://www.w3.org/Graphics/SVG/1.1/DTD/svg11.dtd">
<svg width="100%" height="100%" viewBox="0 0 621 223" version="1.1" xmlns="http://www.w3.org/2000/svg" xmlns:xlink="http://www.w3.org/1999/xlink" xml:space="preserve" xmlns:serif="http://www.serif.com/" style="fill-rule:evenodd;clip-rule:evenodd;stroke-linejoin:round;stroke-miterlimit:2;">
    <g transform="matrix(1,0,0,1,-879.143,-1799.2)">
        <g transform="matrix(1,0,0,1.00385,0,-7.79283)">
            <rect x="879.143" y="1800.05" width="620.204" height="221.585" style="fill:rgb(130,130,130);fill-opacity:0;"/>
        </g>
        <g transform="matrix(1,0,0,1,944.059,1614.5)">
            <path d="M222.186,247.001C219.387,250.869 216.379,253.186 213.163,253.954C211.223,254.423 208.977,254.267 206.424,253.486C201.971,252.119 198.911,249.319 197.245,245.087C196.464,243.069 196.073,240.979 196.073,238.818C196.073,236.852 196.392,234.827 197.03,232.744C198.384,228.316 200.669,224.944 203.885,222.626C206.281,220.895 208.892,220.029 211.717,220.029C213.228,220.029 214.797,220.276 216.424,220.771C219.393,221.682 222.076,223.388 224.471,225.888C226.06,227.542 226.854,229.215 226.854,230.908C226.854,231.454 226.77,232.001 226.6,232.548C226.353,233.382 225.845,234.007 225.077,234.423C224.647,234.645 224.172,234.755 223.651,234.755C223.26,234.755 222.837,234.69 222.382,234.56C221.73,234.352 221.307,233.395 221.112,231.689C220.839,229.241 220.552,227.626 220.253,226.845C219.563,224.983 218.273,223.759 216.385,223.173C215.461,222.9 214.569,222.763 213.71,222.763C209.113,222.763 205.663,226.539 203.358,234.091C202.746,236.083 202.44,237.932 202.44,239.638C202.44,241.474 202.792,243.147 203.495,244.658C204.706,247.275 206.737,249.02 209.589,249.892C211.568,250.491 213.628,250.481 215.77,249.863C217.912,249.244 219.771,247.991 221.346,246.103L222.186,247.001Z" style="fill:rgb(19,33,140);fill-rule:nonzero;"/>
            <path d="M223.202,251.337C225.129,250.908 226.561,249.553 227.499,247.275L236.932,224.189L238.358,224.15L248.397,246.552C249.048,247.984 249.628,248.961 250.135,249.482C250.695,250.068 251.464,250.348 252.44,250.322L252.499,251.747L239.335,252.216L239.276,250.771C241.893,250.68 243.176,249.898 243.124,248.427C243.098,247.867 242.915,247.177 242.577,246.357L236.112,230.615L229.374,246.826C229.1,247.75 228.97,248.447 228.983,248.915C229.009,249.632 229.315,250.169 229.901,250.527C230.487,250.885 231.509,251.044 232.967,251.005L233.026,252.431L223.241,252.763L223.202,251.337Z" style="fill:rgb(19,33,140);fill-rule:nonzero;"/>
            <path d="M270.448,218.642C270.474,218.941 270.487,219.228 270.487,219.501C270.487,221.428 269.803,222.451 268.436,222.568C268.007,222.607 266.444,221.448 263.749,219.091C262.447,217.945 261.177,217.431 259.94,217.548C258.625,217.652 257.766,218.421 257.362,219.853C256.932,221.337 256.796,222.952 256.952,224.697L257.733,233.72L264.979,233.095L264.647,235.693L257.967,236.279L259.706,256.201C259.823,257.529 260.109,258.382 260.565,258.759C261.268,259.358 262.811,259.553 265.194,259.345L265.331,260.927L250.37,262.236L250.214,260.654C251.945,260.497 253.078,260.165 253.612,259.658C254.341,258.954 254.621,257.626 254.452,255.673L252.792,236.728L247.635,237.177L247.948,234.579L252.577,234.189L252.186,229.814C252.134,229.163 252.108,228.525 252.108,227.9C252.108,224.905 252.779,222.314 254.12,220.126C255.93,217.197 258.658,215.576 262.303,215.263C264.764,215.042 266.708,215.221 268.133,215.8C269.559,216.38 270.331,217.327 270.448,218.642Z" style="fill:rgb(19,33,140);fill-rule:nonzero;"/>
            <path d="M295.253,239.814C293.586,246.389 290.318,250.107 285.448,250.966C284.146,251.201 282.922,251.318 281.776,251.318C275.096,251.318 271.125,247.731 269.862,240.556C269.706,239.671 269.628,238.805 269.628,237.958C269.628,235.302 270.376,232.757 271.874,230.322C273.801,227.158 276.464,225.276 279.862,224.677C280.839,224.508 281.783,224.423 282.694,224.423C284.699,224.423 286.555,224.84 288.26,225.673C290.747,226.884 292.473,228.896 293.436,231.708L273.69,235.185C273.651,236.253 273.697,237.151 273.827,237.88C274.348,240.836 275.682,243.264 277.831,245.165C279.576,246.715 281.431,247.49 283.397,247.49C283.866,247.49 284.335,247.444 284.803,247.353C287.954,246.806 290.383,245.523 292.089,243.505C293.052,242.372 293.651,241.07 293.885,239.599L295.253,239.814ZM286.268,231.513C285.956,229.768 285.24,228.388 284.12,227.372C282.896,226.253 281.438,225.843 279.745,226.142C278.052,226.441 276.665,227.366 275.585,228.915C274.621,230.283 274.042,231.884 273.846,233.72L286.268,231.513ZM292.382,213.388C292.382,213.857 292.284,214.293 292.089,214.697C291.854,215.152 291.483,215.556 290.975,215.908L281.815,222.275L279.549,222.275L287.792,212.685C288.703,211.63 289.602,211.103 290.487,211.103C291.75,211.103 292.382,211.865 292.382,213.388Z" style="fill:rgb(19,33,140);fill-rule:nonzero;"/>
        </g>
        <g transform="matrix(1,0,0,1,806.303,-800.954)">
            <g transform="matrix(2.88442,0,0,2.88442,-462.869,2051.66)">
                <path d="M221.901,245.204C221.901,243.944 221.696,242.869 221.286,241.979C220.876,241.089 220.321,240.334 219.621,239.714C218.841,239.054 217.901,238.524 216.801,238.124C216.601,238.064 216.406,238.004 216.216,237.944C216.026,237.884 215.821,237.834 215.601,237.794L207.681,235.964C207.281,235.864 206.886,235.739 206.496,235.589C206.106,235.439 205.756,235.229 205.446,234.959C205.136,234.689 204.886,234.354 204.696,233.954C204.506,233.554 204.411,233.054 204.411,232.454C204.411,231.394 204.631,230.549 205.071,229.919C205.511,229.289 206.056,228.799 206.706,228.449C207.356,228.099 208.046,227.869 208.776,227.759C209.506,227.649 210.161,227.594 210.741,227.594C211.521,227.594 212.311,227.689 213.111,227.879C213.911,228.069 214.636,228.379 215.286,228.809C215.936,229.239 216.476,229.814 216.906,230.534C217.336,231.254 217.571,232.154 217.611,233.234L221.121,233.234C221.101,232.934 221.076,232.609 221.046,232.259C221.016,231.909 220.961,231.544 220.881,231.164C220.781,230.724 220.656,230.284 220.506,229.844C220.356,229.404 220.151,228.964 219.891,228.524C219.571,227.964 219.151,227.434 218.631,226.934C218.111,226.434 217.471,225.994 216.711,225.614C215.951,225.234 215.046,224.934 213.996,224.714C212.946,224.494 211.721,224.384 210.321,224.384C208.641,224.384 207.201,224.629 206.001,225.119C204.801,225.609 203.811,226.254 203.031,227.054C202.251,227.854 201.681,228.769 201.321,229.799C200.961,230.829 200.781,231.884 200.781,232.964C200.781,234.164 201.001,235.159 201.441,235.949C201.881,236.739 202.416,237.379 203.046,237.869C203.676,238.359 204.326,238.724 204.996,238.964C205.666,239.204 206.231,239.374 206.691,239.474L212.361,240.794C213.341,241.014 214.166,241.244 214.836,241.484C215.506,241.724 216.071,241.984 216.531,242.264C217.171,242.644 217.621,243.104 217.881,243.644C218.141,244.184 218.271,244.874 218.271,245.714C218.271,246.774 217.991,247.614 217.431,248.234C216.871,248.854 216.181,249.324 215.361,249.644C215.141,250.324 214.886,250.974 214.596,251.594C214.306,252.214 213.981,252.814 213.621,253.394C213.141,254.134 212.601,254.809 212.001,255.419C211.401,256.029 210.731,256.554 209.991,256.994C209.251,257.434 208.436,257.779 207.546,258.029C206.656,258.279 205.681,258.404 204.621,258.404C203.321,258.404 202.141,258.229 201.081,257.879C200.021,257.529 199.116,257.064 198.366,256.484C197.616,255.904 197.041,255.229 196.641,254.459C196.241,253.689 196.041,252.884 196.041,252.044C196.041,251.424 196.101,250.844 196.221,250.304C196.341,249.764 196.571,249.294 196.911,248.894C197.011,249.054 197.161,249.174 197.361,249.254C197.561,249.334 197.741,249.374 197.901,249.374C198.401,249.374 198.791,249.204 199.071,248.864C199.351,248.524 199.491,248.114 199.491,247.634C199.491,247.114 199.306,246.679 198.936,246.329C198.566,245.979 198.011,245.804 197.271,245.804C196.851,245.804 196.471,245.904 196.131,246.104C195.791,246.304 195.496,246.579 195.246,246.929C194.996,247.279 194.806,247.689 194.676,248.159C194.546,248.629 194.481,249.144 194.481,249.704C194.481,251.064 194.716,252.309 195.186,253.439C195.656,254.569 196.321,255.544 197.181,256.364C198.041,257.184 199.076,257.824 200.286,258.284C201.496,258.744 202.831,258.974 204.291,258.974C205.451,258.974 206.601,258.869 207.741,258.659C208.881,258.449 209.976,258.099 211.026,257.609C212.076,257.119 213.061,256.474 213.981,255.674C214.901,254.874 215.721,253.884 216.441,252.704C217.201,252.424 217.911,252.074 218.571,251.654C219.231,251.234 219.806,250.719 220.296,250.109C220.786,249.499 221.176,248.789 221.466,247.979C221.756,247.169 221.901,246.244 221.901,245.204Z" style="fill:rgb(19,33,140);fill-rule:nonzero;"/>
            </g>
            <g transform="matrix(1.64947,0,0,1.64947,-299.32,2362.02)">
                <path d="M435.621,264.404L374.961,264.404L374.961,204.524L435.621,204.524L435.621,264.404ZM426.921,215.204C426.921,213.724 426.161,212.984 424.641,212.984C423.161,212.984 422.421,213.724 422.421,215.204C422.421,216.884 423.161,217.724 424.641,217.724C425.161,217.724 425.671,217.514 426.171,217.094C426.671,216.674 426.921,216.044 426.921,215.204ZM421.401,210.824C421.401,210.304 421.131,209.784 420.591,209.264C420.051,208.744 419.481,208.484 418.881,208.484C418.441,208.484 417.961,208.754 417.441,209.294C416.921,209.834 416.661,210.384 416.661,210.944C416.661,211.464 416.841,211.944 417.201,212.384C417.681,212.944 418.281,213.224 419.001,213.224C420.601,213.224 421.401,212.424 421.401,210.824ZM431.421,220.964C431.421,220.564 431.221,220.084 430.821,219.524C430.341,218.804 429.741,218.444 429.021,218.444C428.301,218.444 427.701,218.784 427.221,219.464C426.821,219.984 426.621,220.444 426.621,220.844C426.621,222.404 427.421,223.184 429.021,223.184C430.621,223.184 431.421,222.444 431.421,220.964ZM414.621,208.184C414.621,207.584 414.401,207.024 413.961,206.504C413.521,205.984 413.001,205.724 412.401,205.724C411.841,205.724 411.281,206.004 410.721,206.564C410.161,207.124 409.881,207.624 409.881,208.064C409.881,208.624 410.101,209.164 410.541,209.684C410.981,210.204 411.601,210.464 412.401,210.464C413.881,210.464 414.621,209.704 414.621,208.184ZM434.121,227.444C434.121,226.964 433.921,226.474 433.521,225.974C433.121,225.474 432.541,225.224 431.781,225.224C431.221,225.224 430.681,225.424 430.161,225.824C429.641,226.224 429.381,226.764 429.381,227.444C429.381,228.124 429.611,228.714 430.071,229.214C430.531,229.714 431.101,229.964 431.781,229.964C432.301,229.964 432.821,229.704 433.341,229.184C433.861,228.664 434.121,228.084 434.121,227.444ZM407.661,207.224C407.661,206.824 407.461,206.344 407.061,205.784C406.541,205.064 405.941,204.704 405.261,204.704C404.781,204.704 404.271,204.984 403.731,205.544C403.191,206.104 402.921,206.664 402.921,207.224C402.921,207.624 403.121,208.104 403.521,208.664C404.041,209.344 404.661,209.684 405.381,209.684C405.901,209.684 406.411,209.464 406.911,209.024C407.411,208.584 407.661,207.984 407.661,207.224ZM434.901,234.704C434.901,233.024 434.141,232.184 432.621,232.184C431.981,232.184 431.451,232.434 431.031,232.934C430.611,233.434 430.401,234.024 430.401,234.704C430.401,235.224 430.581,235.704 430.941,236.144C431.421,236.704 432.021,236.984 432.741,236.984C433.221,236.984 433.701,236.774 434.181,236.354C434.661,235.934 434.901,235.384 434.901,234.704ZM434.121,241.724C434.121,241.364 433.881,240.854 433.401,240.194C432.921,239.534 432.381,239.204 431.781,239.204C431.101,239.204 430.531,239.474 430.071,240.014C429.611,240.554 429.381,241.124 429.381,241.724C429.381,242.204 429.591,242.694 430.011,243.194C430.431,243.694 431.021,243.944 431.781,243.944C432.341,243.944 432.871,243.744 433.371,243.344C433.871,242.944 434.121,242.404 434.121,241.724ZM400.641,208.184C400.641,207.664 400.461,207.184 400.101,206.744C399.621,206.224 398.961,205.964 398.121,205.964C396.641,205.964 395.901,206.704 395.901,208.184C395.901,208.744 396.111,209.264 396.531,209.744C396.951,210.224 397.481,210.464 398.121,210.464C399.801,210.464 400.641,209.704 400.641,208.184ZM393.921,210.824C393.921,210.264 393.711,209.734 393.291,209.234C392.871,208.734 392.321,208.484 391.641,208.484C391.081,208.484 390.521,208.764 389.961,209.324C389.401,209.884 389.121,210.424 389.121,210.944C389.121,211.464 389.341,211.944 389.781,212.384C390.261,212.944 390.881,213.224 391.641,213.224C393.161,213.224 393.921,212.424 393.921,210.824ZM431.421,248.324C431.421,247.804 431.201,247.284 430.761,246.764C430.321,246.244 429.781,245.984 429.141,245.984C428.541,245.984 428.001,246.184 427.521,246.584C426.921,247.064 426.621,247.644 426.621,248.324C426.621,248.884 426.851,249.424 427.311,249.944C427.771,250.464 428.341,250.724 429.021,250.724C429.581,250.724 430.121,250.494 430.641,250.034C431.161,249.574 431.421,249.004 431.421,248.324ZM426.921,253.964C426.921,253.324 426.701,252.744 426.261,252.224C425.821,251.704 425.281,251.444 424.641,251.444C424.041,251.444 423.521,251.714 423.081,252.254C422.641,252.794 422.421,253.364 422.421,253.964C422.421,255.444 423.161,256.184 424.641,256.184C426.161,256.184 426.921,255.444 426.921,253.964ZM429.381,234.464C429.381,227.984 427.001,222.364 422.241,217.604C417.481,212.844 411.821,210.464 405.261,210.464C398.781,210.464 393.181,212.824 388.461,217.544C383.741,222.264 381.381,227.904 381.381,234.464C381.381,240.984 383.661,246.624 388.221,251.384C392.901,256.264 398.581,258.704 405.261,258.704C411.861,258.704 417.561,256.264 422.361,251.384C427.041,246.584 429.381,240.944 429.381,234.464ZM388.401,215.324C388.401,214.764 388.161,214.234 387.681,213.734C387.201,213.234 386.601,212.984 385.881,212.984C385.401,212.984 384.911,213.194 384.411,213.614C383.911,214.034 383.661,214.564 383.661,215.204C383.661,215.604 383.841,216.084 384.201,216.644C384.641,217.364 385.201,217.724 385.881,217.724C386.521,217.724 387.101,217.484 387.621,217.004C388.141,216.524 388.401,215.964 388.401,215.324ZM383.901,220.844C383.901,220.244 383.701,219.694 383.301,219.194C382.901,218.694 382.341,218.444 381.621,218.444C381.101,218.444 380.561,218.724 380.001,219.284C379.441,219.844 379.161,220.404 379.161,220.964C379.161,221.444 379.401,221.934 379.881,222.434C380.361,222.934 380.901,223.184 381.501,223.184C383.101,223.184 383.901,222.404 383.901,220.844ZM421.401,258.344C421.401,257.784 421.181,257.244 420.741,256.724C420.301,256.204 419.721,255.944 419.001,255.944C418.321,255.944 417.761,256.194 417.321,256.694C416.881,257.194 416.661,257.744 416.661,258.344C416.661,258.904 416.881,259.434 417.321,259.934C417.761,260.434 418.321,260.684 419.001,260.684C419.561,260.684 420.101,260.444 420.621,259.964C421.141,259.484 421.401,258.944 421.401,258.344ZM381.141,227.444C381.141,226.964 380.931,226.474 380.511,225.974C380.091,225.474 379.561,225.224 378.921,225.224C377.401,225.224 376.641,225.964 376.641,227.444C376.641,229.124 377.401,229.964 378.921,229.964C379.441,229.964 379.941,229.754 380.421,229.334C380.901,228.914 381.141,228.284 381.141,227.444ZM414.621,260.984C414.621,260.464 414.411,259.954 413.991,259.454C413.571,258.954 413.041,258.704 412.401,258.704C411.801,258.704 411.261,258.904 410.781,259.304C410.181,259.784 409.881,260.424 409.881,261.224C409.881,261.624 410.171,262.094 410.751,262.634C411.331,263.174 411.881,263.444 412.401,263.444C412.881,263.444 413.371,263.214 413.871,262.754C414.371,262.294 414.621,261.704 414.621,260.984ZM380.421,234.584C380.421,234.104 380.141,233.584 379.581,233.024C379.021,232.464 378.461,232.184 377.901,232.184C377.421,232.184 376.881,232.464 376.281,233.024C375.681,233.584 375.381,234.144 375.381,234.704C375.381,235.144 375.661,235.634 376.221,236.174C376.781,236.714 377.341,236.984 377.901,236.984C379.581,236.984 380.421,236.184 380.421,234.584ZM407.661,261.944C407.661,260.464 406.901,259.724 405.381,259.724C404.741,259.724 404.171,259.934 403.671,260.354C403.171,260.774 402.921,261.304 402.921,261.944C402.921,262.464 403.101,262.944 403.461,263.384C403.941,263.944 404.581,264.224 405.381,264.224C406.901,264.224 407.661,263.464 407.661,261.944ZM381.141,241.724C381.141,240.044 380.361,239.204 378.801,239.204C378.121,239.204 377.591,239.484 377.211,240.044C376.831,240.604 376.641,241.164 376.641,241.724C376.641,243.204 377.401,243.944 378.921,243.944C380.401,243.944 381.141,243.204 381.141,241.724ZM400.641,260.984C400.641,260.464 400.461,259.984 400.101,259.544C399.621,258.984 398.961,258.704 398.121,258.704C397.641,258.704 397.151,258.914 396.651,259.334C396.151,259.754 395.901,260.304 395.901,260.984C395.901,261.344 396.081,261.804 396.441,262.364C396.921,263.084 397.481,263.444 398.121,263.444C398.721,263.444 399.291,263.204 399.831,262.724C400.371,262.244 400.641,261.664 400.641,260.984ZM383.901,248.324C383.901,246.764 383.141,245.984 381.621,245.984C381.101,245.984 380.561,246.244 380.001,246.764C379.441,247.284 379.161,247.804 379.161,248.324C379.161,248.844 379.441,249.374 380.001,249.914C380.561,250.454 381.061,250.724 381.501,250.724C383.101,250.724 383.901,249.924 383.901,248.324ZM393.921,258.344C393.921,256.744 393.161,255.944 391.641,255.944C391.201,255.944 390.701,256.164 390.141,256.604C389.461,257.124 389.121,257.704 389.121,258.344C389.121,258.864 389.391,259.384 389.931,259.904C390.471,260.424 391.001,260.684 391.521,260.684C393.121,260.684 393.921,259.904 393.921,258.344ZM388.401,254.084C388.401,253.564 388.201,253.024 387.801,252.464C387.281,251.784 386.641,251.444 385.881,251.444C385.401,251.444 384.911,251.724 384.411,252.284C383.911,252.844 383.661,253.404 383.661,253.964C383.661,254.444 383.861,254.934 384.261,255.434C384.661,255.934 385.201,256.184 385.881,256.184C387.561,256.184 388.401,255.484 388.401,254.084ZM409.101,246.944L401.661,246.944L401.661,221.984L409.101,221.984L409.101,246.944Z" style="fill:rgb(236,58,148);fill-rule:nonzero;"/>
            </g>
            <g transform="matrix(2.2455,0,0,2.2455,-1192.3,2226.92)">
                <path d="M660.801,223.364L672.081,223.304C670.761,218.104 668.961,214.684 666.681,213.044C664.001,211.124 660.221,210.164 655.341,210.164C650.941,210.164 647.401,210.904 644.721,212.384C641.201,214.264 639.441,217.204 639.441,221.204C639.441,224.964 641.481,227.964 645.561,230.204C643.921,230.604 642.661,231.084 641.781,231.644C638.781,233.484 637.281,236.344 637.281,240.224C637.281,242.864 637.961,245.314 639.321,247.574C640.681,249.834 642.561,251.574 644.961,252.794C647.361,254.014 650.561,254.624 654.561,254.624C661.481,254.624 666.421,252.824 669.381,249.224C670.861,247.424 671.701,244.684 671.901,241.004L660.801,240.944C659.961,245.224 657.981,247.364 654.861,247.364C653.101,247.364 651.701,246.704 650.661,245.384C649.741,244.184 649.281,242.684 649.281,240.884C649.281,239.004 649.771,237.494 650.751,236.354C651.731,235.214 653.141,234.644 654.981,234.644C656.581,234.644 657.661,234.724 658.221,234.884L658.221,226.784C657.541,226.904 657.021,226.964 656.661,226.964C655.181,226.964 653.901,226.484 652.821,225.524C651.741,224.564 651.201,223.364 651.201,221.924C651.201,219.044 652.661,217.604 655.581,217.604C658.501,217.604 660.241,219.524 660.801,223.364Z" style="fill:rgb(142,189,31);fill-rule:nonzero;"/>
            </g>
            <g transform="matrix(1.76776,0,0,1.76776,-257.666,2331.36)">
                <path d="M279.656,216.899L270.801,216.899L270.801,263.594L258.151,263.594L258.151,217.009L249.241,217.009L249.241,208.649L279.656,208.649L279.656,216.899ZM276.631,212.334C276.374,212.371 276.154,212.389 275.971,212.389C275.054,212.389 274.578,211.894 274.541,210.904C274.138,212.004 273.386,212.481 272.286,212.334C272.579,212.554 273.001,212.903 273.551,213.379C273.478,213.673 273.368,214.131 273.221,214.754C273.918,214.278 274.339,214.039 274.486,214.039C274.596,214.039 274.999,214.278 275.696,214.754C275.623,214.424 275.476,213.948 275.256,213.324C275.549,213.068 276.008,212.738 276.631,212.334ZM266.291,212.334C266.108,212.371 265.924,212.389 265.741,212.389C264.898,212.389 264.403,211.821 264.256,210.684C263.999,211.968 263.248,212.518 262.001,212.334C262.478,212.591 262.936,212.939 263.376,213.379C263.303,213.673 263.193,214.131 263.046,214.754C263.743,214.278 264.164,214.039 264.311,214.039C264.238,214.039 264.604,214.241 265.411,214.644C265.264,214.351 265.191,214.076 265.191,213.819C265.191,213.159 265.558,212.664 266.291,212.334ZM256.721,212.334L256.226,212.389C255.419,212.389 254.888,211.894 254.631,210.904C254.228,212.004 253.476,212.481 252.376,212.334C252.706,212.518 253.164,212.848 253.751,213.324C253.641,213.618 253.494,214.094 253.311,214.754C254.008,214.278 254.429,214.039 254.576,214.039C254.686,214.039 255.108,214.278 255.841,214.754C255.731,214.424 255.566,213.948 255.346,213.324C255.639,213.068 256.098,212.738 256.721,212.334ZM266.291,223.554C266.108,223.628 265.924,223.664 265.741,223.664C264.898,223.664 264.403,223.078 264.256,221.904C263.999,223.188 263.248,223.738 262.001,223.554C262.294,223.811 262.753,224.178 263.376,224.654C263.303,224.948 263.193,225.388 263.046,225.974C263.706,225.498 264.128,225.259 264.311,225.259C264.238,225.259 264.604,225.479 265.411,225.919C265.301,225.626 265.246,225.351 265.246,225.094C265.246,224.544 265.594,224.031 266.291,223.554ZM266.291,234.829C266.108,234.866 265.924,234.884 265.741,234.884C264.824,234.884 264.329,234.298 264.256,233.124C263.999,234.408 263.248,234.976 262.001,234.829C262.478,235.049 262.936,235.379 263.376,235.819C263.303,236.113 263.193,236.571 263.046,237.194C263.743,236.718 264.164,236.479 264.311,236.479C264.238,236.479 264.604,236.699 265.411,237.139C265.264,236.846 265.191,236.553 265.191,236.259C265.191,235.636 265.558,235.159 266.291,234.829ZM266.291,246.049L265.906,246.049C264.806,246.049 264.219,245.573 264.146,244.619L264.146,244.949C264.146,245.719 263.743,246.104 262.936,246.104C262.789,246.104 262.624,246.086 262.441,246.049L262.001,246.049C262.551,246.489 263.009,246.856 263.376,247.149C263.303,247.443 263.193,247.901 263.046,248.524C263.743,248.084 264.164,247.864 264.311,247.864C264.238,247.864 264.604,248.066 265.411,248.469C265.264,248.176 265.191,247.901 265.191,247.644C265.191,247.021 265.558,246.489 266.291,246.049ZM266.291,257.269L265.906,257.269C265.026,257.269 264.458,256.793 264.201,255.839C264.164,256.829 263.688,257.324 262.771,257.324C262.698,257.324 262.441,257.306 262.001,257.269C262.551,257.673 263.009,258.039 263.376,258.369C263.303,258.699 263.193,259.158 263.046,259.744C263.853,259.231 264.274,258.974 264.311,258.974C264.384,258.974 264.577,259.084 264.889,259.304C265.2,259.524 265.374,259.653 265.411,259.689C265.264,259.396 265.191,259.121 265.191,258.864C265.191,258.241 265.558,257.709 266.291,257.269Z" style="fill:rgb(251,110,47);fill-rule:nonzero;"/>
            </g>
            <g transform="matrix(1.85385,0,0,1.85385,-278.551,2329.34)">
                <path d="M506.421,203.324L506.241,202.064L506.121,200.684L506.061,199.184C506.541,198.704 507.521,198.464 509.001,198.464L509.241,198.944L509.541,199.304L508.701,199.604L508.041,199.964C507.801,200.004 507.581,200.164 507.381,200.444L507.201,201.104C507.201,201.784 507.311,202.654 507.531,203.714C507.751,204.774 507.981,205.844 508.221,206.924L509.241,211.964C509.241,214.484 508.661,216.444 507.501,217.844C508.221,218.844 508.761,219.924 509.121,221.084C509.481,222.244 509.661,223.624 509.661,225.224C509.781,225.464 509.841,225.804 509.841,226.244C509.841,226.804 509.641,227.744 509.241,229.064C508.801,229.544 507.901,230.174 506.541,230.954C505.181,231.734 504.161,232.444 503.481,233.084C502.801,233.724 502.461,234.584 502.461,235.664L504.261,236.504C504.181,237.104 503.161,237.404 501.201,237.404C500.681,236.964 500.421,235.984 500.421,234.464L502.941,232.124C504.341,230.964 505.381,229.814 506.061,228.674C506.741,227.534 507.081,226.084 507.081,224.324C506.761,223.444 505.961,222.304 504.681,220.904C502.401,222.104 500.331,223.024 498.471,223.664C496.611,224.304 494.961,224.624 493.521,224.624L492.921,225.524L494.301,229.544C494.701,230.704 495.121,231.844 495.561,232.964L496.881,236.084C497.041,236.484 497.291,237.024 497.631,237.704C497.971,238.384 498.261,238.924 498.501,239.324C501.301,239.324 503.541,239.504 505.221,239.864C506.901,240.224 508.381,241.024 509.661,242.264C509.301,242.704 509.121,243.204 509.121,243.764C509.241,244.284 509.381,244.644 509.541,244.844L510.201,245.924C510.481,246.404 510.691,246.764 510.831,247.004C510.971,247.244 511.041,247.524 511.041,247.844C511.041,248.324 510.741,248.924 510.141,249.644L506.061,250.904C506.821,252.064 508.321,253.164 510.561,254.204C510.201,254.564 509.801,254.744 509.361,254.744C508.921,254.744 508.341,254.564 507.621,254.204L506.301,253.604C505.621,252.524 504.921,251.864 504.201,251.624C503.481,251.384 502.801,251.204 502.161,251.084C501.521,250.964 500.741,250.904 499.821,250.904L495.501,250.724C495.021,250.724 494.521,250.654 494.001,250.514C493.481,250.374 492.981,250.164 492.501,249.884C490.421,251.164 488.561,251.804 486.921,251.804C485.761,251.804 484.941,251.634 484.461,251.294C483.981,250.954 483.681,250.444 483.561,249.764L483.321,248.144C483.321,247.864 483.361,247.654 483.441,247.514C483.521,247.374 483.601,247.244 483.681,247.124L484.581,246.224C484.141,245.864 483.721,245.684 483.321,245.684C482.641,245.764 481.641,246.124 480.321,246.764L478.341,247.844C476.741,247.844 475.681,248.344 475.161,249.344C475.641,250.504 476.621,251.084 478.101,251.084L478.101,251.384L464.541,251.924L466.281,250.904C467.241,250.424 467.841,249.844 468.081,249.164C468.081,248.404 467.741,247.604 467.061,246.764C466.381,245.924 465.861,245.254 465.501,244.754C465.141,244.254 464.821,243.774 464.541,243.314C464.261,242.854 464.121,242.024 464.121,240.824C464.121,239.904 464.271,239.134 464.571,238.514C464.871,237.894 465.141,237.404 465.381,237.044C465.621,236.684 465.961,236.264 466.401,235.784L467.961,233.804C468.241,233.404 468.381,232.844 468.381,232.124C468.381,231.404 468.081,230.624 467.481,229.784C466.041,227.344 464.951,224.954 464.211,222.614C463.471,220.274 463.101,217.904 463.101,215.504L463.281,213.044L463.521,210.824L464.961,208.244L466.701,205.304C466.981,204.624 467.141,204.184 467.181,203.984C467.221,203.784 467.241,203.464 467.241,203.024C467.241,201.984 466.841,201.104 466.041,200.384L464.301,199.064L464.301,198.764L470.781,198.524L477.741,198.044L484.221,197.744C488.861,197.744 492.781,197.984 495.981,198.464C499.901,199.544 503.381,201.164 506.421,203.324ZM509.361,224.984C509.361,226.424 509.161,227.484 508.761,228.164L507.201,229.604L507.021,226.124L506.601,223.604L506.181,221.564C505.621,220.684 504.811,219.934 503.751,219.314C502.691,218.694 501.381,218.164 499.821,217.724C494.141,217.724 490.521,218.954 488.961,221.414C487.401,223.874 486.541,225.844 486.381,227.324C486.141,228.884 486.021,230.684 486.021,232.724L485.901,228.704L485.721,226.544L485.781,225.944L485.901,225.344C486.261,223.104 487.521,221.074 489.681,219.254C491.841,217.434 494.141,216.284 496.581,215.804C499.221,215.804 501.481,216.114 503.361,216.734C505.241,217.354 506.761,218.524 507.921,220.244C508.881,221.204 509.361,222.784 509.361,224.984ZM467.481,236.864C466.881,237.424 466.521,238.154 466.401,239.054C466.281,239.954 466.221,241.184 466.221,242.744C466.341,243.544 466.811,244.294 467.631,244.994C468.451,245.694 469.301,246.204 470.181,246.524C470.901,246.924 471.821,247.124 472.941,247.124C473.261,247.124 473.541,247.094 473.781,247.034C474.021,246.974 474.181,246.944 474.261,246.944C474.781,246.944 475.291,246.904 475.791,246.824C476.291,246.744 477.041,246.564 478.041,246.284L481.641,245.504C481.001,245.504 479.881,245.604 478.281,245.804L475.161,246.104L474.921,243.464L474.741,240.224L475.581,240.224C475.821,240.544 476.121,240.844 476.481,241.124C476.841,241.404 477.301,241.704 477.861,242.024L480.621,243.704C481.301,244.184 481.741,244.724 481.941,245.324C479.541,247.004 476.781,247.844 473.661,247.844C471.381,247.844 469.421,247.404 467.781,246.524C465.581,244.804 464.361,242.984 464.121,241.064C464.601,237.784 465.401,235.914 466.521,235.454C467.641,234.994 468.281,234.734 468.441,234.674C468.601,234.614 468.901,234.564 469.341,234.524L473.961,234.344C472.481,234.344 471.211,234.564 470.151,235.004C469.091,235.444 468.201,236.064 467.481,236.864ZM483.081,202.484L482.541,202.484L480.861,204.464L479.121,206.684C478.721,207.324 478.421,208.104 478.221,209.024C478.221,211.544 479.161,213.324 481.041,214.364L480.261,211.724C480.261,211.324 480.281,210.964 480.321,210.644C480.361,210.324 480.461,210.024 480.621,209.744C480.741,209.264 480.901,208.814 481.101,208.394C481.301,207.974 481.481,207.604 481.641,207.284L482.721,204.704C482.961,204.024 483.081,203.284 483.081,202.484ZM487.641,210.944C488.441,209.704 488.841,208.244 488.841,206.564C488.841,205.084 488.481,203.804 487.761,202.724C487.681,203.204 487.531,203.684 487.311,204.164C487.091,204.644 486.801,205.124 486.441,205.604L483.561,208.904C482.961,209.504 482.661,210.264 482.661,211.184L482.541,213.884C482.541,214.724 482.241,215.404 481.641,215.924L481.941,215.924C482.181,215.124 482.641,214.504 483.321,214.064L485.721,212.804C486.561,212.364 487.201,211.744 487.641,210.944ZM480.861,203.504C477.461,203.504 475.221,203.884 474.141,204.644L474.741,224.084L477.681,224.084C476.401,223.044 475.641,221.384 475.401,219.104C476.001,219.224 476.461,219.484 476.781,219.884L478.041,221.624L478.821,222.824C479.181,222.504 479.361,221.824 479.361,220.784C479.281,220.304 479.181,219.944 479.061,219.704L478.101,218.264L477.201,216.824C477.121,216.544 477.051,216.304 476.991,216.104C476.931,215.904 476.901,215.704 476.901,215.504L477.501,214.004L478.581,215.024L479.301,216.644L479.841,217.844C480.441,217.284 480.741,216.724 480.741,216.164C480.741,215.684 480.661,215.314 480.501,215.054C480.341,214.794 480.121,214.484 479.841,214.124C479.561,213.764 479.241,213.354 478.881,212.894C478.521,212.434 478.191,211.884 477.891,211.244C477.591,210.604 477.421,210.194 477.381,210.014C477.341,209.834 477.321,209.504 477.321,209.024C477.641,207.024 478.821,205.184 480.861,203.504ZM485.901,205.064C485.661,204.704 485.161,204.524 484.401,204.524C483.401,205.964 482.631,207.264 482.091,208.424C481.551,209.584 481.241,210.684 481.161,211.724L481.461,211.544C481.461,211.184 481.511,210.884 481.611,210.644C481.711,210.404 481.881,210.124 482.121,209.804L484.041,207.584C485.001,206.544 485.621,205.704 485.901,205.064ZM493.281,205.184C492.761,205.744 492.011,207.054 491.031,209.114C490.051,211.174 489.091,212.734 488.151,213.794C487.211,214.854 486.021,215.384 484.581,215.384C485.541,215.744 487.081,215.924 489.201,215.924C490.241,215.404 490.951,214.854 491.331,214.274C491.711,213.694 491.981,213.224 492.141,212.864C492.301,212.504 492.431,212.114 492.531,211.694C492.631,211.274 492.721,210.734 492.801,210.074C492.881,209.414 492.961,208.864 493.041,208.424L493.281,205.184ZM490.341,207.284L489.981,207.284C489.461,209.924 488.041,212.244 485.721,214.244L486.261,214.244C488.341,213.564 489.701,211.244 490.341,207.284ZM500.301,208.604L498.441,208.484L496.221,208.124L494.421,207.884C494.541,208.164 494.741,208.364 495.021,208.484L496.221,208.844L497.001,209.024C498.561,209.024 499.741,208.994 500.541,208.934C501.341,208.874 502.301,208.734 503.421,208.514C504.541,208.294 505.461,207.824 506.181,207.104C504.181,208.104 502.221,208.604 500.301,208.604ZM501.741,210.404L494.421,209.384C493.941,211.824 493.001,213.784 491.601,215.264C490.681,215.824 489.521,216.184 488.121,216.344L483.081,216.524C482.601,216.724 482.241,217.034 482.001,217.454C481.761,217.874 481.641,218.344 481.641,218.864L482.181,218.324L482.961,217.964L483.921,217.604C484.121,217.484 484.341,217.424 484.581,217.424C484.821,217.424 485.201,217.604 485.721,217.964C485.481,218.684 484.681,219.304 483.321,219.824L480.681,221.084C480.241,221.364 480.021,222.064 480.021,223.184L480.861,222.584L481.821,221.864L482.781,221.504C483.061,221.344 483.401,221.264 483.801,221.264C483.801,221.824 483.401,222.424 482.601,223.064C481.801,223.704 481.321,224.124 481.161,224.324L484.521,224.204C485.041,224.124 485.401,224.004 485.601,223.844C485.801,223.684 485.901,223.424 485.901,223.064C487.141,220.424 488.791,218.614 490.851,217.634C492.911,216.654 494.711,215.974 496.251,215.594C497.791,215.214 499.361,215.024 500.961,215.024C501.481,214.424 501.741,212.884 501.741,210.404ZM467.061,225.104C467.061,222.984 467.011,220.244 466.911,216.884C466.811,213.524 466.761,211.544 466.761,210.944C466.081,212.864 465.741,215.324 465.741,218.324C465.741,219.764 465.861,221.034 466.101,222.134C466.341,223.234 466.661,224.224 467.061,225.104ZM499.701,203.624C498.141,201.944 496.321,200.864 494.241,200.384C493.121,200.064 491.961,199.844 490.761,199.724C489.561,199.604 488.061,199.544 486.261,199.544L476.901,199.664C476.261,199.664 475.661,199.894 475.101,200.354C474.541,200.814 474.161,201.444 473.961,202.244C470.041,203.124 467.241,205.044 465.561,208.004C464.961,209.244 464.491,210.594 464.151,212.054C463.811,213.514 463.641,214.964 463.641,216.404C463.641,218.484 463.931,220.484 464.511,222.404C465.091,224.324 465.941,226.284 467.061,228.284C466.221,225.964 465.591,223.964 465.171,222.284C464.751,220.604 464.541,219.124 464.541,217.844C464.541,216.884 464.761,215.484 465.201,213.644C465.201,211.884 465.791,210.254 466.971,208.754C468.151,207.254 469.661,205.944 471.501,204.824C473.341,203.824 475.141,203.084 476.901,202.604C476.861,202.324 476.651,202.154 476.271,202.094C475.891,202.034 475.601,201.904 475.401,201.704C475.641,201.704 476.011,201.724 476.511,201.764C477.011,201.804 477.561,201.884 478.161,202.004L481.041,202.244C481.881,202.124 482.561,201.604 483.081,200.684C483.361,200.964 483.641,201.444 483.921,202.124C484.201,202.804 484.461,203.304 484.701,203.624C485.301,203.624 485.781,203.504 486.141,203.264C486.501,203.024 486.801,202.724 487.041,202.364L487.761,201.584C488.241,201.584 488.541,201.724 488.661,202.004C488.821,202.164 488.941,202.564 489.021,203.204C489.021,203.724 489.091,204.204 489.231,204.644C489.371,205.084 489.621,205.384 489.981,205.544C490.701,205.544 491.471,205.344 492.291,204.944C493.111,204.544 493.921,204.344 494.721,204.344L494.421,206.684L500.541,207.764C500.981,207.764 501.201,207.364 501.201,206.564C500.801,205.204 500.121,204.524 499.161,204.524L499.701,203.624ZM478.701,216.944C478.701,216.584 478.501,216.404 478.101,216.404L478.701,217.604L478.701,216.944ZM499.821,218.864C499.101,218.584 497.941,218.444 496.341,218.444C491.981,219.764 489.481,221.684 488.841,224.204C491.401,224.204 493.661,223.764 495.621,222.884C497.501,222.164 498.901,220.824 499.821,218.864ZM476.421,220.784C476.421,220.984 476.461,221.194 476.541,221.414C476.621,221.634 476.721,221.844 476.841,222.044C477.201,222.404 477.481,222.584 477.681,222.584L476.421,220.784ZM481.461,222.824L482.061,222.164L481.761,222.164L481.461,222.824ZM478.221,228.164L478.221,225.524L474.741,225.224L474.561,233.444C475.561,234.444 476.061,235.244 476.061,235.844L474.861,235.844L475.041,237.884L482.061,243.884C483.381,243.884 484.161,243.684 484.401,243.284L482.721,242.984C482.281,242.904 481.971,242.834 481.791,242.774C481.611,242.714 481.331,242.604 480.951,242.444C480.571,242.284 480.261,242.044 480.021,241.724L480.381,241.544L482.661,241.544C482.541,240.784 482.061,240.224 481.221,239.864L478.701,238.904C477.781,238.544 477.141,238.004 476.781,237.284C477.701,237.284 478.521,237.384 479.241,237.584L480.621,237.884C480.621,236.844 480.241,236.064 479.481,235.544L477.021,234.044C476.021,233.564 475.401,232.884 475.161,232.004C475.801,232.004 476.321,232.084 476.721,232.244C477.121,232.404 477.411,232.514 477.591,232.574C477.771,232.634 477.921,232.744 478.041,232.904L479.001,233.444C479.001,231.524 478.221,230.144 476.661,229.304C475.741,227.904 475.281,226.724 475.281,225.764L478.221,228.164ZM485.001,226.544C484.161,226.024 482.401,225.764 479.721,225.764L479.841,228.704L481.161,226.664C481.401,226.464 481.711,226.304 482.091,226.184C482.471,226.064 482.761,226.004 482.961,226.004C482.961,226.524 482.801,227.034 482.481,227.534C482.161,228.034 481.741,228.504 481.221,228.944L480.021,230.204C479.741,230.524 479.601,230.924 479.601,231.404C479.601,232.004 479.861,232.584 480.381,233.144C480.541,232.824 480.701,232.514 480.861,232.214C481.021,231.914 481.281,231.524 481.641,231.044C482.001,230.564 482.481,230.244 483.081,230.084C483.081,230.804 482.981,231.324 482.781,231.644L481.581,233.684C481.021,234.684 480.741,235.404 480.741,235.844C480.741,236.524 481.181,237.044 482.061,237.404L482.541,236.384L483.321,235.004C483.441,234.804 483.601,234.634 483.801,234.494C484.001,234.354 484.141,234.244 484.221,234.164C484.221,236.204 484.081,237.584 483.801,238.304C483.801,239.544 484.001,240.624 484.401,241.544L485.601,238.604C485.841,238.604 486.001,238.824 486.081,239.264L486.141,242.744L488.181,242.024C488.621,241.824 488.841,241.464 488.841,240.944C487.881,239.904 487.211,238.924 486.831,238.004C486.451,237.084 486.161,236.234 485.961,235.454C485.761,234.674 485.591,233.844 485.451,232.964C485.311,232.084 485.201,231.144 485.121,230.144C485.041,229.144 485.001,227.944 485.001,226.544ZM477.021,227.684C476.821,227.404 476.541,227.264 476.181,227.264L476.421,228.044L477.021,228.764C477.181,228.964 477.441,229.064 477.801,229.064L477.021,227.684ZM481.161,227.564L480.861,228.464L481.161,228.464L481.161,227.564ZM492.921,240.524L486.921,230.624C486.921,233.984 487.641,237.044 489.081,239.804L489.561,240.344L490.581,240.524L492.921,240.524ZM481.641,232.544L481.941,231.884L481.941,231.224L481.641,232.544ZM477.801,233.444L477.201,232.544L476.661,232.544L477.801,233.444ZM486.021,233.324L486.261,234.824L486.621,234.824L486.021,233.024L486.021,233.324ZM507.741,199.064C506.981,199.064 506.601,199.604 506.601,200.684L506.901,200.564C507.061,200.284 507.181,200.004 507.261,199.724C507.341,199.444 507.501,199.224 507.741,199.064ZM501.621,234.824C501.421,234.824 501.221,234.884 501.021,235.004L500.841,235.544L500.721,235.964C500.721,236.284 500.901,236.604 501.261,236.924C501.621,237.244 501.981,237.404 502.341,237.404C502.541,237.284 502.661,237.184 502.701,237.104L502.881,236.864C502.841,236.744 502.661,236.584 502.341,236.384L501.801,235.784C501.681,235.544 501.621,235.224 501.621,234.824ZM467.661,243.284C467.661,241.284 467.561,239.624 467.361,238.304C467.241,238.504 467.161,238.714 467.121,238.934C467.081,239.154 467.061,239.384 467.061,239.624C467.061,241.264 467.261,242.484 467.661,243.284ZM485.601,240.044L485.601,240.704L485.901,240.704L485.901,240.044L485.601,240.044ZM505.041,240.704C504.881,240.704 504.651,240.674 504.351,240.614C504.051,240.554 503.691,240.454 503.271,240.314C502.851,240.174 502.451,240.054 502.071,239.954C501.691,239.854 501.401,239.804 501.201,239.804C500.521,239.804 500.021,239.984 499.701,240.344C499.941,241.144 500.441,241.544 501.201,241.544L503.001,241.184C503.801,240.864 504.481,240.704 505.041,240.704ZM495.561,244.664C495.481,244.144 495.241,243.584 494.841,242.984C494.441,242.384 493.921,241.744 493.281,241.064C492.761,241.064 492.161,241.284 491.481,241.724C491.481,242.204 491.601,242.584 491.841,242.864C491.961,243.144 492.301,243.584 492.861,244.184L493.821,245.204C494.781,245.204 495.361,245.024 495.561,244.664ZM507.321,242.564C506.881,242.244 506.121,242.084 505.041,242.084C504.001,242.084 502.721,242.304 501.201,242.744C501.241,243.304 501.351,243.814 501.531,244.274C501.711,244.734 501.941,245.204 502.221,245.684C502.501,246.164 502.941,246.814 503.541,247.634C504.141,248.454 504.681,249.164 505.161,249.764L506.301,249.584L507.801,249.224C508.081,249.144 508.361,248.884 508.641,248.444C508.641,247.844 508.541,247.424 508.341,247.184C508.221,246.904 508.081,246.664 507.921,246.464C507.761,246.264 507.641,246.104 507.561,245.984L506.901,245.324L507.141,243.944L507.321,242.564ZM493.941,245.804L492.501,244.664C491.581,243.904 490.901,243.394 490.461,243.134C490.021,242.874 489.561,242.744 489.081,242.744C488.281,242.744 487.601,243.124 487.041,243.884C487.281,244.124 487.501,244.344 487.701,244.544C487.901,244.744 488.181,244.964 488.541,245.204L490.941,246.284L492.501,246.944L492.981,246.764L493.641,246.404C493.841,246.284 493.941,246.084 493.941,245.804ZM490.461,247.844L488.181,246.344C486.941,245.464 485.961,244.944 485.241,244.784L484.881,245.324L486.621,245.684C487.061,246.444 487.391,246.874 487.611,246.974C487.831,247.074 488.251,247.214 488.871,247.394C489.491,247.574 490.021,247.724 490.461,247.844ZM507.921,244.664L508.641,245.204L508.221,244.304L507.921,244.664ZM498.381,247.244C498.261,247.124 498.141,247.004 498.021,246.884C497.901,246.764 497.741,246.554 497.541,246.254C497.341,245.954 497.121,245.804 496.881,245.804L496.881,247.844L496.101,247.604C495.781,247.364 495.441,247.244 495.081,247.244L494.841,247.664C494.641,247.704 494.541,247.864 494.541,248.144C496.421,249.024 498.381,249.464 500.421,249.464L498.921,248.924C498.161,248.684 497.681,248.324 497.481,247.844L497.781,247.604C497.941,247.764 498.141,247.844 498.381,247.844L498.381,247.244ZM485.721,246.524L485.181,246.764C484.781,246.924 484.541,247.044 484.461,247.124L483.981,247.424C483.981,248.464 484.061,249.304 484.221,249.944C484.501,250.464 484.921,250.784 485.481,250.904C487.001,250.904 488.441,250.614 489.801,250.034C491.161,249.454 492.161,248.724 492.801,247.844L491.361,248.564C490.761,248.804 490.201,249.014 489.681,249.194C489.161,249.374 488.621,249.464 488.061,249.464C486.501,249.104 485.721,248.124 485.721,246.524ZM494.541,246.944L494.001,247.004L493.641,247.604L493.941,247.604L494.361,247.184L494.541,246.944ZM488.061,247.844C487.581,247.564 487.201,247.424 486.921,247.424C486.921,247.984 487.601,248.264 488.961,248.264L488.061,247.844Z" style="fill:rgb(247,2,1);fill-rule:nonzero;"/>
            </g>
            <g transform="matrix(1.98089,0,0,1.98089,-153.705,2294.36)">
                <path d="M334.691,253.754L327.341,253.824L304.801,226.944L304.801,253.894L292.971,253.964L292.901,205.104L302.421,205.034L323.071,230.164L322.931,204.894L334.691,204.824L334.691,253.754ZM334.341,253.334L334.341,205.174L323.281,205.104L323.421,231.074L302.281,205.384L293.251,205.314L293.321,253.474L304.451,253.544L304.451,225.894L327.481,253.404L334.341,253.334ZM332.451,205.804L324.051,214.204L324.051,209.584L327.761,205.874L332.451,205.804ZM331.611,206.224L327.901,206.154L324.401,209.724L324.401,213.364L331.611,206.224ZM333.641,212.594L324.051,222.184L324.051,217.564L333.641,207.974L333.641,212.594ZM333.291,212.454L333.291,208.814L324.401,217.704L324.401,221.344L333.291,212.454ZM333.641,220.504L324.121,230.024L324.121,225.404L333.641,215.884L333.641,220.504ZM333.291,220.364L333.291,216.724L324.471,225.544L324.471,229.184L333.291,220.364ZM333.641,228.414L319.361,242.694L317.261,240.174L333.641,223.794L333.641,228.414ZM333.291,228.274L333.291,224.634L324.471,233.454L324.471,234.084L324.191,233.734L317.751,240.174L319.431,242.204L333.291,228.274ZM333.641,236.324L323.001,247.034L320.901,244.514L333.641,231.704L333.641,236.324ZM333.291,236.184L333.291,232.544L321.321,244.514L323.001,246.474L333.291,236.184ZM300.531,206.084L293.951,212.664L293.951,208.044L295.911,206.154L300.531,206.084ZM299.691,206.504L296.051,206.434L294.301,208.184L294.301,211.824L299.691,206.504ZM315.581,222.814L308.581,229.814L306.411,227.294L313.481,220.224L315.581,222.814ZM315.161,222.814L313.481,220.784L306.901,227.364L308.581,229.324L315.161,222.814ZM304.871,209.794L294.021,220.644L293.951,216.024L302.771,207.204L304.871,209.794ZM304.381,209.724L302.771,207.764L294.301,216.164L294.371,219.804L304.381,209.724ZM319.151,227.154L312.151,234.154L310.051,231.634L317.051,224.564L319.151,227.154ZM318.731,227.154L317.051,225.124L310.541,231.634L312.221,233.664L318.731,227.154ZM322.721,231.494L315.791,238.494L313.691,235.904L320.621,228.974L322.721,231.494ZM322.301,231.494L320.621,229.464L314.111,235.974L315.791,237.934L322.301,231.494ZM333.641,244.374L326.641,251.374L324.471,248.854L333.641,239.684L333.641,244.374ZM333.291,244.234L333.291,240.524L324.961,248.854L326.641,250.884L333.291,244.234ZM308.441,214.134L294.021,228.554L294.021,223.934L306.341,211.544L308.441,214.134ZM307.951,214.064L306.341,212.104L294.371,224.074L294.371,227.714L307.951,214.064ZM333.641,252.284L333.081,252.774L328.461,252.844L333.641,247.594L333.641,252.284ZM333.291,252.144L333.291,248.434L329.301,252.424L332.941,252.494L333.291,252.144ZM312.011,218.474L304.941,225.544L303.751,224.144L303.751,226.734L294.021,236.464L294.021,231.844L309.911,215.884L312.011,218.474ZM311.521,218.404L309.911,216.444L294.371,231.984L294.371,235.624L303.401,226.594L303.401,223.164L304.941,225.054L311.521,218.404ZM303.751,234.644L294.021,244.374L294.021,239.754L303.751,229.954L303.751,234.644ZM303.401,234.504L303.401,230.794L294.371,239.894L294.371,243.534L303.401,234.504ZM303.751,242.554L294.021,252.284L294.021,247.664L303.751,237.934L303.751,242.554ZM303.401,242.414L303.401,238.774L294.371,247.804L294.371,251.444L303.401,242.414ZM303.751,250.464L301.301,252.914L296.611,252.984L303.751,245.844L303.751,250.464ZM303.401,250.324L303.401,246.684L297.521,252.564L301.161,252.634L303.401,250.324Z" style="fill:rgb(0,163,39);fill-rule:nonzero;"/>
            </g>
            <g transform="matrix(2.41969,0,0,2.41969,-1124.51,2187.67)">
                <path d="M697.041,229.604C697.041,228.124 696.081,227.384 694.161,227.384C693.481,227.384 692.781,227.444 692.061,227.564C691.901,227.204 691.701,226.604 691.461,225.764C691.221,224.924 691.101,223.984 691.101,222.944C691.261,221.744 691.621,220.624 692.181,219.584C692.741,218.544 693.411,217.634 694.191,216.854C694.971,216.074 695.851,215.464 696.831,215.024C697.811,214.584 698.821,214.364 699.861,214.364C700.661,214.444 701.401,214.604 702.081,214.844C702.761,215.084 703.421,215.364 704.061,215.684C705.341,216.364 705.981,217.744 705.981,219.824C705.981,221.344 705.521,222.684 704.601,223.844C703.721,224.964 702.721,225.524 701.601,225.524C701.001,225.524 700.461,225.344 699.981,224.984C699.261,224.464 698.901,223.784 698.901,222.944C698.901,222.104 699.241,221.204 699.921,220.244C700.601,219.284 701.461,218.404 702.501,217.604C702.421,217.604 702.361,217.504 702.321,217.304C702.281,217.104 702.201,217.004 702.081,217.004C701.481,217.084 700.871,217.264 700.251,217.544C699.631,217.824 699.071,218.214 698.571,218.714C698.071,219.214 697.671,219.814 697.371,220.514C697.071,221.214 696.921,222.044 696.921,223.004C696.921,223.964 697.341,224.884 698.181,225.764C699.061,226.644 699.961,227.084 700.881,227.084C701.761,227.084 702.611,226.964 703.431,226.724C704.251,226.484 704.981,226.074 705.621,225.494C706.261,224.914 706.761,224.164 707.121,223.244C707.481,222.324 707.661,221.184 707.661,219.824C707.661,218.624 707.421,217.494 706.941,216.434C706.461,215.374 705.781,214.444 704.901,213.644C704.021,212.844 702.961,212.214 701.721,211.754C700.481,211.294 699.101,211.064 697.581,211.064C695.741,211.064 694.111,211.254 692.691,211.634C691.271,212.014 690.061,212.504 689.061,213.104C688.061,213.704 687.241,214.354 686.601,215.054C685.961,215.754 685.501,216.424 685.221,217.064C684.741,218.104 684.501,219.324 684.501,220.724C684.501,223.324 685.221,225.664 686.661,227.744C684.821,227.904 683.011,228.324 681.231,229.004C679.451,229.684 677.861,230.584 676.461,231.704C675.061,232.824 673.941,234.124 673.101,235.604C672.261,237.084 671.881,238.684 671.961,240.404C671.881,241.964 672.241,243.494 673.041,244.994C673.841,246.494 674.891,247.824 676.191,248.984C677.491,250.144 678.931,251.064 680.511,251.744C682.091,252.424 683.601,252.744 685.041,252.704C686.801,252.704 688.581,252.384 690.381,251.744C692.181,251.104 693.821,250.234 695.301,249.134C696.781,248.034 697.981,246.744 698.901,245.264C699.821,243.784 700.281,242.204 700.281,240.524C700.201,239.284 699.981,238.284 699.621,237.524C699.261,236.764 698.811,236.174 698.271,235.754C697.731,235.334 697.131,235.044 696.471,234.884C695.811,234.724 695.121,234.604 694.401,234.524C693.601,234.524 692.711,234.674 691.731,234.974C690.751,235.274 689.841,235.774 689.001,236.474C688.161,237.174 687.461,238.114 686.901,239.294C686.341,240.474 686.061,241.944 686.061,243.704C686.061,244.144 686.071,244.534 686.091,244.874C686.111,245.214 686.141,245.504 686.181,245.744L686.961,245.864C687.121,245.584 687.311,245.204 687.531,244.724C687.751,244.244 688.001,243.664 688.281,242.984C688.881,241.624 689.421,240.484 689.901,239.564C690.381,238.684 691.011,237.914 691.791,237.254C692.571,236.594 693.501,236.244 694.581,236.204C695.581,236.204 696.451,236.584 697.191,237.344C697.931,238.104 698.321,239.064 698.361,240.224C698.401,241.064 698.111,242.094 697.491,243.314C696.871,244.534 696.021,245.704 694.941,246.824C693.861,247.944 692.561,248.884 691.041,249.644C689.521,250.404 687.881,250.744 686.121,250.664C684.201,250.664 682.561,249.924 681.201,248.444C679.801,246.924 679.041,245.304 678.921,243.584C678.841,242.184 679.181,240.664 679.941,239.024C680.701,237.384 681.611,235.854 682.671,234.434C683.731,233.014 684.841,231.844 686.001,230.924C687.161,230.004 688.121,229.564 688.881,229.604C689.321,229.604 689.701,229.764 690.021,230.084C691.101,231.164 692.421,231.704 693.981,231.704C694.821,231.704 695.541,231.514 696.141,231.134C696.741,230.754 697.041,230.244 697.041,229.604Z" style="fill:rgb(3,178,239);fill-rule:nonzero;"/>
            </g>
        </g>
    </g>
</svg>
